<?xml version="1.0" encoding="utf-8"?>
<!-- Generator: Adobe Illustrator 16.0.0, SVG Export Plug-In . SVG Version: 6.00 Build 0)  -->
<!DOCTYPE svg PUBLIC "-//W3C//DTD SVG 1.1//EN" "http://www.w3.org/Graphics/SVG/1.1/DTD/svg11.dtd">
<svg version="1.1" id="圖層_1" xmlns="http://www.w3.org/2000/svg" xmlns:xlink="http://www.w3.org/1999/xlink" x="0px" y="0px"
	 width="810px" height="130.787px" viewBox="0 0 810 130.787" enable-background="new 0 0 810 130.787" xml:space="preserve">
<g>
	<polygon fill="#F15A24" points="124.26,131.918 82.171,109.732 40.037,131.826 48.129,84.941 14.097,51.695 61.186,44.905 
		82.289,2.263 103.299,44.951 150.375,51.843 116.269,85.018 	"/>
	<polygon fill="#F15A24" points="286.278,130.787 244.19,108.602 202.054,130.695 210.147,83.811 176.116,50.564 223.204,43.774 
		244.307,1.131 265.318,43.82 312.394,50.712 278.287,83.885 	"/>
	<polygon fill="#F15A24" points="448.299,129.656 406.209,107.471 364.073,129.563 372.167,82.679 338.134,49.433 385.224,42.643 
		406.326,0 427.338,42.688 474.414,49.581 440.305,82.754 	"/>
	<g>
		<path fill="#F15A24" d="M568.334,8.406l17.234,35.016l0.98,1.991l2.195,0.321l38.615,5.653l-27.977,27.212l-1.592,1.547
			l0.373,2.188l6.555,38.472l-34.523-18.198l-1.963-1.034l-1.965,1.029l-34.561,18.122l6.639-38.458l0.377-2.186l-1.588-1.551
			l-27.916-27.271l38.625-5.569l2.195-0.317l0.984-1.988L568.334,8.406 M568.344-1.13L547.24,41.512l-47.088,6.79l34.033,33.247
			l-8.092,46.884l42.133-22.093l42.088,22.186l-7.99-46.901l34.107-33.174l-47.076-6.892L568.344-1.13L568.344-1.13z"/>
	</g>
	<g>
		<path fill="#F15A24" d="M730.354,7.273l17.236,35.017l0.979,1.991l2.195,0.321l38.615,5.653l-27.977,27.211l-1.592,1.547
			l0.373,2.188l6.555,38.472l-34.523-18.198l-1.963-1.035l-1.965,1.031l-34.563,18.122l6.639-38.458l0.377-2.186l-1.588-1.551
			l-27.914-27.271l38.625-5.569l2.195-0.317l0.984-1.988L730.354,7.273 M730.363-2.262L709.26,40.381l-47.088,6.79l34.031,33.248
			l-8.092,46.884l42.135-22.094l42.09,22.187l-7.992-46.902l34.107-33.173l-47.076-6.892L730.363-2.262L730.363-2.262z"/>
	</g>
</g>
</svg>
