<svg id="圖層_1" data-name="圖層 1" xmlns="http://www.w3.org/2000/svg" xmlns:xlink="http://www.w3.org/1999/xlink" viewBox="0 0 1920 7322"><defs><style>.cls-1{fill:url(#未命名漸層_59);}.cls-2{opacity:0.1;}.cls-3{fill:#fff;}.cls-4{opacity:0.2;}</style><linearGradient id="未命名漸層_59" x1="3" y1="3661" x2="1920" y2="3661" gradientUnits="userSpaceOnUse"><stop offset="0" stop-color="#80d0c7"/><stop offset="0" stop-color="#82d0c6"/><stop offset="0" stop-color="#89cfc4"/><stop offset="0" stop-color="#94cec1"/><stop offset="0" stop-color="#a5ccbc"/><stop offset="0" stop-color="#bbcab5"/><stop offset="0" stop-color="#d7c7ac"/><stop offset="0" stop-color="#f6c4a3"/><stop offset="0" stop-color="#ffc3a0"/><stop offset="1" stop-color="#ffafbd"/></linearGradient></defs><title>index_bgc_evening</title><g id="bgc"><rect class="cls-1" x="3" width="1917" height="7322"/><g class="cls-2"><path class="cls-3" d="M0,1896c108,5.34,215.65-12.36,323.5-20s219-4.47,319.65,40.37c7.76,3.45,15.83,7.55,22.06,13.63,4.69,4.59,3.15,13.31-2.7,15.61-42.7,16.81-89.78,14.24-135.29,14.74A922.44,922.44,0,0,0,298,1992.1c-13.62,3.66-30.83,14-26.37,29.77a19.33,19.33,0,0,0,4.85,8.26c14.25,14.6,34.63,14.9,53.36,14.51q181-3.75,361.41-22.57c139.56-14.56,283.8-35.31,417.84,8.07,7.47,2.42,7,14.74-.69,16.21-41,7.9-85.52-9-128.39-10.72-59.22-2.43-118.91,26.35-158.53,76.75a19.87,19.87,0,0,0-4.23,10.91c-1,16.05,18,19.46,31.28,17.49,71.14-10.51,142.13-25.23,213.86-25.65,63.21-.37,128,11.19,183.81,44.28,11.73,7,10.73,26.53-1.59,32-11.46,5.08-24.18,7.57-36.42,9.38-124.71,18.53-250.94-1.74-376.55-8.68-143.3-7.92-287.17,1.54-430.2-11.15-141.74-12.59-265.3-53.52-401.12-5.58" transform="translate(0)"/></g><g class="cls-2"><path class="cls-3" d="M1920,1243.29c-160.1,26.76-367.45-16.87-529.77-15.9-41.78.25-85.42,4.17-120.15,28.26a38.06,38.06,0,0,0-11.14,11.57c-13.56,22.69,6.35,42.82,25.87,53.16,55,29.1,120.72,24.79,182.85,22.33a2237,2237,0,0,1,259.83,4.82c25.15,1.93,53.93,6.44,67.19,27.9-108.05,52.58-244,7.23-354,52.49-9,3.71-9.85,16.43-1.27,21.06,10.19,5.49,23.82,7,35.81,7.4l210.6,7.16c68,2.31,138,5,199.3,36a33.44,33.44,0,0,1,18,23.47c3.39,18.4-11.55,28.12-25.35,34.72-72.37,34.62-155.72,38.15-235.57,36.7-9.29-.17-18.34,3.93-23.68,11.54-11,15.67,2.09,30.71,15.6,38.42,30.2,17.22,66.89,16.59,101.65,17.47A916.18,916.18,0,0,1,1920,1685.36" transform="translate(0)"/></g><g class="cls-2"><path class="cls-3" d="M1920,2607.29c-382.29,33.47-877.39-21.1-1265-19.89-99.76.31-204,5.22-286.89,35.36-10.6,3.85-20,8.67-26.6,14.47-32.38,28.39,15.15,53.58,61.78,66.51,131.22,36.4,288.24,31,436.61,27.94,206.8-4.29,414.08-2.27,620.42,6,60.07,2.42,128.78,8.06,160.44,34.91-258,65.78-582.71,9.05-845.15,65.67-21.53,4.64-23.53,20.56-3,26.34,24.33,6.86,56.88,8.75,85.5,9.26l502.86,9c162.42,2.89,329.52,6.31,475.9,45.06,22.07,5.84,38.56,16.62,43.05,29.36,8.1,23-27.58,35.18-60.53,43.44-172.81,43.31-371.83,47.73-562.49,45.92-22.18-.21-43.79,4.92-56.53,14.44-26.25,19.6,5,38.42,37.23,48.06,72.11,21.55,159.73,20.76,242.72,21.86A4092.13,4092.13,0,0,1,1920,3160.38" transform="translate(0)"/></g><g class="cls-2"><path class="cls-3" d="M0,3608c147.77,8.13,295.16-18.79,442.79-30.32s299.7-6.78,437.51,61.36c10.62,5.25,21.66,11.48,30.19,20.73,6.42,7,4.31,20.23-3.68,23.72-58.46,25.56-122.9,21.64-185.19,22.4A1145.36,1145.36,0,0,0,407.87,3754c-18.65,5.57-42.19,21.32-36.1,45.26a30.51,30.51,0,0,0,6.63,12.56c19.51,22.18,47.4,22.64,73.05,22q247.73-5.7,494.68-34.31c191-22.14,388.44-53.68,571.92,12.27,10.22,3.67,9.52,22.4-1,24.64-56.13,12-117-13.63-175.72-16.3-81.06-3.69-162.77,40.06-217,116.67a32.08,32.08,0,0,0-5.78,16.58c-1.4,24.41,24.59,29.58,42.8,26.59,97.37-16,194.53-38.36,292.72-39,86.52-.56,175.23,17,251.6,67.31,16,10.57,14.69,40.32-2.18,48.62-15.69,7.72-33.09,11.51-49.85,14.27-170.69,28.15-343.48-2.64-515.4-13.2-196.14-12-393.06,2.34-588.83-17-194-19.12-363.12-81.34-549-8.48" transform="translate(0)"/></g><g class="cls-2"><path class="cls-3" d="M3,515.89c154.72,7.28,309-16.83,463.61-27.16s313.79-6.08,458.08,55c11.12,4.7,22.68,10.28,31.61,18.57,6.72,6.24,4.51,18.12-3.86,21.25-61.2,22.89-128.67,19.38-193.89,20.06a1387.43,1387.43,0,0,0-328.5,43.12c-19.53,5-44.18,19.1-37.8,40.54a26.19,26.19,0,0,0,6.95,11.25c20.43,19.87,49.63,20.28,76.48,19.75Q735,713.12,993.61,687.5c200-19.83,406.7-48.08,598.8,11,10.7,3.29,10,20.07-1,22.07-58.77,10.75-122.55-12.21-184-14.6-84.87-3.31-170.42,35.88-227.2,104.5a26.23,26.23,0,0,0-6,14.85c-1.46,21.86,25.75,26.49,44.82,23.82,102-14.31,203.68-34.36,306.48-34.93,90.59-.5,183.47,15.24,263.42,60.29,16.81,9.47,15.38,36.12-2.28,43.55-16.43,6.92-34.65,10.31-52.2,12.78C1555.71,956,1374.8,928.45,1194.79,919c-205.36-10.78-411.53,2.09-616.51-15.19C375.16,886.68,198.09,831,3.44,896.22" transform="translate(0)"/></g><g class="cls-2"><path class="cls-3" d="M0,4657c94.64,5.26,189-12.15,283.6-19.6s192-4.39,280.21,39.67c6.8,3.39,13.87,7.42,19.34,13.4,4.11,4.51,2.76,13.08-2.36,15.34-37.44,16.52-78.72,14-118.61,14.48a727.08,727.08,0,0,0-200.95,31.12c-11.94,3.6-27,13.79-23.12,29.27a19.69,19.69,0,0,0,4.25,8.12c12.49,14.34,30.35,14.63,46.78,14.25q158.67-3.68,316.83-22.18c122.34-14.32,248.79-34.71,366.3,7.93,6.55,2.37,6.1,14.48-.61,15.93-35.95,7.76-75-8.81-112.54-10.54-51.92-2.38-104.25,25.9-139,75.44a20.89,20.89,0,0,0-3.71,10.72c-.89,15.78,15.75,19.12,27.42,17.19,62.36-10.33,124.59-24.8,187.48-25.21,55.41-.36,112.23,11,161.14,43.52,10.28,6.83,9.41,26.07-1.4,31.43-10,5-21.19,7.44-31.92,9.23-109.33,18.2-220-1.71-330.11-8.54-125.62-7.78-251.74,1.52-377.13-11-124.25-12.36-232.56-52.59-351.63-5.48" transform="translate(0)"/></g><g class="cls-2"><path class="cls-3" d="M1920,5691.84c-382.29,33.47-877.39-21.1-1265-19.89-99.76.31-204,5.22-286.89,35.36-10.6,3.85-20,8.67-26.6,14.47-32.38,28.39,15.15,53.58,61.78,66.51,131.22,36.4,288.24,31,436.61,27.94,206.8-4.29,414.08-2.27,620.42,6,60.07,2.42,128.78,8.06,160.44,34.91-258,65.78-582.71,9.05-845.15,65.67-21.53,4.64-23.53,20.56-3,26.34,24.33,6.86,56.88,8.75,85.5,9.26l502.86,9c162.42,2.89,329.52,6.31,475.9,45.06,22.07,5.84,38.56,16.62,43.05,29.36,8.1,23-27.58,35.18-60.53,43.44-172.81,43.31-371.83,47.73-562.49,45.92-22.18-.21-43.79,4.92-56.53,14.44-26.25,19.6,5,38.42,37.23,48.06,72.11,21.55,159.73,20.76,242.72,21.86A4092.13,4092.13,0,0,1,1920,6244.93" transform="translate(0)"/></g><g class="cls-2"><path class="cls-3" d="M0,6708.24c142.63,6.07,284.9-14,427.39-22.64s289.28-5.06,422.3,45.82c10.25,3.92,20.91,8.57,29.14,15.48a10.34,10.34,0,0,1-3.55,17.71c-56.43,19.09-118.63,16.16-178.75,16.73a1407.14,1407.14,0,0,0-302.84,35.95c-18,4.16-40.73,15.92-34.85,33.8a21.82,21.82,0,0,0,6.4,9.38c18.83,16.56,45.75,16.9,70.51,16.46q239.12-4.24,477.48-25.62c184.38-16.53,374.93-40.08,552,9.16,9.87,2.74,9.19,16.73-.92,18.4-54.17,9-113-10.17-169.6-12.17-78.25-2.75-157.11,29.92-209.46,87.13a20.75,20.75,0,0,0-5.58,12.38c-1.35,18.22,23.74,22.09,41.31,19.85,94-11.92,187.77-28.64,282.55-29.11,83.51-.42,169.13,12.71,242.85,50.26,15.49,7.89,14.18,30.11-2.11,36.31-15.14,5.76-31.94,8.59-48.11,10.65-164.76,21-331.54-2-497.48-9.85-189.32-9-379.39,1.74-568.36-12.67-187.25-14.28-350.49-60.74-529.93-6.33" transform="translate(0)"/></g></g><g id="bgc_seegull"><path class="cls-4" d="M848.87,1046a164,164,0,0,1-33.37-.4c-26.37-2.83-52.41-7.76-77.52-16.18-24.17-8.11-49-14.32-72-25.88-6.15-3.09-13.19-4.43-20.52-6.8-4,1.5-8.37,3.45-13,4.82a27,27,0,0,1-8.09.76,29.1,29.1,0,0,1-6.29-1.09c-8.34-2-16.13-1.7-22.49,5.35,2.29.64,4.84,1,7,2.06s5.55,2.62,5.66,4.16c.58,8.18,7.81,12.07,11.79,18.88-5.18,1.75-9.41,2.54-13.74-.67-4.77-3.54-11.16-4.94-14-11.07-.49-1-2.65-1.26-4-2-3.66-1.94-7.3-3.94-11.21-6-8,1.39-16.68,3.86-25.39,4.14-12.06.39-24.19-.65-36.26-1.52a196.27,196.27,0,0,1-20.72-2.9c-8.33-1.5-15.24-5.77-21.46-11.46-9.74-8.93-20.46-14.16-34-8.46-3.48,1.47-7.42,2.72-11.39-.57a13,13,0,0,1,8.83-8.67,41.45,41.45,0,0,0,19.88-13.72c5.16-6.25,12-11.23,20.53-12.95,1.07-.21,2-1,3.73-1.83a130.28,130.28,0,0,0-30.08-22.89c-19.31-10.53-39.88-17.8-61.42-22.82-15.61-3.63-30.69-9.48-46-14.22-4.36-1.34-8.84-2.27-13.27-3.39-29.53-7.44-58.65-16.19-85.58-30.73-7.69-4.15-14.44-10.13-21.37-15.6-2.22-1.75-3.63-4.52-5.41-6.83l.93-1.86c6.44,1,13,1.49,19.3,3.22a271.21,271.21,0,0,1,29.9,9.78c27.11,11,55.4,18.21,83.48,25.94,23.7,6.53,47.84,11.59,72,16.37,24.57,4.87,46.9,15.08,68.59,26.88,14.43,7.86,28,17.32,42.46,25.1,11.2,6,22.87,11.58,34.94,15.41,8.51,2.69,18.05,2.89,27.13,2.89,15.11,0,29.68,3.15,44.25,6.24,13.94,3,27.82,6.34,41.45,10.46,8.63,2.61,16.86,6.68,25.08,10.5,21.19,9.85,42,20.58,63.46,29.74,23.18,9.89,46.91,18.49,71.9,23a49.78,49.78,0,0,1,6.57,2.13Z" transform="translate(0)"/><path class="cls-4" d="M1577.92,588.07a53.94,53.94,0,0,1-11-.13,120.78,120.78,0,0,1-25.56-5.33c-8-2.68-16.17-4.73-23.75-8.54a49.14,49.14,0,0,0-6.76-2.24c-1.3.5-2.76,1.14-4.27,1.59a8.82,8.82,0,0,1-2.67.25,9.26,9.26,0,0,1-2.07-.36c-2.75-.67-5.32-.56-7.42,1.77a14.73,14.73,0,0,1,2.33.67c.71.34,1.83.87,1.87,1.38.19,2.69,2.57,4,3.88,6.22-1.7.58-3.1.84-4.53-.22s-3.68-1.63-4.62-3.65c-.16-.34-.87-.41-1.31-.65-1.21-.64-2.41-1.29-3.7-2a61.42,61.42,0,0,1-8.37,1.37,116.69,116.69,0,0,1-12-.51,63,63,0,0,1-6.83-1,14.22,14.22,0,0,1-7.07-3.78c-3.22-2.94-6.75-4.67-11.22-2.79-1.15.48-2.45.9-3.75-.19a4.27,4.27,0,0,1,2.91-2.86,13.61,13.61,0,0,0,6.55-4.52,11.86,11.86,0,0,1,6.77-4.27,5.93,5.93,0,0,0,1.23-.61,42.77,42.77,0,0,0-9.92-7.54,80,80,0,0,0-20.25-7.53c-5.14-1.19-10.12-3.12-15.18-4.68-1.44-.45-2.91-.75-4.37-1.12-9.74-2.45-19.34-5.34-28.22-10.13a51.45,51.45,0,0,1-7.05-5.15,11.69,11.69,0,0,1-1.78-2.25l.3-.61a58.36,58.36,0,0,1,6.37,1.06,89.38,89.38,0,0,1,9.86,3.22c8.94,3.63,18.26,6,27.52,8.56,7.82,2.15,15.77,3.82,23.73,5.39s15.46,5,22.62,8.87c4.75,2.59,9.23,5.71,14,8.27a67.12,67.12,0,0,0,11.52,5.08,29.94,29.94,0,0,0,8.94,1c5,0,9.79,1,14.59,2,4.6,1,9.17,2.09,13.67,3.45a64,64,0,0,1,8.27,3.47c7,3.24,13.84,6.78,20.92,9.8a109.74,109.74,0,0,0,23.71,7.57,17,17,0,0,1,2.16.71Z" transform="translate(0)"/><path class="cls-4" d="M1352.94,2207.57a135.45,135.45,0,0,0,27.08-.32c21.39-2.24,42.51-6.16,62.88-12.84,19.61-6.43,39.78-11.37,58.43-20.53,5-2.46,10.69-3.52,16.64-5.4,3.2,1.19,6.79,2.73,10.51,3.82a22.44,22.44,0,0,0,6.56.61,24.31,24.31,0,0,0,5.1-.87c6.77-1.61,13.08-1.35,18.24,4.25a35.39,35.39,0,0,0-5.72,1.63c-1.74.81-4.5,2.08-4.59,3.31-.47,6.48-6.33,9.57-9.56,15,4.2,1.39,7.64,2,11.15-.52,3.87-2.82,9-3.93,11.37-8.79.4-.83,2.15-1,3.23-1.56,3-1.54,5.92-3.12,9.09-4.8,6.53,1.1,13.54,3.07,20.6,3.29,9.78.31,19.63-.52,29.42-1.21a164.76,164.76,0,0,0,16.81-2.3c6.75-1.19,12.36-4.58,17.4-9.1,7.91-7.08,16.61-11.23,27.6-6.71,2.82,1.16,6,2.16,9.23-.45a10.42,10.42,0,0,0-7.15-6.88,33.68,33.68,0,0,1-16.13-10.89,29.31,29.31,0,0,0-16.66-10.28,15.61,15.61,0,0,1-3-1.45,104.91,104.91,0,0,1,24.4-18.16,198.66,198.66,0,0,1,49.83-18.12c12.66-2.88,24.89-7.52,37.35-11.28,3.53-1.07,7.17-1.81,10.76-2.69,24-5.91,47.58-12.85,69.43-24.39,6.24-3.3,11.71-8,17.33-12.38,1.8-1.39,3-3.59,4.4-5.43l-.76-1.47c-5.23.82-10.58,1.19-15.66,2.55a224.46,224.46,0,0,0-24.26,7.76c-22,8.73-44.94,14.46-67.72,20.6-19.22,5.17-38.81,9.19-58.38,13-19.93,3.87-38.05,12-55.64,21.34-11.71,6.23-22.71,13.74-34.45,19.92a168.51,168.51,0,0,1-28.34,12.22c-6.91,2.15-14.65,2.3-22,2.3-12.25,0-24.07,2.5-35.89,4.95-11.31,2.35-22.57,5-33.63,8.31-7,2.07-13.68,5.3-20.35,8.33-17.18,7.82-34.06,16.33-51.48,23.6-18.8,7.85-38,14.68-58.32,18.23a41.17,41.17,0,0,0-5.33,1.69Z" transform="translate(0)"/><path class="cls-4" d="M494.42,2534.53a63.39,63.39,0,0,1-12.77-.15,139.9,139.9,0,0,1-29.64-6.19c-9.24-3.1-18.74-5.48-27.53-9.89-2.35-1.19-5-1.7-7.84-2.61-1.52.58-3.2,1.32-5,1.85a10.61,10.61,0,0,1-3.09.29,11.09,11.09,0,0,1-2.4-.42c-3.19-.77-6.17-.65-8.6,2.05a16.17,16.17,0,0,1,2.69.78c.82.39,2.12,1,2.17,1.6.22,3.12,3,4.61,4.5,7.21-2,.67-3.6,1-5.25-.25-1.83-1.36-4.27-1.89-5.36-4.24-.19-.39-1-.48-1.52-.75-1.4-.74-2.79-1.5-4.29-2.31-3.08.53-6.38,1.48-9.71,1.59a133.86,133.86,0,0,1-13.86-.59,75.77,75.77,0,0,1-7.92-1.1,16.45,16.45,0,0,1-8.21-4.39c-3.72-3.41-7.82-5.41-13-3.23-1.33.56-2.84,1-4.36-.22a5,5,0,0,1,3.38-3.32,15.85,15.85,0,0,0,7.6-5.24,13.73,13.73,0,0,1,7.85-4.95,7.21,7.21,0,0,0,1.43-.7,49.84,49.84,0,0,0-11.5-8.75,92.48,92.48,0,0,0-23.49-8.73c-6-1.39-11.74-3.62-17.61-5.44-1.66-.51-3.37-.86-5.07-1.29-11.29-2.85-22.42-6.19-32.72-11.75a59.48,59.48,0,0,1-8.17-6,14.07,14.07,0,0,1-2.07-2.61l.36-.71a70.11,70.11,0,0,1,7.38,1.23,103.8,103.8,0,0,1,11.43,3.74c10.37,4.2,21.18,7,31.92,9.92,9.06,2.49,18.29,4.43,27.51,6.26,9.4,1.86,17.94,5.76,26.23,10.28,5.52,3,10.7,6.62,16.23,9.59a78.18,78.18,0,0,0,13.36,5.89,34.55,34.55,0,0,0,10.38,1.11c5.77,0,11.35,1.2,16.92,2.39,5.32,1.12,10.63,2.42,15.84,4a72.8,72.8,0,0,1,9.59,4c8.1,3.77,16.06,7.87,24.27,11.37,8.86,3.78,17.94,7.07,27.49,8.78a19.35,19.35,0,0,1,2.51.82Z" transform="translate(0)"/><path class="cls-4" d="M799,3767a86.64,86.64,0,0,0,17.19-.2,192.44,192.44,0,0,0,39.93-8.16c12.45-4.08,25.26-7.21,37.09-13,3.17-1.56,6.79-2.24,10.57-3.43,2,.75,4.31,1.73,6.67,2.43a14.52,14.52,0,0,0,4.17.38,15.8,15.8,0,0,0,3.24-.55c4.29-1,8.3-.86,11.58,2.7a22.33,22.33,0,0,0-3.63,1c-1.11.51-2.86,1.32-2.92,2.1-.3,4.12-4,6.08-6.07,9.51,2.67.88,4.85,1.28,7.08-.33,2.46-1.79,5.75-2.5,7.22-5.58.25-.53,1.36-.64,2.05-1,1.89-1,3.76-2,5.77-3,4.15.7,8.6,1.95,13.08,2.09a185.34,185.34,0,0,0,18.68-.77,104,104,0,0,0,10.67-1.46,22.19,22.19,0,0,0,11.05-5.78c5-4.49,10.54-7.13,17.52-4.26,1.79.74,3.82,1.37,5.87-.29a6.63,6.63,0,0,0-4.55-4.36,21.46,21.46,0,0,1-10.24-6.91,18.55,18.55,0,0,0-10.57-6.53,9.44,9.44,0,0,1-1.92-.93,66.84,66.84,0,0,1,15.49-11.52,125.72,125.72,0,0,1,31.64-11.5c8-1.83,15.8-4.78,23.71-7.17,2.24-.68,4.55-1.15,6.83-1.71,15.21-3.75,30.21-8.16,44.08-15.48,4-2.1,7.44-5.11,11-7.86a18.63,18.63,0,0,0,2.79-3.45l-.48-.93a94.19,94.19,0,0,0-10,1.62,140,140,0,0,0-15.4,4.93c-14,5.54-28.53,9.18-43,13.07-12.21,3.29-24.64,5.84-37.07,8.25-12.65,2.45-24.16,7.59-35.33,13.54-7.43,4-14.42,8.73-21.87,12.65a107.55,107.55,0,0,1-18,7.76c-4.39,1.36-9.3,1.46-14,1.46-7.78,0-15.28,1.59-22.79,3.14-7.18,1.49-14.33,3.2-21.35,5.28A100.14,100.14,0,0,0,872,3738c-10.91,5-21.62,10.36-32.68,15-11.94,5-24.16,9.32-37,11.57a26.15,26.15,0,0,0-3.39,1.08Z" transform="translate(0)"/><path class="cls-4" d="M899.87,5028a164,164,0,0,1-33.37-.4c-26.37-2.83-52.41-7.76-77.52-16.18-24.17-8.11-49-14.32-72-25.88-6.15-3.09-13.19-4.43-20.52-6.8-4,1.5-8.37,3.45-13,4.82a27,27,0,0,1-8.09.76,29.1,29.1,0,0,1-6.29-1.09c-8.34-2-16.13-1.7-22.49,5.35,2.29.64,4.84,1,7,2.06s5.55,2.62,5.66,4.16c.58,8.18,7.81,12.07,11.79,18.88-5.18,1.75-9.41,2.54-13.74-.67-4.77-3.54-11.16-4.94-14-11.07-.49-1-2.65-1.26-4-2-3.66-1.94-7.3-3.94-11.21-6.05-8,1.39-16.68,3.86-25.39,4.14-12.06.39-24.19-.65-36.26-1.52a196.27,196.27,0,0,1-20.72-2.9c-8.33-1.5-15.24-5.77-21.46-11.46-9.74-8.93-20.46-14.16-34-8.46-3.48,1.47-7.42,2.72-11.39-.57a13,13,0,0,1,8.83-8.67,41.45,41.45,0,0,0,19.88-13.72c5.16-6.25,12-11.23,20.53-12.95,1.07-.21,2-1,3.73-1.83a130.28,130.28,0,0,0-30.08-22.89c-19.31-10.53-39.88-17.8-61.42-22.82-15.61-3.63-30.69-9.48-46-14.22-4.36-1.34-8.84-2.27-13.27-3.39-29.53-7.44-58.65-16.19-85.58-30.73-7.69-4.15-14.44-10.13-21.37-15.6-2.22-1.75-3.63-4.52-5.41-6.83l.93-1.86c6.44,1,13.05,1.49,19.3,3.22a271.21,271.21,0,0,1,29.9,9.78c27.11,11,55.4,18.21,83.48,25.94,23.7,6.53,47.84,11.59,72,16.37,24.57,4.87,46.9,15.08,68.59,26.88,14.43,7.86,28,17.32,42.46,25.1,11.2,6,22.87,11.58,34.94,15.41,8.51,2.69,18.05,2.89,27.13,2.89,15.11,0,29.68,3.15,44.25,6.24,13.94,2.95,27.82,6.34,41.45,10.46,8.63,2.61,16.86,6.68,25.08,10.5,21.19,9.85,42,20.58,63.46,29.74,23.18,9.89,46.91,18.49,71.9,23a49.78,49.78,0,0,1,6.57,2.13Z" transform="translate(0)"/><path class="cls-4" d="M1327.46,6078.22a65.44,65.44,0,0,0,13-.16,145,145,0,0,0,30.3-6.18c9.45-3.1,19.17-5.48,28.15-9.9,2.4-1.18,5.15-1.69,8-2.6,1.54.58,3.27,1.32,5.06,1.85a11.12,11.12,0,0,0,3.16.29,12.18,12.18,0,0,0,2.46-.42c3.26-.78,6.31-.65,8.79,2a16.83,16.83,0,0,0-2.75.78c-.84.39-2.17,1-2.22,1.59-.22,3.13-3,4.62-4.6,7.22,2,.67,3.68,1,5.37-.25,1.86-1.36,4.36-1.89,5.48-4.24.19-.4,1-.48,1.55-.75,1.44-.74,2.86-1.5,4.38-2.31,3.15.53,6.53,1.48,9.93,1.58a139.88,139.88,0,0,0,14.17-.58,76.16,76.16,0,0,0,8.1-1.11,16.82,16.82,0,0,0,8.39-4.38c3.81-3.41,8-5.41,13.3-3.23,1.36.56,2.9,1,4.45-.22a5.06,5.06,0,0,0-3.45-3.32,16.17,16.17,0,0,1-7.77-5.24,14.11,14.11,0,0,0-8-4.95,8.08,8.08,0,0,1-1.46-.71,51.29,51.29,0,0,1,11.76-8.75,95.42,95.42,0,0,1,24-8.72c6.1-1.39,12-3.63,18-5.44,1.7-.52,3.45-.87,5.18-1.3,11.55-2.84,22.93-6.19,33.45-11.75a61.41,61.41,0,0,0,8.36-6,14.33,14.33,0,0,0,2.11-2.62l-.36-.71a72.86,72.86,0,0,0-7.55,1.23,110.21,110.21,0,0,0-11.68,3.74c-10.6,4.21-21.66,7-32.64,9.92-9.26,2.5-18.69,4.43-28.12,6.26-9.61,1.86-18.34,5.77-26.81,10.28-5.65,3-11,6.62-16.6,9.6a81.59,81.59,0,0,1-13.66,5.89,36.35,36.35,0,0,1-10.6,1.11c-5.91,0-11.61,1.2-17.3,2.38-5.45,1.13-10.88,2.43-16.2,4a77.13,77.13,0,0,0-9.81,4c-8.28,3.77-16.41,7.87-24.8,11.37-9.06,3.78-18.34,7.07-28.11,8.78a20,20,0,0,0-2.56.82Z" transform="translate(0)"/></g></svg>