<svg id="圖層_1" data-name="圖層 1" xmlns="http://www.w3.org/2000/svg" xmlns:xlink="http://www.w3.org/1999/xlink" viewBox="0 0 1921.5 2271.71"><defs><style>.cls-1{fill:url(#未命名漸層_45);}.cls-2{opacity:0.05;}.cls-3{fill:#fff;}</style><linearGradient id="未命名漸層_45" x1="1.5" y1="1135.85" x2="1921.5" y2="1135.85" gradientUnits="userSpaceOnUse"><stop offset="0" stop-color="#7dc9c0"/><stop offset="0" stop-color="#7cc7bf"/><stop offset="0" stop-color="#78c0b9"/><stop offset="0" stop-color="#70b5b0"/><stop offset="0" stop-color="#66a4a3"/><stop offset="0" stop-color="#588e91"/><stop offset="0" stop-color="#47727c"/><stop offset="0" stop-color="#335262"/><stop offset="0" stop-color="#1c2e46"/><stop offset="0" stop-color="#0e1734"/><stop offset="1" stop-color="#3d5d74"/></linearGradient></defs><title>index_bgc_nightblue4</title><g id="bgc"><rect class="cls-1" x="1.5" width="1920" height="2271.71"/><g class="cls-2"><path class="cls-3" d="M0,302c154.72,5,309-11.54,463.61-18.62s313.79-4.17,458.08,37.68c11.12,3.22,22.68,7.05,31.61,12.73,6.72,4.28,4.51,12.42-3.86,14.57-61.2,15.69-128.67,13.28-193.89,13.75a1993.63,1993.63,0,0,0-328.5,29.56c-19.53,3.42-44.18,13.1-37.8,27.79a18.59,18.59,0,0,0,6.95,7.72c20.43,13.62,49.63,13.9,76.48,13.53q259.37-3.5,517.93-21.06c200-13.6,406.7-33,598.8,7.53,10.7,2.26,10,13.76-1,15.13-58.77,7.37-122.55-8.37-184-10-84.87-2.27-170.42,24.6-227.2,71.64-3.41,2.83-5.68,6.39-6,10.18-1.46,15,25.75,18.16,44.82,16.33,102-9.81,203.68-23.55,306.48-23.94,90.59-.35,183.47,10.44,263.42,41.33,16.81,6.49,15.38,24.76-2.28,29.85-16.43,4.75-34.65,7.07-52.2,8.76-178.71,17.29-359.62-1.62-539.63-8.1C986.43,571,780.26,579.81,575.28,568,372.16,556.22,195.09,518,.44,562.76"/></g><g class="cls-2"><path class="cls-3" d="M1921.5,949.3c-210.89,14.87-484-9.37-697.82-8.83-55,.13-112.51,2.32-158.26,15.7-5.85,1.71-11,3.85-14.67,6.43-17.86,12.61,8.35,23.8,34.08,29.54,72.39,16.17,159,13.78,240.85,12.41,114.08-1.91,228.43-1,342.26,2.68,33.13,1.07,71,3.58,88.5,15.5-142.32,29.22-321.45,4-466.22,29.17-11.88,2.06-13,9.13-1.68,11.7,13.42,3,31.38,3.88,47.17,4.11l277.4,4c89.6,1.28,181.78,2.8,262.53,20,12.17,2.59,21.27,7.38,23.74,13,4.47,10.22-15.21,15.63-33.39,19.29-95.32,19.24-205.12,21.2-310.29,20.4-12.24-.09-24.16,2.18-31.19,6.41-14.48,8.71,2.75,17.07,20.54,21.35,39.78,9.57,88.12,9.22,133.9,9.71,81.61.87,163,5.25,242.54,13"/></g><g class="cls-2"><path class="cls-3" d="M1.5,1178.57c87.73,5.92,175.24-13.68,262.89-22.07s177.94-4.94,259.76,44.66c6.3,3.82,12.86,8.36,17.92,15.09,3.81,5.08,2.56,14.73-2.18,17.27-34.71,18.6-73,15.75-109.95,16.3-62.68.94-125.27,12.72-186.28,35-11.07,4.05-25,15.51-21.43,32.94a24.07,24.07,0,0,0,3.93,9.14c11.59,16.15,28.14,16.48,43.37,16a2610.25,2610.25,0,0,0,293.7-25c113.41-16.12,230.63-39.08,339.56,8.93,6.07,2.67,5.65,16.31-.56,17.94-33.33,8.73-69.5-9.92-104.33-11.87-48.13-2.68-96.64,29.16-128.84,84.93a27,27,0,0,0-3.43,12.07c-.83,17.76,14.6,21.53,25.41,19.35,57.81-11.62,115.5-27.92,173.79-28.38,51.37-.41,104,12.39,149.38,49,9.53,7.69,8.72,29.34-1.29,35.39-9.32,5.62-19.65,8.37-29.6,10.38-101.34,20.49-203.93-1.92-306-9.61-116.45-8.76-233.37,1.71-349.6-12.34-115.18-13.92-215.59-59.21-326-6.17"/></g><g class="cls-2"><path class="cls-3" d="M1921.5,1819.43c-271.28,18.94-622.62-11.94-897.65-11.25-70.79.17-144.73,3-203.59,20-7.52,2.18-14.18,4.91-18.88,8.19-23,16.06,10.76,30.32,43.85,37.63,93.12,20.6,204.54,17.55,309.83,15.81,146.75-2.43,293.84-1.28,440.26,3.41,42.63,1.37,91.39,4.56,113.86,19.75-183.08,37.22-413.51,5.12-599.75,37.16-15.27,2.63-16.69,11.63-2.15,14.9,17.26,3.88,40.36,5,60.67,5.24l356.84,5.07c115.26,1.64,233.84,3.57,337.71,25.5,15.67,3.3,27.36,9.4,30.55,16.61,5.75,13-19.57,19.9-43,24.58-122.62,24.5-263.85,27-399.15,26-15.74-.12-31.07,2.78-40.12,8.17-18.62,11.09,3.54,21.74,26.43,27.19,51.17,12.19,113.34,11.75,172.23,12.37,105,1.11,209.72,6.69,312,16.63"/></g></g></svg>