<svg id="圖層_1" data-name="圖層 1" xmlns="http://www.w3.org/2000/svg" xmlns:xlink="http://www.w3.org/1999/xlink" viewBox="0 0 1920 7322"><defs><style>.cls-1{fill:url(#未命名漸層_59);}.cls-2{opacity:0.1;}.cls-3{fill:#fff;}</style><linearGradient id="未命名漸層_59" x1="3" y1="3661" x2="1920" y2="3661" gradientUnits="userSpaceOnUse"><stop offset="0" stop-color="#80d0c7"/><stop offset="0" stop-color="#82d0c6"/><stop offset="0" stop-color="#89cfc4"/><stop offset="0" stop-color="#94cec1"/><stop offset="0" stop-color="#a5ccbc"/><stop offset="0" stop-color="#bbcab5"/><stop offset="0" stop-color="#d7c7ac"/><stop offset="0" stop-color="#f6c4a3"/><stop offset="0" stop-color="#ffc3a0"/><stop offset="1" stop-color="#ffafbd"/></linearGradient></defs><title>index_bgc_evening2</title><g id="bgc"><rect class="cls-1" x="3" width="1917" height="7322"/><g class="cls-2"><path class="cls-3" d="M0,1896c108,5.34,215.65-12.36,323.5-20s219-4.47,319.65,40.37c7.76,3.45,15.83,7.55,22.06,13.63,4.69,4.59,3.15,13.31-2.7,15.61-42.7,16.81-89.78,14.24-135.29,14.74A922.44,922.44,0,0,0,298,1992.1c-13.62,3.66-30.83,14-26.37,29.77a19.33,19.33,0,0,0,4.85,8.26c14.25,14.6,34.63,14.9,53.36,14.51q181-3.75,361.41-22.57c139.56-14.56,283.8-35.31,417.84,8.07,7.47,2.42,7,14.74-.69,16.21-41,7.9-85.52-9-128.39-10.72-59.22-2.43-118.91,26.35-158.53,76.75a19.87,19.87,0,0,0-4.23,10.91c-1,16.05,18,19.46,31.28,17.49,71.14-10.51,142.13-25.23,213.86-25.65,63.21-.37,128,11.19,183.81,44.28,11.73,7,10.73,26.53-1.59,32-11.46,5.08-24.18,7.57-36.42,9.38-124.71,18.53-250.94-1.74-376.55-8.68-143.3-7.92-287.17,1.54-430.2-11.15-141.74-12.59-265.3-53.52-401.12-5.58" transform="translate(0)"/></g><g class="cls-2"><path class="cls-3" d="M1920,1243.29c-160.1,26.76-367.45-16.87-529.77-15.9-41.78.25-85.42,4.17-120.15,28.26a38.06,38.06,0,0,0-11.14,11.57c-13.56,22.69,6.35,42.82,25.87,53.16,55,29.1,120.72,24.79,182.85,22.33a2237,2237,0,0,1,259.83,4.82c25.15,1.93,53.93,6.44,67.19,27.9-108.05,52.58-244,7.23-354,52.49-9,3.71-9.85,16.43-1.27,21.06,10.19,5.49,23.82,7,35.81,7.4l210.6,7.16c68,2.31,138,5,199.3,36a33.44,33.44,0,0,1,18,23.47c3.39,18.4-11.55,28.12-25.35,34.72-72.37,34.62-155.72,38.15-235.57,36.7-9.29-.17-18.34,3.93-23.68,11.54-11,15.67,2.09,30.71,15.6,38.42,30.2,17.22,66.89,16.59,101.65,17.47A916.18,916.18,0,0,1,1920,1685.36" transform="translate(0)"/></g><g class="cls-2"><path class="cls-3" d="M1920,2607.29c-382.29,33.47-877.39-21.1-1265-19.89-99.76.31-204,5.22-286.89,35.36-10.6,3.85-20,8.67-26.6,14.47-32.38,28.39,15.15,53.58,61.78,66.51,131.22,36.4,288.24,31,436.61,27.94,206.8-4.29,414.08-2.27,620.42,6,60.07,2.42,128.78,8.06,160.44,34.91-258,65.78-582.71,9.05-845.15,65.67-21.53,4.64-23.53,20.56-3,26.34,24.33,6.86,56.88,8.75,85.5,9.26l502.86,9c162.42,2.89,329.52,6.31,475.9,45.06,22.07,5.84,38.56,16.62,43.05,29.36,8.1,23-27.58,35.18-60.53,43.44-172.81,43.31-371.83,47.73-562.49,45.92-22.18-.21-43.79,4.92-56.53,14.44-26.25,19.6,5,38.42,37.23,48.06,72.11,21.55,159.73,20.76,242.72,21.86A4092.13,4092.13,0,0,1,1920,3160.38" transform="translate(0)"/></g><g class="cls-2"><path class="cls-3" d="M0,3608c147.77,8.13,295.16-18.79,442.79-30.32s299.7-6.78,437.51,61.36c10.62,5.25,21.66,11.48,30.19,20.73,6.42,7,4.31,20.23-3.68,23.72-58.46,25.56-122.9,21.64-185.19,22.4A1145.36,1145.36,0,0,0,407.87,3754c-18.65,5.57-42.19,21.32-36.1,45.26a30.51,30.51,0,0,0,6.63,12.56c19.51,22.18,47.4,22.64,73.05,22q247.73-5.7,494.68-34.31c191-22.14,388.44-53.68,571.92,12.27,10.22,3.67,9.52,22.4-1,24.64-56.13,12-117-13.63-175.72-16.3-81.06-3.69-162.77,40.06-217,116.67a32.08,32.08,0,0,0-5.78,16.58c-1.4,24.41,24.59,29.58,42.8,26.59,97.37-16,194.53-38.36,292.72-39,86.52-.56,175.23,17,251.6,67.31,16,10.57,14.69,40.32-2.18,48.62-15.69,7.72-33.09,11.51-49.85,14.27-170.69,28.15-343.48-2.64-515.4-13.2-196.14-12-393.06,2.34-588.83-17-194-19.12-363.12-81.34-549-8.48" transform="translate(0)"/></g><g class="cls-2"><path class="cls-3" d="M3,515.89c154.72,7.28,309-16.83,463.61-27.16s313.79-6.08,458.08,55c11.12,4.7,22.68,10.28,31.61,18.57,6.72,6.24,4.51,18.12-3.86,21.25-61.2,22.89-128.67,19.38-193.89,20.06a1387.43,1387.43,0,0,0-328.5,43.12c-19.53,5-44.18,19.1-37.8,40.54a26.19,26.19,0,0,0,6.95,11.25c20.43,19.87,49.63,20.28,76.48,19.75Q735,713.12,993.61,687.5c200-19.83,406.7-48.08,598.8,11,10.7,3.29,10,20.07-1,22.07-58.77,10.75-122.55-12.21-184-14.6-84.87-3.31-170.42,35.88-227.2,104.5a26.23,26.23,0,0,0-6,14.85c-1.46,21.86,25.75,26.49,44.82,23.82,102-14.31,203.68-34.36,306.48-34.93,90.59-.5,183.47,15.24,263.42,60.29,16.81,9.47,15.38,36.12-2.28,43.55-16.43,6.92-34.65,10.31-52.2,12.78C1555.71,956,1374.8,928.45,1194.79,919c-205.36-10.78-411.53,2.09-616.51-15.19C375.16,886.68,198.09,831,3.44,896.22" transform="translate(0)"/></g><g class="cls-2"><path class="cls-3" d="M0,4657c94.64,5.26,189-12.15,283.6-19.6s192-4.39,280.21,39.67c6.8,3.39,13.87,7.42,19.34,13.4,4.11,4.51,2.76,13.08-2.36,15.34-37.44,16.52-78.72,14-118.61,14.48a727.08,727.08,0,0,0-200.95,31.12c-11.94,3.6-27,13.79-23.12,29.27a19.69,19.69,0,0,0,4.25,8.12c12.49,14.34,30.35,14.63,46.78,14.25q158.67-3.68,316.83-22.18c122.34-14.32,248.79-34.71,366.3,7.93,6.55,2.37,6.1,14.48-.61,15.93-35.95,7.76-75-8.81-112.54-10.54-51.92-2.38-104.25,25.9-139,75.44a20.89,20.89,0,0,0-3.71,10.72c-.89,15.78,15.75,19.12,27.42,17.19,62.36-10.33,124.59-24.8,187.48-25.21,55.41-.36,112.23,11,161.14,43.52,10.28,6.83,9.41,26.07-1.4,31.43-10,5-21.19,7.44-31.92,9.23-109.33,18.2-220-1.71-330.11-8.54-125.62-7.78-251.74,1.52-377.13-11-124.25-12.36-232.56-52.59-351.63-5.48" transform="translate(0)"/></g><g class="cls-2"><path class="cls-3" d="M1920,5691.84c-382.29,33.47-877.39-21.1-1265-19.89-99.76.31-204,5.22-286.89,35.36-10.6,3.85-20,8.67-26.6,14.47-32.38,28.39,15.15,53.58,61.78,66.51,131.22,36.4,288.24,31,436.61,27.94,206.8-4.29,414.08-2.27,620.42,6,60.07,2.42,128.78,8.06,160.44,34.91-258,65.78-582.71,9.05-845.15,65.67-21.53,4.64-23.53,20.56-3,26.34,24.33,6.86,56.88,8.75,85.5,9.26l502.86,9c162.42,2.89,329.52,6.31,475.9,45.06,22.07,5.84,38.56,16.62,43.05,29.36,8.1,23-27.58,35.18-60.53,43.44-172.81,43.31-371.83,47.73-562.49,45.92-22.18-.21-43.79,4.92-56.53,14.44-26.25,19.6,5,38.42,37.23,48.06,72.11,21.55,159.73,20.76,242.72,21.86A4092.13,4092.13,0,0,1,1920,6244.93" transform="translate(0)"/></g><g class="cls-2"><path class="cls-3" d="M0,6708.24c142.63,6.07,284.9-14,427.39-22.64s289.28-5.06,422.3,45.82c10.25,3.92,20.91,8.57,29.14,15.48a10.34,10.34,0,0,1-3.55,17.71c-56.43,19.09-118.63,16.16-178.75,16.73a1407.14,1407.14,0,0,0-302.84,35.95c-18,4.16-40.73,15.92-34.85,33.8a21.82,21.82,0,0,0,6.4,9.38c18.83,16.56,45.75,16.9,70.51,16.46q239.12-4.24,477.48-25.62c184.38-16.53,374.93-40.08,552,9.16,9.87,2.74,9.19,16.73-.92,18.4-54.17,9-113-10.17-169.6-12.17-78.25-2.75-157.11,29.92-209.46,87.13a20.75,20.75,0,0,0-5.58,12.38c-1.35,18.22,23.74,22.09,41.31,19.85,94-11.92,187.77-28.64,282.55-29.11,83.51-.42,169.13,12.71,242.85,50.26,15.49,7.89,14.18,30.11-2.11,36.31-15.14,5.76-31.94,8.59-48.11,10.65-164.76,21-331.54-2-497.48-9.85-189.32-9-379.39,1.74-568.36-12.67-187.25-14.28-350.49-60.74-529.93-6.33" transform="translate(0)"/></g></g></svg>