<svg id="圖層_1" data-name="圖層 1" xmlns="http://www.w3.org/2000/svg" xmlns:xlink="http://www.w3.org/1999/xlink" viewBox="0 0 413.17 895.59"><defs><style>.cls-1{opacity:0.8;}.cls-2{fill:#fdfdf2;}.cls-3{fill:url(#未命名漸層_6);}.cls-4{fill:#e38fa3;}.cls-5{fill:url(#未命名漸層_31);}.cls-6{fill:#eeb5b5;}.cls-7{fill:#e69691;}.cls-8{fill:none;stroke:#f3aab8;stroke-miterlimit:10;}</style><linearGradient id="未命名漸層_6" x1="999.27" y1="553.39" x2="1088.09" y2="553.39" gradientUnits="userSpaceOnUse"><stop offset="0" stop-color="#f7bf9e"/><stop offset="1" stop-color="#f3aab8"/></linearGradient><linearGradient id="未命名漸層_31" x1="897.98" y1="309.23" x2="1311.14" y2="309.23" gradientUnits="userSpaceOnUse"><stop offset="0" stop-color="#f5efee"/><stop offset="0.17" stop-color="#f5d2cf"/><stop offset="0.33" stop-color="#f4bdb8"/><stop offset="0.49" stop-color="#f4afaa"/><stop offset="0.62" stop-color="#f4aba5"/><stop offset="1" stop-color="#f3a8a2"/></linearGradient></defs><title>white_balloon4</title><g class="cls-1"><path class="cls-2" d="M1055,547c8.16.06,12-1.16,12.88-4.06,1-3.39-3.21-5.71-4.59-6.49l-.9-.48-2.25,0c-3.44,0-15.28-.33-22.69-3l-1.64-.28a5.7,5.7,0,0,0-5.67,5.13c-.12,2,.82,6.65,11.95,8.19A105.12,105.12,0,0,0,1055,547Z" transform="translate(-897.97 -83.59)"/><path class="cls-3" d="M1069.39,533.77s-17.08,2.25-8.75,13.64,39.94,25.25,22.06,31.27-72.06-3.13-83.13-20.54c-2.78-6,14.52-7.12,29.11-10.39s9.58-16.37,2-21.29C1028.12,524.84,1069.39,533.77,1069.39,533.77Z" transform="translate(-897.97 -83.59)"/><path class="cls-4" d="M1028.68,547.75c14.63-3.24,9.58-16.37,2-21.29-2.55-1.62,38.72,7.31,38.72,7.31s-11.34,1.49-11,8.2c-7.05,11.22-45.51,4.3-31.26,24.85,6.55,7.13,15.45,10.1,24,12.54-21.12-2.78-44.63-10.39-51.52-21.22C996.79,552.14,1014.09,551,1028.68,547.75Z" transform="translate(-897.97 -83.59)"/><path class="cls-5" d="M903.91,225.77c-30.37,142.49,61.66,291.79,144.48,307.55s229.34-90.53,259.24-230.76c20.76-97.44-52.77-193.61-164.26-214.8S924.67,128.35,903.91,225.77Z" transform="translate(-897.97 -83.59)"/><path class="cls-6" d="M1143.37,87.76a226.32,226.32,0,0,1,77.68,30.12,230.32,230.32,0,0,0-49.86-15.42C1059.72,81.25,970.46,153.52,949.68,251c-25.13,118,21.33,233.34,85.07,278.53-78.88-28.3-159.57-169-130.84-303.72C924.67,128.35,1031.87,66.54,1143.37,87.76Z" transform="translate(-897.97 -83.59)"/><path class="cls-7" d="M1272.51,235.68c-18.16-74.84-74.52-105.18-121-110.11s-24.27,21.27,8.62,35.37,69.07,61.74,59.87,129.65C1209.82,365.54,1290.67,310.51,1272.51,235.68Z" transform="translate(-897.97 -83.59)"/><path id="氣球線" class="cls-8" d="M1081.38,978.9S960,796.47,1043.68,572.75" transform="translate(-897.97 -83.59)"/></g></svg>