<svg xmlns="http://www.w3.org/2000/svg" viewBox="0 0 156.54 124.92"><defs><style>.cls-1{fill:#ef912e;}.cls-2{fill:#89ae29;}.cls-3{fill:#dac16c;}.cls-4{fill:#804c22;}.cls-5{fill:none;stroke:#fff;stroke-linecap:round;stroke-miterlimit:10;stroke-width:1.01px;opacity:0.5;}</style></defs><title>資產 6</title><g id="圖層_2" data-name="圖層 2"><g id="關於天然甘"><g id="_群組_" data-name="&lt;群組&gt;"><path class="cls-1" d="M154.21,51.76c-6.88-26.72-47-31.86-60.45-34C81.67,11.41,46.48-8.43,25,8.86,1.69,27.59-5.73,56.22,4.47,75.39s22.9,30.75,56.28,41.83,50.49,9.39,70.12.12S161.67,80.69,154.21,51.76Z"/><path class="cls-2" d="M140.57,38.27c-8.44-2.21-8.13-8-14.57-12.23-4.72-3.12-10.44-3.67-16.17-2.81,4.45-3.45,4.59-7.78.8-10.57C105.24,8.72,98.41,4.39,99.82.12L99.46,0C98.05,4.27,90,3.65,83.28,3.58c-4.69,0-7.17,3.53-5.66,9-4.08-4.11-9-7.09-14.65-7.42C55.26,4.68,52.06,9.48,44,6.2,45,14.1,51.69,28,68.67,29.32c-5.65,4.17-5.83,9.5-1.2,12.91,6.45,4.73,14.63,9.91,12.93,15l.43.14c1.7-5.11,11.36-4.36,19.38-4.3C106,53.13,109,48.75,107,42,121.34,51.15,135,44,140.57,38.27Z"/><path class="cls-3" d="M93.09,19.8c-6.16-2-12-1.17-13,1.94S83.2,29,89.35,31.06s12,1.17,13-1.93S99.23,21.84,93.09,19.8Z"/><path class="cls-4" d="M91.83,23.56c-2-.65-3.82-.34-4.17.69s1,2.4,2.93,3.05,3.84.34,4.18-.69S93.79,24.22,91.83,23.56Z"/><path id="_路徑_" data-name="&lt;路徑&gt;" class="cls-5" d="M36.07,22.67c2,6,6.72,14.83,17.81,22.2"/><path id="_路徑_2" data-name="&lt;路徑&gt;" class="cls-5" d="M137.06,56.2c-5.19,3.59-14.26,7.86-27.54,7.14"/></g></g></g></svg>