<svg xmlns="http://www.w3.org/2000/svg" viewBox="0 0 283.45 259.7"><defs><style>.cls-1,.cls-7{fill:none;stroke-linecap:round;}.cls-1{stroke:#397637;stroke-linejoin:round;stroke-width:1.29px;}.cls-2{fill:#b2c53a;}.cls-3{fill:#397637;}.cls-4{fill:#7b3790;}.cls-5{fill:#602f84;}.cls-6{fill:#773085;}.cls-7{stroke:#fff;stroke-miterlimit:10;stroke-width:0.86px;opacity:0.5;}</style></defs><title>資產 4</title><g id="圖層_2" data-name="圖層 2"><g id="關於天然甘"><g id="_群組_" data-name="&lt;群組&gt;"><path id="_路徑_" data-name="&lt;路徑&gt;" class="cls-1" d="M171.34,1.35c-6.5-3.06-22.39,4.13-16.15,15.87,3.3,6.2,14.69,8.45,15.11.06.29-5.46-12.55-14.12-22.36-7-6.67,4.85-11.09,20-.34,31.86,6.68,7.4,18.11,3.25,15.68-5.15-2.2-7.64-14.38-16.23-25-6.43-8.83,8.17-9.34,27,5.32,51.73"/><g id="_群組_2" data-name="&lt;群組&gt;"><path class="cls-2" d="M121.73,60.28c-9.64-7.89-14.76-21.2-14.38-34.48.75,19.4-31.53,12.31-25.5,41.44-34-25.09-60,15.61-81.85,9.23,21.82,6.38,21.82,54.67,64,51.88-20.32,20.81,8.85,32.17-.19,47.57,6.88-10.83,18-18.82,30-20.21,20.66-2.41,25.71-31.55,17.87-46.57C126.38,100.69,137.82,73.44,121.73,60.28Z"/><path class="cls-3" d="M110.94,106.65c-4.26-1.64-9.31-3.4-14.79-5S84.69,98.76,78.8,97.23C67,94.23,55.19,91.13,46.28,89L31.47,85.38l-.15.53,14.42,4.92c8.65,3,20.24,6.76,31.82,10.59,5.79,1.9,11.54,4,17,5.66s10.66,2.82,15.15,3.76a142.54,142.54,0,0,0,15.14,2.44l.17-.52A140.59,140.59,0,0,0,110.94,106.65Z"/><path class="cls-3" d="M107.46,105.87c-.46-.61-.83-1.58-1.38-2.5s-.91-2.11-1.48-3.25a14.87,14.87,0,0,1-.7-2c-.22-.67-.56-1.3-.74-2-.37-1.47-.94-3-1.33-4.56s-1-3.24-1.46-4.94-.84-3.47-1.13-5.27-.52-3.6-.64-5.39-.2-3.57-.3-5.29c0-3.42.08-6.65.37-9.4a37.45,37.45,0,0,1,.49-3.73c.2-1.13.3-2.09.53-2.88.38-1.6.59-2.52.59-2.52L99.75,52s-.35.86-1,2.38c-.33.75-.6,1.72-1,2.83s-.69,2.38-1,3.73-.63,2.92-.94,4.52-.45,3.36-.67,5.12-.31,3.62-.3,5.5,0,3.81.08,5.74.27,3.85.42,5.76a34.24,34.24,0,0,0,1,5.55,28.64,28.64,0,0,0,4.44,9.16,22.35,22.35,0,0,0,2.78,3.07,18.49,18.49,0,0,0,2.51,1.93,23.69,23.69,0,0,0,2.43,1.21l.35-.44S108.35,107.18,107.46,105.87Z"/><path class="cls-3" d="M108.68,108a23.53,23.53,0,0,0-2.71-.29,14,14,0,0,0-3.15.29,20.84,20.84,0,0,0-4,1.07,28.24,28.24,0,0,0-8.66,5.32,34.75,34.75,0,0,0-3.87,4.13c-1.15,1.52-2.39,3-3.46,4.61s-2.19,3.17-3.16,4.79-1.83,3.24-2.69,4.81-1.6,3.14-2.21,4.66-1.22,2.92-1.63,4.31-.88,2.59-1.15,3.71a27.8,27.8,0,0,0-.71,2.9c-.28,1.63-.46,2.54-.46,2.54l.54.15s.31-.88.87-2.43c.25-.78.67-1.67,1.09-2.7s1-2.18,1.6-3.41c1.24-2.48,2.93-5.24,4.77-8.14,1-1.39,2-2.9,3.1-4.3s2.25-2.81,3.45-4.17,2.5-2.64,3.78-3.83,2.61-2.34,3.9-3.39,2.47-2.07,3.59-3.1c.55-.53,1.17-.9,1.71-1.34s1.09-.92,1.63-1.25c1.1-.63,2.05-1.52,3-2s1.76-1.08,2.5-1.34c1.45-.61,2.35-1.08,2.35-1.08Z"/></g><path class="cls-4" d="M259.37,149.44a22.25,22.25,0,1,0,17,26.49A22.25,22.25,0,0,0,259.37,149.44Z"/><g id="_群組_3" data-name="&lt;群組&gt;"><path class="cls-5" d="M134.92,73.88a22.25,22.25,0,1,0,17,26.5A22.25,22.25,0,0,0,134.92,73.88Z"/><path class="cls-5" d="M170.24,98.52a22.26,22.26,0,1,0,17,26.5A22.24,22.24,0,0,0,170.24,98.52Z"/><path class="cls-5" d="M205.17,86.59a22.25,22.25,0,1,0,17,26.5A22.28,22.28,0,0,0,205.17,86.59Z"/><path class="cls-5" d="M121.49,106.82a22.25,22.25,0,1,0,17,26.5A22.24,22.24,0,0,0,121.49,106.82Z"/><path class="cls-5" d="M182.21,171.05a22.25,22.25,0,1,0,17,26.5A22.24,22.24,0,0,0,182.21,171.05Z"/><path class="cls-5" d="M219.52,107.75a22.26,22.26,0,1,0,17,26.51A22.26,22.26,0,0,0,219.52,107.75Z"/><path class="cls-5" d="M231.93,85.47a22.25,22.25,0,1,0,17,26.49A22.27,22.27,0,0,0,231.93,85.47Z"/><path class="cls-5" d="M266,183.74a22.25,22.25,0,1,0,17,26.49A22.24,22.24,0,0,0,266,183.74Z"/><path class="cls-5" d="M208.39,209.05a22.25,22.25,0,1,0,17,26.5A22.25,22.25,0,0,0,208.39,209.05Z"/><path class="cls-5" d="M154.16,177.91a22.26,22.26,0,1,0,17,26.5A22.28,22.28,0,0,0,154.16,177.91Z"/><path class="cls-5" d="M163.81,147.9a22.25,22.25,0,1,0,17,26.5A22.24,22.24,0,0,0,163.81,147.9Z"/><path class="cls-5" d="M191.78,132.66a22.26,22.26,0,1,0,17,26.51A22.25,22.25,0,0,0,191.78,132.66Z"/><path class="cls-5" d="M225.3,134.86a22.26,22.26,0,1,0,17,26.51A22.27,22.27,0,0,0,225.3,134.86Z"/><path class="cls-5" d="M210.48,167.56a22.26,22.26,0,1,0,17,26.51A22.26,22.26,0,0,0,210.48,167.56Z"/><path class="cls-5" d="M233.29,189.67a22.26,22.26,0,1,0,17,26.52A22.29,22.29,0,0,0,233.29,189.67Z"/><path class="cls-5" d="M134.17,134.28a22.25,22.25,0,1,0,17,26.5A22.25,22.25,0,0,0,134.17,134.28Z"/></g><path class="cls-4" d="M171.27,54a22.25,22.25,0,1,0,17,26.5A22.24,22.24,0,0,0,171.27,54Z"/><path class="cls-4" d="M175.41,194.23a22.25,22.25,0,1,0,17,26.5A22.25,22.25,0,0,0,175.41,194.23Z"/><path class="cls-4" d="M142.32,112.4a22.25,22.25,0,1,0,17,26.49A22.25,22.25,0,0,0,142.32,112.4Z"/><path class="cls-6" d="M247,215.71a22.25,22.25,0,1,0,17,26.49A22.25,22.25,0,0,0,247,215.71Z"/><path class="cls-6" d="M242,161.64a22.25,22.25,0,1,0,17,26.51A22.26,22.26,0,0,0,242,161.64Z"/><path class="cls-6" d="M201.07,157.84a22.26,22.26,0,1,0,17,26.5A22.25,22.25,0,0,0,201.07,157.84Z"/><path class="cls-6" d="M197.6,194.07a22.25,22.25,0,1,0,17,26.5A22.26,22.26,0,0,0,197.6,194.07Z"/><path class="cls-6" d="M139.26,153.11a22.26,22.26,0,1,0,17,26.51A22.25,22.25,0,0,0,139.26,153.11Z"/><path class="cls-6" d="M163.45,124a22.26,22.26,0,1,0,17,26.51A22.27,22.27,0,0,0,163.45,124Z"/><path class="cls-6" d="M200,110.41a22.26,22.26,0,1,0,17,26.52A22.25,22.25,0,0,0,200,110.41Z"/><path class="cls-6" d="M183.09,73.86a22.26,22.26,0,1,0,17,26.52A22.27,22.27,0,0,0,183.09,73.86Z"/><path class="cls-6" d="M146.44,77a22.26,22.26,0,1,0,17,26.51A22.28,22.28,0,0,0,146.44,77Z"/><path class="cls-6" d="M242.37,118.91a22.26,22.26,0,1,0,17,26.5A22.25,22.25,0,0,0,242.37,118.91Z"/><path class="cls-6" d="M209.58,57.18a22.25,22.25,0,1,0,17,26.5A22.26,22.26,0,0,0,209.58,57.18Z"/><path id="_路徑_2" data-name="&lt;路徑&gt;" class="cls-7" d="M209.72,122.85a17.25,17.25,0,0,0-23.82-5.22"/><path id="_路徑_3" data-name="&lt;路徑&gt;" class="cls-7" d="M173.21,136.41a17.25,17.25,0,0,0-23.81-5.23"/><path id="_路徑_4" data-name="&lt;路徑&gt;" class="cls-7" d="M149,165.56a17.24,17.24,0,0,0-23.8-5.23"/><path id="_路徑_5" data-name="&lt;路徑&gt;" class="cls-7" d="M210.82,170.28A17.25,17.25,0,0,0,187,165.05"/><path id="_路徑_6" data-name="&lt;路徑&gt;" class="cls-7" d="M251.73,174.09a17.24,17.24,0,0,0-23.82-5.23"/><path id="_路徑_7" data-name="&lt;路徑&gt;" class="cls-7" d="M252.14,131.36a17.26,17.26,0,0,0-23.81-5.23"/><path id="_路徑_8" data-name="&lt;路徑&gt;" class="cls-7" d="M207.35,206.51a17.23,17.23,0,0,0-23.81-5.22"/><path id="_路徑_9" data-name="&lt;路徑&gt;" class="cls-7" d="M256.78,228.15a17.24,17.24,0,0,0-23.8-5.23"/><path id="_路徑_10" data-name="&lt;路徑&gt;" class="cls-7" d="M192.86,86.31A17.26,17.26,0,0,0,169,81.09"/><path id="_路徑_11" data-name="&lt;路徑&gt;" class="cls-7" d="M156.19,89.45a17.25,17.25,0,0,0-23.81-5.24"/><path id="_路徑_12" data-name="&lt;路徑&gt;" class="cls-7" d="M219.34,69.64a17.22,17.22,0,0,0-23.81-5.24"/></g></g></g></svg>