<svg xmlns="http://www.w3.org/2000/svg" viewBox="0 0 118.46 130.39"><defs><style>.cls-1{fill:#b2c53a;}.cls-2{fill:#804c22;}.cls-3{fill:#d35d3c;}.cls-4{opacity:0.7;}.cls-5{fill:#fff;}</style></defs><title>資產 16</title><g id="圖層_2" data-name="圖層 2"><g id="關於天然甘"><g id="_群組_" data-name="&lt;群組&gt;"><path class="cls-1" d="M79.58,3.19A37.08,37.08,0,0,0,59.23,24.38a37.06,37.06,0,0,0,29.36-.33A37,37,0,0,0,108.94,2.88,37.06,37.06,0,0,0,79.58,3.19Z"/><path id="_路徑_" data-name="&lt;路徑&gt;" class="cls-2" d="M59.09,44.43A191.87,191.87,0,0,1,61.54,5.07c-2.41-.32-4.84-.65-7.25-1a198.8,198.8,0,0,0,0,41.46"/><path class="cls-3" d="M117.6,68.5C112.47,37,83,17.83,55.68,38,25.33,22.88-.42,46.83,0,78.79c.45,34.26,27.06,60.59,52.84,48.7,2-.92,7.1-3.18,10.3-3.46h.12c3.2-.29,8.62,1.07,10.74,1.61C101.47,132.87,123.1,102.32,117.6,68.5Z"/><g class="cls-4"><path class="cls-5" d="M32.29,61.73a6.5,6.5,0,1,0-5.91,7A6.51,6.51,0,0,0,32.29,61.73Z"/></g></g></g></g></svg>