<svg xmlns="http://www.w3.org/2000/svg" viewBox="0 0 191.82 202"><defs><style>.cls-1{isolation:isolate;}.cls-2{fill:#804c22;}.cls-3{fill:#dac16c;}.cls-4{opacity:0.7;}.cls-5{fill:#fff;}.cls-6{mix-blend-mode:multiply;}</style></defs><title>資產 5</title><g class="cls-1"><g id="圖層_2" data-name="圖層 2"><g id="關於天然甘"><g id="_群組_" data-name="&lt;群組&gt;"><path id="_路徑_" data-name="&lt;路徑&gt;" class="cls-2" d="M120.93,61.59A308.85,308.85,0,0,1,153.27,6.72L143.56,0a319.94,319.94,0,0,0-30.34,59.67"/><path class="cls-3" d="M120.72,49.83c-32.61-44-87.22-28.36-110,18-24.44,49.64-5.41,107,40.41,108.79,3.54.14,12.53.63,17.36,2.58l.17.07c4.82,1.94,11.63,7.82,14.29,10.19,34.22,30.52,87.73,2.39,104.58-50.32C203.24,89.93,174.75,40.78,120.72,49.83Z"/><g class="cls-4"><path class="cls-5" d="M63.85,53.23a10.48,10.48,0,1,0,5.8,13.65A10.48,10.48,0,0,0,63.85,53.23Z"/></g><g class="cls-6"><path class="cls-3" d="M160.49,83.77a3,3,0,1,0,1.71,4A3.06,3.06,0,0,0,160.49,83.77Z"/></g><g class="cls-6"><path class="cls-3" d="M162.32,127.67a3.06,3.06,0,1,0,1.7,4A3.06,3.06,0,0,0,162.32,127.67Z"/></g><g class="cls-6"><path class="cls-3" d="M129.05,120.43a3.05,3.05,0,1,0,1.71,4A3,3,0,0,0,129.05,120.43Z"/></g><g class="cls-6"><path class="cls-3" d="M128.37,173.58a3.06,3.06,0,1,0-2.28,5.68,3.06,3.06,0,1,0,2.28-5.68Z"/></g><g class="cls-6"><path class="cls-3" d="M108.19,147.17a3.06,3.06,0,1,0,1.71,4A3.06,3.06,0,0,0,108.19,147.17Z"/></g><g class="cls-6"><path class="cls-3" d="M124.53,90.84a3.06,3.06,0,1,0,1.7,4A3,3,0,0,0,124.53,90.84Z"/></g><g class="cls-6"><path class="cls-3" d="M85.8,118.61a3.05,3.05,0,1,0,1.7,4A3.07,3.07,0,0,0,85.8,118.61Z"/></g><g class="cls-6"><path class="cls-3" d="M63.86,142.45a3,3,0,1,0,1.68,4A3.05,3.05,0,0,0,63.86,142.45Z"/></g><g class="cls-6"><path class="cls-3" d="M29,124.29a3.05,3.05,0,1,0,1.7,4A3.06,3.06,0,0,0,29,124.29Z"/></g><g class="cls-6"><path class="cls-3" d="M26.11,90.2a3.06,3.06,0,1,0,1.69,4A3.06,3.06,0,0,0,26.11,90.2Z"/></g><g class="cls-6"><path class="cls-3" d="M61.49,94.2a3.06,3.06,0,1,0,1.71,4A3.06,3.06,0,0,0,61.49,94.2Z"/></g><g class="cls-6"><path class="cls-3" d="M95.43,53.41a3.05,3.05,0,1,0,1.69,4A3.05,3.05,0,0,0,95.43,53.41Z"/></g></g></g></g></g></svg>