<svg xmlns="http://www.w3.org/2000/svg" xmlns:xlink="http://www.w3.org/1999/xlink" viewBox="0 0 606.22 319.09"><defs><style>.cls-1,.cls-10,.cls-16{fill:none;}.cls-2{isolation:isolate;}.cls-3{fill:#edca2c;}.cls-4{opacity:0.7;}.cls-5{fill:#fff;}.cls-6{fill:#804c22;}.cls-7{fill:#7fcf66;}.cls-8{fill:#b2c53a;}.cls-9{fill:#d35d3c;}.cls-10{stroke:#397637;stroke-linejoin:round;stroke-width:1.29px;}.cls-10,.cls-16{stroke-linecap:round;}.cls-11{fill:#50863e;}.cls-12{fill:#397637;}.cls-13{fill:#7b3790;}.cls-14{fill:#602f84;}.cls-15{fill:#773085;}.cls-16{stroke:#fff;stroke-miterlimit:10;stroke-width:0.86px;opacity:0.5;}.cls-17{fill:#dac16c;}.cls-18{mix-blend-mode:multiply;}.cls-19{fill:#e08c34;}.cls-20{clip-path:url(#clip-path);}.cls-21{fill:#bf9a67;}.cls-22{fill:#a6834f;}.cls-23{fill:#ceb289;}.cls-24{fill:#e3dbc7;}.cls-25{fill:#ceb189;}</style><clipPath id="clip-path"><path id="_剪裁路徑_" data-name="&lt;剪裁路徑&gt;" class="cls-1" d="M27.23,151.31c7.56,72.48,74.25,167.42,269.87,167.78,195.62-.36,262.32-95.3,269.88-167.78-76.69,28.83-169.64,45.74-269.88,45.74S103.92,180.14,27.23,151.31Z"/></clipPath></defs><title>資產 12</title><g class="cls-2"><g id="圖層_2" data-name="圖層 2"><g id="關於天然甘"><circle class="cls-3" cx="357.83" cy="172.25" r="42.12"/><g class="cls-4"><circle class="cls-5" cx="343.79" cy="153.28" r="5.16" transform="translate(-23.13 69.28) rotate(-11.13)"/></g><circle class="cls-3" cx="247.94" cy="105.83" r="42.12" transform="translate(-19.01 68.25) rotate(-15.1)"/><g class="cls-4"><circle class="cls-5" cx="240.85" cy="83.32" r="5.16" transform="translate(-6.98 23.88) rotate(-5.6)"/></g><path class="cls-6" d="M347.11,37.45c-7.21,4.8-12,19.23-12,19.23h4.81c1.8-5.71,9.62-16.83,9.62-16.83Z"/><path class="cls-7" d="M362.24,91.39a27.64,27.64,0,1,0-52.19-.82,38.46,38.46,0,1,0,52.19.82Z"/><g class="cls-4"><circle class="cls-5" cx="325.48" cy="75.91" r="4.81"/></g><circle class="cls-3" cx="105.58" cy="125.99" r="46.54" transform="translate(-24.41 25.38) rotate(-12.3)"/><g class="cls-4"><path class="cls-5" d="M92.05,99.68A5.7,5.7,0,1,0,95.41,107,5.7,5.7,0,0,0,92.05,99.68Z"/></g><g id="_群組_" data-name="&lt;群組&gt;"><path class="cls-8" d="M210.35,59.77A37.11,37.11,0,0,0,190,81a38,38,0,0,0,49.71-21.5A37.06,37.06,0,0,0,210.35,59.77Z"/><path id="_路徑_" data-name="&lt;路徑&gt;" class="cls-6" d="M189.86,101a191.87,191.87,0,0,1,2.45-39.36l-7.25-1a199.49,199.49,0,0,0,0,41.46"/><path class="cls-9" d="M248.37,125.08c-5.13-31.55-34.65-50.67-61.92-30.5-30.35-15.12-56.1,8.83-55.67,40.79.45,34.26,27.06,60.59,52.84,48.7,2-.92,7.1-3.18,10.3-3.46h.13c3.19-.29,8.61,1.07,10.74,1.61C232.24,189.45,253.87,158.9,248.37,125.08Z"/><g class="cls-4"><path class="cls-5" d="M163.06,118.31a6.49,6.49,0,1,0-5.91,7A6.5,6.5,0,0,0,163.06,118.31Z"/></g></g><g id="_群組_2" data-name="&lt;群組&gt;"><path id="_路徑_2" data-name="&lt;路徑&gt;" class="cls-10" d="M465.41,3.15C469-.92,482.09-.77,481.33,9.21c-.39,5.27-7.56,10.26-10.39,4.61-1.85-3.68,4.38-13.53,13.29-11.59,6.06,1.32,13.69,10.41,9.87,21.85-2.36,7.12-11.5,7.72-12.37,1.19-.79-5.93,5-15.54,15.27-12,8.56,3,14.61,15.79,12,37.26"/><g id="_群組_3" data-name="&lt;群組&gt;"><path class="cls-11" d="M606.22,3.11c-13.11,11-43.37-9.18-59.21,18.39C542.36-.4,522.26,14.25,516.9.65c4.28,9,4.78,19.76.52,28.11-7.11,13.94,9,29.26,21.72,30.64-.87,12.72,11.43,31.28,26.39,26.7,9-2.75,19.45-.39,27.59,5.38-12.48-7.63,5.46-24.87-15.32-33.26C607.72,47.39,593.11,14.11,606.22,3.11Z"/><path class="cls-12" d="M587.23,18.77s-3.66,2.79-9.12,7-12.69,9.86-19.92,15.5c-3.6,2.84-7.3,5.56-10.63,8.29s-6.24,5.51-8.68,7.93A105.82,105.82,0,0,0,531,65.94l.28.31A106.78,106.78,0,0,0,541,60c2.81-2,6-4.42,9.31-7.17s6.61-6,10-9.05C567.13,37.62,574,31.53,579,26.84l8.46-7.75Z"/><path class="cls-12" d="M544.83,43.73a26,26,0,0,0-1-4.13c-.48-1.36-.89-2.76-1.45-4.1s-1.07-2.7-1.68-4-1.26-2.52-1.87-3.7-1.31-2.3-2-3.33-1.33-2-2-2.83S533.59,20,533,19.41s-1.07-1.25-1.52-1.66l-1.41-1.35-.31.27,1.16,1.56c.4.48.76,1.11,1.24,1.83s1,1.51,1.47,2.42c1,1.81,2,4,3.1,6.37.45,1.21,1,2.45,1.39,3.74s.83,2.59,1.19,3.9.59,2.66.81,4,.38,2.61.49,3.84.27,2.42.46,3.55c.1.57.06,1.1.11,1.63a10.47,10.47,0,0,1,.11,1.55c0,1,.09,1.92,0,2.7s-.06,1.57-.2,2.14c-.21,1.16-.31,1.92-.31,1.92l.37.2a16.64,16.64,0,0,0,1.31-1.57,14.24,14.24,0,0,0,1.15-2.08,16.83,16.83,0,0,0,1-3A21.42,21.42,0,0,0,544.83,43.73Z"/><path class="cls-12" d="M578.81,74.17c-.32-.52-.82-1.09-1.36-1.78s-1.19-1.43-1.92-2.22-1.55-1.59-2.43-2.48-1.9-1.66-2.93-2.53-2.14-1.71-3.31-2.5-2.38-1.6-3.62-2.35-2.53-1.44-3.79-2.13a25,25,0,0,0-3.91-1.68,21.31,21.31,0,0,0-7.58-1,16.51,16.51,0,0,0-3.08.47,10.81,10.81,0,0,0-2.26.76,17.14,17.14,0,0,0-1.78,1l.14.39s.77.06,1.95,0a18.42,18.42,0,0,1,2.13.17c.8,0,1.73.33,2.67.43.47.07,1,.25,1.51.37s1,.21,1.58.41c1.08.37,2.23.63,3.41,1.05s2.44.77,3.71,1.15,2.52.93,3.77,1.5,2.48,1.16,3.64,1.83,2.32,1.38,3.44,2a70.8,70.8,0,0,1,5.74,4.17c.8.66,1.55,1.27,2.13,1.86s1.16,1.07,1.58,1.53l1.33,1.42.32-.27S579.5,75.21,578.81,74.17Z"/></g><path class="cls-13" d="M472.92,135.52a16.75,16.75,0,1,0-3.68,23.4A16.74,16.74,0,0,0,472.92,135.52Z"/><g id="_群組_4" data-name="&lt;群組&gt;"><path class="cls-14" d="M535.85,45.81a16.75,16.75,0,1,0-3.69,23.4A16.75,16.75,0,0,0,535.85,45.81Z"/><path class="cls-14" d="M519,73.47a16.76,16.76,0,1,0-3.68,23.42A16.75,16.75,0,0,0,519,73.47Z"/><path class="cls-14" d="M491.28,75.81a16.75,16.75,0,1,0-3.69,23.4A16.75,16.75,0,0,0,491.28,75.81Z"/><path class="cls-14" d="M555.07,64.45a16.75,16.75,0,1,0-3.68,23.4A16.75,16.75,0,0,0,555.07,64.45Z"/><path class="cls-14" d="M532.64,127.08a16.75,16.75,0,1,0-3.68,23.4A16.74,16.74,0,0,0,532.64,127.08Z"/><path class="cls-14" d="M487.78,94.74a16.75,16.75,0,1,0-3.68,23.41A16.75,16.75,0,0,0,487.78,94.74Z"/><path class="cls-14" d="M472.48,83.13a16.75,16.75,0,1,0-3.68,23.41A16.74,16.74,0,0,0,472.48,83.13Z"/><path class="cls-14" d="M478.76,161.15a16.75,16.75,0,1,0-3.69,23.41A16.76,16.76,0,0,0,478.76,161.15Z"/><path class="cls-14" d="M526.09,161.2a16.75,16.75,0,1,0-3.69,23.4A16.74,16.74,0,0,0,526.09,161.2Z"/><path class="cls-14" d="M554.06,123.33a16.76,16.76,0,1,0-3.7,23.4A16.78,16.78,0,0,0,554.06,123.33Z"/><path class="cls-14" d="M538.32,105.56a16.75,16.75,0,1,0-3.69,23.4A16.74,16.74,0,0,0,538.32,105.56Z"/><path class="cls-14" d="M514.44,103.52a16.75,16.75,0,1,0-3.69,23.41A16.77,16.77,0,0,0,514.44,103.52Z"/><path class="cls-14" d="M492,115.17a16.75,16.75,0,1,0-3.69,23.41A16.76,16.76,0,0,0,492,115.17Z"/><path class="cls-14" d="M512.1,133.23a16.75,16.75,0,1,0-3.68,23.41A16.75,16.75,0,0,0,512.1,133.23Z"/><path class="cls-14" d="M503.08,155.37a16.75,16.75,0,1,0-3.69,23.4A16.78,16.78,0,0,0,503.08,155.37Z"/><path class="cls-14" d="M554.63,87.21a16.75,16.75,0,1,0-3.68,23.4A16.75,16.75,0,0,0,554.63,87.21Z"/></g><path class="cls-13" d="M504.77,43.09a16.75,16.75,0,1,0-3.67,23.4A16.73,16.73,0,0,0,504.77,43.09Z"/><path class="cls-13" d="M544.34,141a16.75,16.75,0,1,0-3.69,23.41A16.76,16.76,0,0,0,544.34,141Z"/><path class="cls-13" d="M542.4,74.59A16.75,16.75,0,1,0,538.72,98,16.75,16.75,0,0,0,542.4,74.59Z"/><path class="cls-15" d="M501.47,177.47a16.75,16.75,0,1,0-3.68,23.4A16.74,16.74,0,0,0,501.47,177.47Z"/><path class="cls-15" d="M488.61,138.67a16.76,16.76,0,1,0-3.69,23.4A16.76,16.76,0,0,0,488.61,138.67Z"/><path class="cls-15" d="M515.65,123.68A16.75,16.75,0,1,0,512,147.09,16.76,16.76,0,0,0,515.65,123.68Z"/><path class="cls-15" d="M529,147.6a16.76,16.76,0,1,0-3.69,23.4A16.77,16.77,0,0,0,529,147.6Z"/><path class="cls-15" d="M556.81,101.73a16.75,16.75,0,1,0-3.68,23.41A16.75,16.75,0,0,0,556.81,101.73Z"/><path class="cls-15" d="M531.33,89a16.75,16.75,0,1,0-3.68,23.4A16.76,16.76,0,0,0,531.33,89Z"/><path class="cls-15" d="M502.06,90.66a16.75,16.75,0,1,0-3.68,23.41A16.74,16.74,0,0,0,502.06,90.66Z"/><path class="cls-15" d="M502.64,60.36A16.76,16.76,0,1,0,499,83.78,16.76,16.76,0,0,0,502.64,60.36Z"/><path class="cls-15" d="M528.86,51.44a16.75,16.75,0,1,0-3.69,23.41A16.77,16.77,0,0,0,528.86,51.44Z"/><path class="cls-15" d="M475.4,109.35a16.75,16.75,0,1,0-3.68,23.4A16.74,16.74,0,0,0,475.4,109.35Z"/><path class="cls-15" d="M479.34,56.88a16.75,16.75,0,1,0-3.69,23.39A16.77,16.77,0,0,0,479.34,56.88Z"/><path id="_路徑_3" data-name="&lt;路徑&gt;" class="cls-16" d="M475.7,98.51a13,13,0,0,1,14.83-10.8"/><path id="_路徑_4" data-name="&lt;路徑&gt;" class="cls-16" d="M505,96.81A13,13,0,0,1,519.8,86"/><path id="_路徑_5" data-name="&lt;路徑&gt;" class="cls-16" d="M530.45,109.58a13,13,0,0,1,14.83-10.8"/><path id="_路徑_6" data-name="&lt;路徑&gt;" class="cls-16" d="M489.28,131.53a13,13,0,0,1,14.84-10.81"/><path id="_路徑_7" data-name="&lt;路徑&gt;" class="cls-16" d="M462.24,146.53a13,13,0,0,1,14.84-10.81"/><path id="_路徑_8" data-name="&lt;路徑&gt;" class="cls-16" d="M449,117.2a13,13,0,0,1,14.83-10.81"/><path id="_路徑_9" data-name="&lt;路徑&gt;" class="cls-16" d="M502.63,155.45a13,13,0,0,1,14.84-10.8"/><path id="_路徑_10" data-name="&lt;路徑&gt;" class="cls-16" d="M475.11,185.32a13,13,0,0,1,14.82-10.8"/><path id="_路徑_11" data-name="&lt;路徑&gt;" class="cls-16" d="M476.27,68.22a13,13,0,0,1,14.83-10.8"/><path id="_路徑_12" data-name="&lt;路徑&gt;" class="cls-16" d="M502.49,59.29a13,13,0,0,1,14.83-10.81"/><path id="_路徑_13" data-name="&lt;路徑&gt;" class="cls-16" d="M453,64.74A13,13,0,0,1,467.8,53.93"/></g><g id="_群組_5" data-name="&lt;群組&gt;"><path id="_路徑_14" data-name="&lt;路徑&gt;" class="cls-6" d="M276.55,120.83a190.43,190.43,0,0,1,5.86-39l-7.13-1.61a197.8,197.8,0,0,0-3.6,41.29"/><path class="cls-17" d="M332.74,149.91c-2.37-31.87-30.1-53.49-59-35.78-28.92-17.71-56.66,3.91-59,35.78-2.53,34.17,21.68,62.72,48.4,53.12,2.07-.75,7.35-2.54,10.57-2.54h.11c3.22,0,8.49,1.79,10.57,2.54C311.06,212.63,335.27,184.08,332.74,149.91Z"/><g class="cls-4"><path class="cls-5" d="M241.84,129.25a6.49,6.49,0,1,0,6.49,6.5A6.5,6.5,0,0,0,241.84,129.25Z"/></g><g class="cls-18"><path class="cls-17" d="M304.4,124.41a1.89,1.89,0,1,0,1.91,1.89A1.88,1.88,0,0,0,304.4,124.41Z"/></g><g class="cls-18"><path class="cls-17" d="M315.62,149.19a1.9,1.9,0,1,0,1.9,1.89A1.9,1.9,0,0,0,315.62,149.19Z"/></g><g class="cls-18"><path class="cls-17" d="M294.84,152.74a1.89,1.89,0,1,0,1.9,1.89A1.89,1.89,0,0,0,294.84,152.74Z"/></g><g class="cls-18"><path class="cls-17" d="M306.76,183.42a1.89,1.89,0,1,0,1.91,1.9A1.89,1.89,0,0,0,306.76,183.42Z"/></g><g class="cls-18"><path class="cls-17" d="M289.06,172.92a1.9,1.9,0,1,0,1.9,1.91A1.9,1.9,0,0,0,289.06,172.92Z"/></g><g class="cls-18"><path class="cls-17" d="M285.39,136.79a1.9,1.9,0,1,0,1.9,1.9A1.9,1.9,0,0,0,285.39,136.79Z"/></g><g class="cls-18"><path class="cls-17" d="M269.58,161.71a1.89,1.89,0,1,0,0,3.78,1.89,1.89,0,1,0,0-3.78Z"/></g><g class="cls-18"><path class="cls-17" d="M262.51,180.48a1.89,1.89,0,1,0,1.88,1.89A1.89,1.89,0,0,0,262.51,180.48Z"/></g><g class="cls-18"><path class="cls-17" d="M238.3,178.12a1.89,1.89,0,1,0,1.9,1.89A1.89,1.89,0,0,0,238.3,178.12Z"/></g><g class="cls-18"><path class="cls-17" d="M228.73,159.22a1.9,1.9,0,1,0,0,3.79,1.9,1.9,0,0,0,0-3.79Z"/></g><g class="cls-18"><path class="cls-17" d="M250,153.32a1.9,1.9,0,1,0,1.91,1.9A1.89,1.89,0,0,0,250,153.32Z"/></g><g class="cls-18"><path class="cls-17" d="M260,122a1.89,1.89,0,1,0,1.9,1.89A1.9,1.9,0,0,0,260,122Z"/></g></g><polygon class="cls-6" points="422.72 52.14 414.99 53.31 417.14 83.69 424.23 83.48 422.72 52.14"/><path class="cls-19" d="M436.07,79.6c-23.23-8.66-39.76,1.58-50.13,13.56-9.73,11.24-13.81,26.06-13,40.91,1,19.05-9.91,42-20.79,59.82-9.77,16-2.29,36.65,21,35.61C467,225.29,479.16,95.67,436.07,79.6Z"/><g class="cls-4"><path class="cls-5" d="M400.73,106.5a6,6,0,1,0,4.59,7.16A6,6,0,0,0,400.73,106.5Z"/></g><g id="_群組_6" data-name="&lt;群組&gt;"><g id="_剪裁群組_" data-name="&lt;剪裁群組&gt;"><g class="cls-20"><path class="cls-21" d="M297.1,197.05c-100.25,0-193.18-16.91-269.87-45.74,7.56,72.48,74.25,167.42,269.87,167.78,195.62-.36,262.32-95.3,269.88-167.78C490.29,180.14,397.34,197.05,297.1,197.05Z"/><path class="cls-22" d="M297.1,269.46c-10.91,0-21.61-.42-32.24-.83v13.8a106,106,0,0,0,64.48,0v-13.8C318.71,269,308,269.52,297.1,269.46Z"/><path class="cls-22" d="M297.1,220.52c-10.85,0-21.57-.42-32.24-.79v13.83a113.08,113.08,0,0,0,32.24,4.93,114.44,114.44,0,0,0,32.24-4.93V219.73C318.68,220.1,308,220.52,297.1,220.52Z"/><path class="cls-22" d="M370.8,266.08v13.83c22,4.16,44.21-1.37,64.48-8.7v-14C414.87,261.14,393.15,266.54,370.8,266.08Z"/><path class="cls-22" d="M370.8,217.4v13.87c21.66,4.34,43.84-.36,64.48-7.3V210C414.41,213.29,392.73,217.86,370.8,217.4Z"/><path class="cls-22" d="M476.74,247.68V262c23,.14,45.27-11.41,64.5-22.34V224.3C522.16,233.37,500.29,245.15,476.74,247.68Z"/><path class="cls-22" d="M476.74,202.6v14.11c22,1.56,44.14-7.06,64.5-15.8V186.47C520.75,192.68,499,201.29,476.74,202.6Z"/><path class="cls-22" d="M158.91,257.16v14c20.27,7.3,42.45,12.87,64.49,8.7V266.08C201.06,266.56,179.35,261.13,158.91,257.16Z"/><path class="cls-22" d="M158.91,210v14c20.65,7,42.83,11.64,64.49,7.3V217.4C201.47,217.85,179.79,213.3,158.91,210Z"/><path class="cls-22" d="M53,224.31v15.36c19.22,10.91,41.47,22.49,64.49,22.33V247.68C93.9,245.15,72,233.35,53,224.31Z"/><path class="cls-22" d="M53,186.47v14.44c20.34,8.73,42.5,17.36,64.49,15.8V202.62C95.23,201.28,73.46,192.68,53,186.47Z"/><path class="cls-22" d="M317.83,293.52V307.3c21.79,5.55,44.06,2.53,64.49-4.15V289.34C361.66,291.76,340,294.58,317.83,293.52Z"/><path class="cls-22" d="M317.83,244.56v13.8c21.66,5.57,43.89,2.7,64.49-3.89V240.61C361.46,242.85,339.82,245.54,317.83,244.56Z"/><path class="cls-22" d="M423.77,283.46v14c22.59,2.35,44.77-6.28,64.5-15.17V267.71C468.56,274.12,446.72,282.73,423.77,283.46Z"/><path class="cls-22" d="M423.77,235.28v14c22.16,2.67,44.32-4.89,64.5-13.13V221.87C468,227.33,446.2,234.78,423.77,235.28Z"/><path class="cls-22" d="M529.71,209v14.65c23.35-1.91,45.49-16,64.49-28.78v-16C575.49,190.22,553.59,204.65,529.71,209Z"/><path class="cls-22" d="M211.89,289.34v13.81c20.43,6.68,42.69,9.72,64.49,4.15V293.52C254.22,294.6,232.56,291.76,211.89,289.34Z"/><path class="cls-22" d="M211.89,240.61v13.86c20.58,6.6,42.82,9.49,64.49,3.89v-13.8C254.38,245.53,232.74,242.83,211.89,240.61Z"/><path class="cls-22" d="M106,267.7v14.58c19.7,8.91,41.91,17.49,64.48,15.17v-14C147.48,282.71,125.64,274.12,106,267.7Z"/><path class="cls-22" d="M106,221.87v14.27c20.16,8.24,42.32,15.8,64.48,13.13v-14C148,234.78,126.21,227.33,106,221.87Z"/><path class="cls-22" d="M0,178.9v16c19,12.76,41.14,26.85,64.49,28.78V209C40.62,204.65,18.71,190.21,0,178.9Z"/><path class="cls-23" d="M342,268.08v13.8a30.65,30.65,0,0,0,16.12-1V267C352.81,267.41,347.43,267.91,342,268.08Z"/><path class="cls-23" d="M342,219.25V233.1a30.34,30.34,0,0,0,16.12-.92V218.34C352.79,218.69,347.41,219.09,342,219.25Z"/><path class="cls-23" d="M448,254.57v14.18c5.35.37,10.94-1.09,16.13-3.5V251C458.81,252.23,453.39,253.75,448,254.57Z"/><path class="cls-23" d="M448,208v14a33.44,33.44,0,0,0,16.13-2.82V205.14C458.77,206.16,453.35,207.34,448,208Z"/><path class="cls-23" d="M553.9,182.57V197c5.36-.22,10.88-2.42,16.12-5.28V177.17C564.73,179,559.33,181.2,553.9,182.57Z"/><path class="cls-23" d="M236.06,267v13.81a30.73,30.73,0,0,0,16.14,1v-13.8C246.77,267.89,241.41,267.44,236.06,267Z"/><path class="cls-23" d="M236.06,218.34v13.84a30.41,30.41,0,0,0,16.14.92V219.26C246.79,219.1,241.42,218.69,236.06,218.34Z"/><path class="cls-23" d="M130.14,251v14.3c5.17,2.39,10.77,3.86,16.1,3.51V254.57C140.81,253.73,135.39,252.24,130.14,251Z"/><path class="cls-23" d="M130.14,205.14v14.05a33.33,33.33,0,0,0,16.1,2.82V208C140.84,207.33,135.43,206.14,130.14,205.14Z"/><path class="cls-23" d="M24.18,177.17v14.58c5.23,2.83,10.77,5.06,16.13,5.28V182.57C34.86,181.21,29.48,179,24.18,177.17Z"/><path class="cls-23" d="M395,287.82v13.86a31.86,31.86,0,0,0,16.14-2.19V285.55C405.83,286.4,400.4,287.32,395,287.82Z"/><path class="cls-23" d="M395,239.23v13.91a31.89,31.89,0,0,0,16.14-2V237.22C405.8,238,400.38,238.78,395,239.23Z"/><path class="cls-23" d="M500.92,263.35v14.78c5.43-.44,11-2.93,16.13-6v-15C511.85,259.25,506.44,261.79,500.92,263.35Z"/><path class="cls-23" d="M500.92,218.31v14.41c5.38-.08,10.93-2.09,16.13-4.83V213.34C511.79,215.07,506.38,217.1,500.92,218.31Z"/><path class="cls-23" d="M297.1,293.78c-2.71,0-5.38-.06-8.06-.06v13.8a31.4,31.4,0,0,0,8.06,1.17,30.21,30.21,0,0,0,8.06-1.17v-13.8C302.47,293.77,299.8,293.77,297.1,293.78Z"/><path class="cls-23" d="M297.1,244.82c-2.71,0-5.36-.1-8.06-.1v13.81a32.08,32.08,0,0,0,8.06,1.2,30.18,30.18,0,0,0,8.06-1.2V244.72C302.48,244.73,299.82,244.8,297.1,244.82Z"/><path class="cls-23" d="M183.1,285.55v13.94a32,32,0,0,0,16.12,2.19V287.82C193.79,287.35,188.4,286.36,183.1,285.55Z"/><path class="cls-23" d="M183.1,237.22v13.94a31.72,31.72,0,0,0,16.12,2V239.23C193.82,238.78,188.42,238,183.1,237.22Z"/><path class="cls-23" d="M77.15,257.07v15c5.16,3.12,10.7,5.59,16.13,6V263.35C87.77,261.79,82.33,259.25,77.15,257.07Z"/><path class="cls-23" d="M77.15,213.34v14.55c5.2,2.72,10.76,4.76,16.13,4.83V218.31C87.81,217.11,82.42,215.07,77.15,213.34Z"/></g></g><g id="_群組_7" data-name="&lt;群組&gt;"><path class="cls-24" d="M566.93,137.74a13.94,13.94,0,1,0,13.94,13.94A13.94,13.94,0,0,0,566.93,137.74Z"/><path class="cls-24" d="M27.28,137.74a13.94,13.94,0,1,0,13.94,13.94A13.94,13.94,0,0,0,27.28,137.74Z"/><g id="_群組_8" data-name="&lt;群組&gt;"><path id="_路徑_15" data-name="&lt;路徑&gt;" class="cls-1" d="M572.32,149.24c-77.69,30.07-172.62,47.81-275.22,47.81S99.56,179.31,21.88,149.24"/><g id="_群組_9" data-name="&lt;群組&gt;"><path class="cls-24" d="M567.81,137.57l-.26.25.12,0c-2.73,3.34-4.1,9.58-5,14.85L561.59,157l-.33,1-1.62,3.71,0,.07-2.25,3.54-.37.5-2.61,3c6.1,1.85,15.62-1.09,22.4-8.06Z"/><path class="cls-25" d="M546.1,145.47l.13,0c-2.82,3.34-4.35,9.76-5.47,14.93l-1.24,4.2-.38,1-1.76,3.61,0,.09-2.4,3.39-.39.49L531.83,176c6,2.06,15.66-.09,22.54-7.24h0l2.62-3,.37-.5,2.25-3.54,0-.07,1.62-3.71.33-1,1.09-4.28c.89-5.27,2.26-11.51,5-14.85C561.64,135.92,552.74,138.58,546.1,145.47Z"/><path class="cls-24" d="M524.4,152.43l.13,0-.08.11,7.19,23.67.19-.2,2.73-2.87.39-.49,2.4-3.39,0-.09,1.76-3.61.38-1,1.24-4.2c1.12-5.17,2.65-11.59,5.47-14.93C540.38,143.68,531.36,146,524.4,152.43Z"/></g><g id="_群組_10" data-name="&lt;群組&gt;"><path class="cls-24" d="M524.37,152.29l-.29.24.13,0c-3,3.21-4.76,9.41-6,14.67l-1.36,4.23-.42,1-1.85,3.65,0,.06L512,179.51l-.42.46-2.83,2.74c6,2.58,15.59-.07,22.81-6.65Z"/><path class="cls-25" d="M502.17,158.84l.13,0c-3.1,3.06-5.12,9.15-6.55,14.31l-1.53,4.15-.43,1-2,3.54-.05.07-2.59,3.29-.43.47-2.9,2.75c5.84,2.42,15.49.48,22.94-5.72h0L511.6,180l.42-.46,2.49-3.36,0-.06,1.85-3.65.42-1,1.36-4.23c1.26-5.26,3.06-11.46,6-14.67C518.32,150.19,509.4,152.8,502.17,158.84Z"/><path class="cls-24" d="M480,164.36l.13,0-.1.1,5.58,24.09.2-.17h0l2.9-2.75.43-.47,2.59-3.29.05-.07,2-3.54.43-1,1.53-4.15c1.43-5.16,3.45-11.25,6.55-14.31C496.49,156.37,487.35,158.15,480,164.36Z"/></g><g id="_群組_11" data-name="&lt;群組&gt;"><path class="cls-24" d="M480,164.22l-.3.22.13,0c-3.15,3.15-5.39,9.11-7,14.18l-1.65,4.06-.49.93-2.09,3.44-.05.07-2.71,3.16-.44.45-3,2.6c5.78,2.6,15.62,1.39,23.2-4.94Z"/><path class="cls-25" d="M457.34,169.13l.11.05c-3.27,2.94-5.67,8.93-7.42,14l-1.77,4.07-.5.95-2.2,3.45,0,.07-2.8,3-.46.41-3.08,2.47c5.72,3.08,15.42,1.55,23.21-4.33h0l3-2.6.44-.45,2.71-3.16.05-.07,2.09-3.44.49-.93,1.65-4.06c1.62-5.07,3.86-11,7-14.18C474.18,162.14,464.86,163.2,457.34,169.13Z"/><path class="cls-24" d="M434.85,173.31l.13.06-.09.1L439,197.86l.21-.16,3.08-2.47.46-.41,2.8-3,0-.07,2.2-3.45.5-.95,1.77-4.07c1.75-5.12,4.15-11.11,7.42-14C451.8,166.29,442.65,168,434.85,173.31Z"/></g><g id="_群組_12" data-name="&lt;群組&gt;"><path class="cls-24" d="M434.83,173.17l-.31.2.13.06c-3.37,2.76-6,8.63-7.88,13.66l-1.89,4-.53.91-2.3,3.34-.05.06-2.88,3.06-.47.42-3.13,2.47c5.62,3,15.43,1.9,23.43-3.66Z"/><path class="cls-25" d="M411.92,176.85l.11.06c-3.42,2.83-6.18,8.6-8.25,13.49l-2,3.89-.57.89-2.39,3.24-.05.06-3,2.91-.47.4-3.21,2.33c5.5,3.09,15.33,2.8,23.42-2.78h0l3.13-2.46.47-.42,2.88-3.06.05-.06,2.3-3.34.53-.91,1.89-4c1.92-5,4.51-10.9,7.88-13.66C429.11,170.39,419.79,171.33,411.92,176.85Z"/><path class="cls-24" d="M389.19,179.54l.11.06-.09.08,2.67,24.59.22-.15h0l3.21-2.33.47-.4,3-2.91.05-.06,2.39-3.24.57-.89,2-3.89c2.07-4.89,4.83-10.66,8.25-13.49C406.63,174,397.23,174.32,389.19,179.54Z"/></g><g id="_群組_13" data-name="&lt;群組&gt;"><path class="cls-24" d="M389.18,179.39l-.33.18.12.06c-3.53,2.62-6.44,8.38-8.63,13.33l-2.12,3.9-.58.89L375.16,201l-.05.06-3.06,2.86-.49.39-3.26,2.17c5.45,3.61,15.28,2.75,23.57-2.39Z"/><path class="cls-25" d="M366.08,181.82l.12.07c-3.6,2.45-6.69,8.08-9,12.92l-2.23,3.8-.61.87-2.56,3.12-.07.06-3.12,2.79-.5.37-3.32,2.2c5.33,3.43,15.12,3.24,23.52-1.54h0l3.27-2.17.49-.39,3.06-2.86.05-.06,2.48-3.25.58-.89,2.12-3.9c2.19-5,5.1-10.71,8.63-13.33C383.6,176.25,374.3,177.12,366.08,181.82Z"/><path class="cls-24" d="M343.23,183.31l.1.06-.1.09,1.32,24.68.23-.12h0l3.33-2.2.5-.37,3.12-2.79.07-.06,2.56-3.12.61-.87,2.23-3.8c2.32-4.84,5.41-10.47,9-12.92C360.92,178.39,351.55,178.5,343.23,183.31Z"/></g><g id="_群組_14" data-name="&lt;群組&gt;"><path class="cls-24" d="M343.21,183.16l-.32.17.11.06c-3.66,2.44-6.89,8.17-9.34,12.86L331.34,200l-.65.83-2.65,3-.06.07-3.2,2.64-.51.37-3.38,2c5.26,3.63,15.11,4.06,23.65-1Z"/><path class="cls-25" d="M320,184.17l.11.07c-3.73,2.31-7.11,7.8-9.7,12.52L308,200.47l-.66.85-2.74,3-.05.06L301.29,207l-.52.35-3.43,2c5.12,3.67,14.9,3.92,23.55-.5l3.38-2,.51-.37,3.2-2.64.06-.07,2.65-3,.65-.83,2.32-3.72c2.45-4.69,5.68-10.42,9.34-12.86C337.85,180,328.46,179.81,320,184.17Z"/><path class="cls-24" d="M297.1,184.66l.11.08-.11.08v24.73l.24-.13h0l3.44-2,.52-.35,3.27-2.64.05-.06,2.74-3,.66-.85,2.41-3.71c2.59-4.72,6-10.21,9.7-12.52C315.05,180.52,305.67,180.24,297.1,184.66Z"/></g><g id="_群組_15" data-name="&lt;群組&gt;"><path class="cls-24" d="M296.76,184.66l.12.08c-3.79,2.15-7.32,7.48-10,12.09l-2.53,3.6-.67.81-2.82,2.9-.06.05-3.33,2.5-.53.34-3.49,1.89c5.05,3.9,14.88,4.54,23.67.45V184.53Z"/><path class="cls-25" d="M273.87,184.17l.1.07c-3.85,2.14-7.51,7.47-10.35,12.09l-2.62,3.6-.69.81-2.89,2.84-.06,0L254,206l-.53.31L249.89,208c4.92,4.23,14.66,5,23.54.88l3.49-1.89.53-.34,3.33-2.5.06-.05,2.82-2.9.67-.81,2.53-3.6c2.7-4.61,6.23-9.94,10-12.09C291.9,180.79,282.55,180.1,273.87,184.17Z"/><path class="cls-24" d="M251,183.31l.09.08-.11.07-1.32,24.68.24-.1,3.54-1.74L254,206l3.4-2.36.06,0,2.89-2.84.69-.81,2.62-3.6c2.84-4.62,6.5-10,10.35-12.09C269.1,180.25,259.74,179.79,251,183.31Z"/></g><g id="_群組_16" data-name="&lt;群組&gt;"><path class="cls-24" d="M250.64,183.28l.1.08c-3.89,2-7.7,7.15-10.65,11.65l-2.72,3.48-.71.77-3,2.78-.06.05-3.48,2.36-.55.3L226,206.48c4.83,4.11,14.62,5.2,23.63,1.48l1.33-24.8Z"/><path class="cls-25" d="M227.79,181.8l.1.08c-4,2-7.9,7.07-11,11.4l-2.8,3.38-.73.75-3,2.63-.06.05-3.54,2.21-.55.29-3.63,1.58c4.71,4.19,14.37,6,23.47,2.31l3.57-1.73.55-.3,3.48-2.36.06-.05,3-2.78.71-.77,2.72-3.48c2.95-4.5,6.76-9.67,10.65-11.65C246,179.2,236.68,178.12,227.79,181.8Z"/><path class="cls-24" d="M205,179.54l.1.08-.12.06-2.69,24.59.25-.1h0l3.64-1.58.55-.29,3.54-2.21.06-.05,3-2.63.73-.75,2.8-3.38c3.07-4.33,7-9.37,11-11.4C223.23,177.9,214,176.18,205,179.54Z"/></g><g id="_群組_17" data-name="&lt;群組&gt;"><path class="cls-24" d="M204.68,179.5l.1.08c-4,1.81-8.09,6.8-11.3,11.14l-2.91,3.37-.76.75-3.12,2.62-.06.06L183,199.67l-.55.26-3.67,1.43c4.56,4.7,14.33,6,23.54,2.73l2.68-24.7Z"/><path class="cls-25" d="M182,176.8l.09.08c-4,1.63-8.26,6.46-11.58,10.68l-3,3.23-.77.71L163.5,194l-.06,0-3.66,2-.57.27-3.73,1.41c4.45,4.49,14.08,6.44,23.32,3.59h0l3.67-1.42.55-.26,3.61-2.15.06-.06,3.12-2.62.76-.75,2.91-3.37c3.21-4.34,7.3-9.33,11.3-11.14C200.27,175.13,191,174,182,176.8Z"/><path class="cls-24" d="M159.34,173.31l.1.09-.12.07-4.1,24.39.26-.09,3.73-1.41.57-.27,3.66-2,.06,0,3.2-2.51.77-.71,3-3.23c3.32-4.22,7.54-9.05,11.58-10.68C177.68,172.32,168.5,170.43,159.34,173.31Z"/></g><g id="_群組_18" data-name="&lt;群組&gt;"><path class="cls-24" d="M159,173.27l.1.08c-4.1,1.61-8.5,6.47-11.92,10.47l-3.09,3.12-.79.68L140.05,190,140,190l-3.71,1.86-.58.25-3.74,1.26c4.33,4.62,13.88,7.34,23.32,4.28l4.11-24.51Z"/><path class="cls-25" d="M136.54,169.06l.1.11c-4.14,1.43-8.65,6-12.22,10.08l-3.2,3.1-.83.67L117,185.37l-.06,0-3.79,1.84-.59.21-3.78,1.09c4.11,5.08,13.7,7.16,23.12,4.85h0l3.75-1.26.58-.25L140,190l.08-.05,3.26-2.36.79-.68,3.09-3.12c3.42-4,7.82-8.86,11.92-10.47C154.8,169,145.75,166.59,136.54,169.06Z"/><path class="cls-24" d="M114.18,164.36l.1.1-.13,0-5.58,24.09.25,0,3.78-1.09.59-.21,3.79-1.84.06,0,3.35-2.35.83-.67,3.2-3.1c3.57-4,8.08-8.65,12.22-10.08C132.54,164.33,123.42,162.34,114.18,164.36Z"/></g><g id="_群組_19" data-name="&lt;群組&gt;"><path class="cls-24" d="M113.85,164.28l.1.1c-4.17,1.25-8.81,5.67-12.5,9.56l-3.29,3-.84.63-3.42,2.2-.07,0L90,181.45l-.59.22-3.85,1.07c4,4.9,13.54,7.72,23.06,5.69l5.61-24.21Z"/><path class="cls-25" d="M91.71,158.75l.08.11c-4.24,1.3-9,5.58-12.83,9.25l-3.38,2.81-.86.6-3.47,2-.07,0-3.89,1.53-.59.17-3.88.89c3.87,5,13.08,8.63,22.73,6.56h0l3.85-1.06.59-.22,3.84-1.68.07,0,3.42-2.2.84-.63,3.29-3c3.69-3.89,8.33-8.31,12.5-9.56C110,159.44,101.09,156.72,91.71,158.75Z"/><path class="cls-24" d="M69.79,152.43l.1.1-.13,0-7.2,23.67.26-.06,3.88-.89.59-.17,3.89-1.53.07,0,3.47-2,.86-.6L79,168.11c3.79-3.67,8.59-8,12.83-9.25C87.91,154.12,79.21,150.77,69.79,152.43Z"/></g><g id="_群組_20" data-name="&lt;群組&gt;"><path class="cls-24" d="M69.47,152.33l.09.1c-4.25,1-9.2,5.21-13.18,8.88l-3.49,2.76-.89.6-3.56,2-.08,0L44.44,168l-.61.15-3.88.7c3.61,5.48,12.95,8.82,22.66,7.22l7.23-23.77Z"/><path class="cls-25" d="M47.78,145.36l.09.09c-4.27.85-9.35,4.78-13.44,8.27l-3.58,2.6-.91.56-3.64,1.83-.09,0-4,1.3-.61.14-4,.68c3.49,5.24,12.64,9,22.32,8h0l3.88-.7.61-.15,3.92-1.33.08,0,3.56-2,.89-.6,3.49-2.76c4-3.67,8.93-7.84,13.18-8.88C66,147.28,57.11,144.4,47.78,145.36Z"/><path class="cls-24" d="M26.34,137.71l.08.09-.13,0-8.93,23.07.27,0h0l4-.67.61-.14,4-1.3.09,0,3.64-1.83.91-.56,3.58-2.6c4.09-3.49,9.17-7.42,13.44-8.27C44.46,140.16,35.89,136.6,26.34,137.71Z"/></g></g></g></g></g></g></g></svg>