<svg xmlns="http://www.w3.org/2000/svg" viewBox="0 0 284.44 267"><defs><style>.cls-1{fill:#f8fef2;}.cls-2{fill:#94c85b;}.cls-3{fill:#eb8800;}.cls-4{fill:#f99001;}.cls-10,.cls-11,.cls-4,.cls-5,.cls-6,.cls-7{fill-rule:evenodd;}.cls-5,.cls-8{fill:#8f4d0e;}.cls-6{fill:#89aa14;}.cls-7{fill:#6e8808;}.cls-9{fill:#fdae42;}.cls-10{fill:#333;}.cls-11{fill:none;stroke:#333;stroke-linecap:round;stroke-linejoin:round;stroke-width:3.36px;}</style></defs><title>資產 11</title><g id="圖層_2" data-name="圖層 2"><g id="footer"><path class="cls-1" d="M284.44,108.43A56.14,56.14,0,0,0,203.75,58c0-.61,0-1.22,0-1.84A56.12,56.12,0,0,0,93.5,41.44a71.92,71.92,0,0,0-60.8,128.9,71.94,71.94,0,1,0,135.42,48.58,56.12,56.12,0,1,0,91.79-64.1A56.09,56.09,0,0,0,284.44,108.43Z"/><path class="cls-2" d="M272.72,110.5a51.51,51.51,0,0,0-74-46.31c0-.56,0-1.12,0-1.69A51.5,51.5,0,0,0,97.51,49,66,66,0,0,0,41.72,167.31,66,66,0,1,0,166,211.88a51.5,51.5,0,1,0,84.22-58.82A51.42,51.42,0,0,0,272.72,110.5Z"/><ellipse class="cls-3" cx="149.83" cy="135.34" rx="55.06" ry="44.35"/><path class="cls-4" d="M193.09,107.9C183,97.6,167.38,91,149.83,91c-30.4,0-55.05,19.86-55.05,44.35a37,37,0,0,0,4.74,18c10.08,10.29,25.7,16.9,43.25,16.9,30.41,0,55.06-19.85,55.06-44.35A37.11,37.11,0,0,0,193.09,107.9Z"/><polygon class="cls-5" points="167.31 101.03 154.23 101.04 150.22 95.21 146.2 101.04 133.13 101.03 143.72 104.61 139.65 110.43 150.22 106.82 160.78 110.43 156.71 104.61 167.31 101.03"/><path class="cls-6" d="M138.46,80C140.85,90.18,166,88.74,171,72.34,159.27,59.86,136.07,69.75,138.46,80Z"/><path class="cls-7" d="M138.46,80C140.85,90.18,166,88.74,171,72.34,158.35,72.78,147.13,75.21,138.46,80Z"/><path class="cls-8" d="M151.89,102a31.09,31.09,0,0,0-6-15.72,27,27,0,0,0-13.29-9.2,2.23,2.23,0,0,0-1.34,4.26A22.48,22.48,0,0,1,142.32,89a26.67,26.67,0,0,1,5.14,13.51,2.23,2.23,0,0,0,4.43-.52Z"/><path class="cls-9" d="M130.7,105.92a4.32,4.32,0,0,0-5.59-2.47,34.08,34.08,0,0,0-21.67,29.85,4.33,4.33,0,0,0,8.64.48,25.52,25.52,0,0,1,16.15-22.27A4.32,4.32,0,0,0,130.7,105.92Z"/><path class="cls-6" d="M141.81,82.61c-3,10,19.47,21.41,32,9.71C169.89,75.64,144.86,72.57,141.81,82.61Z"/><path class="cls-7" d="M141.81,82.61c-3,10,19.47,21.41,32,9.71C162.63,86.36,151.69,82.85,141.81,82.61Z"/><path class="cls-10" d="M132.39,127.47a5.45,5.45,0,1,0,5.51,5.38A5.44,5.44,0,0,0,132.39,127.47Z"/><path class="cls-11" d="M166.83,147.58c-8.21,11.06-25.94,12.31-35,.42"/><path class="cls-11" d="M173.21,134.86a9.19,9.19,0,0,0-14.56.17"/></g></g></svg>