<svg xmlns="http://www.w3.org/2000/svg" viewBox="0 0 284.44 267"><defs><style>.cls-1{fill:#f8fef2;}.cls-2{fill:#94c85b;}.cls-3,.cls-9{fill:#d43a3f;}.cls-11,.cls-12,.cls-13,.cls-14,.cls-15,.cls-3,.cls-4,.cls-6,.cls-7{fill-rule:evenodd;}.cls-4{fill:#e15458;}.cls-5{fill:#ed787c;}.cls-6{fill:#5c212b;}.cls-7{fill:#7b2c39;}.cls-8{fill:#caabb0;}.cls-10,.cls-13{fill:none;stroke-linecap:round;stroke-linejoin:round;}.cls-10{stroke:#8f4d0e;stroke-width:3.84px;}.cls-11{fill:#89aa14;}.cls-12{fill:#6e8808;}.cls-13{stroke:#333;stroke-width:2px;}.cls-14{fill:#333;}.cls-15{fill:#fff;}</style></defs><title>資產 10</title><g id="圖層_2" data-name="圖層 2"><g id="圖層_9" data-name="圖層 9"><path class="cls-1" d="M284.44,108.43A56.14,56.14,0,0,0,203.75,58c0-.61,0-1.22,0-1.84A56.12,56.12,0,0,0,93.5,41.44a71.92,71.92,0,0,0-60.8,128.9,71.94,71.94,0,1,0,135.42,48.58,56.12,56.12,0,1,0,91.79-64.1A56.09,56.09,0,0,0,284.44,108.43Z"/><path class="cls-2" d="M272.72,110.5a51.51,51.51,0,0,0-74-46.31c0-.56,0-1.12,0-1.69A51.5,51.5,0,0,0,97.51,49,66,66,0,0,0,41.72,167.31,66,66,0,1,0,166,211.88a51.5,51.5,0,1,0,84.22-58.82A51.42,51.42,0,0,0,272.72,110.5Z"/><path class="cls-3" d="M119,121.76c-6.6-1.6-13.51,3.42-15.39,11.18s2,15.38,8.57,17,13.51-3.42,15.39-11.18S125.62,123.36,119,121.76Z"/><path class="cls-4" d="M124.52,125.06a10.86,10.86,0,0,0-5.5-3.3c-6.62-1.6-13.51,3.4-15.39,11.18a16.42,16.42,0,0,0-.15,7.2,10.79,10.79,0,0,0,5.5,3.3c6.61,1.6,13.51-3.4,15.39-11.18A16.42,16.42,0,0,0,124.52,125.06Z"/><path class="cls-5" d="M116.42,123.43a9.1,9.1,0,0,0-8.32,5.24,1.71,1.71,0,1,0,3.1,1.44,5.66,5.66,0,0,1,5.17-3.26,1.71,1.71,0,1,0,0-3.42Z"/><path class="cls-6" d="M178.27,101.43c-9-2.17-18.38,4.66-20.93,15.2S160,137.55,169,139.73s18.37-4.66,20.92-15.2S187.24,103.61,178.27,101.43Z"/><path class="cls-7" d="M185.75,105.92a14.94,14.94,0,0,0-7.48-4.49c-9-2.18-18.37,4.63-20.93,15.2a22.41,22.41,0,0,0-.21,9.79,14.8,14.8,0,0,0,7.48,4.49c9,2.18,18.37-4.62,20.93-15.2A22.4,22.4,0,0,0,185.75,105.92Z"/><path class="cls-5" d="M174.73,103.7a12.36,12.36,0,0,0-11.31,7.12,2.33,2.33,0,0,0,4.22,2,7.67,7.67,0,0,1,7-4.42,2.33,2.33,0,1,0,.06-4.66Z"/><path class="cls-3" d="M153.08,152.39c-6.6-1.6-13.52,3.42-15.39,11.18s2,15.38,8.56,17,13.52-3.42,15.39-11.18S159.68,154,153.08,152.39Z"/><path class="cls-4" d="M158.58,155.69a10.94,10.94,0,0,0-5.5-3.3c-6.62-1.6-13.51,3.4-15.39,11.18a16.43,16.43,0,0,0-.16,7.2,10.93,10.93,0,0,0,5.51,3.3c6.61,1.6,13.5-3.4,15.39-11.18A16.42,16.42,0,0,0,158.58,155.69Z"/><path class="cls-5" d="M150.47,154.06a9.1,9.1,0,0,0-8.31,5.24,1.71,1.71,0,0,0,.83,2.27,1.72,1.72,0,0,0,2.27-.83,5.63,5.63,0,0,1,5.17-3.25,1.72,1.72,0,1,0,0-3.43Z"/><path class="cls-3" d="M165.61,134.89c-6.6-1.6-13.51,3.43-15.39,11.18s2,15.39,8.57,17,13.51-3.43,15.39-11.18S172.21,136.49,165.61,134.89Z"/><path class="cls-7" d="M171.12,138.2a11,11,0,0,0-5.51-3.31c-6.61-1.6-13.5,3.4-15.39,11.18a16.42,16.42,0,0,0-.15,7.2,10.87,10.87,0,0,0,5.5,3.3c6.62,1.61,13.51-3.4,15.39-11.17A16.58,16.58,0,0,0,171.12,138.2Z"/><path class="cls-5" d="M163,136.56a9.1,9.1,0,0,0-8.32,5.24,1.71,1.71,0,0,0,3.11,1.44,5.58,5.58,0,0,1,2.1-2.38A5.68,5.68,0,0,1,163,140a1.72,1.72,0,0,0,0-3.43Z"/><path class="cls-6" d="M141.52,133.68c-9-2.17-18.37,4.66-20.92,15.2s2.67,20.92,11.65,23.09,18.37-4.65,20.92-15.2S150.5,135.86,141.52,133.68Z"/><path class="cls-7" d="M149,138.17a14.93,14.93,0,0,0-7.49-4.49c-9-2.18-18.36,4.63-20.92,15.2a22.25,22.25,0,0,0-.21,9.79,14.8,14.8,0,0,0,7.48,4.49c9,2.18,18.37-4.62,20.93-15.2A22.4,22.4,0,0,0,149,138.17Z"/><path class="cls-5" d="M138,136a12.33,12.33,0,0,0-11.31,7.12,2.33,2.33,0,1,0,4.22,2,7.67,7.67,0,0,1,7-4.42A2.33,2.33,0,0,0,138,136Z"/><path class="cls-6" d="M123.11,142.87c-6.6-1.6-13.51,3.42-15.39,11.18s2,15.38,8.56,17,13.52-3.42,15.4-11.18S129.71,144.47,123.11,142.87Z"/><path class="cls-7" d="M128.61,146.17a11,11,0,0,0-5.5-3.3c-6.62-1.6-13.51,3.4-15.39,11.18a16.58,16.58,0,0,0-.16,7.2,10.86,10.86,0,0,0,5.51,3.3c6.61,1.6,13.5-3.4,15.39-11.18A16.42,16.42,0,0,0,128.61,146.17Z"/><path class="cls-8" d="M120.51,144.54a9.1,9.1,0,0,0-8.32,5.24,1.71,1.71,0,0,0,3.1,1.44,5.63,5.63,0,0,1,5.17-3.25,1.72,1.72,0,0,0,.05-3.43Z"/><path class="cls-6" d="M119.46,98.89c-9-2.17-18.37,4.66-20.92,15.2s2.67,20.92,11.65,23.1,18.37-4.66,20.92-15.2S128.44,101.07,119.46,98.89Z"/><path class="cls-4" d="M127,103.38a14.93,14.93,0,0,0-7.49-4.49c-9-2.18-18.36,4.63-20.92,15.2a22.41,22.41,0,0,0-.21,9.79,14.8,14.8,0,0,0,7.48,4.49c9,2.18,18.37-4.62,20.93-15.2A22.4,22.4,0,0,0,127,103.38Z"/><path class="cls-8" d="M115.93,101.16a12.33,12.33,0,0,0-11.31,7.12,2.32,2.32,0,1,0,4.21,2,7.7,7.7,0,0,1,7-4.42,2.33,2.33,0,0,0,.06-4.66Z"/><path class="cls-3" d="M166.25,75.59c-9-2.17-18.38,4.66-20.93,15.2S148,111.71,157,113.89s18.37-4.66,20.93-15.2S175.22,77.77,166.25,75.59Z"/><path class="cls-4" d="M173.73,80.08a14.94,14.94,0,0,0-7.48-4.49c-9-2.18-18.37,4.63-20.93,15.2a22.41,22.41,0,0,0-.21,9.79,14.79,14.79,0,0,0,7.49,4.49c9,2.18,18.36-4.62,20.92-15.2A22.4,22.4,0,0,0,173.73,80.08Z"/><path class="cls-5" d="M162.71,77.86A12.36,12.36,0,0,0,151.4,85a2.33,2.33,0,1,0,4.22,2,7.7,7.7,0,0,1,7-4.42,2.33,2.33,0,0,0,.06-4.66Z"/><path class="cls-7" d="M136.79,72.31c-9-2.18-18.37,4.65-20.92,15.19s2.67,20.92,11.64,23.1,18.38-4.66,20.93-15.2S145.76,74.48,136.79,72.31Z"/><path class="cls-7" d="M144.28,76.79a14.84,14.84,0,0,0-7.49-4.48c-9-2.18-18.36,4.62-20.92,15.19a22.26,22.26,0,0,0-.21,9.79,14.72,14.72,0,0,0,7.48,4.49c9,2.18,18.37-4.62,20.93-15.2A22.4,22.4,0,0,0,144.28,76.79Z"/><path class="cls-8" d="M133.25,74.58A12.3,12.3,0,0,0,122,81.69a2.32,2.32,0,1,0,4.21,2,7.7,7.7,0,0,1,7-4.42,2.33,2.33,0,0,0,.05-4.65Z"/><path class="cls-3" d="M150.12,102.58c-10.87-2.63-22.27,5.65-25.37,18.43s3.25,25.35,14.12,28,22.27-5.64,25.37-18.42S161,105.22,150.12,102.58Z"/><path class="cls-4" d="M159.19,108a18,18,0,0,0-9.07-5.45c-10.9-2.64-22.26,5.61-25.36,18.43a26.79,26.79,0,0,0-.25,11.86,18,18,0,0,0,9.06,5.45c10.91,2.64,22.26-5.61,25.37-18.43A27.09,27.09,0,0,0,159.19,108Z"/><path class="cls-5" d="M145.83,105.34a14.95,14.95,0,0,0-13.7,8.63,2.82,2.82,0,0,0,5.11,2.37,9.3,9.3,0,0,1,8.52-5.36,2.82,2.82,0,1,0,.07-5.64Z"/><ellipse class="cls-9" cx="133.65" cy="176.24" rx="14.49" ry="12.33" transform="translate(-69.1 264.63) rotate(-76.38)"/><path class="cls-4" d="M142.57,165.46a10.87,10.87,0,0,0-5.5-3.3c-6.62-1.61-13.51,3.4-15.4,11.17a16.57,16.57,0,0,0-.15,7.2,11,11,0,0,0,5.51,3.31c6.61,1.6,13.5-3.41,15.39-11.18A16.42,16.42,0,0,0,142.57,165.46Z"/><path class="cls-8" d="M134.46,163.83a9,9,0,0,0-8.31,5.23,1.71,1.71,0,1,0,3.1,1.44,5.67,5.67,0,0,1,5.17-3.25,1.71,1.71,0,1,0,0-3.42Z"/><path class="cls-10" d="M153.88,71.43c-3.74-8.38-11.58-10-16.4-8-7.71,3.09-.62,13.19,4.43,5,4.24-6.9-1.37-12.65-9.31-12.49"/><path class="cls-11" d="M182.61,87.77c3.25-1.71,6.24-5.63,9.25-5a14.73,14.73,0,0,1-5.46-6.21c-1.25-2.52-3.17-4.38-7.63-4.58s-2-5.09.95-4.22c-13.66-9.81-23.87-1.32-25.87,5-6.63,0-17.86,7-12.75,23.06.06-3,5.5-3.9,4.3.4s0,6.7,2,8.67a14.86,14.86,0,0,1,4.22,7.11c.31-3.06,5-4.7,7.59-7.25s.9-8,2.9-8,.28,9.48,7.71,11.12,10.93,1.89,13.68,5.69c-2.75-3.8-1.91-7.19-1.17-14.77s-8.82-8.88-8.2-10.78S179.36,89.49,182.61,87.77Z"/><path class="cls-12" d="M153.85,72.78c-6.63,0-17.86,7-12.75,23.06.06-3,5.5-3.9,4.3.4s0,6.7,2,8.67a14.86,14.86,0,0,1,4.22,7.11c.31-3.06,5-4.7,7.59-7.25s.9-8,2.9-8,.28,9.48,7.71,11.12,10.93,1.89,13.68,5.69a9.84,9.84,0,0,1-1.44-2.83"/><path class="cls-13" d="M152.41,137.83c-6.89,5.6-18.16,3.56-21.9-5.3"/><path class="cls-14" d="M136.41,117.07a4.21,4.21,0,1,0,3.1,5.08A4.21,4.21,0,0,0,136.41,117.07Z"/><path class="cls-14" d="M155,121.58a4.21,4.21,0,1,0,3.1,5.09A4.23,4.23,0,0,0,155,121.58Z"/><path class="cls-15" d="M134.63,118.38a.82.82,0,1,0,.6,1A.81.81,0,0,0,134.63,118.38Z"/><path class="cls-15" d="M153,122.83a.83.83,0,0,0-1,.61.82.82,0,0,0,1.6.39A.82.82,0,0,0,153,122.83Z"/></g></g></svg>