<svg xmlns="http://www.w3.org/2000/svg" xmlns:xlink="http://www.w3.org/1999/xlink" viewBox="0 0 1115.1 433.51"><defs><style>.cls-1{fill:none;}.cls-2{fill:#cea45a;}.cls-3{fill:#987845;}.cls-4{fill:#bdd266;}.cls-5{fill:#9ba365;}.cls-6{fill:#b99350;}.cls-7{clip-path:url(#clip-path);}.cls-8{fill:#bf9a67;}.cls-9{fill:#a6834f;}.cls-10{fill:#ceb289;}.cls-11{fill:#e3dbc7;}.cls-12{fill:#ceb189;}</style><clipPath id="clip-path"><path id="_剪裁路徑_" data-name="&lt;剪裁路徑&gt;" class="cls-1" d="M265,14.08c7.55,72.47,74.24,167.41,269.86,167.78C730.5,181.49,797.2,86.55,804.76,14.08,728.07,42.91,635.12,59.81,534.88,59.81S341.7,42.91,265,14.08Z"/></clipPath></defs><title>資產 3</title><g id="圖層_2" data-name="圖層 2"><g id="關於天然甘"><polygon id="_路徑_" data-name="&lt;路徑&gt;" class="cls-2" points="1073.17 203.06 1027.45 265.74 814.35 295.77 837.74 223.46 1073.17 203.06"/><polygon id="_路徑_2" data-name="&lt;路徑&gt;" class="cls-3" points="679.88 265.74 650.35 341.91 588.58 371.5 600.77 277.01 679.88 265.74"/><polygon id="_路徑_3" data-name="&lt;路徑&gt;" class="cls-3" points="365.98 265.74 365.98 395.46 271.3 371.5 253.7 280.77 365.98 265.74"/><path id="_路徑_4" data-name="&lt;路徑&gt;" class="cls-4" d="M287.57,106.49c-9.27-.47-119.23,16.08-119.23,16.08l-36,25.22-90.39,3L0,184.07s57.18,50.06,62.9,49,153.56,13,153.56,13l37.24,34.78,112.28-15v15l-43,26.31,57.56,20.67,239.74-20.67S595.39,277,600.77,277s72.78-11.27,79.12-11.27S829,271.38,829,271.38L860,245.72l-22.22-22.26,235.43-20.4,41.93-34.86s-30.49-38.26-36.21-41.77S771.7,109,771.7,109l8.95-15.84L299.89,86.67Z"/><polygon id="_路徑_5" data-name="&lt;路徑&gt;" class="cls-5" points="913.21 167.42 913.21 173.76 896.01 176.88 884.84 172.15 884.84 169.29 908.01 163.74 913.21 167.42"/><polygon id="_路徑_6" data-name="&lt;路徑&gt;" class="cls-5" points="1012.95 173.21 1012.95 181.74 990.71 185.76 986.89 179.48 999.92 170.59 1012.95 173.21"/><path id="_路徑_7" data-name="&lt;路徑&gt;" class="cls-5" d="M742.66,176.48l-4.7,5.26H719.23s-6.75,2.92-7.1,0l-.36-2.93-11.94-.63,4.64-4.42,23.16-3.17,12.49,3.17Z"/><path id="_路徑_8" data-name="&lt;路徑&gt;" class="cls-5" d="M835.09,165.54c-8.81-1.27-20.74,4.92-20.74,4.92l-17,5.07,4.29,7.32,31.12,6.25,27.77-5,16.58-13.66-11.65-5Z"/><path id="_路徑_9" data-name="&lt;路徑&gt;" class="cls-5" d="M255.35,132.51c-4.73-1.13-34.16,14.05-34.16,14.05l-27.73,15,13.69,22.54,165.47,4.55L576,174.9l96.81,3.4s24.63-13.33,28.52-12.74S736.83,156,736.83,156l-5.38-13.2-112-36.28Z"/><path id="_路徑_10" data-name="&lt;路徑&gt;" class="cls-5" d="M664,207.21c-3.79,2.44-24.4,2.56-27.3,2.36s0,9.14,0,9.14l-17.2,7-20.61-11-15.76,4L563.88,215l-21.1,30.74-14.4-7.23,5.31-19.78-40.16,7L495.17,210l-39.83,4.71,16.51-23.08,73.89-4.72,77.12,2.35,45.89,4.67Z"/><path id="_路徑_11" data-name="&lt;路徑&gt;" class="cls-5" d="M353.77,182.85l-24.83,9.77-47.68,4L253.69,210l-73.58-2.75-21,2.75-61.95-.39-21.92-22.7,29.13-19.22,58.3,3.75,7.53-10.88,77.66,1s17.8,4.38,19.8,4,73,1.71,76.11,2.09S353.77,182.85,353.77,182.85Z"/><polygon id="_路徑_12" data-name="&lt;路徑&gt;" class="cls-6" points="62.9 233.02 92.52 292.58 241.55 347.55 216.46 245.99 62.9 233.02"/><polygon id="_路徑_13" data-name="&lt;路徑&gt;" class="cls-2" points="0 184.07 36.77 254.53 92.52 292.58 62.9 233.02 0 184.07"/><polygon id="_路徑_14" data-name="&lt;路徑&gt;" class="cls-2" points="253.7 280.77 271.3 371.5 241.55 347.55 216.46 245.99 253.7 280.77"/><polygon id="_路徑_15" data-name="&lt;路徑&gt;" class="cls-2" points="322.98 307.08 345.52 395.46 393.97 433.51 380.54 327.75 322.98 307.08"/><polygon id="_路徑_16" data-name="&lt;路徑&gt;" class="cls-6" points="620.27 307.08 593.09 412.37 393.97 433.51 380.54 327.75 620.27 307.08"/><polygon id="_路徑_17" data-name="&lt;路徑&gt;" class="cls-2" points="650.35 341.91 793.38 330.6 829.03 271.38 679.88 265.74 650.35 341.91"/><polygon id="_路徑_18" data-name="&lt;路徑&gt;" class="cls-6" points="859.96 245.72 793.38 330.6 829.03 271.38 859.96 245.72"/><polygon id="_路徑_19" data-name="&lt;路徑&gt;" class="cls-6" points="1115.1 168.2 1073.17 239.03 1027.45 265.74 1073.17 203.06 1115.1 168.2"/><g id="_群組_" data-name="&lt;群組&gt;"><path id="_路徑_20" data-name="&lt;路徑&gt;" class="cls-5" d="M274.35,217.33c1.85-2.2,3.49-4.48,5.13-6.84l-3.61,1.45a10,10,0,0,1,1.94.54c.77.34.61.65.79.18.25-.62,0-.36-.34-.53a17,17,0,0,0-3-1c-3-.76-5.95,3.3-3.26,5.52,3.79,3.12,11.28,3.41,13-2.22,1.47-4.85-3.22-7.82-7.41-8.55a3.35,3.35,0,0,0-3.6,1.45c-1.41,2.21-2.75,4.39-4,6.72-1.32,2.59,2.22,5.81,4.33,3.3Z"/></g><g id="_群組_2" data-name="&lt;群組&gt;"><path id="_路徑_21" data-name="&lt;路徑&gt;" class="cls-5" d="M293.32,220.93c-.17.15,0,.09,0,0-.21.08-.25.1-.1,0s.11,0-.05,0,.09,0,.13,0c.24.11-.54-.07,0,0s-.17,0-.13-.08a3.18,3.18,0,0,1,.3.17c.44.21-.32-.27-.08-.06s-.37-.57-.1-.08V218c-.1.19-.07.16.11-.08a1.52,1.52,0,0,1,.6-.52c-.38.23.71-.25.37-.16s.35,0,.42,0c-.46,0-.15-.13.32.09a1.16,1.16,0,0,0-.32-.08c-.34,0,.72.38.32.13s.58.54.23.18c.4.41.3.31.51.87a3.22,3.22,0,0,0-3.86-2.16,3.13,3.13,0,0,0-2.2,3.8,4.9,4.9,0,0,0,3.72,3.23c2.19.4,4.5-.51,5.13-2.78.72-2.58-1.83-4.65-4.31-4.45a4.63,4.63,0,0,0-4.17,3.07,1.88,1.88,0,0,0,.88,2.11,2,2,0,0,0,2.3-.29Z"/></g><g id="_群組_3" data-name="&lt;群組&gt;"><path id="_路徑_22" data-name="&lt;路徑&gt;" class="cls-5" d="M303.56,211.69a3.08,3.08,0,0,0,1.33-.5,2.18,2.18,0,0,0,.89-1.72,2.33,2.33,0,0,0-.67-1.54,2.79,2.79,0,0,0-1.55-.67,2.31,2.31,0,1,0,0,4.43Z"/></g><g id="_群組_4" data-name="&lt;群組&gt;"><path id="_路徑_23" data-name="&lt;路徑&gt;" class="cls-5" d="M316.23,221c.08.24.17.48.26.73a1.75,1.75,0,0,0,3.33,0c.09-.25.17-.49.26-.73a2,2,0,1,0-3.85,0Z"/></g><g id="_群組_5" data-name="&lt;群組&gt;"><path id="_路徑_24" data-name="&lt;路徑&gt;" class="cls-5" d="M249.73,227.85a7.59,7.59,0,0,0-1.06.19,4.67,4.67,0,0,0-1,.54,1,1,0,0,0,0,1.78,4.33,4.33,0,0,0,1,.55,9.4,9.4,0,0,0,1.06.19,1.69,1.69,0,1,0,0-3.25Z"/></g><g id="_群組_6" data-name="&lt;群組&gt;"><path id="_路徑_25" data-name="&lt;路徑&gt;" class="cls-5" d="M455.2,228.44a17,17,0,0,1,1.64-2.91,10.38,10.38,0,0,1,.85-.9c.28-.26,1.38-.85.46-.76L455,222.09a26.56,26.56,0,0,0,3.73,4.41l-1.26-3c0,.48,0,.57.08.29s0-.19,0,.07-.08.27,0-.05l.18-.19-.31.31c.29-.2.3-.22,0-.05s-.25.14,0,0a.77.77,0,0,1,.43-.12c.17-.05.34.16.47.14-.43.07-.28-.24-.36-.33s-.71-.75-.36-.35a10,10,0,0,0-1.76-1.67c-1.6-1.18-4.43-.32-5.29,1.37-1.68,3.32.16,6.86,3.25,8.61a8.35,8.35,0,0,0,8.41-.12,8.51,8.51,0,0,0,3.95-7.09c.05-3.46-3.28-5.77-6.16-7.18-1.68-.82-4.05-.54-5,1.28-.71,1.39-2,2.45-2.63,3.92a10.18,10.18,0,0,0-1.08,5c.14,1.87,2.9,3,3.9,1Z"/></g><g id="_群組_7" data-name="&lt;群組&gt;"><path id="_路徑_26" data-name="&lt;路徑&gt;" class="cls-5" d="M437.65,219.24a14.28,14.28,0,0,0-2.1,5l1.44-1.85c.23-.11.16-.08-.21.07a5,5,0,0,1-.69.19c.24-.05.25-.06,0-.05s-.24,0,0,0a.73.73,0,0,1,.34.26c-.23-.24-.27-.27-.1-.08a.62.62,0,0,1,.22.43c-.1-.4-.11-.37,0,.09.25-.7-.1.33-.18.47a1.74,1.74,0,0,1-1.45.84l-.48-.08c.39.11.33.07-.19-.12-.41-.36-.48-.4-.2-.12.43.43.29.16-.41-.82a3.62,3.62,0,0,0,3.91,2.52,3.57,3.57,0,0,0,3.1-3.46c.15-3.6-3.75-6-7.08-5a5.73,5.73,0,0,0-3.77,7.56,6.59,6.59,0,0,0,8.05,3.93c2.09-.59,3.93-2,3.81-4.32a21.11,21.11,0,0,1-.11-3.82c.32-2.26-2.51-3.78-3.91-1.62Z"/></g><g id="_群組_8" data-name="&lt;群組&gt;"><path id="_路徑_27" data-name="&lt;路徑&gt;" class="cls-5" d="M432.06,236.44c-.21.37-.45.72-.69,1.08a10.15,10.15,0,0,0-.78,1.67l3.9-2.19a2.14,2.14,0,0,1,1.53,2.48l-1.7,1.68-1.81-.23a2.36,2.36,0,0,1-.94-2.44l3.21-2.41a16.5,16.5,0,0,0-2.9.18,3.87,3.87,0,0,0-3,2.67l1-1.32-.23.14a2.06,2.06,0,0,0,0,3.56l.23.11-.8-.79c1.12,2.26,3.47,2.16,5.65,2a3.42,3.42,0,0,0,3.2-2.41,4.3,4.3,0,0,0-1.66-4.54,4.13,4.13,0,0,0-6.56,4.26,4,4,0,0,0,3.05,3.08,3.39,3.39,0,0,0,3.08-.8,3.17,3.17,0,0,0,.82-3,8.29,8.29,0,0,0-.53-1.57s-.21-.41-.14-.25a3.28,3.28,0,0,0-.16-.44,2.13,2.13,0,0,0-3.82-.49Z"/></g><g id="_群組_9" data-name="&lt;群組&gt;"><path id="_路徑_28" data-name="&lt;路徑&gt;" class="cls-5" d="M409.11,236.63c-1.64-.11-2.48-.75-2.53-1.91.1-.52.12-.67.05-.43a2.21,2.21,0,0,1,3.21-1.3c.4.34.49.41.29.2.45.57.4.49-.17-.23a5.42,5.42,0,0,0-.94-.69,2.88,2.88,0,0,0-3.16.22,2.86,2.86,0,0,0-1,3,3.74,3.74,0,0,0,3.57,2.78,3.09,3.09,0,0,0,3.28-3,3,3,0,0,0-1.86-2.74,2.45,2.45,0,0,0-3.34,1.55,2.14,2.14,0,0,0,2.63,2.6Z"/></g><g id="_群組_10" data-name="&lt;群組&gt;"><path id="_路徑_29" data-name="&lt;路徑&gt;" class="cls-5" d="M479.44,242.36a7.06,7.06,0,0,0-1.3,0,3.74,3.74,0,0,0-1.42.61,1.75,1.75,0,0,0,0,3,3.74,3.74,0,0,0,1.42.61,7.06,7.06,0,0,0,1.3,0,2.15,2.15,0,0,0,2.14-2.11,2.18,2.18,0,0,0-2.14-2.11Z"/></g><g id="_群組_11" data-name="&lt;群組&gt;"><path id="_路徑_30" data-name="&lt;路徑&gt;" class="cls-5" d="M673.81,215.64l.05.08c-.2.72-.39,1.43-.58,2.15a3.35,3.35,0,0,0,.77-1.26,2.27,2.27,0,0,0,.08-.93l0,.26q-.23.45,0,0l.16-.21c-.22.24-.2.23,0,0a.61.61,0,0,1-.33.19c-.65,0-.27-.05-.12,0-.19-.11.52.34.15.11a15.3,15.3,0,0,1,1.81,1.45q.36-2.73.71-5.48a12.77,12.77,0,0,1-1.42.86c-.09.05-.94.42-.67.32a10.37,10.37,0,0,1-1.2.37l-.81.18c-.46.09-.55.1-.29.05a3.69,3.69,0,0,0-3.61,3.56c0,1.74,1.67,3.82,3.61,3.57a17.23,17.23,0,0,0,8-2.88c1.69-1.2,2.61-3.91.72-5.48-2.45-2-5.78-3.85-9-2.46a5.17,5.17,0,0,0-2.68,7.13,2.79,2.79,0,0,0,3,1.22l.11,0H671.1a6.46,6.46,0,0,0,1,.16c1.64.19,2.32-1.78,1.73-3Z"/></g><g id="_群組_12" data-name="&lt;群組&gt;"><path id="_路徑_31" data-name="&lt;路徑&gt;" class="cls-5" d="M687.92,199.71l-.78.11a1.71,1.71,0,0,0-1.28,1.65,1.73,1.73,0,0,0,1.28,1.66l.78.11a1.94,1.94,0,0,0,1.8-.47,1.91,1.91,0,0,0,.54-1.3,1.84,1.84,0,0,0-.54-1.29,2,2,0,0,0-1.8-.47Z"/></g><g id="_群組_13" data-name="&lt;群組&gt;"><path id="_路徑_32" data-name="&lt;路徑&gt;" class="cls-5" d="M706.67,217.16a1.69,1.69,0,0,0,0-3.37,1.69,1.69,0,0,0,0,3.37Z"/></g><g id="_群組_14" data-name="&lt;群組&gt;"><path id="_路徑_33" data-name="&lt;路徑&gt;" class="cls-5" d="M719.86,212.16a1.69,1.69,0,0,0,0-3.37,1.69,1.69,0,0,0,0,3.37Z"/></g><g id="_群組_15" data-name="&lt;群組&gt;"><path id="_路徑_34" data-name="&lt;路徑&gt;" class="cls-5" d="M758.4,170.65l-.81.08a1.74,1.74,0,1,0,0,3.48l.81.09a1.83,1.83,0,1,0,0-3.65Z"/></g><g id="_群組_16" data-name="&lt;群組&gt;"><path id="_路徑_35" data-name="&lt;路徑&gt;" class="cls-5" d="M748.72,146.42a6.15,6.15,0,0,0,1.74,1.09,4.38,4.38,0,0,0,1.64.31,3.27,3.27,0,0,0,3.23-2.8,3.2,3.2,0,0,0-2.35-3.55,4.85,4.85,0,0,0-1.52-.09,5.69,5.69,0,0,0-.81.13,5,5,0,0,0-1.37.59c-1.42.82-2,3.19-.56,4.32Z"/></g><g id="_群組_17" data-name="&lt;群組&gt;"><path id="_路徑_36" data-name="&lt;路徑&gt;" class="cls-5" d="M884.36,185.47c0-.44-.1-.89-.16-1.34a3.82,3.82,0,0,0-.81-1.93A5.54,5.54,0,0,0,882,181a3.65,3.65,0,0,0-3.67,0,4.35,4.35,0,0,0-2.24,3.15c-.06.45-.11.89-.16,1.34a4.12,4.12,0,0,0,1.24,2.95,4.25,4.25,0,0,0,6,0,4,4,0,0,0,1.24-2.95Z"/></g><g id="_群組_18" data-name="&lt;群組&gt;"><path id="_路徑_37" data-name="&lt;路徑&gt;" class="cls-5" d="M888.49,182l-.12.77a2,2,0,0,0,.51,1.89,2.05,2.05,0,0,0,1.4.57,2,2,0,0,0,1.9-2.46l-.12-.77a1.82,1.82,0,0,0-1.78-1.34,1.85,1.85,0,0,0-1.79,1.34Z"/></g><g id="_群組_19" data-name="&lt;群組&gt;"><path id="_路徑_38" data-name="&lt;路徑&gt;" class="cls-5" d="M893.32,192.21a1.74,1.74,0,0,0,0-3.47,1.74,1.74,0,0,0,0,3.47Z"/></g><g id="_群組_20" data-name="&lt;群組&gt;"><path id="_路徑_39" data-name="&lt;路徑&gt;" class="cls-5" d="M921.72,185.35a1.88,1.88,0,0,0,0-3.75,1.88,1.88,0,0,0,0,3.75Z"/></g><g id="_群組_21" data-name="&lt;群組&gt;"><path id="_路徑_40" data-name="&lt;路徑&gt;" class="cls-5" d="M931.8,167.41a4.78,4.78,0,0,0-.54.47.86.86,0,0,0,0,1.19,3.87,3.87,0,0,0,.54.46,1.58,1.58,0,0,0,1.67.31,1.48,1.48,0,0,0,.93-1.37,1.54,1.54,0,0,0-.75-1.29,1.6,1.6,0,0,0-1.85.23Z"/></g><g id="_群組_22" data-name="&lt;群組&gt;"><path id="_路徑_41" data-name="&lt;路徑&gt;" class="cls-5" d="M1027.79,147.76a15.74,15.74,0,0,0-1.8.58,10.36,10.36,0,0,0-1.67,1.12,2.57,2.57,0,0,0-.92,3.43c1.63,3.27,6.63,5.07,9.41,2.05a5.34,5.34,0,0,0,1.26-4.9c-.57-2.11-2.93-4.11-5.15-2.81a2.72,2.72,0,0,0-1.21,2.94,2.22,2.22,0,0,0,.52,1.05l.47.5c0-.07-.32-.52-.14-.16-.17-.33,0-.43-.09-.1-.06.58.23-.21,0-.12,0,0,0,.37,0,.37s.21-.71,0-.11c-.13.35.3-.64,0-.09.07-.14.35-.37.07-.14.09-.07.61-.33.35-.26s.58,0-.1,0c.29,0,.21,0,0,0s-.32-.09-.15,0,.11,0,0,0-.54-.32-.22-.08c-.13-.1-.25-.23-.37-.34-.46-.45.13.25-.2-.29-.13,1-.27,2-.4,3a11.19,11.19,0,0,0,1.48-1.35,12.78,12.78,0,0,0,1-1.61,1.86,1.86,0,0,0-2.1-2.68Z"/></g><g id="_群組_23" data-name="&lt;群組&gt;"><path id="_路徑_42" data-name="&lt;路徑&gt;" class="cls-5" d="M1041.74,155.16a3,3,0,0,0-2.58.54c-1.29,1-1.18,2.61-.57,3.94a2.31,2.31,0,0,0,2.05,1.16,4.47,4.47,0,0,0,3.57-2.07,3.91,3.91,0,0,0,.23-4.12,2.47,2.47,0,0,0-2.72-1.09,2.5,2.5,0,0,0-1.77,2.29c.06-.66,0-.2,0,.36a2.81,2.81,0,0,0,0,.29c0,.3.1-.58,0-.16s.16-.38,0-.11c0,.07-.24.37,0,.06s0,0-.11.07c-.22.22.07,0,.16-.11-.4.26.5-.15,0,0l2.68,1.07c-.13-.21-.12-.14,0,.2-.06-.24-.06-.17,0,.2v-.13a2.27,2.27,0,0,0-.31-1.14c.13.34.16.43.11.27s0-.07,0,.24q0-.28,0,.12c-.08.18-.09.2,0,.06a1.32,1.32,0,0,0-.8-1.93Z"/></g><g id="_群組_24" data-name="&lt;群組&gt;"><path id="_路徑_43" data-name="&lt;路徑&gt;" class="cls-5" d="M1057.06,154l-.14.76a1.8,1.8,0,1,0,3.49,0l-.14-.76a1.68,1.68,0,0,0-3.21,0Z"/></g><g id="_群組_25" data-name="&lt;群組&gt;"><g id="_剪裁群組_" data-name="&lt;剪裁群組&gt;"><g class="cls-7"><path class="cls-8" d="M534.88,59.81C434.64,59.81,341.7,42.91,265,14.08c7.55,72.47,74.24,167.41,269.86,167.78C730.5,181.49,797.2,86.55,804.76,14.08,728.07,42.91,635.12,59.81,534.88,59.81Z"/><path class="cls-9" d="M534.88,132.23c-10.91,0-21.61-.43-32.24-.83v13.79a106.07,106.07,0,0,0,64.49,0V131.4C556.49,131.78,545.79,132.28,534.88,132.23Z"/><path class="cls-9" d="M534.88,83.28c-10.85,0-21.57-.41-32.24-.79V96.32a112.73,112.73,0,0,0,32.24,4.93,114.21,114.21,0,0,0,32.25-4.93V82.49C556.46,82.87,545.73,83.29,534.88,83.28Z"/><path class="cls-9" d="M608.58,128.85v13.82c22,4.17,44.21-1.37,64.48-8.69v-14C652.65,123.9,630.93,129.31,608.58,128.85Z"/><path class="cls-9" d="M608.58,80.17V94c21.66,4.35,43.84-.35,64.48-7.3v-14C652.19,76.05,630.52,80.63,608.58,80.17Z"/><path class="cls-9" d="M714.52,110.44v14.33c23,.13,45.27-11.42,64.5-22.34V87.07C759.94,96.13,738.07,107.91,714.52,110.44Z"/><path class="cls-9" d="M714.52,65.37v14.1c22,1.57,44.14-7,64.5-15.79V49.23C758.53,55.44,736.76,64.05,714.52,65.37Z"/><path class="cls-9" d="M396.69,119.93v14c20.27,7.3,42.45,12.87,64.5,8.69V128.85C438.84,129.33,417.13,123.89,396.69,119.93Z"/><path class="cls-9" d="M396.69,72.76v14c20.65,7,42.83,11.65,64.5,7.3V80.17C439.25,80.61,417.57,76.06,396.69,72.76Z"/><path class="cls-9" d="M290.75,87.07v15.36c19.22,10.91,41.47,22.49,64.5,22.34V110.44C331.69,107.91,309.83,96.12,290.75,87.07Z"/><path class="cls-9" d="M290.75,49.23V63.68c20.34,8.73,42.51,17.35,64.5,15.79V65.38C333,64,311.24,55.44,290.75,49.23Z"/><path class="cls-9" d="M555.61,156.29v13.77c21.79,5.56,44.06,2.53,64.49-4.14V152.1C599.44,154.52,577.76,157.35,555.61,156.29Z"/><path class="cls-9" d="M555.61,107.32v13.8c21.66,5.58,43.89,2.71,64.49-3.88V103.37C599.24,105.61,577.6,108.31,555.61,107.32Z"/><path class="cls-9" d="M661.55,146.22v14c22.59,2.35,44.77-6.28,64.5-15.17V130.47C706.34,136.88,684.5,145.5,661.55,146.22Z"/><path class="cls-9" d="M661.55,98.05v14c22.16,2.67,44.32-4.9,64.5-13.13V84.63C705.78,90.1,684,97.54,661.55,98.05Z"/><path class="cls-9" d="M767.49,71.8V86.44c23.35-1.9,45.49-16,64.49-28.77v-16C813.27,53,791.37,67.42,767.49,71.8Z"/><path class="cls-9" d="M449.67,152.1v13.82c20.44,6.67,42.69,9.71,64.49,4.14V156.29C492,157.37,470.34,154.52,449.67,152.1Z"/><path class="cls-9" d="M449.67,103.37v13.87c20.58,6.6,42.82,9.49,64.49,3.88v-13.8C492.16,108.3,470.52,105.6,449.67,103.37Z"/><path class="cls-9" d="M343.73,130.46v14.59c19.71,8.91,41.91,17.48,64.48,15.17v-14C385.26,145.47,363.42,136.89,343.73,130.46Z"/><path class="cls-9" d="M343.73,84.63V98.91c20.16,8.23,42.32,15.8,64.48,13.13v-14C385.77,97.54,364,90.1,343.73,84.63Z"/><path class="cls-9" d="M237.78,41.67v16c19,12.75,41.14,26.85,64.49,28.77V71.8C278.4,67.42,256.49,53,237.78,41.67Z"/><path class="cls-10" d="M579.8,130.85v13.79a30.65,30.65,0,0,0,16.12-1V129.79C590.59,130.17,585.21,130.68,579.8,130.85Z"/><path class="cls-10" d="M579.8,82V95.87A30.54,30.54,0,0,0,595.92,95V81.1C590.58,81.46,585.19,81.85,579.8,82Z"/><path class="cls-10" d="M685.73,117.34v14.17c5.35.37,10.94-1.09,16.13-3.49V113.71C696.59,115,691.17,116.52,685.73,117.34Z"/><path class="cls-10" d="M685.73,70.74v14A33.45,33.45,0,0,0,701.86,82v-14C696.55,68.92,691.13,70.11,685.73,70.74Z"/><path class="cls-10" d="M791.68,45.33V59.8c5.36-.23,10.88-2.42,16.13-5.28V39.94C802.51,41.75,797.11,44,791.68,45.33Z"/><path class="cls-10" d="M473.84,129.79v13.82a30.72,30.72,0,0,0,16.14,1V130.85C484.55,130.65,479.19,130.2,473.84,129.79Z"/><path class="cls-10" d="M473.84,81.1V95a30.61,30.61,0,0,0,16.14.92V82C484.57,81.86,479.2,81.46,473.84,81.1Z"/><path class="cls-10" d="M367.92,113.71V128c5.17,2.39,10.78,3.86,16.11,3.5V117.34C378.59,116.5,373.17,115,367.92,113.71Z"/><path class="cls-10" d="M367.92,67.9V82A33.24,33.24,0,0,0,384,84.78v-14C378.62,70.09,373.22,68.91,367.92,67.9Z"/><path class="cls-10" d="M262,39.94V54.52c5.23,2.83,10.77,5,16.13,5.28V45.33C272.64,44,267.26,41.76,262,39.94Z"/><path class="cls-10" d="M632.75,150.59v13.86a32,32,0,0,0,16.14-2.2V148.32C643.61,149.16,638.18,150.08,632.75,150.59Z"/><path class="cls-10" d="M632.75,102v13.92a31.79,31.79,0,0,0,16.14-2V100C643.58,100.72,638.16,101.54,632.75,102Z"/><path class="cls-10" d="M738.7,126.12V140.9c5.44-.44,11-2.93,16.13-6v-15C749.63,122,744.23,124.56,738.7,126.12Z"/><path class="cls-10" d="M738.7,81.07V95.48c5.38-.08,10.93-2.08,16.13-4.82V76.1C749.57,77.83,744.16,79.86,738.7,81.07Z"/><path class="cls-10" d="M534.88,156.54c-2.71,0-5.38,0-8.06,0v13.79a31,31,0,0,0,8.06,1.17,29.75,29.75,0,0,0,8.06-1.17V156.49C540.25,156.53,537.58,156.53,534.88,156.54Z"/><path class="cls-10" d="M534.88,107.59c-2.71,0-5.36-.11-8.06-.11V121.3a32.07,32.07,0,0,0,8.06,1.19,29.77,29.77,0,0,0,8.06-1.19V107.48C540.26,107.5,537.6,107.57,534.88,107.59Z"/><path class="cls-10" d="M420.88,148.31v13.94a32,32,0,0,0,16.12,2.2V150.59C431.58,150.12,426.18,149.13,420.88,148.31Z"/><path class="cls-10" d="M420.88,100v13.93a31.72,31.72,0,0,0,16.12,2V102C431.6,101.55,426.2,100.73,420.88,100Z"/><path class="cls-10" d="M314.93,119.84v15c5.16,3.11,10.7,5.59,16.13,6V126.12C325.55,124.56,320.11,122,314.93,119.84Z"/><path class="cls-10" d="M314.93,76.1V90.66c5.2,2.72,10.76,4.75,16.13,4.82V81.07C325.59,79.88,320.2,77.83,314.93,76.1Z"/></g></g><g id="_群組_26" data-name="&lt;群組&gt;"><path class="cls-11" d="M804.71.5a13.95,13.95,0,1,0,13.94,14A13.95,13.95,0,0,0,804.71.5Z"/><path class="cls-11" d="M265.06.5a13.95,13.95,0,1,0,13.94,14A13.95,13.95,0,0,0,265.06.5Z"/><g id="_群組_27" data-name="&lt;群組&gt;"><path id="_路徑_44" data-name="&lt;路徑&gt;" class="cls-1" d="M810.11,12c-77.7,30.06-172.63,47.8-275.23,47.8S337.34,42.07,259.66,12"/><g id="_群組_28" data-name="&lt;群組&gt;"><path class="cls-11" d="M805.59.33l-.26.25.12,0c-2.73,3.33-4.1,9.57-5,14.84l-1.09,4.28-.33,1-1.62,3.71,0,.07L795.13,28l-.37.51-2.61,3c6.1,1.84,15.62-1.09,22.4-8.07Z"/><path class="cls-12" d="M783.88,8.23l.13,0c-2.82,3.34-4.35,9.76-5.46,14.93l-1.24,4.19-.38,1L775.16,32l0,.08-2.4,3.4-.39.48-2.73,2.88c6,2.06,15.66-.09,22.54-7.24h0l2.62-3,.37-.51,2.25-3.53,0-.07L799,20.73l.33-1,1.09-4.28c.89-5.27,2.26-11.51,5-14.84C799.42-1.32,790.52,1.35,783.88,8.23Z"/><path class="cls-11" d="M762.18,15.19l.13,0-.08.11L769.42,39l.19-.19,2.73-2.88.39-.48,2.4-3.4,0-.08,1.77-3.62.38-1,1.24-4.19C779.66,18,781.19,11.6,784,8.26,778.16,6.45,769.14,8.73,762.18,15.19Z"/></g><g id="_群組_29" data-name="&lt;群組&gt;"><path class="cls-11" d="M762.15,15.06l-.29.23.13,0c-3,3.22-4.76,9.42-6,14.68l-1.36,4.22-.42,1-1.85,3.65-.05.06-2.49,3.35-.42.47-2.83,2.74c6,2.58,15.59-.08,22.82-6.66Z"/><path class="cls-12" d="M740,21.6l.12,0C737,24.7,735,30.79,733.53,36L732,40.1l-.43,1-2,3.54,0,.07-2.6,3.3-.43.47-2.9,2.74c5.84,2.42,15.49.49,22.94-5.71h0l2.83-2.73.42-.47,2.49-3.35.05-.06,1.85-3.65.42-1L756,30c1.26-5.26,3.06-11.46,6-14.68C756.1,13,747.18,15.57,740,21.6Z"/><path class="cls-11" d="M717.8,27.13l.13.05-.1.1,5.59,24.09.19-.18h0l2.9-2.74.43-.47,2.6-3.3,0-.07,2-3.54.43-1L733.53,36C735,30.79,737,24.7,740.08,21.64,734.27,19.13,725.13,20.92,717.8,27.13Z"/></g><g id="_群組_30" data-name="&lt;群組&gt;"><path class="cls-11" d="M717.78,27l-.31.23.13,0c-3.15,3.15-5.39,9.1-7,14.17l-1.65,4.07-.49.92-2.09,3.45-.05.06-2.71,3.17-.44.45-3,2.59c5.78,2.61,15.62,1.4,23.2-4.94Z"/><path class="cls-12" d="M695.12,31.89l.11.06c-3.27,2.93-5.66,8.92-7.42,14.05L686,50.07l-.5.94-2.2,3.45,0,.08-2.8,3L680,58,677,60.47c5.72,3.07,15.42,1.54,23.21-4.34h0l3-2.59.44-.45,2.71-3.17.05-.06,2.09-3.45.49-.92,1.65-4.07c1.62-5.07,3.86-11,7-14.17C712,24.9,702.64,26,695.12,31.89Z"/><path class="cls-11" d="M672.63,36.08l.13.06-.09.1,4.09,24.39.2-.16L680,58l.46-.42,2.8-3,0-.08,2.2-3.45.5-.94L687.81,46c1.76-5.13,4.15-11.12,7.42-14C689.58,29.05,680.43,30.78,672.63,36.08Z"/></g><g id="_群組_31" data-name="&lt;群組&gt;"><path class="cls-11" d="M672.61,35.93l-.31.2.13.06c-3.37,2.76-6,8.64-7.88,13.67l-1.89,4-.53.91-2.3,3.34-.05.06-2.88,3.05-.47.42L653.3,64.1c5.62,3,15.43,1.91,23.43-3.65Z"/><path class="cls-12" d="M649.7,39.61l.11.06c-3.42,2.84-6.18,8.6-8.24,13.49l-2,3.9L639,58l-2.4,3.24-.05.06-3,2.91-.47.4-3.21,2.33c5.5,3.08,15.33,2.8,23.42-2.79h0l3.13-2.47.47-.42,2.88-3.05.05-.06,2.3-3.34.53-.91,1.89-4c1.92-5,4.51-10.91,7.88-13.67C666.89,33.16,657.57,34.1,649.7,39.61Z"/><path class="cls-11" d="M627,42.31l.11,0-.09.09L629.66,67l.22-.15h0l3.21-2.33.47-.4,3-2.91.05-.06L639,58l.56-.89,2-3.9c2.06-4.89,4.82-10.65,8.24-13.49C644.41,36.8,635,37.08,627,42.31Z"/></g><g id="_群組_32" data-name="&lt;群組&gt;"><path class="cls-11" d="M627,42.15l-.33.18.12.07c-3.53,2.62-6.43,8.38-8.63,13.32L616,59.62l-.58.89L613,63.77l-.06,0-3.06,2.87-.48.38-3.27,2.18c5.45,3.6,15.28,2.74,23.57-2.39Z"/><path class="cls-12" d="M603.86,44.59l.12.06c-3.6,2.46-6.69,8.08-9,12.92l-2.23,3.8-.6.87-2.57,3.13-.07.06-3.12,2.78-.5.38-3.32,2.19c5.33,3.43,15.12,3.24,23.52-1.53h0l3.28-2.18.48-.38,3.06-2.87.06,0,2.47-3.26.58-.89,2.12-3.9c2.2-4.94,5.1-10.7,8.63-13.32C621.38,39,612.08,39.88,603.86,44.59Z"/><path class="cls-11" d="M581,46.07l.11.07-.11.08,1.32,24.69.23-.13h0l3.33-2.19.5-.38,3.12-2.78.07-.06,2.57-3.13.6-.87,2.23-3.8c2.32-4.84,5.41-10.46,9-12.92C598.71,41.15,589.33,41.26,581,46.07Z"/></g><g id="_群組_33" data-name="&lt;群組&gt;"><path class="cls-11" d="M581,45.93l-.32.16.11.07c-3.66,2.43-6.89,8.16-9.34,12.86l-2.32,3.72-.65.83-2.65,3-.06.06-3.19,2.65-.52.36-3.38,2c5.26,3.62,15.11,4.06,23.66-1Z"/><path class="cls-12" d="M557.79,46.94l.11.07c-3.72,2.31-7.11,7.79-9.7,12.52l-2.41,3.71-.65.84-2.75,3,0,.06-3.27,2.64-.52.34-3.43,2c5.12,3.66,14.9,3.91,23.55-.5l3.38-2,.52-.36,3.19-2.65.06-.06,2.65-3,.65-.83L571.44,59c2.45-4.7,5.68-10.43,9.34-12.86C575.63,42.79,566.24,42.58,557.79,46.94Z"/><path class="cls-11" d="M534.88,47.43l.11.07-.11.09V72.32l.24-.13h0l3.44-2,.52-.34,3.27-2.64,0-.06,2.75-3,.65-.84,2.41-3.71c2.59-4.73,6-10.21,9.7-12.52C552.83,43.28,543.45,43,534.88,47.43Z"/></g><g id="_群組_34" data-name="&lt;群組&gt;"><path class="cls-11" d="M534.55,47.43l.11.07c-3.79,2.15-7.32,7.48-10,12.09l-2.53,3.6-.67.82-2.82,2.9-.06,0-3.33,2.5-.53.34-3.49,1.89c5.05,3.89,14.88,4.53,23.67.44V47.3Z"/><path class="cls-12" d="M511.65,46.93l.1.08c-3.85,2.14-7.51,7.47-10.35,12.09l-2.62,3.59-.69.81-2.89,2.84-.06.06-3.4,2.35-.53.32-3.54,1.73c4.92,4.24,14.66,5,23.54.89l3.49-1.89.53-.34,3.33-2.5.06,0,2.82-2.9.67-.82,2.53-3.6c2.7-4.61,6.23-9.94,10-12.09C529.68,43.55,520.33,42.87,511.65,46.93Z"/><path class="cls-11" d="M488.77,46.07l.09.09-.11.06-1.32,24.69.24-.11,3.54-1.73.53-.32,3.4-2.35.06-.06,2.89-2.84.69-.81,2.62-3.59c2.84-4.62,6.5-10,10.35-12.09C506.88,43,497.52,42.56,488.77,46.07Z"/></g><g id="_群組_35" data-name="&lt;群組&gt;"><path class="cls-11" d="M488.42,46.05l.1.07c-3.89,2-7.7,7.16-10.65,11.66l-2.72,3.47-.71.78-3,2.77-.06,0-3.48,2.36-.55.3-3.57,1.74c4.83,4.1,14.62,5.19,23.64,1.47l1.32-24.79Z"/><path class="cls-12" d="M465.57,44.57l.1.07c-4,2-7.9,7.08-11,11.41l-2.8,3.37-.73.76-3.05,2.63-.06,0-3.54,2.2-.55.3-3.63,1.58c4.71,4.19,14.37,6,23.47,2.31l3.57-1.74.55-.3,3.48-2.36.06,0,3-2.77.71-.78,2.72-3.47c2.95-4.5,6.76-9.67,10.65-11.66C483.77,42,474.46,40.89,465.57,44.57Z"/><path class="cls-11" d="M442.8,42.31l.1.08-.12.06L440.09,67l.25-.1h0L444,65.36l.55-.3,3.54-2.2.06,0,3.05-2.63.73-.76,2.8-3.37c3.07-4.33,7-9.38,11-11.41C461,40.66,451.77,39,442.8,42.31Z"/></g><g id="_群組_36" data-name="&lt;群組&gt;"><path class="cls-11" d="M442.46,42.26l.1.08c-4,1.82-8.09,6.81-11.3,11.15l-2.91,3.36-.75.75-3.13,2.63-.06.05-3.61,2.16-.55.25-3.67,1.44c4.56,4.7,14.33,6,23.54,2.73l2.68-24.71Z"/><path class="cls-12" d="M419.74,39.56l.09.09c-4,1.63-8.26,6.46-11.58,10.67l-3,3.24-.77.71-3.2,2.5-.06,0-3.66,2-.57.26-3.73,1.41c4.45,4.5,14.08,6.44,23.32,3.6h0l3.67-1.43.55-.25,3.61-2.16.06-.05,3.13-2.63.75-.75,2.91-3.36c3.21-4.34,7.3-9.33,11.3-11.15C438.05,37.89,428.77,36.73,419.74,39.56Z"/><path class="cls-11" d="M397.13,36.08l.09.08-.12.08L393,60.63l.25-.1L397,59.12l.57-.26,3.66-2,.06,0,3.2-2.5.77-.71,3-3.24c3.32-4.21,7.55-9,11.58-10.67C415.46,35.09,406.28,33.2,397.13,36.08Z"/></g><g id="_群組_37" data-name="&lt;群組&gt;"><path class="cls-11" d="M396.79,36l.11.09c-4.11,1.61-8.51,6.47-11.93,10.47l-3.09,3.12-.79.68-3.26,2.36-.08,0L374,54.66l-.58.25-3.74,1.26c4.33,4.61,13.89,7.33,23.32,4.28l4.11-24.52Z"/><path class="cls-12" d="M374.32,31.83l.11.1c-4.14,1.44-8.66,6-12.23,10.09L359,45.11l-.83.67-3.35,2.36-.06,0L351,50l-.59.21-3.78,1.1c4.11,5.08,13.7,7.16,23.12,4.85h0l3.75-1.26.58-.25,3.71-1.87.08,0,3.26-2.36.79-.68L385,46.59c3.42-4,7.82-8.86,11.93-10.47C392.58,31.74,383.53,29.36,374.32,31.83Z"/><path class="cls-11" d="M352,27.13l.1.1-.13.05-5.58,24.09.25,0,3.78-1.1L351,50l3.79-1.83.06,0,3.35-2.36.83-.67L362.2,42c3.57-4.05,8.09-8.65,12.23-10.09C370.32,27.09,361.2,25.1,352,27.13Z"/></g><g id="_群組_38" data-name="&lt;群組&gt;"><path class="cls-11" d="M351.63,27.05l.11.09c-4.17,1.26-8.82,5.68-12.51,9.57l-3.29,2.95-.83.64-3.42,2.2-.08,0-3.84,1.69-.59.22-3.85,1.07c4,4.89,13.54,7.72,23.06,5.68L352,27Z"/><path class="cls-12" d="M329.49,21.52l.08.1c-4.24,1.3-9,5.59-12.83,9.25l-3.37,2.82-.86.59-3.48,2-.07,0-3.89,1.52-.59.18L300.6,39c3.87,5,13.09,8.62,22.73,6.56v0l3.85-1.05.59-.22,3.84-1.69.08,0,3.42-2.2.83-.64,3.29-2.95c3.69-3.89,8.34-8.31,12.51-9.57C347.78,22.2,338.87,19.49,329.49,21.52Z"/><path class="cls-11" d="M307.57,15.19l.1.1-.13.05L300.34,39l.26,0,3.88-.89.59-.18L309,36.36l.07,0,3.48-2,.86-.59,3.37-2.82c3.8-3.66,8.59-7.95,12.83-9.25C325.69,16.88,317,13.53,307.57,15.19Z"/></g><g id="_群組_39" data-name="&lt;群組&gt;"><path class="cls-11" d="M307.25,15.09l.09.1c-4.25,1-9.2,5.21-13.18,8.88l-3.48,2.77-.9.59-3.56,2-.07,0-3.92,1.33-.62.15-3.88.69c3.61,5.48,12.95,8.82,22.67,7.22l7.22-23.76Z"/><path class="cls-12" d="M285.56,8.12l.09.1c-4.27.84-9.35,4.78-13.44,8.27l-3.58,2.6-.91.56-3.64,1.83-.09,0-4,1.3-.61.13-4,.69c3.49,5.24,12.64,9,22.32,8h0l3.88-.69.62-.15,3.92-1.33.07,0,3.56-2,.9-.59,3.48-2.77c4-3.67,8.93-7.83,13.18-8.88C303.73,10,294.89,7.16,285.56,8.12Z"/><path class="cls-11" d="M264.12.47l.08.09-.13,0-8.93,23.06.27,0v0l4-.67.61-.13,4-1.3.09,0,3.64-1.83.91-.56,3.58-2.6c4.09-3.49,9.17-7.43,13.44-8.27C282.24,2.93,273.67-.63,264.12.47Z"/></g></g></g></g></g></g></svg>