<svg xmlns="http://www.w3.org/2000/svg" viewBox="0 0 1115.1 346.84"><defs><style>.cls-1{fill:#cea45a;}.cls-2{fill:#987845;}.cls-3{fill:#bdd266;}.cls-4{fill:#9ba365;}.cls-5{fill:#b99350;}</style></defs><title>資產 9</title><g id="圖層_2" data-name="圖層 2"><g id="圖層_9" data-name="圖層 9"><polygon id="_路徑_" data-name="&lt;路徑&gt;" class="cls-1" points="1073.17 116.39 1027.45 179.07 814.35 209.1 837.74 136.79 1073.17 116.39"/><polygon id="_路徑_2" data-name="&lt;路徑&gt;" class="cls-2" points="679.88 179.07 650.35 255.24 588.58 284.83 600.77 190.34 679.88 179.07"/><polygon id="_路徑_3" data-name="&lt;路徑&gt;" class="cls-2" points="365.98 179.07 365.98 308.79 271.3 284.83 253.7 194.1 365.98 179.07"/><path id="_路徑_4" data-name="&lt;路徑&gt;" class="cls-3" d="M287.57,19.82C278.3,19.34,168.34,35.9,168.34,35.9l-36,25.21-90.39,3L0,97.4s57.18,50.06,62.9,48.95,153.56,13,153.56,13L253.7,194.1l112.28-15v15l-43,26.31,57.56,20.67,239.74-20.67s-24.89-30.07-19.51-30.07,72.78-11.27,79.12-11.27S829,184.7,829,184.7L860,159.05l-22.22-22.26,235.43-20.4,41.93-34.86s-30.49-38.26-36.21-41.77S771.7,22.34,771.7,22.34l8.95-15.83L299.89,0Z"/><polygon id="_路徑_5" data-name="&lt;路徑&gt;" class="cls-4" points="913.21 80.75 913.21 87.09 896.01 90.2 884.84 85.48 884.84 82.62 908.01 77.07 913.21 80.75"/><polygon id="_路徑_6" data-name="&lt;路徑&gt;" class="cls-4" points="1012.95 86.54 1012.95 95.07 990.71 99.09 986.89 92.81 999.92 83.92 1012.95 86.54"/><path id="_路徑_7" data-name="&lt;路徑&gt;" class="cls-4" d="M742.66,89.8,738,95.07H719.23s-6.75,2.92-7.1,0l-.36-2.93-11.94-.64,4.64-4.41,23.16-3.17,12.49,3.17Z"/><path id="_路徑_8" data-name="&lt;路徑&gt;" class="cls-4" d="M835.09,78.87c-8.81-1.27-20.74,4.92-20.74,4.92l-17,5.07,4.29,7.32,31.12,6.25,27.77-5,16.58-13.67-11.65-5Z"/><path id="_路徑_9" data-name="&lt;路徑&gt;" class="cls-4" d="M255.35,45.83c-4.73-1.12-34.16,14.06-34.16,14.06l-27.73,15L207.15,97.4,372.62,102,576,88.23l96.81,3.4s24.63-13.33,28.52-12.74,35.47-9.59,35.47-9.59l-5.38-13.2-112-36.28Z"/><path id="_路徑_10" data-name="&lt;路徑&gt;" class="cls-4" d="M664,120.54c-3.79,2.44-24.4,2.56-27.3,2.36s0,9.14,0,9.14l-17.2,7-20.61-11-15.76,4-19.22-3.74-21.1,30.75-14.4-7.23L533.69,132l-40.16,7,1.64-15.72L455.34,128l16.51-23.08,73.89-4.72,77.12,2.35,45.89,4.67Z"/><path id="_路徑_11" data-name="&lt;路徑&gt;" class="cls-4" d="M353.77,96.18,328.94,106l-47.68,4-27.57,13.29-73.58-2.75-21,2.75-61.95-.39L75.26,100.2,104.39,81l58.3,3.75,7.53-10.88,77.66,1s17.8,4.38,19.8,4,73,1.71,76.11,2.09S353.77,96.18,353.77,96.18Z"/><polygon id="_路徑_12" data-name="&lt;路徑&gt;" class="cls-5" points="62.9 146.35 92.52 205.91 241.55 260.87 216.46 159.31 62.9 146.35"/><polygon id="_路徑_13" data-name="&lt;路徑&gt;" class="cls-1" points="0 97.4 36.77 167.86 92.52 205.91 62.9 146.35 0 97.4"/><polygon id="_路徑_14" data-name="&lt;路徑&gt;" class="cls-1" points="253.7 194.1 271.3 284.83 241.55 260.87 216.46 159.31 253.7 194.1"/><polygon id="_路徑_15" data-name="&lt;路徑&gt;" class="cls-1" points="322.98 220.41 345.52 308.79 393.97 346.84 380.54 241.08 322.98 220.41"/><polygon id="_路徑_16" data-name="&lt;路徑&gt;" class="cls-5" points="620.27 220.41 593.09 325.7 393.97 346.84 380.54 241.08 620.27 220.41"/><polygon id="_路徑_17" data-name="&lt;路徑&gt;" class="cls-1" points="650.35 255.24 793.38 243.93 829.03 184.71 679.88 179.07 650.35 255.24"/><polygon id="_路徑_18" data-name="&lt;路徑&gt;" class="cls-5" points="859.96 159.05 793.38 243.93 829.03 184.71 859.96 159.05"/><polygon id="_路徑_19" data-name="&lt;路徑&gt;" class="cls-5" points="1115.1 81.53 1073.17 152.36 1027.45 179.07 1073.17 116.39 1115.1 81.53"/><g id="_群組_" data-name="&lt;群組&gt;"><path id="_路徑_20" data-name="&lt;路徑&gt;" class="cls-4" d="M274.35,130.66c1.85-2.2,3.49-4.49,5.13-6.84l-3.61,1.44a10,10,0,0,1,1.94.55c.77.34.61.65.79.18s0-.36-.34-.53a17,17,0,0,0-3-1c-3-.77-5.95,3.3-3.26,5.52,3.79,3.12,11.28,3.41,13-2.22,1.47-4.85-3.22-7.82-7.41-8.55a3.35,3.35,0,0,0-3.6,1.45c-1.41,2.21-2.75,4.39-4,6.72-1.32,2.59,2.22,5.81,4.33,3.3Z"/></g><g id="_群組_2" data-name="&lt;群組&gt;"><path id="_路徑_21" data-name="&lt;路徑&gt;" class="cls-4" d="M293.32,134.26c-.17.15,0,.09,0,0-.21.08-.25.1-.1.05s.11,0-.05,0,.09,0,.13,0c.24.12-.54-.06,0,0s-.17,0-.13-.08a1.87,1.87,0,0,1,.3.17c.44.21-.32-.28-.08-.06s-.37-.58-.1-.08v-2.93c-.1.19-.07.16.11-.08a1.44,1.44,0,0,1,.6-.52c-.38.23.71-.25.37-.16s.35,0,.42,0c-.46,0-.15-.13.32.09a1.16,1.16,0,0,0-.32-.08c-.34,0,.72.38.32.12s.58.55.23.18c.4.42.3.32.51.88a3.21,3.21,0,0,0-3.86-2.16,3.13,3.13,0,0,0-2.2,3.8,4.9,4.9,0,0,0,3.72,3.23c2.19.4,4.5-.51,5.13-2.78.72-2.58-1.83-4.66-4.31-4.45a4.64,4.64,0,0,0-4.17,3.06,1.89,1.89,0,0,0,.88,2.12,2,2,0,0,0,2.3-.29Z"/></g><g id="_群組_3" data-name="&lt;群組&gt;"><path id="_路徑_22" data-name="&lt;路徑&gt;" class="cls-4" d="M303.56,125a3.22,3.22,0,0,0,1.33-.5,2.18,2.18,0,0,0,.89-1.72,2.31,2.31,0,0,0-.67-1.54,2.79,2.79,0,0,0-1.55-.67,2.31,2.31,0,1,0,0,4.43Z"/></g><g id="_群組_4" data-name="&lt;群組&gt;"><path id="_路徑_23" data-name="&lt;路徑&gt;" class="cls-4" d="M316.23,134.33c.08.24.17.48.26.72a1.75,1.75,0,0,0,3.33,0l.26-.72a2,2,0,1,0-3.85,0Z"/></g><g id="_群組_5" data-name="&lt;群組&gt;"><path id="_路徑_24" data-name="&lt;路徑&gt;" class="cls-4" d="M249.73,141.17a7.62,7.62,0,0,0-1.06.2,4.29,4.29,0,0,0-1,.54,1,1,0,0,0,0,1.78,4.33,4.33,0,0,0,1,.55c.34.09.71.13,1.06.19a1.7,1.7,0,1,0,0-3.26Z"/></g><g id="_群組_6" data-name="&lt;群組&gt;"><path id="_路徑_25" data-name="&lt;路徑&gt;" class="cls-4" d="M455.2,141.77a17,17,0,0,1,1.64-2.91,10.38,10.38,0,0,1,.85-.9c.28-.27,1.38-.85.46-.77L455,135.42a26.1,26.1,0,0,0,3.73,4.4l-1.26-3c0,.48,0,.57.08.29s0-.19,0,.06-.08.28,0,0l.18-.19-.31.31c.29-.2.3-.22,0-.05s-.25.14,0,0a.77.77,0,0,1,.43-.12c.17,0,.34.16.47.14-.43.06-.28-.24-.36-.33s-.71-.75-.36-.35a10,10,0,0,0-1.76-1.67c-1.6-1.18-4.43-.32-5.29,1.37-1.68,3.32.16,6.86,3.25,8.61a8.37,8.37,0,0,0,8.41-.12,8.52,8.52,0,0,0,3.95-7.09c.05-3.46-3.28-5.77-6.16-7.18-1.68-.82-4.05-.54-5,1.28-.71,1.39-2,2.45-2.63,3.92a10.15,10.15,0,0,0-1.08,5c.14,1.87,2.9,3,3.9,1Z"/></g><g id="_群組_7" data-name="&lt;群組&gt;"><path id="_路徑_26" data-name="&lt;路徑&gt;" class="cls-4" d="M437.65,132.56a14.4,14.4,0,0,0-2.1,5l1.44-1.86c.23-.1.16-.07-.21.08a3.88,3.88,0,0,1-.69.18c.24,0,.25-.05,0-.05h0a.67.67,0,0,1,.34.26c-.23-.24-.27-.27-.1-.08a.62.62,0,0,1,.22.42c-.1-.39-.11-.36,0,.1.25-.7-.1.32-.18.47a1.74,1.74,0,0,1-1.45.84l-.48-.08c.39.11.33.07-.19-.12-.41-.36-.48-.4-.2-.12.43.43.29.16-.41-.82a3.63,3.63,0,0,0,3.91,2.52,3.57,3.57,0,0,0,3.1-3.46c.15-3.6-3.75-6-7.08-5a5.73,5.73,0,0,0-3.77,7.56,6.58,6.58,0,0,0,8.05,3.92c2.09-.58,3.93-2,3.81-4.31a21.11,21.11,0,0,1-.11-3.82c.32-2.26-2.51-3.79-3.91-1.63Z"/></g><g id="_群組_8" data-name="&lt;群組&gt;"><path id="_路徑_27" data-name="&lt;路徑&gt;" class="cls-4" d="M432.06,149.77c-.21.37-.45.72-.69,1.08a9.69,9.69,0,0,0-.78,1.66l3.9-2.18A2.13,2.13,0,0,1,436,152.8l-1.7,1.69-1.81-.23a2.36,2.36,0,0,1-.94-2.44l3.21-2.41a15.59,15.59,0,0,0-2.9.18,3.87,3.87,0,0,0-3,2.67l1-1.32-.23.14a2.06,2.06,0,0,0,0,3.56l.23.11-.8-.79c1.12,2.26,3.47,2.16,5.65,2a3.39,3.39,0,0,0,3.2-2.4,4.3,4.3,0,0,0-1.66-4.54,4.22,4.22,0,0,0-5.34.18,4.18,4.18,0,0,0-1.22,4.08,4,4,0,0,0,3.05,3.08,3.39,3.39,0,0,0,3.08-.81,3.16,3.16,0,0,0,.82-3,8.2,8.2,0,0,0-.53-1.56s-.21-.41-.14-.25a3.28,3.28,0,0,0-.16-.44,2.13,2.13,0,0,0-3.82-.49Z"/></g><g id="_群組_9" data-name="&lt;群組&gt;"><path id="_路徑_28" data-name="&lt;路徑&gt;" class="cls-4" d="M409.11,150c-1.64-.11-2.48-.75-2.53-1.92.1-.51.12-.66.05-.43a2.21,2.21,0,0,1,3.21-1.29c.4.34.49.41.29.2.45.57.4.49-.17-.23a5,5,0,0,0-.94-.69,2.88,2.88,0,0,0-3.16.22,2.86,2.86,0,0,0-1,3,3.75,3.75,0,0,0,3.57,2.78,3.09,3.09,0,0,0,3.28-3,3,3,0,0,0-1.86-2.73,2.45,2.45,0,0,0-3.34,1.55,2.14,2.14,0,0,0,2.63,2.6Z"/></g><g id="_群組_10" data-name="&lt;群組&gt;"><path id="_路徑_29" data-name="&lt;路徑&gt;" class="cls-4" d="M479.44,155.69a8.06,8.06,0,0,0-1.3,0,3.76,3.76,0,0,0-1.42.62,1.75,1.75,0,0,0,0,3,3.74,3.74,0,0,0,1.42.61,7.06,7.06,0,0,0,1.3,0,2.11,2.11,0,1,0,0-4.22Z"/></g><g id="_群組_11" data-name="&lt;群組&gt;"><path id="_路徑_30" data-name="&lt;路徑&gt;" class="cls-4" d="M673.81,129l.05.09c-.2.72-.39,1.43-.58,2.15a3.43,3.43,0,0,0,.77-1.26,2.27,2.27,0,0,0,.08-.93l0,.26q-.23.45,0,0l.16-.21c-.22.24-.2.23,0,0a.54.54,0,0,1-.33.18c-.65,0-.27,0-.12.05-.19-.11.52.34.15.11a15.3,15.3,0,0,1,1.81,1.45c.24-1.83.48-3.65.71-5.48a14.48,14.48,0,0,1-1.42.86c-.09.05-.94.42-.67.32a10.37,10.37,0,0,1-1.2.37q-.4.1-.81.18l-.29,0a3.69,3.69,0,0,0-3.61,3.56c0,1.73,1.67,3.81,3.61,3.56a17.1,17.1,0,0,0,8-2.87c1.69-1.2,2.61-3.91.72-5.49-2.45-2-5.78-3.84-9-2.45a5.17,5.17,0,0,0-2.68,7.13,2.79,2.79,0,0,0,3,1.22l.11,0H671.1a6.46,6.46,0,0,0,1,.16c1.64.19,2.32-1.78,1.73-3Z"/></g><g id="_群組_12" data-name="&lt;群組&gt;"><path id="_路徑_31" data-name="&lt;路徑&gt;" class="cls-4" d="M687.92,113l-.78.11a1.7,1.7,0,0,0,0,3.3l.78.11a1.92,1.92,0,0,0,1.8-.47,1.87,1.87,0,0,0,.54-1.29,1.84,1.84,0,0,0-.54-1.29,1.94,1.94,0,0,0-1.8-.47Z"/></g><g id="_群組_13" data-name="&lt;群組&gt;"><path id="_路徑_32" data-name="&lt;路徑&gt;" class="cls-4" d="M706.67,130.49a1.69,1.69,0,0,0,0-3.38,1.69,1.69,0,0,0,0,3.38Z"/></g><g id="_群組_14" data-name="&lt;群組&gt;"><path id="_路徑_33" data-name="&lt;路徑&gt;" class="cls-4" d="M719.86,125.49a1.69,1.69,0,0,0,0-3.38,1.69,1.69,0,0,0,0,3.38Z"/></g><g id="_群組_15" data-name="&lt;群組&gt;"><path id="_路徑_34" data-name="&lt;路徑&gt;" class="cls-4" d="M758.4,84l-.81.09a1.74,1.74,0,1,0,0,3.48l.81.09a1.83,1.83,0,1,0,0-3.66Z"/></g><g id="_群組_16" data-name="&lt;群組&gt;"><path id="_路徑_35" data-name="&lt;路徑&gt;" class="cls-4" d="M748.72,59.75a6.15,6.15,0,0,0,1.74,1.09,4.38,4.38,0,0,0,1.64.31,3.28,3.28,0,0,0,3.23-2.8A3.2,3.2,0,0,0,753,54.8a4.85,4.85,0,0,0-1.52-.1c-.27,0-.54.07-.81.13a5.38,5.38,0,0,0-1.37.6c-1.42.82-2,3.19-.56,4.32Z"/></g><g id="_群組_17" data-name="&lt;群組&gt;"><path id="_路徑_36" data-name="&lt;路徑&gt;" class="cls-4" d="M884.36,98.8c0-.45-.1-.89-.16-1.34a3.78,3.78,0,0,0-.81-1.93A5.35,5.35,0,0,0,882,94.31a3.65,3.65,0,0,0-3.67,0,4.35,4.35,0,0,0-2.24,3.15c-.06.45-.11.89-.16,1.34a4.12,4.12,0,0,0,1.24,3,4.27,4.27,0,0,0,6,0,4,4,0,0,0,1.24-3Z"/></g><g id="_群組_18" data-name="&lt;群組&gt;"><path id="_路徑_37" data-name="&lt;路徑&gt;" class="cls-4" d="M888.49,95.32l-.12.76a2,2,0,0,0,.51,1.9,2,2,0,0,0,2.79,0,2,2,0,0,0,.51-1.9l-.12-.76A1.84,1.84,0,0,0,890.28,94a1.87,1.87,0,0,0-1.79,1.35Z"/></g><g id="_群組_19" data-name="&lt;群組&gt;"><path id="_路徑_38" data-name="&lt;路徑&gt;" class="cls-4" d="M893.32,105.54a1.74,1.74,0,0,0,0-3.47,1.74,1.74,0,0,0,0,3.47Z"/></g><g id="_群組_20" data-name="&lt;群組&gt;"><path id="_路徑_39" data-name="&lt;路徑&gt;" class="cls-4" d="M921.72,98.68a1.88,1.88,0,0,0,0-3.75,1.88,1.88,0,0,0,0,3.75Z"/></g><g id="_群組_21" data-name="&lt;群組&gt;"><path id="_路徑_40" data-name="&lt;路徑&gt;" class="cls-4" d="M931.8,80.74a4.78,4.78,0,0,0-.54.47.86.86,0,0,0,0,1.19,3.87,3.87,0,0,0,.54.46,1.6,1.6,0,0,0,1.67.31,1.48,1.48,0,0,0,.93-1.37,1.54,1.54,0,0,0-.75-1.29,1.6,1.6,0,0,0-1.85.23Z"/></g><g id="_群組_22" data-name="&lt;群組&gt;"><path id="_路徑_41" data-name="&lt;路徑&gt;" class="cls-4" d="M1027.79,61.09a15.74,15.74,0,0,0-1.8.58,10.36,10.36,0,0,0-1.67,1.12,2.57,2.57,0,0,0-.92,3.43c1.63,3.27,6.63,5.06,9.41,2a5.34,5.34,0,0,0,1.26-4.9c-.57-2.11-2.93-4.11-5.15-2.81a2.71,2.71,0,0,0-1.21,2.94,2.14,2.14,0,0,0,.52,1l.47.51c0-.08-.32-.52-.14-.16-.17-.33,0-.44-.09-.1-.06.58.23-.21,0-.12,0,0,0,.37,0,.37s.21-.71,0-.11c-.13.34.3-.64,0-.09.07-.14.35-.38.07-.14.09-.07.61-.33.35-.26s.58,0-.1,0c.29,0,.21,0,0,0s-.32-.1-.15,0,.11.06,0,0-.54-.32-.22-.08A4,4,0,0,1,1028,64c-.46-.44.13.26-.2-.29-.13,1-.27,2-.4,3a10.48,10.48,0,0,0,1.48-1.34,12.78,12.78,0,0,0,1-1.61,1.86,1.86,0,0,0-2.1-2.68Z"/></g><g id="_群組_23" data-name="&lt;群組&gt;"><path id="_路徑_42" data-name="&lt;路徑&gt;" class="cls-4" d="M1041.74,68.49a3,3,0,0,0-2.58.54c-1.29,1-1.18,2.61-.57,3.93a2.3,2.3,0,0,0,2.05,1.17,4.47,4.47,0,0,0,3.57-2.07,3.91,3.91,0,0,0,.23-4.12,2.46,2.46,0,0,0-2.72-1.09,2.49,2.49,0,0,0-1.77,2.29c.06-.66,0-.2,0,.36a2.81,2.81,0,0,0,0,.29c0,.3.1-.59,0-.16s.16-.39,0-.11c0,.07-.24.36,0,0s0,0-.11.08.07-.05.16-.11c-.4.26.5-.15,0,0l2.68,1.08c-.13-.21-.12-.14,0,.2-.06-.25-.06-.18,0,.2v-.13a2.27,2.27,0,0,0-.31-1.14c.13.34.16.43.11.27s0-.07,0,.23c0-.18,0-.14,0,.13s-.09.2,0,.06a1.32,1.32,0,0,0-.8-1.93Z"/></g><g id="_群組_24" data-name="&lt;群組&gt;"><path id="_路徑_43" data-name="&lt;路徑&gt;" class="cls-4" d="M1057.06,67.37l-.14.76a1.8,1.8,0,1,0,3.49,0l-.14-.76a1.68,1.68,0,0,0-3.21,0Z"/></g></g></g></svg>