<svg xmlns="http://www.w3.org/2000/svg" xmlns:xlink="http://www.w3.org/1999/xlink" viewBox="0 0 594.2 181.86"><defs><style>.cls-1{fill:none;}.cls-2{clip-path:url(#clip-path);}.cls-3{fill:#bf9a67;}.cls-4{fill:#a6834f;}.cls-5{fill:#ceb289;}.cls-6{fill:#e3dbc7;}.cls-7{fill:#ceb189;}</style><clipPath id="clip-path"><path id="_剪裁路徑_" data-name="&lt;剪裁路徑&gt;" class="cls-1" d="M27.23,14.08c7.56,72.47,74.25,167.41,269.87,167.78C492.72,181.49,559.42,86.55,567,14.08,490.29,42.91,397.34,59.81,297.1,59.81S103.92,42.91,27.23,14.08Z"/></clipPath></defs><title>資產 20</title><g id="圖層_2" data-name="圖層 2"><g id="關於天然甘"><g id="_群組_" data-name="&lt;群組&gt;"><g id="_剪裁群組_" data-name="&lt;剪裁群組&gt;"><g class="cls-2"><path class="cls-3" d="M297.1,59.81c-100.25,0-193.18-16.9-269.87-45.73,7.56,72.47,74.25,167.41,269.87,167.78C492.72,181.49,559.42,86.55,567,14.08,490.29,42.91,397.34,59.81,297.1,59.81Z"/><path class="cls-4" d="M297.1,132.23c-10.91,0-21.61-.43-32.24-.83v13.79a106,106,0,0,0,64.48,0V131.4C318.71,131.78,308,132.28,297.1,132.23Z"/><path class="cls-4" d="M297.1,83.28c-10.85,0-21.57-.41-32.24-.79V96.32a112.73,112.73,0,0,0,32.24,4.93,114.08,114.08,0,0,0,32.24-4.93V82.49C318.68,82.87,308,83.29,297.1,83.28Z"/><path class="cls-4" d="M370.8,128.85v13.82c22,4.17,44.21-1.37,64.48-8.69v-14C414.87,123.9,393.15,129.31,370.8,128.85Z"/><path class="cls-4" d="M370.8,80.17V94c21.66,4.35,43.84-.35,64.48-7.3v-14C414.41,76.05,392.73,80.63,370.8,80.17Z"/><path class="cls-4" d="M476.74,110.44v14.33c23,.13,45.27-11.42,64.5-22.34V87.07C522.16,96.13,500.29,107.91,476.74,110.44Z"/><path class="cls-4" d="M476.74,65.37v14.1c22,1.57,44.14-7,64.5-15.79V49.23C520.75,55.44,499,64.05,476.74,65.37Z"/><path class="cls-4" d="M158.91,119.93v14c20.27,7.3,42.45,12.87,64.49,8.69V128.85C201.06,129.33,179.35,123.89,158.91,119.93Z"/><path class="cls-4" d="M158.91,72.76v14c20.65,7,42.83,11.65,64.49,7.3V80.17C201.47,80.61,179.79,76.06,158.91,72.76Z"/><path class="cls-4" d="M53,87.07v15.36c19.22,10.91,41.47,22.49,64.49,22.34V110.44C93.9,107.91,72,96.12,53,87.07Z"/><path class="cls-4" d="M53,49.23V63.68C73.31,72.41,95.47,81,117.46,79.47V65.38C95.23,64,73.46,55.44,53,49.23Z"/><path class="cls-4" d="M317.83,156.29v13.77c21.79,5.56,44.06,2.53,64.49-4.14V152.1C361.66,154.52,340,157.35,317.83,156.29Z"/><path class="cls-4" d="M317.83,107.32v13.8c21.66,5.58,43.89,2.71,64.49-3.88V103.37C361.46,105.61,339.82,108.31,317.83,107.32Z"/><path class="cls-4" d="M423.77,146.22v14c22.59,2.35,44.77-6.28,64.5-15.17V130.47C468.56,136.88,446.72,145.5,423.77,146.22Z"/><path class="cls-4" d="M423.77,98.05v14c22.16,2.67,44.32-4.9,64.5-13.13V84.63C468,90.1,446.2,97.54,423.77,98.05Z"/><path class="cls-4" d="M529.71,71.8V86.44c23.35-1.9,45.49-16,64.49-28.77v-16C575.49,53,553.59,67.42,529.71,71.8Z"/><path class="cls-4" d="M211.89,152.1v13.82c20.43,6.67,42.69,9.71,64.49,4.14V156.29C254.22,157.37,232.56,154.52,211.89,152.1Z"/><path class="cls-4" d="M211.89,103.37v13.87c20.58,6.6,42.82,9.49,64.49,3.88v-13.8C254.38,108.3,232.74,105.6,211.89,103.37Z"/><path class="cls-4" d="M106,130.46v14.59c19.7,8.91,41.91,17.48,64.48,15.17v-14C147.48,145.47,125.64,136.89,106,130.46Z"/><path class="cls-4" d="M106,84.63V98.91c20.16,8.23,42.32,15.8,64.48,13.13v-14C148,97.54,126.21,90.1,106,84.63Z"/><path class="cls-4" d="M0,41.67v16C19,70.42,41.14,84.52,64.49,86.44V71.8C40.62,67.42,18.71,53,0,41.67Z"/><path class="cls-5" d="M342,130.85v13.79a30.65,30.65,0,0,0,16.12-1V129.79C352.81,130.17,347.43,130.68,342,130.85Z"/><path class="cls-5" d="M342,82V95.87A30.54,30.54,0,0,0,358.14,95V81.1C352.79,81.46,347.41,81.85,342,82Z"/><path class="cls-5" d="M448,117.34v14.17c5.35.37,10.94-1.09,16.13-3.49V113.71C458.81,115,453.39,116.52,448,117.34Z"/><path class="cls-5" d="M448,70.74v14A33.45,33.45,0,0,0,464.08,82v-14C458.77,68.92,453.35,70.11,448,70.74Z"/><path class="cls-5" d="M553.9,45.33V59.8c5.36-.23,10.88-2.42,16.12-5.28V39.94C564.73,41.75,559.33,44,553.9,45.33Z"/><path class="cls-5" d="M236.06,129.79v13.82a30.72,30.72,0,0,0,16.14,1V130.85C246.77,130.65,241.41,130.2,236.06,129.79Z"/><path class="cls-5" d="M236.06,81.1V95a30.61,30.61,0,0,0,16.14.92V82C246.79,81.86,241.42,81.46,236.06,81.1Z"/><path class="cls-5" d="M130.14,113.71V128c5.17,2.39,10.77,3.86,16.1,3.5V117.34C140.81,116.5,135.39,115,130.14,113.71Z"/><path class="cls-5" d="M130.14,67.9V82a33.22,33.22,0,0,0,16.1,2.83v-14C140.84,70.09,135.43,68.91,130.14,67.9Z"/><path class="cls-5" d="M24.18,39.94V54.52c5.23,2.83,10.77,5,16.13,5.28V45.33C34.86,44,29.48,41.76,24.18,39.94Z"/><path class="cls-5" d="M395,150.59v13.86a32,32,0,0,0,16.14-2.2V148.32C405.83,149.16,400.4,150.08,395,150.59Z"/><path class="cls-5" d="M395,102v13.92a31.79,31.79,0,0,0,16.14-2V100C405.8,100.72,400.38,101.54,395,102Z"/><path class="cls-5" d="M500.92,126.12V140.9c5.43-.44,11-2.93,16.13-6v-15C511.85,122,506.44,124.56,500.92,126.12Z"/><path class="cls-5" d="M500.92,81.07V95.48c5.38-.08,10.93-2.08,16.13-4.82V76.1C511.79,77.83,506.38,79.86,500.92,81.07Z"/><path class="cls-5" d="M297.1,156.54c-2.71,0-5.38,0-8.06,0v13.79a31,31,0,0,0,8.06,1.17,29.81,29.81,0,0,0,8.06-1.17V156.49C302.47,156.53,299.8,156.53,297.1,156.54Z"/><path class="cls-5" d="M297.1,107.59c-2.71,0-5.36-.11-8.06-.11V121.3a32.07,32.07,0,0,0,8.06,1.19,29.77,29.77,0,0,0,8.06-1.19V107.48C302.48,107.5,299.82,107.57,297.1,107.59Z"/><path class="cls-5" d="M183.1,148.31v13.94a32,32,0,0,0,16.12,2.2V150.59C193.79,150.12,188.4,149.13,183.1,148.31Z"/><path class="cls-5" d="M183.1,100v13.93a31.72,31.72,0,0,0,16.12,2V102C193.82,101.55,188.42,100.73,183.1,100Z"/><path class="cls-5" d="M77.15,119.84v15c5.16,3.11,10.7,5.59,16.13,6V126.12C87.77,124.56,82.33,122,77.15,119.84Z"/><path class="cls-5" d="M77.15,76.1V90.66c5.2,2.72,10.76,4.75,16.13,4.82V81.07C87.81,79.88,82.42,77.83,77.15,76.1Z"/></g></g><g id="_群組_2" data-name="&lt;群組&gt;"><path class="cls-6" d="M566.93.5a13.95,13.95,0,1,0,13.94,14A13.95,13.95,0,0,0,566.93.5Z"/><path class="cls-6" d="M27.28.5a13.95,13.95,0,1,0,13.94,14A13.95,13.95,0,0,0,27.28.5Z"/><g id="_群組_3" data-name="&lt;群組&gt;"><path id="_路徑_" data-name="&lt;路徑&gt;" class="cls-1" d="M572.32,12C494.63,42.07,399.7,59.81,297.1,59.81S99.56,42.07,21.88,12"/><g id="_群組_4" data-name="&lt;群組&gt;"><path class="cls-6" d="M567.81.33l-.26.25.12,0c-2.73,3.33-4.1,9.57-5,14.84l-1.09,4.28-.33,1-1.62,3.71,0,.07L557.35,28l-.37.51-2.61,3c6.1,1.84,15.62-1.09,22.4-8.07Z"/><path class="cls-7" d="M546.1,8.23l.13,0c-2.82,3.34-4.35,9.76-5.47,14.93l-1.24,4.19-.38,1L537.38,32l0,.08-2.4,3.4-.39.48-2.73,2.88c6,2.06,15.66-.09,22.54-7.24h0l2.62-3,.37-.51,2.25-3.53,0-.07,1.62-3.71.33-1,1.09-4.28c.89-5.27,2.26-11.51,5-14.84C561.64-1.32,552.74,1.35,546.1,8.23Z"/><path class="cls-6" d="M524.4,15.19l.13,0-.08.11L531.64,39l.19-.19,2.73-2.88.39-.48,2.4-3.4,0-.08,1.76-3.62.38-1,1.24-4.19c1.12-5.17,2.65-11.59,5.47-14.93C540.38,6.45,531.36,8.73,524.4,15.19Z"/></g><g id="_群組_5" data-name="&lt;群組&gt;"><path class="cls-6" d="M524.37,15.06l-.29.23.13,0c-3,3.22-4.76,9.42-6,14.68l-1.36,4.22-.42,1-1.85,3.65,0,.06L512,42.27l-.42.47-2.83,2.74c6,2.58,15.59-.08,22.81-6.66Z"/><path class="cls-7" d="M502.17,21.6l.13,0c-3.1,3.06-5.12,9.15-6.55,14.32l-1.53,4.14-.43,1-2,3.54-.05.07L489.16,48l-.43.47-2.9,2.74c5.84,2.42,15.49.49,22.94-5.71h0l2.83-2.73.42-.47,2.49-3.35,0-.06,1.85-3.65.42-1L518.19,30c1.26-5.26,3.06-11.46,6-14.68C518.32,13,509.4,15.57,502.17,21.6Z"/><path class="cls-6" d="M480,27.13l.13.05-.1.1,5.58,24.09.2-.18h0l2.9-2.74.43-.47,2.59-3.3.05-.07,2-3.54.43-1L495.75,36c1.43-5.17,3.45-11.26,6.55-14.32C496.49,19.13,487.35,20.92,480,27.13Z"/></g><g id="_群組_6" data-name="&lt;群組&gt;"><path class="cls-6" d="M480,27l-.3.23.13,0c-3.15,3.15-5.39,9.1-7,14.17l-1.65,4.07-.49.92-2.09,3.45-.05.06-2.71,3.17-.44.45-3,2.59c5.78,2.61,15.62,1.4,23.2-4.94Z"/><path class="cls-7" d="M457.34,31.89l.11.06c-3.27,2.93-5.67,8.92-7.42,14.05l-1.77,4.07-.5.94-2.2,3.45,0,.08-2.8,3-.46.42-3.08,2.47c5.72,3.07,15.42,1.54,23.21-4.34h0l3-2.59.44-.45,2.71-3.17.05-.06,2.09-3.45.49-.92,1.65-4.07c1.62-5.07,3.86-11,7-14.17C474.18,24.9,464.86,26,457.34,31.89Z"/><path class="cls-6" d="M434.85,36.08l.13.06-.09.1L439,60.63l.21-.16L442.26,58l.46-.42,2.8-3,0-.08,2.2-3.45.5-.94L450,46c1.75-5.13,4.15-11.12,7.42-14C451.8,29.05,442.65,30.78,434.85,36.08Z"/></g><g id="_群組_7" data-name="&lt;群組&gt;"><path class="cls-6" d="M434.83,35.93l-.31.2.13.06c-3.37,2.76-6,8.64-7.88,13.67l-1.89,4-.53.91-2.3,3.34-.05.06-2.88,3.05-.47.42-3.13,2.47c5.62,3,15.43,1.91,23.43-3.65Z"/><path class="cls-7" d="M411.92,39.61l.11.06c-3.42,2.84-6.18,8.6-8.25,13.49l-2,3.9-.57.89-2.39,3.24-.05.06-3,2.91-.47.4-3.21,2.33c5.5,3.08,15.33,2.8,23.42-2.79h0l3.13-2.47.47-.42L422,58.16l.05-.06,2.3-3.34.53-.91,1.89-4c1.92-5,4.51-10.91,7.88-13.67C429.11,33.16,419.79,34.1,411.92,39.61Z"/><path class="cls-6" d="M389.19,42.31l.11,0-.09.09L391.88,67l.22-.15h0l3.21-2.33.47-.4,3-2.91.05-.06L401.2,58l.57-.89,2-3.9c2.07-4.89,4.83-10.65,8.25-13.49C406.63,36.8,397.23,37.08,389.19,42.31Z"/></g><g id="_群組_8" data-name="&lt;群組&gt;"><path class="cls-6" d="M389.18,42.15l-.33.18.12.07c-3.53,2.62-6.44,8.38-8.63,13.32l-2.12,3.9-.58.89-2.48,3.26-.05,0-3.06,2.87-.49.38-3.26,2.18c5.45,3.6,15.28,2.74,23.57-2.39Z"/><path class="cls-7" d="M366.08,44.59l.12.06c-3.6,2.46-6.69,8.08-9,12.92L355,61.37l-.61.87-2.56,3.13-.07.06-3.12,2.78-.5.38-3.32,2.19c5.33,3.43,15.12,3.24,23.52-1.53h0l3.27-2.18.49-.38,3.06-2.87.05,0,2.48-3.26.58-.89,2.12-3.9c2.19-4.94,5.1-10.7,8.63-13.32C383.6,39,374.3,39.88,366.08,44.59Z"/><path class="cls-6" d="M343.23,46.07l.1.07-.1.08,1.32,24.69.23-.13h0l3.33-2.19.5-.38,3.12-2.78.07-.06,2.56-3.13.61-.87,2.23-3.8c2.32-4.84,5.41-10.46,9-12.92C360.92,41.15,351.55,41.26,343.23,46.07Z"/></g><g id="_群組_9" data-name="&lt;群組&gt;"><path class="cls-6" d="M343.21,45.93l-.32.16.11.07c-3.66,2.43-6.89,8.16-9.34,12.86l-2.32,3.72-.65.83-2.65,3-.06.06-3.2,2.65-.51.36-3.38,2c5.26,3.62,15.11,4.06,23.65-1Z"/><path class="cls-7" d="M320,46.94l.11.07c-3.73,2.31-7.11,7.79-9.7,12.52L308,63.24l-.66.84-2.74,3-.05.06-3.27,2.64-.52.34-3.43,2c5.12,3.66,14.9,3.91,23.55-.5l3.38-2,.51-.36,3.2-2.65.06-.06,2.65-3,.65-.83L333.66,59c2.45-4.7,5.68-10.43,9.34-12.86C337.85,42.79,328.46,42.58,320,46.94Z"/><path class="cls-6" d="M297.1,47.43l.11.07-.11.09V72.32l.24-.13h0l3.44-2,.52-.34,3.27-2.64.05-.06,2.74-3,.66-.84,2.41-3.71c2.59-4.73,6-10.21,9.7-12.52C315.05,43.28,305.67,43,297.1,47.43Z"/></g><g id="_群組_10" data-name="&lt;群組&gt;"><path class="cls-6" d="M296.76,47.43l.12.07c-3.79,2.15-7.32,7.48-10,12.09l-2.53,3.6-.67.82-2.82,2.9-.06,0-3.33,2.5-.53.34-3.49,1.89c5.05,3.89,14.88,4.53,23.67.44V47.3Z"/><path class="cls-7" d="M273.87,46.93l.1.08c-3.85,2.14-7.51,7.47-10.35,12.09L261,62.69l-.69.81-2.89,2.84-.06.06L254,68.75l-.53.32-3.54,1.73c4.92,4.24,14.66,5,23.54.89l3.49-1.89.53-.34,3.33-2.5.06,0,2.82-2.9.67-.82,2.53-3.6c2.7-4.61,6.23-9.94,10-12.09C291.9,43.55,282.55,42.87,273.87,46.93Z"/><path class="cls-6" d="M251,46.07l.09.09-.11.06-1.32,24.69.24-.11,3.54-1.73.53-.32,3.4-2.35.06-.06,2.89-2.84.69-.81,2.62-3.59c2.84-4.62,6.5-10,10.35-12.09C269.1,43,259.74,42.56,251,46.07Z"/></g><g id="_群組_11" data-name="&lt;群組&gt;"><path class="cls-6" d="M250.64,46.05l.1.07c-3.89,2-7.7,7.16-10.65,11.66l-2.72,3.47-.71.78-3,2.77-.06,0-3.48,2.36-.55.3L226,69.25c4.83,4.1,14.62,5.19,23.63,1.47L251,45.93Z"/><path class="cls-7" d="M227.79,44.57l.1.07c-4,2-7.9,7.08-11,11.41l-2.8,3.37-.73.76-3,2.63-.06,0-3.54,2.2-.55.3-3.63,1.58c4.71,4.19,14.37,6,23.47,2.31l3.57-1.74.55-.3,3.48-2.36.06,0,3-2.77.71-.78,2.72-3.47c2.95-4.5,6.76-9.67,10.65-11.66C246,42,236.68,40.89,227.79,44.57Z"/><path class="cls-6" d="M205,42.31l.1.08-.12.06L202.31,67l.25-.1h0l3.64-1.58.55-.3,3.54-2.2.06,0,3-2.63.73-.76,2.8-3.37c3.07-4.33,7-9.38,11-11.41C223.23,40.66,214,39,205,42.31Z"/></g><g id="_群組_12" data-name="&lt;群組&gt;"><path class="cls-6" d="M204.68,42.26l.1.08c-4,1.82-8.09,6.81-11.3,11.15l-2.91,3.36-.76.75-3.12,2.63-.06.05L183,62.44l-.55.25-3.67,1.44c4.56,4.7,14.33,6,23.54,2.73L205,42.15Z"/><path class="cls-7" d="M182,39.56l.09.09c-4,1.63-8.26,6.46-11.58,10.67l-3,3.24-.77.71-3.2,2.5-.06,0-3.66,2-.57.26-3.73,1.41c4.45,4.5,14.08,6.44,23.32,3.6h0l3.67-1.43.55-.25,3.61-2.16.06-.05,3.12-2.63.76-.75,2.91-3.36c3.21-4.34,7.3-9.33,11.3-11.15C200.27,37.89,191,36.73,182,39.56Z"/><path class="cls-6" d="M159.34,36.08l.1.08-.12.08-4.1,24.39.26-.1,3.73-1.41.57-.26,3.66-2,.06,0,3.2-2.5.77-.71,3-3.24c3.32-4.21,7.54-9,11.58-10.67C177.68,35.09,168.5,33.2,159.34,36.08Z"/></g><g id="_群組_13" data-name="&lt;群組&gt;"><path class="cls-6" d="M159,36l.1.09c-4.1,1.61-8.5,6.47-11.92,10.47l-3.09,3.12-.79.68-3.26,2.36-.08,0-3.71,1.87-.58.25-3.74,1.26c4.33,4.61,13.88,7.33,23.32,4.28l4.11-24.52Z"/><path class="cls-7" d="M136.54,31.83l.1.1C132.5,33.37,128,38,124.42,42l-3.2,3.09-.83.67L117,48.14l-.06,0L113.19,50l-.59.21-3.78,1.1c4.11,5.08,13.7,7.16,23.12,4.85h0l3.75-1.26.58-.25L140,52.79l.08,0,3.26-2.36.79-.68,3.09-3.12c3.42-4,7.82-8.86,11.92-10.47C154.8,31.74,145.75,29.36,136.54,31.83Z"/><path class="cls-6" d="M114.18,27.13l.1.1-.13.05-5.58,24.09.25,0,3.78-1.1.59-.21L117,48.18l.06,0,3.35-2.36.83-.67,3.2-3.09C128,38,132.5,33.37,136.64,31.93,132.54,27.09,123.42,25.1,114.18,27.13Z"/></g><g id="_群組_14" data-name="&lt;群組&gt;"><path class="cls-6" d="M113.85,27.05l.1.09c-4.17,1.26-8.81,5.68-12.5,9.57l-3.29,2.95-.84.64L93.9,42.5l-.07,0L90,44.22l-.59.22-3.85,1.07c4,4.89,13.54,7.72,23.06,5.68L114.22,27Z"/><path class="cls-7" d="M91.71,21.52l.08.1c-4.24,1.3-9,5.59-12.83,9.25l-3.38,2.82-.86.59-3.47,2-.07,0-3.89,1.52-.59.18L62.82,39c3.87,5,13.08,8.62,22.73,6.56v0l3.85-1.05.59-.22,3.84-1.69.07,0,3.42-2.2.84-.64,3.29-2.95c3.69-3.89,8.33-8.31,12.5-9.57C110,22.2,101.09,19.49,91.71,21.52Z"/><path class="cls-6" d="M69.79,15.19l.1.1-.13.05L62.56,39l.26,0,3.88-.89.59-.18,3.89-1.52.07,0,3.47-2,.86-.59L79,30.87c3.79-3.66,8.59-7.95,12.83-9.25C87.91,16.88,79.21,13.53,69.79,15.19Z"/></g><g id="_群組_15" data-name="&lt;群組&gt;"><path class="cls-6" d="M69.47,15.09l.09.1c-4.25,1-9.2,5.21-13.18,8.88l-3.49,2.77-.89.59-3.56,2-.08,0-3.92,1.33-.61.15L40,31.6c3.61,5.48,12.95,8.82,22.66,7.22l7.23-23.76Z"/><path class="cls-7" d="M47.78,8.12l.09.1c-4.27.84-9.35,4.78-13.44,8.27l-3.58,2.6-.91.56L26.3,21.48l-.09,0-4,1.3-.61.13-4,.69c3.49,5.24,12.64,9,22.32,8h0l3.88-.69.61-.15,3.92-1.33.08,0,3.56-2,.89-.59,3.49-2.77c4-3.67,8.93-7.83,13.18-8.88C66,10,57.11,7.16,47.78,8.12Z"/><path class="cls-6" d="M26.34.47l.08.09-.13,0L17.36,23.67l.27,0v0l4-.67.61-.13,4-1.3.09,0,3.64-1.83.91-.56,3.58-2.6C38.52,13,43.6,9.06,47.87,8.22,44.46,2.93,35.89-.63,26.34.47Z"/></g></g></g></g></g></g></svg>