<svg xmlns="http://www.w3.org/2000/svg" viewBox="0 0 118.41 124.68"><defs><style>.cls-1{isolation:isolate;}.cls-2{fill:#804c22;}.cls-3{fill:#dac16c;}.cls-4{opacity:0.7;}.cls-5{fill:#fff;}.cls-6{mix-blend-mode:multiply;}</style></defs><title>資產 18</title><g class="cls-1"><g id="圖層_2" data-name="圖層 2"><g id="關於天然甘"><g id="_群組_" data-name="&lt;群組&gt;"><path id="_路徑_" data-name="&lt;路徑&gt;" class="cls-2" d="M62,40.61a190.52,190.52,0,0,1,5.86-39L60.77,0a197.8,197.8,0,0,0-3.6,41.29"/><path class="cls-3" d="M118.23,69.69c-2.37-31.88-30.1-53.5-59-35.79C30.28,16.19,2.54,37.81.18,69.69c-2.53,34.16,21.68,62.71,48.4,53.11,2.07-.74,7.35-2.54,10.57-2.54h.11c3.22,0,8.49,1.8,10.57,2.54C96.55,132.4,120.76,103.85,118.23,69.69Z"/><g class="cls-4"><path class="cls-5" d="M27.33,49a6.49,6.49,0,1,0,6.49,6.49A6.49,6.49,0,0,0,27.33,49Z"/></g><g class="cls-6"><path class="cls-3" d="M89.89,44.18a1.89,1.89,0,1,0,1.91,1.9A1.89,1.89,0,0,0,89.89,44.18Z"/></g><g class="cls-6"><path class="cls-3" d="M101.11,69a1.89,1.89,0,1,0,1.9,1.89A1.89,1.89,0,0,0,101.11,69Z"/></g><g class="cls-6"><path class="cls-3" d="M80.33,72.51a1.89,1.89,0,1,0,1.9,1.89A1.89,1.89,0,0,0,80.33,72.51Z"/></g><g class="cls-6"><path class="cls-3" d="M92.25,103.19a1.9,1.9,0,1,0,1.9,1.9A1.89,1.89,0,0,0,92.25,103.19Z"/></g><g class="cls-6"><path class="cls-3" d="M74.55,92.7a1.89,1.89,0,1,0,1.9,1.9A1.9,1.9,0,0,0,74.55,92.7Z"/></g><g class="cls-6"><path class="cls-3" d="M70.88,56.57a1.89,1.89,0,1,0,1.9,1.89A1.89,1.89,0,0,0,70.88,56.57Z"/></g><g class="cls-6"><path class="cls-3" d="M55.07,81.48a1.9,1.9,0,1,0,1.9,1.9A1.91,1.91,0,0,0,55.07,81.48Z"/></g><g class="cls-6"><path class="cls-3" d="M48,100.26a1.89,1.89,0,1,0,1.88,1.88A1.88,1.88,0,0,0,48,100.26Z"/></g><g class="cls-6"><path class="cls-3" d="M23.79,97.89a1.89,1.89,0,1,0,1.9,1.9A1.89,1.89,0,0,0,23.79,97.89Z"/></g><g class="cls-6"><path class="cls-3" d="M14.22,79a1.9,1.9,0,1,0,0,3.79,1.9,1.9,0,0,0,0-3.79Z"/></g><g class="cls-6"><path class="cls-3" d="M35.46,73.1A1.89,1.89,0,1,0,37.37,75,1.89,1.89,0,0,0,35.46,73.1Z"/></g><g class="cls-6"><path class="cls-3" d="M45.5,41.81a1.89,1.89,0,1,0,1.9,1.9A1.9,1.9,0,0,0,45.5,41.81Z"/></g></g></g></g></g></svg>