<svg xmlns="http://www.w3.org/2000/svg" viewBox="0 0 164.03 204.08"><defs><style>.cls-1,.cls-7{fill:none;stroke-linecap:round;}.cls-1{stroke:#397637;stroke-linejoin:round;stroke-width:1.29px;}.cls-2{fill:#50863e;}.cls-3{fill:#397637;}.cls-4{fill:#7b3790;}.cls-5{fill:#602f84;}.cls-6{fill:#773085;}.cls-7{stroke:#fff;stroke-miterlimit:10;stroke-width:0.86px;opacity:0.5;}</style></defs><title>資產 13</title><g id="圖層_2" data-name="圖層 2"><g id="關於天然甘"><g id="_群組_" data-name="&lt;群組&gt;"><path id="_路徑_" data-name="&lt;路徑&gt;" class="cls-1" d="M23.22,3.15C26.77-.92,39.9-.77,39.15,9.21c-.4,5.27-7.57,10.26-10.4,4.61C26.9,10.14,33.13.29,42,2.23c6.07,1.32,13.69,10.41,9.87,21.85-2.36,7.12-11.5,7.72-12.36,1.19-.8-5.93,5-15.54,15.26-12,8.56,3,14.61,15.79,12,37.26"/><g id="_群組_2" data-name="&lt;群組&gt;"><path class="cls-2" d="M164,3.11c-13.11,11-43.36-9.18-59.21,18.39C100.17-.4,80.07,14.25,74.72.65c4.28,9,4.77,19.76.51,28.11C68.12,42.7,84.25,58,97,59.4c-.87,12.72,11.43,31.28,26.4,26.7,9-2.75,19.44-.39,27.58,5.38-12.48-7.63,5.46-24.87-15.31-33.26C165.53,47.39,150.92,14.11,164,3.11Z"/><path class="cls-3" d="M145,18.77l-9.12,7c-5.49,4.15-12.69,9.86-19.92,15.5-3.6,2.84-7.3,5.56-10.63,8.29s-6.24,5.51-8.68,7.93a108.22,108.22,0,0,0-7.87,8.47l.28.31A106.78,106.78,0,0,0,98.79,60c2.81-2,6-4.42,9.31-7.17s6.61-6,10-9.05c6.82-6.14,13.67-12.23,18.72-16.92l8.46-7.75Z"/><path class="cls-3" d="M102.64,43.73a24.93,24.93,0,0,0-1-4.13c-.47-1.36-.89-2.76-1.45-4.1s-1.06-2.7-1.68-4-1.26-2.52-1.87-3.7-1.31-2.3-2-3.33-1.33-2-2-2.83S91.4,20,90.8,19.41s-1.07-1.25-1.52-1.66L87.87,16.4l-.31.27,1.17,1.56c.39.48.75,1.11,1.23,1.83s1,1.51,1.47,2.42c1,1.81,2,4,3.1,6.37.45,1.21,1,2.45,1.39,3.74s.83,2.59,1.19,3.9.59,2.66.81,4,.38,2.61.49,3.84.27,2.42.46,3.55c.1.57.06,1.1.11,1.63A10.47,10.47,0,0,1,99.09,51c0,1,.09,1.92,0,2.7s-.06,1.57-.2,2.14c-.21,1.16-.31,1.92-.31,1.92l.37.2a16.64,16.64,0,0,0,1.31-1.57,14.24,14.24,0,0,0,1.15-2.08,16.83,16.83,0,0,0,1-3A21.42,21.42,0,0,0,102.64,43.73Z"/><path class="cls-3" d="M136.62,74.17c-.32-.52-.82-1.09-1.36-1.78s-1.19-1.43-1.92-2.22-1.55-1.59-2.42-2.48S129,66,128,65.16s-2.15-1.71-3.32-2.5-2.38-1.6-3.62-2.35-2.53-1.44-3.79-2.13a25,25,0,0,0-3.91-1.68,21.31,21.31,0,0,0-7.58-1,16.39,16.39,0,0,0-3.07.47,10.72,10.72,0,0,0-2.27.76,16.12,16.12,0,0,0-1.77,1l.13.39s.77.06,1.95,0a18.42,18.42,0,0,1,2.13.17c.8,0,1.73.33,2.67.43.47.07,1,.25,1.51.37s1,.21,1.58.41c1.08.37,2.23.63,3.41,1.05s2.44.77,3.71,1.15,2.52.93,3.77,1.5S122,64.37,123.16,65s2.32,1.38,3.44,2a70.8,70.8,0,0,1,5.74,4.17c.81.66,1.55,1.27,2.14,1.86s1.15,1.07,1.57,1.53l1.33,1.42.33-.27S137.31,75.21,136.62,74.17Z"/></g><path class="cls-4" d="M30.73,135.52a16.75,16.75,0,1,0-3.67,23.4A16.74,16.74,0,0,0,30.73,135.52Z"/><g id="_群組_3" data-name="&lt;群組&gt;"><path class="cls-5" d="M93.66,45.81A16.75,16.75,0,1,0,90,69.21,16.74,16.74,0,0,0,93.66,45.81Z"/><path class="cls-5" d="M76.76,73.47a16.76,16.76,0,1,0-3.68,23.42A16.75,16.75,0,0,0,76.76,73.47Z"/><path class="cls-5" d="M49.09,75.81a16.75,16.75,0,1,0-3.69,23.4A16.75,16.75,0,0,0,49.09,75.81Z"/><path class="cls-5" d="M112.88,64.45a16.75,16.75,0,1,0-3.68,23.4A16.74,16.74,0,0,0,112.88,64.45Z"/><path class="cls-5" d="M90.45,127.08a16.75,16.75,0,1,0-3.68,23.4A16.74,16.74,0,0,0,90.45,127.08Z"/><path class="cls-5" d="M45.6,94.74a16.75,16.75,0,1,0-3.68,23.41A16.77,16.77,0,0,0,45.6,94.74Z"/><path class="cls-5" d="M30.3,83.13a16.75,16.75,0,1,0-3.69,23.41A16.75,16.75,0,0,0,30.3,83.13Z"/><path class="cls-5" d="M36.57,161.15a16.75,16.75,0,1,0-3.69,23.41A16.76,16.76,0,0,0,36.57,161.15Z"/><path class="cls-5" d="M83.9,161.2a16.75,16.75,0,1,0-3.69,23.4A16.74,16.74,0,0,0,83.9,161.2Z"/><path class="cls-5" d="M111.87,123.33a16.76,16.76,0,1,0-3.69,23.4A16.78,16.78,0,0,0,111.87,123.33Z"/><path class="cls-5" d="M96.13,105.56A16.75,16.75,0,1,0,92.44,129,16.73,16.73,0,0,0,96.13,105.56Z"/><path class="cls-5" d="M72.25,103.52a16.75,16.75,0,1,0-3.69,23.41A16.77,16.77,0,0,0,72.25,103.52Z"/><path class="cls-5" d="M49.82,115.17a16.75,16.75,0,1,0-3.69,23.41A16.76,16.76,0,0,0,49.82,115.17Z"/><path class="cls-5" d="M69.91,133.23a16.75,16.75,0,1,0-3.68,23.41A16.75,16.75,0,0,0,69.91,133.23Z"/><path class="cls-5" d="M60.89,155.37a16.75,16.75,0,1,0-3.69,23.4A16.78,16.78,0,0,0,60.89,155.37Z"/><path class="cls-5" d="M112.45,87.21a16.75,16.75,0,1,0-3.69,23.4A16.77,16.77,0,0,0,112.45,87.21Z"/></g><path class="cls-4" d="M62.58,43.09a16.75,16.75,0,1,0-3.67,23.4A16.73,16.73,0,0,0,62.58,43.09Z"/><path class="cls-4" d="M102.15,141a16.75,16.75,0,1,0-3.68,23.41A16.76,16.76,0,0,0,102.15,141Z"/><path class="cls-4" d="M100.21,74.59A16.75,16.75,0,1,0,96.53,98,16.75,16.75,0,0,0,100.21,74.59Z"/><path class="cls-6" d="M59.28,177.47a16.75,16.75,0,1,0-3.68,23.4A16.74,16.74,0,0,0,59.28,177.47Z"/><path class="cls-6" d="M46.42,138.67a16.76,16.76,0,1,0-3.69,23.4A16.76,16.76,0,0,0,46.42,138.67Z"/><path class="cls-6" d="M73.46,123.68a16.75,16.75,0,1,0-3.68,23.41A16.76,16.76,0,0,0,73.46,123.68Z"/><path class="cls-6" d="M86.82,147.6A16.76,16.76,0,1,0,83.13,171,16.77,16.77,0,0,0,86.82,147.6Z"/><path class="cls-6" d="M114.62,101.73A16.75,16.75,0,1,0,111,125.14,16.75,16.75,0,0,0,114.62,101.73Z"/><path class="cls-6" d="M89.14,89a16.75,16.75,0,1,0-3.68,23.4A16.76,16.76,0,0,0,89.14,89Z"/><path class="cls-6" d="M59.87,90.66a16.75,16.75,0,1,0-3.68,23.41A16.74,16.74,0,0,0,59.87,90.66Z"/><path class="cls-6" d="M60.46,60.36a16.76,16.76,0,1,0-3.69,23.42A16.77,16.77,0,0,0,60.46,60.36Z"/><path class="cls-6" d="M86.67,51.44A16.75,16.75,0,1,0,83,74.85,16.77,16.77,0,0,0,86.67,51.44Z"/><path class="cls-6" d="M33.21,109.35a16.75,16.75,0,1,0-3.68,23.4A16.74,16.74,0,0,0,33.21,109.35Z"/><path class="cls-6" d="M37.15,56.88a16.75,16.75,0,1,0-3.69,23.39A16.75,16.75,0,0,0,37.15,56.88Z"/><path id="_路徑_2" data-name="&lt;路徑&gt;" class="cls-7" d="M33.51,98.51a13,13,0,0,1,14.84-10.8"/><path id="_路徑_3" data-name="&lt;路徑&gt;" class="cls-7" d="M62.78,96.81A13,13,0,0,1,77.61,86"/><path id="_路徑_4" data-name="&lt;路徑&gt;" class="cls-7" d="M88.26,109.58a13,13,0,0,1,14.83-10.8"/><path id="_路徑_5" data-name="&lt;路徑&gt;" class="cls-7" d="M47.09,131.53a13,13,0,0,1,14.84-10.81"/><path id="_路徑_6" data-name="&lt;路徑&gt;" class="cls-7" d="M20.05,146.53a13,13,0,0,1,14.84-10.81"/><path id="_路徑_7" data-name="&lt;路徑&gt;" class="cls-7" d="M6.84,117.2a13,13,0,0,1,14.84-10.81"/><path id="_路徑_8" data-name="&lt;路徑&gt;" class="cls-7" d="M60.44,155.45a13,13,0,0,1,14.84-10.8"/><path id="_路徑_9" data-name="&lt;路徑&gt;" class="cls-7" d="M32.92,185.32a13,13,0,0,1,14.83-10.8"/><path id="_路徑_10" data-name="&lt;路徑&gt;" class="cls-7" d="M34.08,68.22a13,13,0,0,1,14.83-10.8"/><path id="_路徑_11" data-name="&lt;路徑&gt;" class="cls-7" d="M60.3,59.29A13,13,0,0,1,75.13,48.48"/><path id="_路徑_12" data-name="&lt;路徑&gt;" class="cls-7" d="M10.79,64.74A13,13,0,0,1,25.61,53.93"/></g></g></g></svg>