<svg xmlns="http://www.w3.org/2000/svg" viewBox="0 0 320.52 280.78"><defs><style>.cls-1{fill:#8d8e8d;}.cls-2{fill:#a2bb65;}</style></defs><title>leaf</title><g id="圖層_1" data-name="圖層 1"><path class="cls-1" d="M1076.22,239.86l.19-.16-.2,0c0-.13,0-.2,0-.2l-.19.16c-11-2.44-271.37-56.53-295.48,253.27l-.26.22h.24a2.12,2.12,0,0,0,0,.24l.26-.22C1090.57,516.69,1076.94,251.16,1076.22,239.86Z" transform="translate(-755.96 -213.83)"/></g><g id="圖層_2" data-name="圖層 2"><path class="cls-2" d="M1066.9,219.45l.2-.17-.21-.05c0-.14,0-.22,0-.22l-.2.17c-11.61-2.56-285.11-59.38-310.44,266.09l-.27.23.25,0a2.29,2.29,0,0,1,0,.25l.27-.23C1082,510.29,1067.66,231.31,1066.9,219.45Z" transform="translate(-755.96 -213.83)"/></g></svg>