<svg id="圖層_1" data-name="圖層 1" xmlns="http://www.w3.org/2000/svg" viewBox="0 0 100 100"><defs><style>.cls-1{fill:#ed7a67;}.cls-2{fill:#f1bb70;}.cls-3{fill:#d55843;}.cls-4{fill:#fff;}</style></defs><title>cusImg02</title><path class="cls-1" d="M99.1,58.77c0,3.44-4.36,6.15-5.38,9.25s.83,8-1.12,10.64S85.52,81,82.81,83s-3.94,6.92-7.16,8-7-2.27-10.46-2.27-7.37,3.25-10.47,2.24-4.45-6-7.13-8-7.82-1.64-9.78-4.35,0-7.43-1.09-10.65-5.35-5.83-5.35-9.27,4.36-6.15,5.38-9.25-.83-8,1.12-10.64,7.09-2.35,9.8-4.32,3.94-6.92,7.16-8,7,2.27,10.46,2.27,7.37-3.25,10.47-2.24,4.45,6,7.13,8,7.82,1.64,9.78,4.35,0,7.43,1.09,10.65S99.11,55.33,99.1,58.77Z"/><circle class="cls-2" cx="33.32" cy="59.98" r="31.92" transform="translate(-26.71 93.2) rotate(-89.91)"/><circle class="cls-3" cx="49.2" cy="40.18" r="31.92" transform="translate(8.94 89.31) rotate(-89.91)"/><path class="cls-4" d="M56.2,65.42a10.21,10.21,0,0,1-3.63-1,9.87,9.87,0,0,0-3.41-1,9.87,9.87,0,0,0-3.41.95c-1.59.64-3.24,1.31-4.74.82s-2.52-2.06-3.44-3.56A9.37,9.37,0,0,0,35.49,59a9.63,9.63,0,0,0-3.23-1.19c-1.69-.42-3.45-.85-4.4-2.17s-.81-3.09-.68-4.82A9.75,9.75,0,0,0,27,47.34a9.21,9.21,0,0,0-1.86-2.77c-1.14-1.35-2.33-2.75-2.33-4.43S24,37.06,25.2,35.71a9.21,9.21,0,0,0,1.87-2.76,9.75,9.75,0,0,0,.14-3.47c-.12-1.73-.25-3.52.7-4.82s2.71-1.74,4.41-2.15a9.61,9.61,0,0,0,3.23-1.18,9.37,9.37,0,0,0,2.1-2.67c.93-1.49,1.88-3,3.45-3.55s3.14.19,4.73.84a9.87,9.87,0,0,0,3.41,1A9.87,9.87,0,0,0,52.65,16c1.59-.64,3.24-1.31,4.73-.82s2.52,2.06,3.44,3.56a9.37,9.37,0,0,0,2.09,2.68,9.62,9.62,0,0,0,3.22,1.19c1.69.42,3.45.85,4.4,2.17s.81,3.09.68,4.82A9.75,9.75,0,0,0,71.35,33a9.21,9.21,0,0,0,1.86,2.77c1.14,1.35,2.33,2.75,2.33,4.43s-1.19,3.08-2.34,4.43a9.21,9.21,0,0,0-1.87,2.76,9.75,9.75,0,0,0-.14,3.47c.12,1.73.25,3.52-.7,4.82s-2.71,1.74-4.41,2.15A9.62,9.62,0,0,0,62.85,59a9.37,9.37,0,0,0-2.1,2.67c-.93,1.49-1.88,3-3.45,3.55A3.54,3.54,0,0,1,56.2,65.42Zm-7-2.95a10.54,10.54,0,0,1,3.78,1c1.49.61,2.9,1.19,4.06.81s2-1.72,2.92-3.13a10.19,10.19,0,0,1,2.36-2.95,10.27,10.27,0,0,1,3.57-1.34c1.59-.39,3.1-.76,3.85-1.78s.63-2.54.51-4.17a10.41,10.41,0,0,1,.19-3.85A10,10,0,0,1,72.45,44c1-1.21,2.1-2.47,2.11-3.79s-1.06-2.58-2.09-3.8a10,10,0,0,1-2-3.1,10.41,10.41,0,0,1-.18-3.85c.12-1.63.23-3.16-.5-4.17s-2.25-1.4-3.84-1.79a10.27,10.27,0,0,1-3.57-1.35,10.17,10.17,0,0,1-2.35-3c-.87-1.41-1.68-2.74-2.91-3.14s-2.57.19-4.06.8a10.53,10.53,0,0,1-3.78,1,10.53,10.53,0,0,1-3.78-1c-1.49-.61-2.9-1.19-4.06-.81s-2,1.72-2.92,3.13a10.18,10.18,0,0,1-2.36,2.95,10.28,10.28,0,0,1-3.57,1.34c-1.59.39-3.1.76-3.85,1.78s-.63,2.54-.51,4.17A10.41,10.41,0,0,1,28,33.25a10,10,0,0,1-2.06,3.1c-1,1.21-2.1,2.47-2.11,3.79s1.06,2.58,2.09,3.8A10,10,0,0,1,28,47a10.41,10.41,0,0,1,.18,3.85c-.12,1.63-.23,3.16.5,4.17s2.25,1.4,3.84,1.79a10.28,10.28,0,0,1,3.57,1.35,10.18,10.18,0,0,1,2.35,3c.87,1.41,1.68,2.74,2.91,3.14s2.57-.19,4.06-.8A10.54,10.54,0,0,1,49.16,62.47Z"/><path class="cls-2" d="M40.79,24.07l8,14.9a.21.21,0,0,1-.36.2L39.51,24.81A.74.74,0,1,1,40.76,24Z"/><path class="cls-2" d="M57.61,56.29l-8-14.9a.21.21,0,0,1,.36-.2l8.88,14.37a.74.74,0,1,1-1.26.78Z"/><path class="cls-2" d="M33.86,30.44,48.2,39.37a.21.21,0,0,1-.21.35l-14.88-8a.74.74,0,1,1,.7-1.3Z"/><path class="cls-2" d="M64.54,49.92,50.2,41a.21.21,0,0,1,.21-.35l14.88,8a.74.74,0,0,1-.7,1.3Z"/><path class="cls-2" d="M31,39.41,47.93,40a.21.21,0,0,1,0,.41L31,40.89a.74.74,0,1,1,0-1.48Z"/><path class="cls-2" d="M67.36,40.95l-16.89-.56a.21.21,0,0,1,0-.41l16.89-.51a.74.74,0,0,1,0,1.48Z"/><path class="cls-2" d="M33.09,48.59l14.9-8a.21.21,0,0,1,.2.36L33.83,49.87a.74.74,0,0,1-.78-1.26Z"/><path class="cls-2" d="M65.31,31.77l-14.9,8a.21.21,0,0,1-.2-.36l14.37-8.88a.74.74,0,1,1,.78,1.26Z"/><path class="cls-2" d="M39.46,55.52l8.93-14.34a.21.21,0,0,1,.35.21l-8,14.88a.74.74,0,0,1-1.3-.7Z"/><path class="cls-2" d="M58.94,24.84,50,39.18a.21.21,0,0,1-.35-.21l8-14.88a.74.74,0,1,1,1.3.7Z"/><path class="cls-2" d="M48.43,58.34,49,41.45a.21.21,0,0,1,.41,0l.51,16.89a.74.74,0,1,1-1.48,0S48.43,58.35,48.43,58.34Z"/><path class="cls-2" d="M50,22l-.56,16.89a.21.21,0,0,1-.41,0L48.49,22A.74.74,0,1,1,50,22S50,22,50,22Z"/></svg>