<svg id="圖層_1" data-name="圖層 1" xmlns="http://www.w3.org/2000/svg" viewBox="0 0 100 100"><defs><style>.cls-1{fill:#9f714b;}.cls-2{fill:#2d163a;}.cls-3{fill:#ebb386;}.cls-4{opacity:0.3;}.cls-5{fill:#b08666;}.cls-6{opacity:0.2;}.cls-7{fill:#fff;}.cls-8{fill:#fe77c6;}</style></defs><title>bird</title><path class="cls-1" d="M53,50c1.88-1.88,2.94-4.94,4.35-7.05q3-5.29,6.35-10.22c2.94-4.11,6.11-9.52,10.46-12.34,2.12-1.29,5.88-2.12,6.58.94S79,26.23,77.3,28.11c2.12.35,4.7.71,4.58,3.41-.12,2.47-2.47,3.41-4.58,3.41,2,.35,3.53,1.65,3.06,3.88-.59,2.82-3.88,2.35-6.23,2.35,2.35.23,3.88,1.29,3.53,3.76-.35,2.82-3.88,4.94-6.46,5.76C65.32,52.79,58.62,52.09,53,50"/><path class="cls-2" d="M75.11,22.37a2.6,2.6,0,0,1,1.11-.63.6.6,0,0,1,.61.26,1.36,1.36,0,0,1,.19.64,4.81,4.81,0,0,1-.6,2.52,36.64,36.64,0,0,1-3.08,4.08l-.14-.39c1,.14,2.18,0,3.32.08a4.29,4.29,0,0,1,1.72.42A1.86,1.86,0,0,1,79,30a2.12,2.12,0,0,1,.26.92,1.74,1.74,0,0,1-.24.95,2.6,2.6,0,0,1-.61.7,6.16,6.16,0,0,1-1.52.85c-1.05.44-2.17.7-3.19,1v-.42a9.37,9.37,0,0,1,1.92.95,5,5,0,0,1,1.56,1.49,2.64,2.64,0,0,1,.23.51c0,.09,0,.19,0,.28a.65.65,0,0,1,0,.28c0,.09,0,.19,0,.28l-.11.26a1.75,1.75,0,0,1-.31.45,4.78,4.78,0,0,1-1.83,1,5.13,5.13,0,0,0,1.71-1.15,1.4,1.4,0,0,0,.06-1.8,4.71,4.71,0,0,0-1.51-1.33,9,9,0,0,0-1.87-.83.22.22,0,0,1-.15-.28.23.23,0,0,1,.13-.14c1.08-.41,2.15-.64,3.16-1.09A5.68,5.68,0,0,0,78,32.18,1.51,1.51,0,0,0,78.67,31a1.58,1.58,0,0,0-.2-.67,1.31,1.31,0,0,0-.5-.46,3.79,3.79,0,0,0-1.5-.38c-.54,0-1.09,0-1.65,0a10.13,10.13,0,0,1-1.72-.09.24.24,0,0,1-.15-.38h0A44.5,44.5,0,0,0,76.15,25a4.9,4.9,0,0,0,.69-2.35,1.21,1.21,0,0,0-.13-.58.48.48,0,0,0-.48-.23A2.66,2.66,0,0,0,75.11,22.37Z"/><polyline class="cls-2" points="85.61 49.5 97.63 51.38 86.23 53.5"/><path class="cls-2" d="M85.51,49.86l12,1.88V51l-11.4,2.12c-.48.09-.28.82.2.73l11.4-2.12a.38.38,0,0,0,0-.73l-12-1.88c-.48-.07-.68.65-.2.73Z"/><path class="cls-3" d="M10.19,39.63c6,9.64,18.69,10.22,28.79,9.75,7.29-.35,14.81-1.18,21.51-4.11C64,43.74,67.07,42.1,71,41.51c4.82-.82,9.64-1.06,13.16,2.82a10.23,10.23,0,0,1,2.94,8.58A21,21,0,0,1,83.7,63.84c-4.11,6.23-11.92,8.46-19.21,9.64-14.1,2.23-30.32-3.53-38.66-15.39-1.29-1.88-2.35-3.76-3.76-5.52-1.53-2-2.12-2.35-4.82-2-2.47.35-4.58,1.53-6.93,2.12-1.76.47-4.11,1.44-6,1.33-3.46-.66,3.46-16.25,5.88-14.37"/><g class="cls-4"><path class="cls-5" d="M12.88,48.07a70.89,70.89,0,0,0,10.2,2.86c7.33,1.4,14.88,1.22,22.29.79,13.41-.77,26.81-8.49,40.25-5.45a13.87,13.87,0,0,0-1.51-1.95c-3.53-3.88-8.34-3.64-13.16-2.82-3.88.59-6.93,2.23-10.46,3.76C53.79,48.21,46.27,49,39,49.38c-10.11.47-22.8-.12-28.79-9.75-1.1-.86-3.13,1.91-4.69,5.23C8,45.89,10.35,47.18,12.88,48.07Z"/></g><g class="cls-6"><path class="cls-7" d="M58.37,63.22c-4.78,0-9.71.27-14.23,2a56.64,56.64,0,0,0-7.09,3,42.44,42.44,0,0,0,27.43,5.26c5.75-.93,11.82-2.52,16.15-6.21C73.89,63.92,65.65,63.18,58.37,63.22Z"/></g><path class="cls-2" d="M79.88,53.23c3.89,0,3.9-6,0-6s-3.9,6,0,6Z"/><path class="cls-7" d="M79.22,50a.76.76,0,0,0,0-1.51.76.76,0,0,0,0,1.51Z"/><path class="cls-2" d="M63.73,72.79c-1,5.06-4,8.48-9.4,8.39a.44.44,0,0,0,0,.88c5.81.1,9.15-3.57,10.25-9,.11-.55-.74-.79-.85-.23Z"/><path class="cls-2" d="M54.3,80.3a6.43,6.43,0,0,1,3.28,0c.83.28,1.63,1.39,1,2.22-.88,1.07-3.13.77-4.35.93-.55.07-.56,1,0,.88,1.62-.21,4.91.13,5.41-2a2.45,2.45,0,0,0-1.38-2.73,6.79,6.79,0,0,0-4.15-.13c-.55.12-.32,1,.23.85Z"/><path class="cls-2" d="M56.27,72.26a16.24,16.24,0,0,1-3.59,4.87C50.76,78.82,48.63,79,46.16,79a.44.44,0,0,0,0,.88c2.3,0,4.49-.11,6.4-1.53A16.14,16.14,0,0,0,57,72.71c.26-.5-.5-1-.76-.44Z"/><path class="cls-2" d="M47.33,77.68c1.28,0,3.82-.58,4,1.26.25,2.38-2.48,2.32-4.13,2.33a.44.44,0,0,0,0,.88c2.2,0,5.19-.24,5-3.16-.15-2.65-3-2.21-4.9-2.19a.44.44,0,0,0,0,.88Z"/><path class="cls-8" d="M74.55,55.76a1.4,1.4,0,0,0,0-2.8,1.4,1.4,0,0,0,0,2.8Z"/><path class="cls-2" d="M7.36,41.83c1,.85,1.91,1.63,2.91,2.36s2,1.43,3.11,2.11a7.4,7.4,0,0,1-1.8-.66,11.7,11.7,0,0,1-1.64-1A9,9,0,0,1,7.36,41.83Z"/><path class="cls-2" d="M5.12,46.17A27.43,27.43,0,0,0,9.4,47.44,14.78,14.78,0,0,1,13.66,49c-1.46-.39-2.92-.63-4.39-1a16.29,16.29,0,0,1-2.17-.68A7.35,7.35,0,0,1,5.12,46.17Z"/><path class="cls-2" d="M3.72,50.09a25.93,25.93,0,0,1,3.66.11c1.21.11,2.41.23,3.62.45a14.16,14.16,0,0,1-3.67.11A18,18,0,0,1,3.72,50.09Z"/><path class="cls-5" d="M67.43,52.79c-1.29-1.65-3.29-2.7-4.47-4.47q-2.82-4.05-5.29-8.11a146.81,146.81,0,0,0-10-15.16c-1.65-2-5.41-8-8.58-6.93-1.76.71-1.76,2.47-1.76,4,0,1.06,1.29,3.88,1.06,4.47a.43.43,0,0,1,.12.35c-5.05-.7-4.35,5.76-.94,7.4-6.46.94-2.82,5.88,1.53,7.29-1.76.23-4.46-.35-3.88,2.47.47,2.47,3.29,3.06,5.41,2.94-1.65,0-3.17,1.29-2.59,3.06.71,2.23,3.64,2,5.41,2.35-2.23,4.94,6,5.05,9,5.05,4.35,0,11.28-.78,15-4.58"/><path class="cls-2" d="M43.19,22.79a5.52,5.52,0,0,0-1.08-1.2,1.77,1.77,0,0,0-1.45-.48,1.36,1.36,0,0,0-.83,1.21,6.42,6.42,0,0,0,0,1.6A8.76,8.76,0,0,0,40.65,27a6.54,6.54,0,0,0,2.09,2.36.17.17,0,0,1-.18.3h0a5,5,0,0,0-2.85-.47,2.61,2.61,0,0,0-1.29.51,1.57,1.57,0,0,0-.58,1.17,1.94,1.94,0,0,0,.35,1.29,3.84,3.84,0,0,0,1.06,1,17.7,17.7,0,0,1,2.59,1.68.25.25,0,0,1-.17.43h0a4.73,4.73,0,0,0-2.75.8,2.06,2.06,0,0,0-.77,1.1,2.31,2.31,0,0,0,.08,1.35,3.66,3.66,0,0,0,2,1.91,15,15,0,0,0,2.88.9.28.28,0,0,1,0,.54,8.06,8.06,0,0,0-2.36.78,2.23,2.23,0,0,0-.84.77,1.36,1.36,0,0,0-.1,1.05v0a1.62,1.62,0,0,0,.76.85,4,4,0,0,0,1.19.39c.43.08.87.13,1.32.21a4.4,4.4,0,0,1,1.37.39.24.24,0,0,1,0,.44h0a6.29,6.29,0,0,0-2,1.2,1,1,0,0,0-.3.91,1.6,1.6,0,0,0,.22.48,2.35,2.35,0,0,0,.36.4,2.53,2.53,0,0,0,1.06.37,8.23,8.23,0,0,0,1.2.08c.81,0,1.62-.06,2.46-.07a.18.18,0,0,1,.18.17.18.18,0,0,1-.08.15,3.11,3.11,0,0,0-1.63,2.56,2,2,0,0,0,.68,1.36,3.89,3.89,0,0,0,1.4.78,10.26,10.26,0,0,0,3.28.33c1.11,0,2.22-.14,3.32-.28a31.31,31.31,0,0,1-3.32.4,10.41,10.41,0,0,1-3.34-.25,4.12,4.12,0,0,1-1.51-.79,2.21,2.21,0,0,1-.8-1.53,2.78,2.78,0,0,1,.49-1.67,4.31,4.31,0,0,1,1.24-1.2l.1.33c-.8,0-1.63.11-2.46.11a8.61,8.61,0,0,1-1.26-.07A2.92,2.92,0,0,1,42.42,50a2.7,2.7,0,0,1-.47-.5,2,2,0,0,1-.3-.63,1.43,1.43,0,0,1,.4-1.34,6.65,6.65,0,0,1,2.17-1.33l0,.44A4,4,0,0,0,43,46.33c-.43-.07-.88-.12-1.33-.2a4.47,4.47,0,0,1-1.35-.44,2.14,2.14,0,0,1-1-1.11v0a1.89,1.89,0,0,1,.14-1.45,2.74,2.74,0,0,1,1-1A8.56,8.56,0,0,1,43,41.28v.54a14.27,14.27,0,0,1-3-.94,4.18,4.18,0,0,1-2.3-2.23A2.84,2.84,0,0,1,37.62,37a2.58,2.58,0,0,1,1-1.37,5.22,5.22,0,0,1,3.06-.89l-.18.43A18.1,18.1,0,0,0,39,33.51a4.3,4.3,0,0,1-1.18-1.08,2.38,2.38,0,0,1-.41-1.6,2,2,0,0,1,.76-1.46,3,3,0,0,1,1.51-.57,5.4,5.4,0,0,1,3.07.56l-.18.29a6.86,6.86,0,0,1-2.14-2.51,8.78,8.78,0,0,1-.75-3.2,6.59,6.59,0,0,1,0-1.65,2.3,2.3,0,0,1,.29-.78,1.07,1.07,0,0,1,.67-.51,1.82,1.82,0,0,1,1.52.54A5.55,5.55,0,0,1,43.19,22.79Z"/></svg>