<svg id="圖層_1" data-name="圖層 1" xmlns="http://www.w3.org/2000/svg" viewBox="0 0 100 100"><defs><style>.cls-1{fill:#b2c53a;}.cls-2{fill:#804c22;}.cls-3{fill:#d35d3c;}.cls-4{fill:#fff;opacity:0.7;}</style></defs><title>cusImg03</title><g id="_群組_" data-name="&lt;群組&gt;"><path id="_路徑_" data-name="&lt;路徑&gt;" class="cls-1" d="M87.79,2.75A28.64,28.64,0,0,0,50.27,19a28,28,0,0,0,22.16-.24A27.92,27.92,0,0,0,87.79,2.75Z"/><path id="_路徑_2" data-name="&lt;路徑&gt;" class="cls-2" d="M50.16,34.12A145.11,145.11,0,0,1,52,4.41l-5.48-.75a150.14,150.14,0,0,0,0,31.29"/><path id="_路徑_3" data-name="&lt;路徑&gt;" class="cls-3" d="M53.32,94.19c2.41-.21,6.5.81,8.11,1.22,20.72,5.46,37.05-17.6,32.9-43.13C90.46,28.47,68.18,14,47.59,29.26c-22.91-11.41-42.35,6.67-42,30.79C5.91,85.91,26,105.79,45.45,96.81c1.52-.69,5.36-2.4,7.77-2.61Z"/><path id="_路徑_4" data-name="&lt;路徑&gt;" class="cls-4" d="M29.94,47.18a4.9,4.9,0,1,1-5.31-4.45A4.91,4.91,0,0,1,29.94,47.18Z"/></g></svg>