<?xml version="1.0" encoding="utf-8"?>
<!-- Generator: Adobe Illustrator 21.1.0, SVG Export Plug-In . SVG Version: 6.00 Build 0)  -->
<svg version="1.1" id="圖層_1" xmlns="http://www.w3.org/2000/svg" xmlns:xlink="http://www.w3.org/1999/xlink" x="0px" y="0px"
	 viewBox="0 0 50 50" style="enable-background:new 0 0 50 50;" xml:space="preserve">
<style type="text/css">
	.st0{fill:#EC6C56;}
	.st1{fill:#DB4343;}
</style>
<g>
	<g>
		<g>
			<path class="st0" d="M25.7,22c0,0-6.2,11.6-6.7,23.2c0,0-3.3-4.9-2.8-8.9c0,0-4.4,3.9-5.6,6.3c0,0-0.1-14.2,13.5-23L25.7,22z"/>
			<path class="st1" d="M15.8,27.6c2.1-1,5.7-2.9,7.5-4c0,0,0.6,0.3,1.6,0.2c0.5-1.2,0.9-1.8,0.9-1.8l-1.6-2.4
				C20.4,22,17.7,24.8,15.8,27.6z"/>
		</g>
		<g>
			<path class="st0" d="M25.7,22c0,0,6.2,11.5,6.8,23.2c0,0,3.3-4.9,2.8-8.9c0,0,4.5,3.8,5.6,6.2c0,0,0.1-14.2-13.6-23L25.7,22z"/>
			<path class="st1" d="M35.7,27.6c-2.1-1-5.7-2.9-7.5-4c0,0-0.6,0.3-1.6,0.2c-0.6-1.2-0.9-1.8-0.9-1.8l1.6-2.4
				C31,22,33.7,24.8,35.7,27.6z"/>
		</g>
		<path class="st0" d="M23.8,16.6c0,0-9.2-8.5-14.2-8.7c-5-0.2-6.1,6-4,10.8c2.1,4.8-0.4,6.4,1.7,8.9s14-2.4,16.5-5.5L23.8,16.6z"/>
		<path class="st1" d="M23.8,17.6L16,14.1c0,0,5,3.5,5.6,3.9l-7.4,0.5l7.8,0.7l-3,1.2l3.2,0l-6.3,3.3c0,0,6.3-1.9,8-2.7L23.8,17.6z"
			/>
		<path class="st0" d="M27.7,16.6c0,0,9.2-8.6,14.2-8.8c5-0.2,6.1,5.9,4,10.7c-2.1,4.8,0.4,6.4-1.7,8.9c-2.1,2.4-14-2.3-16.5-5.4
			L27.7,16.6z"/>
		<path class="st1" d="M27.7,17.6l7.8-3.5c0,0-5,3.5-5.6,3.9l7.4,0.5l-7.8,0.7l3,1.1l-3.2,0l6.3,3.3c0,0-6.3-1.9-8-2.7L27.7,17.6z"
			/>
		<path class="st0" d="M26,23.1l-0.4,0c-1.8,0-3.3-1.5-3.3-3.3l0-0.4c0-1.8,1.5-3.3,3.3-3.3l0.4,0c1.8,0,3.3,1.5,3.3,3.3l0,0.4
			C29.3,21.6,27.8,23.1,26,23.1z"/>
	</g>
</g>
</svg>
