<?xml version="1.0" encoding="utf-8"?>
<!-- Generator: Adobe Illustrator 21.1.0, SVG Export Plug-In . SVG Version: 6.00 Build 0)  -->
<svg version="1.1" id="圖層_1" xmlns="http://www.w3.org/2000/svg" xmlns:xlink="http://www.w3.org/1999/xlink" x="0px" y="0px"
	 viewBox="0 0 50 50" style="enable-background:new 0 0 50 50;" xml:space="preserve">
<style type="text/css">
	.st0{fill:#9B9B9B;}
	.st1{fill:#DA4055;}
	.st2{fill:#D4324E;}
	.st3{fill:#DC5874;}
</style>
<g>
	<g>
		<path class="st0" d="M23.5,47.1c0.1-0.1,0.3-0.2,0.4-0.2c0.3-3,0.1-6.2-0.8-9.7C20.2,26.3,22.3,23,22.3,23L22,22.8
			c-0.1,0.1-2.2,3.4,0.8,14.5C23.6,40.8,23.8,44.1,23.5,47.1z"/>
	</g>
	<g>
		<g>
			<g>
				<g>
					<path class="st1" d="M21.9,21.7c0,0,0.5,0.4,0,0.7c-0.5,0.3-1.9,0.2-1.4,0.8c0.5,0.6,2.5,1.3,3.3,0.8c0.2-0.2-0.3-0.6-0.8-1
						c-0.4-0.4,0-0.8,0.4-0.9C23.4,22.1,21.9,21.7,21.9,21.7z"/>
				</g>
				<g>
					<path class="st2" d="M22.9,23c-0.4-0.4,0-0.8,0.4-0.9c0.1,0-1.5-0.5-1.5-0.5s0.3,0.3,0.2,0.5c0,0.6,1.5,1.1,0.5,1.6
						c-0.4,0.2-0.7,0.1-1.1,0c0.8,0.3,1.7,0.5,2.2,0.2C23.9,23.8,23.4,23.4,22.9,23z"/>
				</g>
			</g>
			<g>
				<g>
					<path class="st1" d="M33.9,12.8c-2,6.2-8.2,10.3-11.4,9.3c-3.1-1-5.9-8-4-14.1c1.3-4.2,5.9-6.6,10.1-5.3
						C32.9,4,35.3,8.6,33.9,12.8z"/>
				</g>
				<g>
					<path class="st2" d="M28.7,2.7c-1.1-0.3-2.2-0.4-3.3-0.3c0.7,0,1.3,0.2,2,0.4c4.2,1.3,5.8,5.9,4.4,10.2
						c-1.6,5.1-5.6,8.8-8.7,9.3c3.3,0.4,9-3.5,10.8-9.4C35.3,8.6,32.9,4,28.7,2.7z"/>
				</g>
				<g>
					<path class="st3" d="M21.2,6c2.2-2.6,4.7-2.7,6.4-2c1.7,0.7,0.4,1.3-1,1.2c-1.4-0.1-3.6,1.1-4.8,3.9C20.6,12.3,19,8.6,21.2,6z"
						/>
				</g>
			</g>
		</g>
		<g>
			<path class="st0" d="M22.8,22.7c-0.1,0-0.1,0-0.2-0.1c-0.2-0.1-0.8-0.3-0.8-0.6c0-0.1,0.2-0.2,0.3-0.2h0l0,0c0,0,0.5,0.3,0.9,0.3
				c0.1,0,0.2,0.1,0.1,0.2C23.1,22.6,23,22.8,22.8,22.7z M22,22.1c0.1,0.1,0.3,0.2,0.6,0.3c0.1,0,0.1,0,0.2,0c0.1,0,0.1,0,0.1,0
				c0,0,0,0,0,0C22.5,22.4,22.1,22.2,22,22.1C22,22.1,22,22.1,22,22.1z"/>
		</g>
	</g>
</g>
</svg>
