<svg id="圖層_1" data-name="圖層 1" xmlns="http://www.w3.org/2000/svg" viewBox="0 0 100 100"><defs><style>.cls-1{fill:#94c85b;}.cls-2{fill:#84af4b;}.cls-3{fill:#695020;}</style></defs><title>未命名-2</title><path class="cls-1" d="M44.84,58.74s-17.6-5.93-21.72-18.65.27-30.81,16.48-37,36.8,4.52,37.9,22S67.58,54.49,53.18,58.74Z"/><path class="cls-2" d="M77.5,25.11C77,17.05,72.37,10.43,65.95,6.23h0c8.19,12.91,1.33,37.07-15.43,41.36C34,51.81,25.08,44.06,24.81,43.82c5.9,10.15,20,14.92,20,14.92h8.33C67.58,54.49,78.59,42.63,77.5,25.11Z"/><path class="cls-3" d="M46.26,99s1.25-43.93.89-45.45-4.83-8.44-4.83-8.44,5.73,6.28,6.26,3.68S50.2,26.5,50.2,26.5s.36,19.91,1.79,19.7,7.34-8,7.34-8-6.8,10.39-6.8,14.29S53.06,99,53.06,99Z"/></svg>