<svg id="圖層_1" data-name="圖層 1" xmlns="http://www.w3.org/2000/svg" viewBox="0 0 100 100"><defs><style>.cls-1{fill:#7eccc6;}.cls-2{fill:#202a48;}.cls-3{fill:#dea076;}.cls-4{opacity:0.3;}.cls-5{fill:#7c7c7c;}.cls-6{fill:#fcfcfc;}.cls-7{fill:#8d5448;}.cls-8{opacity:0.15;}.cls-9{fill:#dc9f70;}.cls-10{fill:#ffab74;}.cls-11{fill:#303030;}.cls-12{fill:#fff;}</style></defs><title>cusImg04</title><path class="cls-1" d="M79.07,30.33c-.3,7.67-4.28,15.83-9.49,23A80.39,80.39,0,0,1,55.7,68h-10C25.62,50.08,12.23,27.72,31,9.29A26.5,26.5,0,0,1,41.07,3c.42-.14.85-.28,1.28-.4l.35-.1.2-.05.51-.13.44-.1h.05l.62-.13a27.13,27.13,0,0,1,3.68-.47,28.71,28.71,0,0,1,4.8.12,29.25,29.25,0,0,1,3.7.64h0a30.75,30.75,0,0,1,4.08,1.27h0A30.31,30.31,0,0,1,70.71,10a27.57,27.57,0,0,1,4.77,6A26.32,26.32,0,0,1,79.07,30.33Z"/><path class="cls-2" d="M44.45,80.37s.55-3.61,1-5.9,1.41-5.83,1.41-5.83.42,0,.41.08-.55,3.6-1,5.9-1.41,5.83-1.41,5.83S44.45,80.5,44.45,80.37Z"/><path class="cls-2" d="M55.71,80.31s-.85-3.49-1.28-5.77-.89-5.82-.89-5.82.38-.2.41-.09.85,3.49,1.28,5.77.89,5.82.89,5.82S55.76,80.43,55.71,80.31Z"/><polygon class="cls-3" points="60.03 83.95 59.97 84.45 58.27 97.71 58.11 99 42.98 99 41.12 84.45 41.05 83.95 60.03 83.95"/><g class="cls-4"><path class="cls-5" d="M58.27,97.71,58.11,99H43L41.05,83.95h9.68c-2.62,2-5.08,5-5,8.34C45.85,97,49.6,98,53.64,98A27,27,0,0,0,58.27,97.71Z"/></g><path class="cls-6" d="M58.32,45.46a73.77,73.77,0,0,1-7,22H49.63A98.51,98.51,0,0,1,44.07,53.1,78.27,78.27,0,0,1,42.3,22.56,74.61,74.61,0,0,1,48.19,1.65a28.71,28.71,0,0,1,4.8.12,94,94,0,0,1,5,13.15C60.59,24.79,59.74,35.33,58.32,45.46Z"/><path class="cls-6" d="M47.93,67.64l-.78.26c-4.56-4.56-8.66-9.49-12.89-14.19C26.81,45.44,15.54,19,41.07,3a26.23,26.23,0,0,1,3.44-.92C37.83,7.33,33.88,15.35,32.7,23.36,31.14,34.17,34,45.24,39.34,54.75,41.81,59.18,44.42,64,47.93,67.64Z"/><path class="cls-6" d="M66.57,53.71c-4.24,4.7-8.34,9.64-12.9,14.19l-.78-.26C56.41,64,59,59.18,61.5,54.75c5.34-9.51,8.2-20.58,6.64-31.39-1.16-7.87-5-15.74-11.45-21a30.75,30.75,0,0,1,4.08,1.27h0C85,19.71,73.92,45.55,66.57,53.71Z"/><path class="cls-2" d="M45.09,89.52s-.15-1.85-.15-3,.15-3,.15-3,.31-.06.32,0,.15,1.85.15,3-.15,3-.15,3S45.11,89.59,45.09,89.52Z"/><path class="cls-7" d="M46.82,93.8A2.28,2.28,0,0,1,46.39,95a1.91,1.91,0,0,1-2.7.49c-1.22-1-.82-2.53-.08-4a17.72,17.72,0,0,1,1.65-2.46c.27.89.81,1.71,1.12,2.65A5,5,0,0,1,46.82,93.8Z"/><path class="cls-2" d="M54.58,83.84a3.41,3.41,0,0,1-.2.61,6.22,6.22,0,0,1-.82,1.35,5.19,5.19,0,0,1-3.67,1.63,5.25,5.25,0,0,1-2-.29A4.52,4.52,0,0,1,46.13,86a4,4,0,0,1-.85-1.35c-.07-.19-.1-.34-.13-.45l0-.16c0-.13.26-.19.31-.08l.05.15c0,.09.07.24.15.4a3.73,3.73,0,0,0,.84,1.16,4.19,4.19,0,0,0,1.6.9,5.2,5.2,0,0,0,1.82.22,5.74,5.74,0,0,0,1.8-.35,5.17,5.17,0,0,0,.86-.42l.2-.12.17-.13a3.85,3.85,0,0,0,.31-.3,6.11,6.11,0,0,0,.84-1.2,3.13,3.13,0,0,0,.22-.54C54.34,83.66,54.6,83.7,54.58,83.84Z"/><path class="cls-2" d="M60,83.47v.12a3.26,3.26,0,0,1,0,.33A3.8,3.8,0,0,1,59.8,85a2.82,2.82,0,0,1-.87,1.23,2.79,2.79,0,0,1-1.38.6,3.11,3.11,0,0,1-1.49-.16,3.18,3.18,0,0,1-.69-.36,2.77,2.77,0,0,1-.54-.51,2.32,2.32,0,0,1-.47-1.07,2.21,2.21,0,0,1,0-.34v-.12c0-.1.3-.09.32,0v.11a2,2,0,0,0,.53,1.13,2.41,2.41,0,0,0,.47.38,2.78,2.78,0,0,0,1.81.35,2.47,2.47,0,0,0,1.13-.44,2.44,2.44,0,0,0,.79-1,3.54,3.54,0,0,0,.29-1,2.86,2.86,0,0,0,0-.3v-.11C59.74,83.38,60,83.38,60,83.47Z"/><path class="cls-2" d="M41.21,84a1.77,1.77,0,0,0,.05.28,1.42,1.42,0,0,0,.31.6,1.51,1.51,0,0,0,.72.44,2.44,2.44,0,0,0,.86.07,2.26,2.26,0,0,0,1.55-.74A1.61,1.61,0,0,0,45,84a1.73,1.73,0,0,0,.05-.28c0-.06.31-.06.32,0v.09a1.4,1.4,0,0,1,0,.25,1.92,1.92,0,0,1-.29.81,2.24,2.24,0,0,1-.82.76,2.7,2.7,0,0,1-1.05.32,2.55,2.55,0,0,1-1.1-.14,1.92,1.92,0,0,1-.91-.69,1.76,1.76,0,0,1-.3-.82,2,2,0,0,1,0-.34C40.93,83.93,41.19,83.94,41.21,84Z"/><g class="cls-8"><path class="cls-5" d="M69.57,53.32A80.39,80.39,0,0,1,55.7,68h-10C25.62,50.08,12.23,27.72,31,9.29A26.5,26.5,0,0,1,41.07,3a25.86,25.86,0,0,1,2.82-.79c-7,4.41-11.32,16.68-11.46,23.08C31.91,39.76,44.4,51.9,58.13,54A28,28,0,0,0,69.57,53.32Z"/></g><rect class="cls-9" x="45.67" y="67.46" width="10.03" height="2.27"/><path class="cls-2" d="M54.27,93.06s-.14-2.92-.15-4.79.15-4.79.15-4.79.31-.1.32,0,.15,2.92.15,4.79-.15,4.79-.15,4.79S54.29,93.16,54.27,93.06Z"/><rect class="cls-10" x="39.55" y="80.21" width="21.99" height="3.74"/><path class="cls-7" d="M55.88,97.34a2.18,2.18,0,0,1-.36.8,1.9,1.9,0,0,1-2.69.49c-1.2-.94-.84-2.47-.12-3.87a17,17,0,0,1,1.69-2.55c.27.89.81,1.71,1.12,2.65A4.31,4.31,0,0,1,55.88,97.34Z"/><g class="cls-4"><path class="cls-11" d="M46.82,93.8A2.28,2.28,0,0,1,46.39,95a1.91,1.91,0,0,1-2.7.49c-1.22-1-.82-2.53-.08-4C43.61,93.21,45.17,94.1,46.82,93.8Z"/></g><g class="cls-4"><path class="cls-11" d="M55.88,97.34a2.18,2.18,0,0,1-.36.8,1.9,1.9,0,0,1-2.69.49c-1.2-.94-.84-2.47-.12-3.87-.09,1.56,1.15,2.62,3.14,2.58Z"/></g><path class="cls-12" d="M54.89,94.77c-.31.11-.15,1.63.24,1.67.62,0,.1-2.25-.35-1.65"/><path class="cls-12" d="M45.61,91.68c-.31.11-.15,1.63.24,1.67.62,0,.1-2.25-.35-1.65"/><path class="cls-12" d="M60.49,83.95a9.93,9.93,0,0,0-.62-1.43,7,7,0,0,0-2-2.31h3.7v3.74h-1Z"/></svg>