<?xml version="1.0" encoding="utf-8"?>
<!-- Generator: Adobe Illustrator 21.1.0, SVG Export Plug-In . SVG Version: 6.00 Build 0)  -->
<svg version="1.1" id="圖層_1" xmlns="http://www.w3.org/2000/svg" xmlns:xlink="http://www.w3.org/1999/xlink" x="0px" y="0px"
	 viewBox="0 0 50 50" style="enable-background:new 0 0 50 50;" xml:space="preserve">
<style type="text/css">
	.st0{fill:#D35D3D;}
</style>
<title>delete</title>
<path class="st0" d="M43.3,5.7H32.9l-0.8-1.6C31.8,3.4,31,3,30.2,2.9h-9.9c-0.8,0-1.5,0.4-1.9,1.2l-0.8,1.6H7.3
	c-0.8,0-1.4,0.6-1.4,1.4v2.8c0,0.8,0.6,1.4,1.4,1.4h36c0.8,0,1.4-0.6,1.4-1.4c0,0,0,0,0,0V7.1C44.7,6.3,44.1,5.7,43.3,5.7z
	 M10.5,43.4c0.1,2.2,2,3.9,4.1,3.9h21.3c2.2,0,4-1.7,4.2-3.9L41.9,14H8.7L10.5,43.4z"/>
</svg>
