<?xml version="1.0" encoding="utf-8"?>
<!-- Generator: Adobe Illustrator 21.1.0, SVG Export Plug-In . SVG Version: 6.00 Build 0)  -->
<svg version="1.1" id="圖層_1" xmlns="http://www.w3.org/2000/svg" xmlns:xlink="http://www.w3.org/1999/xlink" x="0px" y="0px"
	 viewBox="0 0 50 50" style="enable-background:new 0 0 50 50;" xml:space="preserve">
<style type="text/css">
	.st0{fill:#D35D3D;}
</style>
<title>small</title>
<path class="st0" d="M29.3,19.2v2.8c0,0.6-0.5,1-1,1H13.5c-0.6,0-1-0.5-1.1-1v-2.8c0-0.6,0.5-1,1.1-1h14.8
	C28.8,18.2,29.3,18.7,29.3,19.2z M47,44.3l-2.5,2.5c-0.8,0.8-2.1,0.8-3,0c0,0,0,0,0,0L32.8,38c-0.4-0.4-0.6-0.9-0.6-1.5v-1.4
	c-8,6.2-19.4,4.8-25.6-3.2S1.7,12.5,9.6,6.3s19.4-4.8,25.6,3.2c5.2,6.6,5.2,15.9,0,22.5h1.4c0.6,0,1.1,0.2,1.5,0.6l8.8,8.8
	C47.8,42.1,47.8,43.4,47,44.3z M32.8,20.7c0-6.6-5.4-12-12-12s-12,5.4-12,12s5.4,12,12,12c6.6,0,12-5.3,12-11.9
	C32.8,20.7,32.8,20.7,32.8,20.7z"/>
</svg>
