<?xml version="1.0" encoding="utf-8"?>
<!-- Generator: Adobe Illustrator 21.1.0, SVG Export Plug-In . SVG Version: 6.00 Build 0)  -->
<svg version="1.1" id="圖層_1" xmlns="http://www.w3.org/2000/svg" xmlns:xlink="http://www.w3.org/1999/xlink" x="0px" y="0px"
	 viewBox="0 0 50 50" style="enable-background:new 0 0 50 50;" xml:space="preserve">
<style type="text/css">
	.st0{fill:#D35D3D;}
</style>
<path class="st0" d="M39.7,8.5c1.2-1.2,2.4-2.5,3.6-3.7C44.1,4,45.3,4.1,46,5c0.2,0.3,0.4,0.7,0.4,1.1c0,4.2,0,8.3,0,12.5
	c0,1.1-0.8,1.9-1.9,1.9c-4.2,0-8.3,0-12.5,0c-0.8,0-1.4-0.4-1.7-1.1c-0.3-0.8-0.1-1.4,0.4-2c1.3-1.3,2.5-2.5,3.8-3.8
	c-0.3-0.2-0.5-0.4-0.7-0.6c-4.4-3.3-9.2-4.2-14.3-2.2c-5.1,2-8.2,5.9-9.1,11.4c-1.2,7.9,4.3,15.3,12.3,16.3
	c5.3,0.7,9.7-1.1,13.2-5.2c0.6-0.7,1.1-0.8,1.8-0.1c1.2,1.2,2.3,2.4,3.5,3.5c0.5,0.5,0.5,0.9,0.1,1.5c-3.5,4.1-7.9,6.6-13.1,7.4
	c-7.1,1.1-13.3-0.9-18.5-5.9C6,36.1,3.9,31.8,3.2,26.9C2,17.6,6.9,8.9,15,4.8c7.8-3.9,17.5-2.7,24,3.2C39.2,8.1,39.4,8.3,39.7,8.5z"
	/>
</svg>
