<?xml version="1.0" encoding="utf-8"?>
<!-- Generator: Adobe Illustrator 21.1.0, SVG Export Plug-In . SVG Version: 6.00 Build 0)  -->
<svg version="1.1" id="圖層_1" xmlns="http://www.w3.org/2000/svg" xmlns:xlink="http://www.w3.org/1999/xlink" x="0px" y="0px"
	 viewBox="0 0 50 50" style="enable-background:new 0 0 50 50;" xml:space="preserve">
<style type="text/css">
	.st0{fill:#D35D3D;}
</style>
<title>turnLeft</title>
<path class="st0" d="M15.2,13.8c1.3,1.3,2.6,2.5,3.8,3.8c0.7,0.7,0.8,1.3,0.5,2.1c-0.4,0.8-1,1.2-1.9,1.2c-4.1,0-8.3,0-12.4,0
	c-1.2,0-2-0.8-2-2c0-4.1,0-8.3,0-12.4c0-0.9,0.4-1.6,1.1-1.9C5.2,4.2,5.8,4.4,6.4,5c1.1,1.1,2.2,2.1,3.2,3.2C9.8,8.3,9.9,8.4,10,8.5
	c0.4-0.3,0.8-0.7,1.2-1c4.4-3.5,9.4-5.3,15-5C36,3,44.4,10.1,46.6,19.7c2.7,11.9-5.2,24-17.2,26.2c-8.2,1.5-15.2-0.9-20.8-7.1
	c-0.7-0.8-0.7-1.1,0.1-1.9c1.1-1.1,2.3-2.3,3.4-3.4c0.6-0.6,1.1-0.6,1.7,0.1c4,4.7,9.1,6.5,15,5c6-1.6,9.6-5.6,10.7-11.7
	c1.5-8-4.2-15.8-12.2-16.9c-4.3-0.6-8.1,0.5-11.5,3.2c-0.1,0.1-0.3,0.2-0.4,0.4C15.3,13.6,15.3,13.7,15.2,13.8z"/>
</svg>
