<?xml version="1.0" encoding="utf-8"?>
<!-- Generator: Adobe Illustrator 21.1.0, SVG Export Plug-In . SVG Version: 6.00 Build 0)  -->
<svg version="1.1" id="圖層_1" xmlns="http://www.w3.org/2000/svg" xmlns:xlink="http://www.w3.org/1999/xlink" x="0px" y="0px"
	 viewBox="0 0 184 179" style="enable-background:new 0 0 184 179;" xml:space="preserve">
<style type="text/css">
	.st0{opacity:0.2;}
	.st1{fill:#7C7C7D;}
	.st2{fill:#FFFFFF;}
	.st3{fill:#5A1C18;}
	.st4{fill:#EE7750;}
	.st5{fill:#7BC5BF;}
	.st6{fill:#1F2947;}
	.st7{fill:#D89D75;}
	.st8{opacity:0.3;}
	.st9{fill:#FDFEFE;}
	.st10{fill:#8A5347;}
	.st11{opacity:0.15;}
	.st12{fill:#D69C6F;}
	.st13{fill:#F4A774;}
	.st14{fill:#303030;}
</style>
<g>
	<g class="st0">
		<path class="st1" d="M180,121.3c-3.7,3.1-6.5,2.2-9.8,1c-0.3-1.9-0.2-3.8,0.4-5.4C173.1,119.2,175.5,121.3,180,121.3z"/>
	</g>
	<path class="st2" d="M167,113.4c-0.5,2.4-0.9,4.9-1.2,7.4c-0.3-0.1-0.7-0.1-1-0.2c-1.2-0.1-2.5-0.2-3.7-0.1c0.6-3.2-0.1-7-0.8-10.1
		c1.4,0.2,2.8,0.6,4.3,1.4C165.5,112.3,166.3,112.8,167,113.4z"/>
	<g>
		<g>
			<path class="st3" d="M103,100.5c0,0-0.4,0-0.9,0c-0.6,0-1.4-0.1-2.4-0.2c-1.9-0.3-4.1-1.2-5.7-2.1c-1.6-0.9-3.5-2.2-5-3.3
				c-1.5-1.1-2.6-1.9-2.6-1.9c-0.2-0.1,0.1-0.5,0.3-0.5c0,0,1.2,0.7,2.8,1.7c1.6,1,3.5,2.2,5,3c1.5,0.8,3.6,1.8,5.3,2.2
				c0.9,0.2,1.7,0.3,2.2,0.4c0.6,0,0.9,0.1,0.9,0.1C103.2,100,103.2,100.5,103,100.5z"/>
		</g>
		<g>
			<path class="st3" d="M96.6,110.8c0,0-0.4,0-1-0.1c-0.7-0.1-1.6-0.2-2.6-0.3c-2.1-0.4-4.6-1.1-6.4-2c-1.9-0.9-4-2.5-5.4-4.1
				c-0.3-0.4-0.6-0.8-0.8-1.2c-0.2-0.4-0.4-0.7-0.6-1c-0.2-0.6-0.4-1-0.4-1c-0.1-0.2,0.4-0.4,0.5-0.2c0,0,0.2,0.3,0.4,0.9
				c0.2,0.3,0.4,0.6,0.6,0.9c0.2,0.4,0.6,0.7,0.9,1.1c1.3,1.5,3.4,2.9,5.2,3.7c1.8,0.9,4.1,1.7,6.1,2.2c1,0.2,1.9,0.4,2.5,0.5
				c0.6,0.1,1,0.1,1,0.1C96.8,110.3,96.8,110.8,96.6,110.8z"/>
		</g>
		<path class="st4" d="M180,121.3c-3.7,3.1-6.5,2.2-9.8,1c-1.4-0.5-2.8-1.1-4.4-1.4c-0.3-0.1-0.7-0.1-1-0.2
			c-1.2-0.1-2.5-0.2-3.7-0.1c-3.1,0.1-6.2,0.6-9.2,0.8c-1.7,0.1-3.4,0.2-5.2,0c-6.3-0.8-9.8-4.5-14.6-7.4c-1.1-0.7-2.2-1.2-3.5-1.8
			c-1.2-0.5-2.5-0.8-3.8-1.1c-3-0.6-6.1-0.5-9.3-0.3c-5.8,0.4-11.7,1.4-17,0.7c-0.2,0-0.4-0.1-0.5-0.1c-0.1,0-0.2,0-0.3-0.1
			c-0.2,0-0.5-0.1-0.7-0.2c-0.2,0-0.3-0.1-0.5-0.1c-0.3-0.1-0.7-0.2-1-0.3c-0.1,0-0.2-0.1-0.3-0.1c-0.3-0.1-0.6-0.2-0.8-0.3
			c-0.1,0-0.3-0.1-0.4-0.2c-0.2-0.1-0.3-0.1-0.5-0.2c0,0,0,0,0,0c4.5-1.3,9.1-5,9.1-9.6c0-0.1,0-0.2,0-0.2c1.5-0.3,3.3-0.7,5.1-1.1
			c4.6-1,10-1.9,15-2c4-0.1,7.7,0.4,10.7,1.9c0.5,0.2,0.9,0.5,1.3,0.7c1.4,0.9,2.3,1.9,3,3.1c1.9,2.9,2.6,6.2,7.1,7.7
			c1.9,0.6,3.8,0.7,5.7,0.5c3.3-0.3,6.5-1.1,9.9-0.6h0c1.4,0.2,2.8,0.6,4.3,1.4c0.9,0.5,1.7,1,2.4,1.6c1.3,1.1,2.5,2.3,3.6,3.4
			C173.1,119.2,175.5,121.3,180,121.3z"/>
		<g class="st0">
			<path class="st1" d="M151.9,121.4c-1.7,0.1-3.4,0.2-5.2,0c-6.3-0.8-9.8-4.5-14.6-7.4c1-4.1,2.8-8.2,5.5-11.2
				c1.9,2.9,2.6,6.2,7.1,7.7c1.9,0.6,3.8,0.7,5.7,0.5c-0.2,1.2-0.2,2.6,0,4.1C150.7,117.3,151.2,119.3,151.9,121.4z"/>
		</g>
		<g class="st0">
			<path class="st1" d="M107.6,99.1c-0.5,2.2-1.6,4.4-3.1,6.4c-2,2.8-3.9,4.8-6,6.1c-1.8-0.3-3.5-0.7-5.2-1.5c4.5-1.3,9.1-5,9.1-9.6
				c0-0.1,0-0.2,0-0.2C104,99.9,105.8,99.5,107.6,99.1z"/>
		</g>
		<path class="st5" d="M102.1,53.7c-0.5,13.3-7.4,27.4-16.4,39.7c-7.4,10.1-16.1,19.1-24,25.4H44.4C9.7,87.8-13.4,49.2,19,17.3
			c5.2-5.1,11.2-8.7,17.5-10.8c0.7-0.2,1.5-0.5,2.2-0.7c0.2-0.1,0.4-0.1,0.6-0.2c0.1,0,0.2-0.1,0.3-0.1c0.3-0.1,0.6-0.1,0.9-0.2
			c0.2-0.1,0.5-0.1,0.8-0.2c0,0,0.1,0,0.1,0C41.7,5,42,5,42.4,4.9c2.1-0.4,4.2-0.7,6.4-0.8C51.5,3.9,54.3,4,57,4.3
			c2.2,0.2,4.3,0.6,6.4,1.1h0c2.4,0.6,4.8,1.3,7.1,2.2c0,0,0,0,0,0c6.4,2.5,12.2,6.2,17.2,10.9c3.2,3.1,6,6.5,8.2,10.4
			C100.1,36,102.4,44.4,102.1,53.7z"/>
		<g>
			<path class="st6" d="M42.3,140.2c0,0,0.9-6.2,1.8-10.2c0.8-4,2.4-10.1,2.4-10.1c0.1-0.2,0.7-0.1,0.7,0.1c0,0-0.9,6.2-1.8,10.2
				c-0.8,4-2.4,10.1-2.4,10.1C42.9,140.5,42.3,140.4,42.3,140.2z"/>
		</g>
		<g>
			<path class="st6" d="M61.7,140.1c0,0-1.5-6-2.2-10C58.8,126.2,58,120,58,120c0-0.2,0.7-0.3,0.7-0.2c0,0,1.5,6,2.2,10
				c0.7,3.9,1.5,10.1,1.5,10.1C62.4,140.1,61.8,140.3,61.7,140.1z"/>
		</g>
		<polygon class="st7" points="69.2,146.4 69.1,147.2 66.2,170.1 65.9,172.4 39.7,172.4 36.5,147.2 36.4,146.4 		"/>
		<g class="st8">
			<path class="st1" d="M66.2,170.1l-0.3,2.2H39.7l-3.3-26h16.7c-4.5,3.4-8.8,8.7-8.7,14.4c0.2,8.1,6.7,9.9,13.7,10
				C60.9,170.8,63.5,170.6,66.2,170.1z"/>
		</g>
		<path class="st9" d="M66.2,79.8c-2,13.4-6.1,26.2-12.1,38h-3c-3.7-8-7.1-16.2-9.6-24.8c-4.5-17.1-5.5-35.3-3.1-52.8
			c1.9-12.7,4.8-24.8,10.2-36.1C51.5,3.9,54.3,4,57,4.3c3.3,7.3,6.4,14.8,8.6,22.7C70.2,44.1,68.7,62.3,66.2,79.8z"/>
		<path class="st9" d="M48.3,118.2l-1.4,0.4c-7.9-7.9-15-16.4-22.3-24.5C11.8,79.8-7.7,34.1,36.4,6.5c2-0.7,3.9-1.2,5.9-1.6
			c-11.5,9-18.4,22.9-20.4,36.7c-2.7,18.7,2.3,37.8,11.5,54.3C37.7,103.5,42.2,111.9,48.3,118.2z"/>
		<path class="st9" d="M80.5,94.1c-7.3,8.1-14.4,16.7-22.3,24.5l-1.4-0.4c6.1-6.3,10.6-14.6,14.9-22.3C81,79.4,85.9,60.3,83.2,41.6
			c-2-13.6-8.6-27.2-19.8-36.2c2.4,0.6,4.8,1.3,7.1,2.2c0,0,0,0,0,0C112.3,35.3,93.2,80,80.5,94.1z"/>
		<g>
			<path class="st6" d="M43.4,156c0,0-0.3-3.2-0.3-5.3c0-2.1,0.3-5.3,0.3-5.3c0-0.1,0.5-0.1,0.5,0c0,0,0.3,3.2,0.3,5.3
				c0,2.1-0.3,5.3-0.3,5.3C43.9,156.1,43.4,156.1,43.4,156z"/>
		</g>
		<path class="st10" d="M46.3,163.4c0,0.7-0.3,1.4-0.7,2.1c-1,1.5-3.2,2-4.7,0.9c-2.1-1.6-1.4-4.4-0.1-6.8c0.9-1.7,2.1-3.3,2.9-4.3
			c0.5,1.5,1.4,3,1.9,4.6C46.1,160.9,46.4,162.2,46.3,163.4z"/>
		<g>
			<path class="st6" d="M59.8,146.2c0,0-0.1,0.4-0.3,1.1c-0.3,0.6-0.7,1.5-1.4,2.3c-1.5,1.8-4.2,2.8-6.3,2.8
				c-1.1,0.1-2.3-0.1-3.5-0.5c-1.2-0.4-2.2-1.1-3-1.9c-0.8-0.8-1.2-1.7-1.5-2.3c-0.1-0.3-0.2-0.6-0.2-0.8c0-0.2-0.1-0.3-0.1-0.3
				c-0.1-0.2,0.5-0.3,0.5-0.1c0,0,0,0.1,0.1,0.3c0.1,0.2,0.1,0.4,0.3,0.7c0.3,0.6,0.7,1.4,1.5,2c0.7,0.7,1.7,1.2,2.8,1.6
				c1.1,0.3,2.2,0.4,3.1,0.4c1,0,2.1-0.2,3.1-0.6c0.5-0.2,1-0.4,1.5-0.7l0.3-0.2l0.3-0.2c0.2-0.2,0.4-0.3,0.5-0.5
				c0.7-0.7,1.2-1.5,1.5-2.1c0.3-0.6,0.4-0.9,0.4-0.9C59.4,145.9,59.8,145.9,59.8,146.2z"/>
		</g>
		<g>
			<path class="st6" d="M69.2,145.5c0,0,0,0.1,0,0.2c0,0.1,0,0.3,0,0.6c0,0.5-0.1,1.2-0.4,1.9c-0.3,0.7-0.8,1.6-1.5,2.1
				c-0.7,0.6-1.6,0.9-2.4,1c-0.8,0.1-1.7,0-2.6-0.3c-0.4-0.2-0.8-0.4-1.2-0.6c-0.4-0.3-0.7-0.6-0.9-0.9c-0.5-0.6-0.7-1.4-0.8-1.8
				c0-0.3-0.1-0.4-0.1-0.6c0-0.1,0-0.2,0-0.2c0-0.2,0.5-0.1,0.5,0c0,0,0,0.1,0,0.2c0,0.1,0,0.3,0.1,0.5c0.1,0.4,0.3,1,0.8,1.5
				c0.2,0.2,0.5,0.5,0.8,0.7c0.3,0.2,0.7,0.3,1,0.4c0.7,0.2,1.5,0.3,2.1,0.2c0.6-0.1,1.3-0.3,1.9-0.8c0.6-0.4,1.1-1,1.4-1.7
				c0.3-0.6,0.4-1.2,0.5-1.7c0-0.2,0-0.4,0.1-0.5c0-0.1,0-0.2,0-0.2C68.7,145.4,69.2,145.4,69.2,145.5z"/>
		</g>
		<g>
			<path class="st6" d="M36.7,146.4c0,0,0,0.2,0.1,0.5c0.1,0.3,0.2,0.7,0.5,1c0.3,0.3,0.8,0.6,1.2,0.8c0.5,0.1,1,0.2,1.5,0.1
				c0.9-0.1,2.1-0.5,2.7-1.3c0.3-0.4,0.5-0.8,0.5-1.1c0.1-0.3,0.1-0.5,0.1-0.5c0-0.1,0.5-0.1,0.5,0c0,0,0,0.1,0,0.2
				c0,0.1,0,0.2,0,0.4c0,0.4-0.2,0.9-0.5,1.4c-0.3,0.5-0.8,1-1.4,1.3c-0.6,0.3-1.2,0.5-1.8,0.6c-0.6,0.1-1.3,0-1.9-0.2
				c-0.6-0.2-1.2-0.7-1.6-1.2c-0.4-0.5-0.5-1-0.5-1.4c0-0.4,0-0.6,0-0.6C36.2,146.3,36.6,146.3,36.7,146.4z"/>
		</g>
		<g class="st11">
			<path class="st1" d="M85.7,93.4c-7.4,10.1-16.1,19.1-24,25.4H44.4C9.7,87.8-13.4,49.2,19,17.3c5.2-5.1,11.2-8.7,17.5-10.8
				c1.6-0.5,3.2-1,4.9-1.4C29.1,12.7,21.7,33.9,21.5,45C20.6,70,42.2,91,65.9,94.6C72.7,95.7,79.3,95,85.7,93.4z"/>
		</g>
		<rect x="44.4" y="117.8" class="st12" width="17.3" height="3.9"/>
		<g>
			<path class="st6" d="M59.2,162.1c0,0-0.3-5-0.3-8.3c0-3.2,0.3-8.3,0.3-8.3c0-0.2,0.5-0.2,0.5,0c0,0,0.3,5,0.3,8.3
				c0,3.2-0.3,8.3-0.3,8.3C59.7,162.3,59.3,162.3,59.2,162.1z"/>
		</g>
		<rect x="33.8" y="139.9" class="st13" width="38" height="6.5"/>
		<path class="st10" d="M62,169.5c-0.1,0.5-0.3,0.9-0.6,1.4c-1,1.5-3.2,2-4.7,0.9c-2.1-1.6-1.5-4.3-0.2-6.7c0.9-1.8,2.1-3.4,2.9-4.4
			c0.5,1.5,1.4,3,1.9,4.6C61.9,166.6,62.4,168.1,62,169.5z"/>
		<g class="st8">
			<path class="st14" d="M46.3,163.4c0,0.7-0.3,1.4-0.7,2.1c-1,1.5-3.2,2-4.7,0.9c-2.1-1.6-1.4-4.4-0.1-6.8
				C40.8,162.4,43.5,163.9,46.3,163.4z"/>
		</g>
		<g class="st8">
			<path class="st14" d="M62,169.5c-0.1,0.5-0.3,0.9-0.6,1.4c-1,1.5-3.2,2-4.7,0.9c-2.1-1.6-1.5-4.3-0.2-6.7
				C56.4,167.7,58.5,169.6,62,169.5C62,169.5,62,169.5,62,169.5z"/>
		</g>
		<path class="st2" d="M95.6,44.6c-2.3,4.8-6.7,8.2-11.7,9.9c-4.9,1.6-10.5,1.6-15.4-0.4c-3.9-1.6-7.4-4.4-9.8-8.7
			c-4.8-7.8-1.1-16.9,5.7-22.7c2.9-2.5,6.3-4.3,9.9-5.2c2.6-0.7,5.4-0.8,7.9-0.2l0,0L81,17c0.3,0,0.6,0,0.9,0c2.1,0,4,0.5,5.8,1.5
			c3.2,3.1,6,6.5,8.2,10.4c0.7,1.9,1.2,3.8,1.3,5.6C97.6,38.3,97,41.7,95.6,44.6z"/>
		<path class="st2" d="M133.3,98.9c-3.8,2.3-6.7,7.2-8.4,12.1c-3-0.6-6.1-0.5-9.3-0.3c3.3-3.7,6.3-9.4,7-13.7
			C126.6,97,130.3,97.5,133.3,98.9z"/>
		<path class="st2" d="M60.3,165.1c-0.5,0.2-0.3,2.8,0.4,2.9c1.1,0.1,0.2-3.9-0.6-2.8"/>
		<path class="st2" d="M44.3,159.7c-0.5,0.2-0.3,2.8,0.4,2.9c1.1,0.1,0.2-3.9-0.6-2.8"/>
		<path class="st2" d="M70,146.4c-0.3-0.9-0.7-1.7-1.1-2.5c-0.9-1.8-2.2-2.9-3.5-4h6.4v6.5h-1.4H70z"/>
	</g>
</g>
</svg>
