<?xml version="1.0" encoding="utf-8"?>
<!-- Generator: Adobe Illustrator 21.1.0, SVG Export Plug-In . SVG Version: 6.00 Build 0)  -->
<svg version="1.1" id="圖層_1" xmlns="http://www.w3.org/2000/svg" xmlns:xlink="http://www.w3.org/1999/xlink" x="0px" y="0px"
	 viewBox="0 0 184 179" style="enable-background:new 0 0 184 179;" xml:space="preserve">
<style type="text/css">
	.st0{fill:#1F2947;}
	.st1{fill:#F08B74;}
	.st2{fill:#C29365;}
	.st3{fill:#FDEDD9;}
	.st4{opacity:0.15;}
	.st5{fill:#7C7C7D;}
	.st6{opacity:0.25;}
	.st7{fill:#EEC489;}
	.st8{opacity:0.2;}
	.st9{opacity:0.4;}
	.st10{fill:#FFFFFF;}
	.st11{opacity:0.3;}
</style>
<g>
	<g>
		<path class="st0" d="M69.7,146.4c0,0-6.5-22.8-10.5-37.6c-4-14.8-9.7-37.8-9.7-37.8c-0.2-0.8,0.6-1,0.8-0.2
			c0,0,6.5,22.8,10.5,37.6c4,14.8,9.7,37.8,9.7,37.8C70.6,147,69.9,147.1,69.7,146.4z"/>
	</g>
	<g>
		<path class="st0" d="M73.5,146.5c0,0-3.5-16.6-5.5-27.4c-2-10.8-4.7-27.5-4.7-27.5c-0.1-0.6,0.7-0.7,0.8-0.2
			c0,0,3.5,16.6,5.5,27.4c2,10.8,4.7,27.5,4.7,27.5C74.4,147,73.7,147.1,73.5,146.5z"/>
	</g>
	<g>
		<path class="st0" d="M111.9,146.6c0,0,4.7-20.1,7.9-33c3.3-12.9,8.7-32.8,8.7-32.8c0.2-0.7,1-0.5,0.8,0.2c0,0-4.7,20.1-7.9,33
			c-3.3,12.9-8.7,32.8-8.7,32.8C112.5,147.5,111.8,147.3,111.9,146.6z"/>
	</g>
	<g>
		<path class="st0" d="M108,146.7c0,0,2.4-15.9,4.2-26c1.8-10.2,5-25.9,5-25.9c0.1-0.5,0.9-0.4,0.8,0.2c0,0-2.4,15.9-4.2,26
			c-1.8,10.2-5,25.9-5,25.9C108.7,147.4,108,147.2,108,146.7z"/>
	</g>
	<path class="st1" d="M139,62.3c-1.8,8.7-6,16.9-11.5,24.3c-1.5,2-3.1,4-4.8,5.9c-0.6,0.6-1.1,1.2-1.7,1.8c-0.2,0.2-0.5,0.5-0.7,0.7
		c-1,1-2,2-3.1,3c-2.3,2.1-4.7,4.2-7.2,6.3c-0.5,0.4-1,0.9-1.5,1.3c-0.1,0.1-0.2,0.1-0.2,0.2c-3.1,2.5-6.2,5.1-9.2,7.6
		c-1.8,1.5-3.5,3.1-5.2,4.7c-0.8,0.7-1.5,1.5-2.2,2.2c-0.3-0.3-0.6-0.6-0.9-0.9c-1.5-1.6-3.1-3.1-4.6-4.6c-3-2.8-6-5.5-9-8.3
		c-4.2-3.8-8.3-7.6-12.2-11.6c-0.2-0.2-0.4-0.4-0.6-0.6l-0.1-0.1c-5.1-5.4-9.5-11.3-12.8-17.7c-6.8-13.1-8.9-28-1.8-43.1
		c1.4-2.9,3.4-5.9,5.8-8.8l0,0c4.5-5.3,10.6-10.3,17.1-14c3.7-2.1,7.6-3.7,11.4-4.6c1.6-0.4,3.2-0.7,4.7-0.8c1.3-0.1,2.7-0.2,4-0.1
		c2.7-0.2,5.6,0.2,8.5,0.9c3.9,0.9,7.8,2.6,11.6,4.7h0c4.6,2.6,9,5.8,12.7,9.4c1.6,1.5,3,3,4.4,4.6l0,0c2.5,2.9,4.5,5.9,5.8,8.8
		C140.2,43.3,140.9,53,139,62.3z"/>
	<path class="st2" d="M118.6,147.2c-0.2,4.5-0.5,10.2-1.6,15.2c-1.2,5-3.2,9.2-7.2,10.7c-2.3,0.8-4.5,0.8-6.8,0.8H82.2
		c-2.2,0-4.5,0-6.8-0.8c-6-2.2-7.7-10.9-8.4-18.9c-0.2-2.3-0.3-4.6-0.4-6.7c0-0.1,0-0.2,0-0.3c0,0,0,0,0.1,0c0,0,0,0,0,0H118.6z"/>
	<g>
		<g>
			<path class="st3" d="M100.4,101.7c-0.5,4.2-0.9,8.2-1.4,11.8c-1.8,1.5-3.5,3.1-5.2,4.7c-0.8,0.7-1.5,1.5-2.2,2.2
				c-0.3-0.3-0.6-0.6-0.9-0.9c-1.5-1.6-3.1-3.1-4.6-4.6c-0.9-7-1.8-15.6-2.8-24.5c-2.3-21.7-4.5-45.8-3.9-57.1
				c0.5-7.5,1-15.1,2.8-22c0.5-1.8,1-3.5,1.7-5.2c1.6-0.4,3.2-0.7,4.7-0.8c1.3-0.1,2.7-0.2,4-0.1c2.7-0.2,5.6,0.2,8.5,0.9
				c3.2,8.3,3.8,17.8,4.5,27.3C106.2,46.6,103.1,77.7,100.4,101.7z"/>
		</g>
		<g>
			<path class="st3" d="M77.2,106.6c-4.2-3.8-8.3-7.6-12.2-11.6c-6.1-16.4-14.3-34.3-13.1-51.9c0.3-6.7,1.5-12.8,3.6-18.5l0,0
				c4.5-5.3,10.6-10.3,17.1-14c-5.7,9.5-7.7,20.9-7.7,32.8C64.5,65.5,73.2,85.6,77.2,106.6z"/>
		</g>
		<g>
			<path class="st3" d="M131.2,63.7c-2.2,8.8-5.4,19.6-8.6,28.7c-0.6,0.6-1.1,1.2-1.7,1.8c-0.2,0.2-0.5,0.5-0.7,0.7c-1,1-2,2-3.1,3
				c-2.3,2.1-4.7,4.2-7.2,6.3c-0.5,0.4-1,0.9-1.5,1.3c0-0.8,0.1-1.4,0.1-1.6c2.8-13.7,7.4-27,10-40.8c1.2-6.5,2-13,1.9-19.8
				c0-8.3-1-16.5-3.6-23.8c-1.1-3.1-2.4-6.1-4.2-8.9c4.6,2.6,9,5.8,12.7,9.4c1.6,1.5,3,3,4.4,4.6l0,0c2.1,5.6,3.3,11.8,3.6,18.5
				C133.9,50,132.9,56.9,131.2,63.7z"/>
		</g>
	</g>
	<g class="st4">
		<path class="st5" d="M110,104.3c-0.6,0.5-1.2,1-1.8,1.5c-3.1,2.5-6.2,5.1-9.2,7.6c-1.8,1.5-3.5,3.1-5.2,4.7
			c-0.8,0.7-1.5,1.5-2.2,2.2c-0.3-0.3-0.6-0.6-0.9-0.9c-1.5-1.6-3.1-3.1-4.6-4.6c-3-2.8-6-5.5-9-8.3c-4.2-3.8-8.3-7.6-12.2-11.6
			c-0.2-0.2-0.5-0.5-0.7-0.7C48.7,77.9,39.1,55.9,49.6,33.5c1.4-2.9,3.4-5.9,5.8-8.8l0,0c4.5-5.3,10.6-10.3,17.1-14
			c3.7-2.1,7.6-3.7,11.4-4.6c1.6-0.4,3.2-0.7,4.7-0.8c-2.4,1.8-4.5,3.8-6.4,6c-18.1,21-15.9,58.3,1.1,79.1c0.7,0.9,1.5,1.8,2.3,2.6
			c3.4,3.8,8.9,6.6,14.7,8.7c2.7,0.9,5.4,1.7,8.1,2.4c0.4,0.1,0.9,0.2,1.3,0.3C109.9,104.3,109.9,104.3,110,104.3z"/>
	</g>
	<g class="st6">
		<path class="st5" d="M117,162.4c-1.2,5-3.2,9.2-7.2,10.7c-2.3,0.8-4.5,0.8-6.8,0.8H82.2c-2.2,0-4.5,0-6.8-0.8
			c-6-2.2-7.7-10.9-8.4-18.9c-0.2-2.3-0.3-4.6-0.4-6.7c0-0.1,0-0.2,0-0.3c0,0,0,0,0.1,0c0,0,0,0,0,0h18.2
			C73.3,164.3,98.6,178.2,117,162.4z"/>
	</g>
	<path class="st7" d="M118.4,151.5c-1.3,7.6-8.6,9.1-13.5,6.7c-2.6-1.3-4.6-3.7-4.7-6.9c-0.1,0.3-0.2,0.5-0.2,0.8
		c-0.2,0.6-0.4,1.1-0.7,1.6c-3.6,6.9-12.8,6.6-16.1,1.5c-0.5-0.7-0.9-1.6-1.1-2.5c-2.8,7.8-12.3,7.6-15.1,1.5c-0.8-1.8-1-4-0.4-6.7
		c0-0.1,0-0.2,0.1-0.3c0,0,0,0,0,0c0,0,0,0,0,0c0.2,0.4,0.4,0.7,0.6,1c0,0,0,0,0,0c4.1,6.3,12.2,6.1,15-1H83c0.3,0.5,0.6,1,0.9,1.5
		c4.4,6.1,13.3,6.1,16.7-1.5h0.6c3.7,7.7,13.2,8.2,16.6,0c0,0,0.2-0.1,0.4-0.1c0,0,0.1,0,0.1,0c0,0,0.1,0,0.1,0c0.1,0,0.1,0,0.1,0
		c0,0,0,0.1,0,0.1C118.7,148.9,118.7,150.2,118.4,151.5z"/>
	<g class="st8">
		<path class="st5" d="M83,147.2c0.3,0.5,0.6,1,0.9,1.5c-0.6,1.5-1,2.7-1,4.2c0,0.5,0.3,1.7,0.3,2.3c-0.5-0.7-0.9-1.6-1.1-2.5
			c-2.8,7.8-12.3,7.6-15.1,1.5c-0.8-1.8-1-4-0.4-6.7c0-0.1,0-0.2,0.1-0.3c0,0,0,0,0,0c0,0,0,0,0,0c0.2,0.4,0.4,0.7,0.6,1
			c0,0,0,0,0,0c4.1,6.3,12.2,6.1,15-1H83z"/>
	</g>
	<g class="st9">
		<path class="st10" d="M118.3,146.5c0,0.2,0,0.3,0,0.5c-0.2-0.2-0.3-0.3-0.5-0.5H118.3z"/>
	</g>
	<g class="st11">
		<path class="st10" d="M118.4,151.5c-3.1,4-7.6,3.8-12.1,2.9c-3-0.6-5.5-3.9-5.7-7.2h0.5c3.7,7.7,13.2,8.2,16.6,0
			c0,0,0.2-0.1,0.4-0.1c0,0,0.1,0,0.1,0c0,0,0.1,0,0.1,0c0.1,0,0.1,0,0.1,0c0,0,0,0.1,0,0.1C118.7,148.9,118.7,150.2,118.4,151.5z"
			/>
	</g>
	<path class="st10" d="M139,62.3c-2.5,0.7-5.1,1.2-7.8,1.5c-4.2,0.4-8.6,0.2-12.7-0.5c-5.3-0.9-10.2-2.8-13.8-5.5
		c-1.2-0.9-2.2-1.9-3.1-3c-9.4-12.1-5.7-24.1,3.3-30.5c3.4-2.4,7.5-4,11.9-4.5c2.8-0.3,5.7-0.2,8.6,0.4c1.6,1.5,3,3,4.4,4.6l0,0
		c2.5,2.9,4.5,5.9,5.8,8.8C140.2,43.3,140.9,53,139,62.3z"/>
</g>
</svg>
