<?xml version="1.0" encoding="utf-8"?>
<!-- Generator: Adobe Illustrator 21.1.0, SVG Export Plug-In . SVG Version: 6.00 Build 0)  -->
<svg version="1.1" id="圖層_1" xmlns="http://www.w3.org/2000/svg" xmlns:xlink="http://www.w3.org/1999/xlink" x="0px" y="0px"
	 viewBox="0 0 539 470.7" style="enable-background:new 0 0 539 470.7;" xml:space="preserve">
<style type="text/css">
	.st0{fill:#C9A15A;}
	.st1{fill:#967645;}
	.st2{fill:#B7CB67;}
	.st3{fill:#B59050;}
	.st4{fill:#BA9454;}
</style>
<g>
	<polygon id="XMLID_527_" class="st0" points="513.1,230.8 491.5,256.9 390.6,269.4 401.7,239.3 	"/>
	<polygon id="XMLID_526_" class="st1" points="326.9,256.9 312.9,288.6 283.7,300.9 289.5,261.6 	"/>
	<polygon id="XMLID_525_" class="st1" points="178.3,256.9 178.3,310.8 133.5,300.9 125.1,263.1 	"/>
	<path id="XMLID_523_" class="st2" d="M141.2,190.7c-4.4-0.2-56.5,6.7-56.5,6.7l-17,10.5l-42.8,1.2L5,222.9c0,0,27.1,20.8,29.8,20.4
		s72.7,5.4,72.7,5.4l17.6,14.5l53.2-6.3v6.3l-20.4,10.9l27.3,8.6l113.5-8.6c0,0-11.8-12.5-9.2-12.5c2.5,0,34.5-4.7,37.5-4.7
		c3,0,70.6,2.3,70.6,2.3l14.6-10.7l-10.5-9.3l111.5-8.5l19.9-14.5c0,0-14.4-15.9-17.1-17.4c-2.7-1.5-145.4-7.2-145.4-7.2l4.2-6.6
		L147,182.4L141.2,190.7z"/>
	<polygon id="XMLID_522_" class="st0" points="437.4,216 437.4,218.6 429.3,219.9 424,218 424,216.8 434.9,214.5 	"/>
	<polygon id="XMLID_521_" class="st0" points="484.6,218.4 484.6,221.9 474.1,223.6 472.3,221 478.5,217.3 	"/>
	<path id="XMLID_520_" class="st0" d="M356.7,219.8l-2.2,2.2h-8.9c0,0-3.2,1.2-3.4,0c-0.2-1.2-0.2-1.2-0.2-1.2l-5.7-0.3l2.2-1.8
		l11-1.3l5.9,1.3L356.7,219.8z"/>
	<path id="XMLID_519_" class="st0" d="M400.4,215.2c-4.2-0.5-9.8,2-9.8,2l-8,2.1l2,3l14.7,2.6l13.2-2.1l7.9-5.7l-5.5-2.1
		L400.4,215.2z"/>
	<path id="XMLID_518_" class="st0" d="M125.9,201.5c-2.2-0.5-16.2,5.8-16.2,5.8l-13.1,6.2l6.5,9.4l78.3,1.9l96.3-5.7l45.8,1.4
		c0,0,11.7-5.5,13.5-5.3c1.8,0.2,16.8-4,16.8-4l-2.5-5.5l-53-15.1L125.9,201.5z"/>
	<g>
		<path id="XMLID_517_" class="st0" d="M319.4,232.5c-1.8,1-11.5,1.1-12.9,1c-1.4-0.1,0,3.8,0,3.8l-8.1,2.9l-9.8-4.6l-7.5,1.7
			l-9.1-1.6l-10,12.8l-6.8-3l2.5-8.2l-19,2.9l0.8-6.5l-18.9,2l7.8-9.6l35-2l36.5,1l21.7,1.9L319.4,232.5z"/>
	</g>
	<path id="XMLID_516_" class="st0" d="M172.5,222.4l-11.8,4.1l-22.6,1.7l-13.1,5.5l-34.8-1.1l-9.9,1.1L51,233.5l-10.4-9.4l13.8-8
		l27.6,1.6l3.6-4.5l36.8,0.4c0,0,8.4,1.8,9.4,1.7c0.9-0.1,34.6,0.7,36,0.9C169.3,216.2,172.5,222.4,172.5,222.4z"/>
	<polygon id="XMLID_515_" class="st3" points="34.8,243.3 48.8,268.1 119.4,290.9 107.5,248.7 	"/>
	<polygon id="XMLID_514_" class="st0" points="5,222.9 22.4,252.2 48.8,268.1 34.8,243.3 	"/>
	<polygon id="XMLID_513_" class="st0" points="125.1,263.1 133.5,300.9 119.4,290.9 107.5,248.7 	"/>
	<polygon id="XMLID_512_" class="st0" points="157.9,274.1 168.6,310.8 191.6,326.7 185.2,282.7 	"/>
	<polygon id="XMLID_511_" class="st3" points="298.7,274.1 285.8,317.9 191.6,326.7 185.2,282.7 	"/>
	<polygon id="XMLID_510_" class="st0" points="312.9,288.6 380.7,283.9 397.6,259.2 326.9,256.9 	"/>
	<polygon id="XMLID_509_" class="st3" points="412.2,248.6 380.7,283.9 397.6,259.2 	"/>
	<polygon id="XMLID_508_" class="st3" points="533,216.3 513.1,245.8 491.5,256.9 513.1,230.8 	"/>
	<g id="XMLID_506_">
		<path id="XMLID_507_" class="st4" d="M134.9,236.8c0.9-0.9,1.7-1.9,2.4-2.8c-0.6,0.2-1.1,0.4-1.7,0.6c0.3,0.1,0.6,0.1,0.9,0.2
			c0.4,0.1,0.3,0.3,0.4,0.1c0.1-0.3,0-0.1-0.2-0.2c-0.4-0.2-1-0.3-1.4-0.4c-1.4-0.3-2.8,1.4-1.5,2.3c1.8,1.3,5.3,1.4,6.1-0.9
			c0.7-2-1.5-3.3-3.5-3.6c-0.7-0.1-1.3,0.1-1.7,0.6c-0.7,0.9-1.3,1.8-1.9,2.8C132.2,236.5,133.9,237.8,134.9,236.8L134.9,236.8z"/>
	</g>
	<g id="XMLID_504_">
		<path id="XMLID_505_" class="st4" d="M143.9,238.3C143.8,238.3,143.9,238.3,143.9,238.3C143.8,238.3,143.8,238.3,143.9,238.3
			C143.9,238.3,143.9,238.3,143.9,238.3C143.7,238.2,143.9,238.3,143.9,238.3C144,238.3,143.6,238.2,143.9,238.3
			C144.1,238.3,143.8,238.2,143.9,238.3C143.8,238.2,143.9,238.3,143.9,238.3C144.2,238.4,143.8,238.2,143.9,238.3
			C144,238.4,143.7,238,143.9,238.3c0-0.4,0-0.8,0-1.2c0,0.1,0,0.1,0.1,0c0.1-0.1,0.2-0.2,0.3-0.2c-0.2,0.1,0.3-0.1,0.2-0.1
			c-0.2,0.1,0.2,0,0.2,0c-0.2,0-0.1-0.1,0.2,0c0,0-0.1,0-0.2,0c-0.2,0,0.3,0.2,0.2,0.1c-0.2-0.1,0.3,0.2,0.1,0.1
			c0.2,0.2,0.1,0.1,0.2,0.4c-0.3-0.6-1-1.1-1.8-0.9c-0.7,0.2-1.3,0.9-1,1.6c0.3,0.7,0.9,1.2,1.8,1.3c1,0.2,2.1-0.2,2.4-1.2
			c0.3-1.1-0.9-1.9-2-1.9c-0.9,0.1-1.7,0.5-2,1.3c-0.1,0.3,0.1,0.7,0.4,0.9C143.2,238.6,143.6,238.5,143.9,238.3L143.9,238.3z"/>
	</g>
	<g id="XMLID_502_">
		<path id="XMLID_503_" class="st4" d="M148.7,234.4c0.2,0,0.4-0.1,0.6-0.2c0.2-0.2,0.4-0.4,0.4-0.7c0-0.2-0.1-0.5-0.3-0.6
			c-0.2-0.2-0.5-0.2-0.7-0.3c-0.7-0.1-1.4,0.3-1.4,0.9C147.4,234.1,148.1,234.5,148.7,234.4L148.7,234.4z"/>
	</g>
	<g id="XMLID_500_">
		<path id="XMLID_501_" class="st4" d="M154.7,238.3c0,0.1,0.1,0.2,0.1,0.3c0.3,0.7,1.3,0.7,1.6,0c0-0.1,0.1-0.2,0.1-0.3
			c0.2-0.5-0.3-1-0.9-1C155.1,237.2,154.5,237.8,154.7,238.3L154.7,238.3z"/>
	</g>
	<g id="XMLID_497_">
		<path id="XMLID_499_" class="st4" d="M123.3,241.1c-0.2,0-0.3,0-0.5,0.1c-0.2,0-0.3,0.1-0.5,0.2c-0.3,0.2-0.3,0.6,0,0.7
			c0.2,0.1,0.3,0.2,0.5,0.2c0.2,0,0.3,0.1,0.5,0.1c0.5,0.1,1-0.2,1-0.7C124.3,241.3,123.8,241.1,123.3,241.1L123.3,241.1z"/>
	</g>
	<g id="XMLID_495_">
		<path id="XMLID_496_" class="st4" d="M220.5,241.4c0.2-0.4,0.5-0.8,0.8-1.2c0.1-0.1,0.3-0.3,0.4-0.4c0.1-0.1,0.7-0.4,0.2-0.3
			c-0.5-0.2-1-0.5-1.5-0.7c0.5,0.7,1.1,1.3,1.8,1.8c-0.2-0.4-0.4-0.8-0.6-1.2c0,0.2,0,0.2,0,0.1c0-0.1,0-0.1,0,0c0,0.1,0,0.1,0,0
			c0,0,0.1-0.1,0.1-0.1c0,0-0.1,0.1-0.1,0.1c0.1-0.1,0.1-0.1,0,0c-0.1,0.1-0.1,0.1,0,0c0.1,0,0.1-0.1,0.2,0c0.1,0,0.2,0.1,0.2,0.1
			c-0.2,0-0.1-0.1-0.2-0.1c-0.1,0-0.3-0.3-0.2-0.1c-0.3-0.3-0.5-0.5-0.8-0.7c-0.8-0.5-2.1-0.1-2.5,0.6c-0.8,1.4,0.1,2.9,1.5,3.6
			c1.2,0.6,2.8,0.6,4,0c1.2-0.6,1.9-1.8,1.9-2.9c0-1.4-1.6-2.4-2.9-3c-0.8-0.3-1.9-0.2-2.4,0.5c-0.3,0.6-0.9,1-1.2,1.6
			c-0.3,0.7-0.6,1.4-0.5,2.1C218.8,241.7,220.1,242.2,220.5,241.4L220.5,241.4z"/>
	</g>
	<g id="XMLID_493_">
		<path id="XMLID_494_" class="st4" d="M212.2,237.5c-0.5,0.6-0.8,1.3-1,2.1c0.2-0.3,0.5-0.5,0.7-0.8c0.1,0,0.1,0-0.1,0
			c-0.1,0-0.2,0.1-0.3,0.1c0.1,0,0.1,0,0,0c-0.1,0-0.1,0,0,0c0.1,0,0.1,0.1,0.2,0.1c-0.1-0.1-0.1-0.1,0,0c0.1,0,0.1,0.1,0.1,0.2
			c0-0.2-0.1-0.2,0,0c0.1-0.3,0,0.1-0.1,0.2c-0.1,0.2-0.4,0.4-0.7,0.4c-0.1,0-0.2,0-0.2,0c0.2,0,0.2,0-0.1,0
			c-0.2-0.1-0.2-0.2-0.1-0.1c0.2,0.2,0.1,0.1-0.2-0.3c0.3,0.7,1,1.2,1.9,1c0.8-0.1,1.4-0.7,1.5-1.4c0.1-1.5-1.8-2.5-3.4-2.1
			c-1.6,0.4-2.3,1.9-1.8,3.1c0.6,1.3,2.2,2,3.8,1.6c1-0.2,1.9-0.8,1.8-1.8c0-0.5-0.1-1.1-0.1-1.6
			C214.2,237.3,212.9,236.6,212.2,237.5L212.2,237.5z"/>
	</g>
	<g id="XMLID_491_">
		<path id="XMLID_492_" class="st4" d="M209.6,244.7c-0.1,0.2-0.2,0.3-0.3,0.4c-0.2,0.2-0.3,0.5-0.4,0.7c0.6-0.3,1.2-0.6,1.8-0.9
			c0.5,0.2,0.9,0.6,0.7,1c-0.3,0.2-0.5,0.5-0.8,0.7c-0.3,0-0.6-0.1-0.9-0.1c-0.4-0.2-0.5-0.7-0.4-1c0.5-0.3,1-0.7,1.5-1
			C210.4,244.6,210,244.5,209.6,244.7c-0.8,0.1-1.2,0.5-1.5,1c0.2-0.2,0.3-0.4,0.5-0.5c0,0-0.1,0-0.1,0.1c-0.6,0.3-0.7,1.2,0,1.5
			c0,0,0.1,0,0.1,0c-0.1-0.1-0.3-0.2-0.4-0.3c0.5,0.9,1.6,0.9,2.7,0.8c0.7,0,1.4-0.4,1.5-1c0.2-0.8-0.1-1.4-0.8-1.9
			c-0.7-0.5-1.8-0.5-2.5,0.1c-0.5,0.4-0.7,1.1-0.6,1.7c0.1,0.6,0.7,1.2,1.4,1.3c0.6,0.1,1,0,1.5-0.3c0.4-0.3,0.5-0.8,0.4-1.3
			c-0.1-0.2-0.1-0.4-0.3-0.7c0,0-0.1-0.2-0.1-0.1c0,0.1-0.1-0.2-0.1-0.2C211.1,244.2,210,244,209.6,244.7L209.6,244.7z"/>
	</g>
	<g id="XMLID_489_">
		<path id="XMLID_490_" class="st4" d="M198.7,244.8c-0.8,0-1.2-0.3-1.2-0.8c0-0.2,0.1-0.3,0-0.2c0.2-0.6,0.9-0.8,1.5-0.5
			c0.2,0.1,0.2,0.2,0.1,0.1c0.2,0.2,0.2,0.2-0.1-0.1c-0.1-0.1-0.3-0.2-0.4-0.3c-0.5-0.2-1.1-0.2-1.5,0.1c-0.4,0.3-0.6,0.8-0.5,1.2
			c0.2,0.7,0.9,1.1,1.7,1.2c0.8,0,1.6-0.5,1.6-1.3c0-0.5-0.4-0.9-0.9-1.1c-0.7-0.2-1.4,0-1.6,0.6C197.3,244.3,198,245,198.7,244.8
			L198.7,244.8z"/>
	</g>
	<g id="XMLID_487_">
		<path id="XMLID_488_" class="st4" d="M232,247.2c-0.2,0-0.4,0-0.6,0c-0.3,0-0.5,0.1-0.7,0.3c-0.5,0.3-0.5,1,0,1.3
			c0.2,0.1,0.4,0.2,0.7,0.3c0.2,0,0.4,0,0.6,0c0.5,0,1-0.4,1-0.9C233,247.5,232.6,247.2,232,247.2L232,247.2z"/>
	</g>
	<g id="XMLID_485_">
		<path id="XMLID_486_" class="st4" d="M324.1,236C324.1,236.1,324.1,236.1,324.1,236c-0.1,0.3-0.2,0.6-0.3,0.9
			c0.2-0.2,0.3-0.3,0.4-0.5c0-0.1,0.1-0.3,0-0.4c0,0,0,0.1,0,0.1c-0.1,0.1-0.1,0.1,0,0c0,0,0.1-0.1,0.1-0.1c-0.1,0.1-0.1,0.1,0,0
			c0,0-0.1,0.1-0.2,0.1c-0.3,0-0.1,0-0.1,0c-0.1,0,0.2,0.1,0.1,0c0.3,0.2,0.5,0.4,0.9,0.6c0.1-0.8,0.2-1.5,0.3-2.3
			c-0.2,0.1-0.4,0.3-0.7,0.4c0,0-0.4,0.2-0.3,0.1c-0.2,0.1-0.4,0.1-0.6,0.2c-0.1,0-0.3,0.1-0.4,0.1c-0.2,0-0.3,0-0.1,0
			c-0.9,0.1-1.7,0.6-1.7,1.5c0,0.7,0.8,1.6,1.7,1.5c1.4-0.2,2.6-0.5,3.8-1.2c0.8-0.5,1.2-1.6,0.3-2.3c-1.2-0.8-2.7-1.6-4.3-1
			c-1.3,0.5-1.9,1.8-1.3,3c0.3,0.5,0.9,0.6,1.4,0.5c0,0,0,0,0.1,0c-0.2,0-0.4,0-0.6,0c0.2,0,0.3,0.1,0.5,0.1
			C324,237.4,324.3,236.5,324.1,236L324.1,236z"/>
	</g>
	<g id="XMLID_483_">
		<path id="XMLID_484_" class="st4" d="M330.7,229.4c-0.1,0-0.2,0-0.4,0c-0.3,0-0.6,0.4-0.6,0.7c0,0.3,0.2,0.6,0.6,0.7
			c0.1,0,0.2,0,0.4,0c0.3,0,0.6,0,0.9-0.2c0.2-0.1,0.3-0.3,0.3-0.5c0-0.2-0.1-0.4-0.3-0.5C331.3,229.4,331.1,229.4,330.7,229.4
			L330.7,229.4z"/>
	</g>
	<g id="XMLID_480_">
		<path id="XMLID_481_" class="st4" d="M339.6,236.7c1,0,1-1.4,0-1.4C338.6,235.3,338.6,236.7,339.6,236.7L339.6,236.7z"/>
	</g>
	<g id="XMLID_478_">
		<path id="XMLID_479_" class="st4" d="M345.9,234.6c1,0,1-1.4,0-1.4C344.8,233.2,344.8,234.6,345.9,234.6L345.9,234.6z"/>
	</g>
	<g id="XMLID_476_">
		<path id="XMLID_477_" class="st4" d="M364.1,217.3c-0.1,0-0.3,0-0.4,0c-0.4,0-0.9,0.3-0.8,0.7c0,0.4,0.4,0.7,0.8,0.7
			c0.1,0,0.3,0,0.4,0c0.5,0,0.9-0.4,0.9-0.8C365,217.7,364.6,217.3,364.1,217.3L364.1,217.3z"/>
	</g>
	<g id="XMLID_474_">
		<path id="XMLID_475_" class="st4" d="M359.5,207.3c0.3,0.2,0.5,0.3,0.8,0.5c0.3,0.1,0.5,0.1,0.8,0.1c0.8,0,1.4-0.5,1.5-1.2
			c0.1-0.6-0.4-1.4-1.1-1.5c-0.2,0-0.5-0.1-0.7,0c-0.1,0-0.3,0-0.4,0.1c-0.2,0-0.4,0.1-0.6,0.2C359.1,205.8,358.8,206.8,359.5,207.3
			L359.5,207.3z"/>
	</g>
	<g id="XMLID_472_">
		<path id="XMLID_473_" class="st4" d="M423.7,223.5c0-0.2,0-0.4-0.1-0.6c0-0.3-0.2-0.6-0.4-0.8c-0.2-0.2-0.4-0.4-0.7-0.5
			c-0.5-0.3-1.2-0.3-1.7,0c-0.6,0.3-1,0.7-1.1,1.3c0,0.2-0.1,0.4-0.1,0.6c-0.1,0.4,0.3,0.9,0.6,1.2c0.3,0.3,0.9,0.5,1.4,0.5
			c0.5,0,1.1-0.2,1.4-0.5C423.5,224.4,423.8,224,423.7,223.5L423.7,223.5z"/>
	</g>
	<g id="XMLID_470_">
		<path id="XMLID_471_" class="st4" d="M425.7,222.1c0,0.1,0,0.2-0.1,0.3c-0.1,0.3,0,0.6,0.2,0.8c0.2,0.1,0.4,0.2,0.7,0.2
			c0.2,0,0.5-0.1,0.7-0.2c0.3-0.2,0.3-0.5,0.2-0.8c0-0.1,0-0.2-0.1-0.3c-0.1-0.3-0.5-0.6-0.8-0.6
			C426.2,221.5,425.8,221.7,425.7,222.1L425.7,222.1z"/>
	</g>
	<g id="XMLID_468_">
		<path id="XMLID_469_" class="st4" d="M428,226.3c1.1,0,1.1-1.4,0-1.4C426.9,224.9,426.9,226.3,428,226.3L428,226.3z"/>
	</g>
	<g id="XMLID_466_">
		<path id="XMLID_467_" class="st4" d="M441.4,223.5c1.2,0,1.2-1.6,0-1.6C440.3,221.9,440.3,223.5,441.4,223.5L441.4,223.5z"/>
	</g>
	<g id="XMLID_464_">
		<path id="XMLID_465_" class="st4" d="M446.2,216c-0.1,0.1-0.2,0.1-0.3,0.2c-0.2,0.2-0.2,0.3,0,0.5c0.1,0.1,0.2,0.1,0.3,0.2
			c0.2,0.2,0.5,0.2,0.8,0.1c0.3-0.1,0.5-0.3,0.4-0.6c0-0.2-0.1-0.4-0.4-0.5C446.8,215.7,446.5,215.8,446.2,216L446.2,216z"/>
	</g>
	<g id="XMLID_462_">
		<path id="XMLID_463_" class="st4" d="M491.7,207.8c-0.3,0.1-0.6,0.1-0.9,0.2c-0.3,0.1-0.5,0.3-0.8,0.5c-0.6,0.4-0.7,0.9-0.4,1.4
			c0.8,1.4,3.1,2.1,4.5,0.9c0.6-0.5,0.8-1.3,0.6-2c-0.3-0.9-1.4-1.7-2.4-1.2c-0.5,0.3-0.7,0.7-0.6,1.2c0,0.2,0.1,0.3,0.2,0.4
			c0,0,0.2,0.2,0.2,0.2c0,0-0.2-0.2-0.1-0.1c-0.1-0.1,0-0.2,0,0c0,0.2,0.1-0.1,0-0.1c0,0,0,0.2,0,0.2c0,0,0.1-0.3,0,0
			c-0.1,0.1,0.1-0.3,0,0c0-0.1,0.2-0.2,0-0.1c0,0,0.3-0.1,0.2-0.1c-0.2,0,0.3,0-0.1,0c0.1,0,0.1,0,0,0c-0.1,0-0.1,0-0.1,0
			c0.1,0,0.1,0,0,0c0,0-0.3-0.1-0.1,0c-0.1,0-0.1-0.1-0.2-0.1c-0.2-0.2,0.1,0.1-0.1-0.1c-0.1,0.4-0.1,0.8-0.2,1.3
			c0.2-0.2,0.5-0.3,0.7-0.6c0.2-0.2,0.3-0.4,0.5-0.7C493,208.4,492.4,207.6,491.7,207.8L491.7,207.8z"/>
	</g>
	<g id="XMLID_460_">
		<path id="XMLID_461_" class="st4" d="M498.3,210.9c-0.4-0.1-0.9,0-1.2,0.2c-0.6,0.4-0.6,1.1-0.3,1.6c0.1,0.3,0.6,0.5,1,0.5
			c0.7-0.1,1.3-0.3,1.7-0.9c0.4-0.5,0.5-1.2,0.1-1.7c-0.3-0.4-0.8-0.6-1.3-0.5c-0.5,0.1-0.8,0.5-0.8,1c0-0.3,0-0.1,0,0.1
			c0,0,0,0.1,0,0.1c0,0.1,0-0.2,0-0.1c0,0.2,0.1-0.2,0,0c0,0-0.1,0.2,0,0c0.1-0.1,0,0-0.1,0c-0.1,0.1,0,0,0.1,0
			c-0.2,0.1,0.2-0.1,0,0c0.4,0.1,0.8,0.3,1.3,0.4c-0.1-0.1-0.1-0.1,0,0.1c0-0.1,0-0.1,0,0.1c0,0,0,0,0-0.1c0-0.2,0-0.3-0.1-0.5
			c0.1,0.1,0.1,0.2,0.1,0.1c0-0.1,0,0,0,0.1c0-0.1,0-0.1,0,0.1c0,0.1,0,0.1,0,0C498.9,211.4,498.6,211,498.3,210.9L498.3,210.9z"/>
	</g>
	<g id="XMLID_458_">
		<path id="XMLID_459_" class="st4" d="M505.5,210.4c0,0.1,0,0.2-0.1,0.3c-0.1,0.5,0.2,0.9,0.8,0.9c0.6,0,0.9-0.5,0.8-0.9
			c0-0.1,0-0.2-0.1-0.3C506.9,209.8,505.7,209.8,505.5,210.4L505.5,210.4z"/>
	</g>
</g>
</svg>
