<?xml version="1.0" encoding="utf-8"?>
<!-- Generator: Adobe Illustrator 21.1.0, SVG Export Plug-In . SVG Version: 6.00 Build 0)  -->
<svg version="1.1" id="圖層_1" xmlns="http://www.w3.org/2000/svg" xmlns:xlink="http://www.w3.org/1999/xlink" x="0px" y="0px"
	 viewBox="0 0 539 470.7" style="enable-background:new 0 0 539 470.7;" xml:space="preserve">
<style type="text/css">
	.st0{enable-background:new    ;}
	.st1{fill:#848485;}
	.st2{fill:#92BBE1;}
	.st3{fill:#E19361;}
	.st4{fill:#E3C372;}
	.st5{fill:#F4AA9D;}
	.st6{fill:#EC6C56;}
	.st7{fill:#DB4343;}
</style>
<g class="st0">
	<g>
		<g>
			<polygon class="st1" points="204.1,324 531.3,139.2 528.5,283.1 201.4,467.9 			"/>
		</g>
		<polygon class="st2" points="206.5,307.8 536.8,123 534.1,266.9 203.7,451.7 		"/>
	</g>
	<g>
		<polygon class="st1" points="204.8,334.2 202.2,468.2 13.6,355.1 16.2,221.1 		"/>
		<polygon class="st3" points="206.5,307.8 203.7,451.7 1,330.2 3.8,186.3 		"/>
	</g>
	<g>
		<polygon class="st4" points="3.8,186.3 334.2,1.5 536.8,123 206.5,307.8 		"/>
	</g>
</g>
<polygon class="st5" points="347.7,228.9 169.6,93.5 197.9,77.7 372.5,215.1 "/>
<g>
	<g>
		<g>
			<path class="st6" d="M274.9,136.9c0,0-8.2,50.3-34.1,87.7c0,0,21.8-7.6,29.7-20.7c0,0,4.6,22.4,2.4,32.5
				c0,0,33.9-43.5,12.5-103.1L274.9,136.9z"/>
			<path class="st7" d="M292.4,177.8c-4.2-7.9-11-22.4-13.6-30c0,0-2.5-0.4-5.4-3.1c1.1-4.9,1.6-7.8,1.6-7.8l10.5-3.7
				C291.3,149.5,293,164.5,292.4,177.8z"/>
		</g>
		<g>
			<path class="st6" d="M274.9,136.9c0,0-46.4,21.1-75.7,55.8c0,0,1.6-23,12.3-34.1c0,0-22.9,1.4-32,6.1c0,0,33.2-44,96.3-39
				L274.9,136.9z"/>
			<path class="st7" d="M230.9,130.7c8.8,2,24.5,4.7,32.5,5.3c0,0,1.1,2.3,4.4,4.4c4.5-2.3,7.2-3.6,7.2-3.6l0.8-11.1
				C258.5,124.4,243.6,126.7,230.9,130.7z"/>
		</g>
		<path class="st6" d="M293.6,124.9c0,0,48.6-4.6,64.5,6.6c15.9,11.2,4.9,32.9-13,42.7c-17.9,9.8-14.1,20.8-26.3,23.4
			c-12.3,2.5-37.7-40.4-38.1-55.8L293.6,124.9z"/>
		<path class="st7" d="M291.3,127.8l32.2,7.7c0,0-23.7-1-26.4-1.1l21.7,19.1l-25.7-16.4l6.5,10.6l-9.8-7.5l11.8,25.1
			c0,0-15-20.9-18.2-27.1L291.3,127.8z"/>
		<path class="st6" d="M281.4,115.6c0,0-8.3-48.2-23.2-60.5c-15-12.4-33,3.9-37.9,23.7c-4.8,19.8-16.4,19-15.7,31.5
			c0.8,12.5,48.9,25.8,63.8,22.2L281.4,115.6z"/>
		<path class="st7" d="M279.2,118.5l-15.8-29c0,0,7.1,22.6,7.9,25.2l-24.1-16l22.5,20.5l-11.9-3.5l9.8,7.5l-27.3-4.9
			c0,0,24.1,9,31,10.5L279.2,118.5z"/>
		<path class="st6" d="M266.4,135.8l11.2,8.6c2.9,2.2,7,1.6,9.2-1.2l8.6-11.2c2.2-2.9,1.6-7-1.2-9.2l-11.2-8.6
			c-2.9-2.2-7-1.6-9.2,1.2l-8.6,11.2C263,129.5,263.6,133.6,266.4,135.8z"/>
	</g>
</g>
<polygon class="st5" points="373.3,357 348.5,370.9 347.7,228.9 372.5,215.1 "/>
</svg>
