<?xml version="1.0" encoding="utf-8"?>
<!-- Generator: Adobe Illustrator 21.1.0, SVG Export Plug-In . SVG Version: 6.00 Build 0)  -->
<svg version="1.1" id="圖層_1" xmlns="http://www.w3.org/2000/svg" xmlns:xlink="http://www.w3.org/1999/xlink" x="0px" y="0px"
	 viewBox="0 0 539 470.7" style="enable-background:new 0 0 539 470.7;" xml:space="preserve">
<style type="text/css">
	.st0{fill:#9B9B9B;}
	.st1{fill:#E83F58;}
	.st2{fill:#E22D50;}
	.st3{fill:#EA5978;}
</style>
<g>
	<g>
		<path class="st0" d="M249.4,465.7c1.2-1,2.8-1.6,4.4-1.8c2.7-30.4,0.9-64-8.5-99.5c-29.7-112.2-8.6-146-8.4-146.3l-3.5-2.4
			c-0.9,1.4-22.5,35.2,7.8,149.8C250.6,401.3,252.3,435.2,249.4,465.7z"/>
	</g>
	<g>
		<g>
			<g>
				<g>
					<path class="st1" d="M232.3,204.4c0,0,5.5,4.3,0.1,7.3c-5.4,2.9-19.4,2.2-14.5,8.2c5,6,25.9,13.2,33.6,8.4
						c2.3-1.9-3.6-5.8-8-10.1c-4.4-4.2,0.2-8.5,3.9-9C248.6,209,232.3,204.4,232.3,204.4z"/>
				</g>
				<g>
					<path class="st2" d="M243.5,218.2c-4.4-4.2,0.2-8.5,3.9-9c1.2-0.2-15.1-4.8-15.1-4.8s3.6,2.9,2.1,5.5c0,6,15,10.9,5.6,16.3
						c-3.8,1.6-7.6,1-11.1,0.3c8,3.1,17.9,4.7,22.6,1.7C253.7,226.4,247.9,222.4,243.5,218.2z"/>
				</g>
			</g>
			<g>
				<g>
					<path class="st1" d="M356.7,112.8c-20.1,63.8-84.6,105.9-117,95.6c-32.4-10.2-60.8-82.6-41-145.4C212.4,19.3,259-4.9,302.6,8.9
						C346.2,22.6,370.5,69.1,356.7,112.8z"/>
				</g>
				<g>
					<path class="st2" d="M302.6,8.9c-11.3-3.5-22.7-4.5-33.7-3.4c6.9,0.3,13.9,1.6,20.8,3.7C333.3,23,349,70.1,335.2,113.8
						c-16.6,52.8-57.8,90.3-89.9,95.8c33.7,4.3,92.4-36.5,111.4-96.8C370.5,69.1,346.2,22.6,302.6,8.9z"/>
				</g>
				<g>
					<path class="st3" d="M225.4,42.9c22.5-26.7,48.8-27.7,66.2-20.3s3.9,13.5-10.7,12.6c-14.6-0.9-37.5,11.2-49,40.5
						C219.4,108.1,202.9,69.6,225.4,42.9z"/>
				</g>
			</g>
		</g>
		<g>
			<path class="st0" d="M241.6,215.1c-0.7-0.1-1.4-0.3-2.3-0.6c-2-0.8-8.6-3.5-8.2-6c0.2-1.5,2.1-1.6,2.8-1.6l0.3,0l0.3,0.2
				c0.1,0,5.3,3.1,9.2,3.6c1,0.2,1.6,1.2,1.5,2.4C244.9,214.2,243.9,215.4,241.6,215.1z M233.5,209.1c0.9,0.8,3.4,2.2,6.5,3.4
				c0.7,0.3,1.3,0.4,1.8,0.5c0.7,0.1,1-0.1,1.1-0.1c0,0,0,0,0-0.1C239.3,212.2,234.8,209.8,233.5,209.1
				C233.6,209.1,233.6,209.1,233.5,209.1z"/>
		</g>
	</g>
</g>
</svg>
