<?xml version="1.0" encoding="utf-8"?>
<!-- Generator: Adobe Illustrator 21.1.0, SVG Export Plug-In . SVG Version: 6.00 Build 0)  -->
<svg version="1.1" id="圖層_1" xmlns="http://www.w3.org/2000/svg" xmlns:xlink="http://www.w3.org/1999/xlink" x="0px" y="0px"
	 viewBox="0 0 539 470.7" style="enable-background:new 0 0 539 470.7;" xml:space="preserve">
<style type="text/css">
	.st0{fill:#9B9B9B;}
	.st1{fill:#F5C922;}
	.st2{fill:#F5B91D;}
	.st3{fill:#F3DA6D;}
</style>
<g>
	<g>
		<path class="st0" d="M464,466.5c-33.2-39.6-80.8-65.9-122.8-88.9c-12.4-6.8-24.2-13.3-35.3-19.9c-79-47-87.4-98.5-87.5-99l-5,0.7
			c0.3,2.2,8.7,54.3,89.9,102.7c11.2,6.6,22.9,13.1,35.4,20c42.3,23.3,87.6,48.2,119.5,85C460.1,466.3,462,466.1,464,466.5z"/>
	</g>
	<g>
		<g>
			<g>
				<g>
					<path class="st1" d="M202,251.1c0,0,8.4-0.6,6,6.4c-2.4,7-15.5,17.6-6.2,19c9.3,1.3,33.6-9.2,36.5-19.6
						c0.5-3.5-7.8-2.3-15.2-2.5c-7.3-0.2-6.7-7.7-3.8-11.2C220.3,242,202,251.1,202,251.1z"/>
				</g>
				<g>
					<path class="st2" d="M223.1,254.3c-7.3-0.2-6.7-7.7-3.8-11.2c1-1.1-17.3,7.9-17.3,7.9s5.6-0.4,6.3,3.2
						c4.8,5.2,22.1-2.5,18.1,10c-2.1,4.5-5.9,7-9.6,9.2c9.6-3.7,19.7-10.2,21.5-16.7C238.8,253.3,230.4,254.5,223.1,254.3z"/>
				</g>
			</g>
			<g>
				<g>
					<path class="st1" d="M238.6,69.5c33.6,72.9,10.2,162.2-26.8,179.2c-37,17.1-120.6-24.3-153.6-96.1
						c-23-49.8-1.2-108.8,48.6-131.8C156.7-2.2,215.7,19.6,238.6,69.5z"/>
				</g>
				<g>
					<path class="st2" d="M106.8,20.8C94,26.7,83,35.1,74.2,45c6.4-5.3,13.6-9.8,21.5-13.4c49.8-23,101.8,6.3,124.7,56.1
						c27.8,60.3,21.4,126.8-2.6,157.5c33.5-23.3,52.6-106.9,20.9-175.7C215.7,19.6,156.7-2.2,106.8,20.8z"/>
				</g>
				<g>
					<path class="st3" d="M65.8,113.2c-1.5-41.8,21-63.9,42.3-71.4c21.3-7.5,14.3,8.8,0.7,19.8c-13.6,11-24.3,40.2-10.8,75.4
						C112.9,176,67.3,155.1,65.8,113.2z"/>
				</g>
			</g>
		</g>
		<g>
			<path class="st0" d="M216,253.6L216,253.6c-2.4,1-10.5,3.9-12.1,1.3c-1-1.5,0.6-3.1,1.2-3.6l0.3-0.3l0.4-0.1c0,0,3.5-0.7,7-2.1
				c1.7-0.7,3.1-1.4,4.1-2.1l0.4-0.2c1.2-0.5,2.6,0.3,3.1,1.6c0.4,1,0.2,2-0.5,3C219,252.1,217.7,252.9,216,253.6z M206.5,253.4
				c1.5,0,4.8-0.7,8.5-2.2l0.5,1.2l-0.5-1.2c2.3-0.9,2.8-1.8,2.8-2c0,0,0-0.1,0-0.1c-1,0.7-2.5,1.4-4.2,2.1
				C210.6,252.4,207.6,253.1,206.5,253.4C206.6,253.4,206.5,253.4,206.5,253.4z"/>
		</g>
	</g>
</g>
</svg>
