<svg xmlns="http://www.w3.org/2000/svg" viewBox="0 0 241.31 104.93"><defs><style>.cls-1{fill:#fff;}.cls-2{fill:#f47774;}.cls-3{fill:#f2b062;}.cls-4{fill:#167593;}.cls-5{fill:#8ef2f4;}</style></defs><title>資產 4</title><g id="圖層_2" data-name="圖層 2"><g id="Objects"><path class="cls-1" d="M58.81,27.82c-10.92,1.42-21.41-4.9-31.47-14.4S12.94,1.2,5.89,2.83s-6.57,6.41-4.71,13,12,32,15.91,41.33,33.66-2.68,43.17-12.74S58.81,27.82,58.81,27.82Z"/><path class="cls-2" d="M64.13,36.07c-.17-5.18-5.32-8.26-5.32-8.26-10.92,1.42-21.41-4.9-31.47-14.4S12.94,1.2,5.89,2.83C.72,4-.4,6.93.11,11,16.56,21.8,29.64,38.07,29.64,38.07Z"/><path class="cls-3" d="M39,32.24C60.47,27.53,143.79,5.09,165.62,1.11s32.4,3.32,41.7,13.21,21.75,11.11,29.83,20S242.2,71.25,222,80,77,79.38,53.6,77.45,19.42,66.25,17.09,57.16,19.95,36.44,39,32.24Z"/><path class="cls-2" d="M135.15,82.57c-25.54-17.14-56.1-43.12-79.24-56-12.73,3.23-11,4.38-16.87,5.68a41.85,41.85,0,0,0-11,3.91q.79.95,1.57,1.92C40.19,51.23,51.87,66.14,64.58,78.31,80.66,79.52,107.77,81.38,135.15,82.57Z"/><path class="cls-1" d="M154,85.54a15.52,15.52,0,0,1-15.87,15.16l-24.42-.56A15.52,15.52,0,0,1,98.58,84.26h0A15.52,15.52,0,0,1,114.45,69.1l24.41.56A15.51,15.51,0,0,1,154,85.54Z"/><path class="cls-4" d="M154.8,96a9.16,9.16,0,0,1-9.37,8.95h0a9.16,9.16,0,0,1-8.94-9.37l.45-19.33a9.16,9.16,0,0,1,9.37-8.95h0a9.16,9.16,0,0,1,8.94,9.37Z"/><circle class="cls-5" cx="152.98" cy="27.92" r="10.18" transform="translate(121.55 180.22) rotate(-88.68)"/><circle class="cls-5" cx="120.73" cy="31.86" r="10.17" transform="translate(86.1 151.82) rotate(-88.68)"/><path class="cls-1" d="M167.85,59.65a10.18,10.18,0,0,1-10.41,9.94L92.85,68.1a10.18,10.18,0,0,1-9.94-10.41h0a10.17,10.17,0,0,1,10.41-9.94l64.6,1.48a10.18,10.18,0,0,1,9.94,10.41Z"/><path class="cls-5" d="M207.32,14.32c-5.68-6-11.83-11.1-20.72-13.23-4.09,3.14-8.09,7.69-9.08,13.84C175.39,28.1,202.43,38.79,222,24.36,217,21.81,211.78,19.06,207.32,14.32Z"/><path class="cls-2" d="M237.15,34.34a31.36,31.36,0,0,0-6.93-5.6c-4,9.78-8.35,27.27,4.24,41.06C243,57.84,243.11,40.91,237.15,34.34Z"/></g></g></svg>