<svg xmlns="http://www.w3.org/2000/svg" viewBox="0 0 313.52 171.1"><defs><style>.cls-1{fill:#43b9c0;}.cls-2{fill:#97d64c;}.cls-3{fill:#167593;}.cls-4{fill:#f47774;}.cls-5{fill:#8ef2f4;}</style></defs><title>資產 1</title><g id="圖層_2" data-name="圖層 2"><g id="Objects"><path class="cls-1" d="M130.36,2.37c-7.46-5.33-33.23,0-33.23,0l46.25,62.54s59,12.05,66.78,0S134.92,5.63,130.36,2.37Z"/><path class="cls-2" d="M105.28,1c-4.71.64-8.14,1.35-8.14,1.35l46.25,62.54s3.59.73,9.12,1.66Z"/><path class="cls-3" d="M1.33,79.47v-.87c0,.27,0,.53,0,.8a11.25,11.25,0,0,1,8.92-5.82,11.5,11.5,0,0,1,2.53-.29S173.63,51,265.33,54.81c11.72,3.53,30.06,11.31,39.1,18.93h0A11.25,11.25,0,0,1,302.27,96h-291A11.25,11.25,0,0,1,1.33,79.47Z"/><path class="cls-4" d="M306.09,74.2a11.23,11.23,0,0,1,0,21.14s-4.75-.88-4.75-10.57S306.09,74.2,306.09,74.2Z"/><rect class="cls-5" x="226.81" y="62.42" width="18" height="23.99" rx="2.4" ry="2.4"/><path class="cls-5" d="M255.8,63.43a2.4,2.4,0,0,1,2.4-2.4h24.85s13.3,7.12,22.54,13.6H258.2a2.4,2.4,0,0,1-2.4-2.4Z"/><path class="cls-1" d="M116.84,168.2c-9.16,6.55-40.79,0-40.79,0l56.78-76.78s72.38-14.8,82,0S122.44,164.2,116.84,168.2Z"/><path class="cls-2" d="M86.05,169.85c-5.79-.79-10-1.66-10-1.66l56.78-76.78s4.41-.9,11.2-2Z"/><path class="cls-2" d="M46.46,89.38c2.4,6.64-25.59,36-38.39,32.83s5.2-32.83,5.2-32.83Z"/><path class="cls-2" d="M48.19,68.93C49.83,62.06,18.7,36,6.34,40.64s8.87,32,8.87,32Z"/><circle class="cls-5" cx="204.42" cy="70.61" r="6"/><circle class="cls-5" cx="173.02" cy="72.57" r="6"/><circle class="cls-5" cx="141.62" cy="74.52" r="6"/><circle class="cls-5" cx="110.22" cy="76.48" r="6"/><circle class="cls-5" cx="78.82" cy="78.43" r="6"/></g></g></svg>