<svg xmlns="http://www.w3.org/2000/svg" viewBox="0 0 224.99 147.14"><defs><style>.cls-1{fill:#f47774;}.cls-2{fill:#f2b062;}.cls-3{fill:#167593;}.cls-4{fill:#8ef2f4;}</style></defs><title>資產 3</title><g id="圖層_2" data-name="圖層 2"><g id="Objects"><rect class="cls-1" x="82.96" y="114.83" width="66.48" height="32.31" rx="3" ry="3"/><rect class="cls-2" x="108.51" y="120.33" width="15.38" height="21.31" rx="3" ry="3"/><rect class="cls-2" x="128.88" y="120.33" width="15.38" height="21.31" rx="3" ry="3"/><rect class="cls-2" x="88.15" y="120.33" width="15.38" height="21.31" rx="3" ry="3"/><polygon class="cls-2" points="0 41.7 25.99 63.76 25.99 24.78 0 24.78 0 41.7"/><polygon class="cls-1" points="55.6 63.76 25.99 24.78 25.99 63.76 55.6 63.76"/><polygon class="cls-2" points="0 85.82 25.99 63.76 25.99 102.74 0 102.74 0 85.82"/><polygon class="cls-1" points="55.6 63.76 25.99 102.74 25.99 63.76 55.6 63.76"/><ellipse class="cls-3" cx="127.99" cy="63.76" rx="97" ry="63.76"/><ellipse class="cls-4" cx="127.99" cy="63.76" rx="97" ry="43.21"/><ellipse class="cls-3" cx="127.99" cy="63.76" rx="97" ry="16.02"/><path class="cls-1" d="M206.86,26.64C218.27,37.09,225,49.91,225,63.76s-6.72,26.67-18.13,37.12c0,0-6-3-6-37.12S206.86,26.64,206.86,26.64Z"/></g></g></svg>