<svg xmlns="http://www.w3.org/2000/svg" viewBox="0 0 207.36 130.31"><defs><style>.cls-1{fill:#95a63a;}.cls-2{fill:#c7d64e;}.cls-3{fill:#167593;}.cls-4{fill:#f47774;}.cls-5{fill:#8ef2f4;}.cls-6{fill:#f2b062;}.cls-7{fill:#f29211;}</style></defs><title>資產 2</title><g id="圖層_2" data-name="圖層 2"><g id="Objects"><rect class="cls-1" x="133.41" y="111.16" width="3.15" height="15.77"/><rect class="cls-1" x="104.29" y="108.57" width="3.15" height="18.36"/><ellipse class="cls-2" cx="164.24" cy="3.09" rx="43.12" ry="2.95"/><ellipse class="cls-2" cx="78.01" cy="3.09" rx="43.12" ry="2.95"/><rect class="cls-1" x="119.6" y="4.65" width="3.05" height="7.94"/><path class="cls-3" d="M104.6,22A11.78,11.78,0,0,0,116.39,33.8h8.21A11.78,11.78,0,0,0,136.39,22h0A11.79,11.79,0,0,0,124.6,10.23h-8.21A11.79,11.79,0,0,0,104.6,22Z"/><path class="cls-4" d="M.29,31.05C1.71,24.88,7.87,23.7,14,25.12L79.69,37.53a50.48,50.48,0,1,1-4.59,47.34h0c-9-22.16-35.39-35-49.81-39l-9.7-2.23h0L8.91,42.13C2.73,40.71-1.12,37.23.29,31.05Z"/><path class="cls-5" d="M121.13,70.5V15h.61a50.51,50.51,0,0,1,48.31,65.17H130.15C121.5,80.17,121.13,75.57,121.13,70.5Z"/><ellipse class="cls-2" cx="8.52" cy="16.22" rx="3.06" ry="16.22"/><ellipse class="cls-2" cx="8.52" cy="48.65" rx="3.06" ry="16.22"/><circle class="cls-6" cx="8.52" cy="32.44" r="4.59"/><path class="cls-6" d="M130.15,83.65h39.91a2.95,2.95,0,1,0,0-5.89H130.15c-6.07,0-6.07-2.11-6.07-6.72V15.54a2.95,2.95,0,0,0-5.89,0V71C118.18,75.45,118.18,83.65,130.15,83.65Z"/><circle class="cls-7" cx="121.13" cy="3.09" r="2.95"/><path class="cls-3" d="M57.28,125.43h116a8,8,0,0,0,7.1-8,2.41,2.41,0,1,1,4.82,0,12.87,12.87,0,0,1-12.86,12.86l-115.08-.59a2.14,2.14,0,0,1,0-4.29Z"/></g></g></svg>