<svg xmlns="http://www.w3.org/2000/svg" viewBox="0 0 42.14 46"><defs><style>.cls-1{fill:#b2c53a;}.cls-2{fill:#804c22;}.cls-3{fill:#d35d3c;}.cls-4{opacity:0.7;}.cls-5{fill:#fff;}</style></defs><title>資產 11</title><g id="圖層_2" data-name="圖層 2"><g id="圖層_1-2" data-name="圖層 1"><g id="_群組_" data-name="&lt;群組&gt;"><path class="cls-1" d="M28.31,1.13A13.09,13.09,0,0,0,21.07,8.6a13.27,13.27,0,0,0,10.45-.11A13.15,13.15,0,0,0,38.76,1,13.23,13.23,0,0,0,28.31,1.13Z"/><path id="_路徑_" data-name="&lt;路徑&gt;" class="cls-2" d="M21,15.67A67.12,67.12,0,0,1,21.9,1.79l-2.59-.35a69.46,69.46,0,0,0,0,14.63"/><path class="cls-3" d="M41.84,24.17C40,13,29.51,6.29,19.81,13.4,9,8.07-.15,16.52,0,27.8.16,39.88,9.63,49.17,18.8,45a13.85,13.85,0,0,1,3.67-1.22h0a14.44,14.44,0,0,1,3.82.57C36.1,46.88,43.8,36.1,41.84,24.17Z"/><g class="cls-4"><path class="cls-5" d="M9,19.7a2.29,2.29,0,1,0,2.51,2.08A2.32,2.32,0,0,0,9,19.7Z"/></g></g></g></g></svg>