<svg xmlns="http://www.w3.org/2000/svg" xmlns:xlink="http://www.w3.org/1999/xlink" viewBox="0 0 951.57 412"><defs><style>.cls-1{isolation:isolate;}.cls-2{fill:#f2d7b8;}.cls-3{fill:#ffe2c5;}.cls-4{fill:#fcb16d;}.cls-5{fill:#97634e;opacity:0.8;}.cls-12,.cls-28,.cls-5{mix-blend-mode:multiply;}.cls-6{opacity:0.3;}.cls-7,.cls-8{fill:#e08767;}.cls-10,.cls-11,.cls-15,.cls-37,.cls-7,.cls-9{fill-rule:evenodd;}.cls-9{fill:url(#radial-gradient);}.cls-10{opacity:0.5;mix-blend-mode:overlay;fill:url(#radial-gradient-2);}.cls-11{fill:#6d3030;}.cls-13{fill:#fcd290;}.cls-14{fill:#d18159;}.cls-15{fill:#7a5e48;opacity:0.4;}.cls-16{fill:#f99c73;}.cls-17{fill:#94c85b;}.cls-18{fill:#84af4b;}.cls-19{fill:#695020;}.cls-20{fill:#f4eeed;}.cls-21{fill:#e0d7d5;}.cls-22{fill:#fff;}.cls-23{fill:#cec3c2;}.cls-24{fill:#4f3e35;}.cls-25{fill:#775a4d;}.cls-26{fill:#3d2b23;}.cls-27{fill:#656e79;}.cls-28{opacity:0.1;}.cls-29{fill:#535f6f;}.cls-30{fill:#444f5c;}.cls-31{fill:#d4f2f9;}.cls-32{fill:#e8f6f9;}.cls-33{fill:#b2c53a;}.cls-34{fill:#804c22;}.cls-35{fill:#d35d3c;}.cls-36{opacity:0.7;}.cls-37{fill:url(#radial-gradient-3);}</style><radialGradient id="radial-gradient" cx="1177.68" cy="751.42" r="289.93" gradientTransform="translate(71.9 -16.67) scale(0.38 0.39)" gradientUnits="userSpaceOnUse"><stop offset="0.01" stop-color="#d1461e"/><stop offset="0.45" stop-color="#b52424"/><stop offset="0.57" stop-color="#aa2626"/><stop offset="0.78" stop-color="#8d2b2b"/><stop offset="0.97" stop-color="#6d3030"/></radialGradient><radialGradient id="radial-gradient-2" cx="1020.31" cy="627.19" r="76.46" gradientTransform="translate(71.9 -16.67) scale(0.38 0.39)" gradientUnits="userSpaceOnUse"><stop offset="0.01" stop-color="#ffcf0e"/><stop offset="0.57" stop-color="#faae17"/><stop offset="1" stop-color="#f6921e"/></radialGradient><radialGradient id="radial-gradient-3" cx="-3878.41" cy="11125.66" r="290.5" gradientTransform="matrix(0.14, -0.15, 0.13, 0.13, -462.46, -1737.89)" gradientUnits="userSpaceOnUse"><stop offset="0.01" stop-color="#ffcf0e"/><stop offset="0.25" stop-color="#fbb515"/><stop offset="0.54" stop-color="#f79b1c"/><stop offset="0.71" stop-color="#f6921e"/></radialGradient></defs><title>資產 10</title><g class="cls-1"><g id="圖層_2" data-name="圖層 2"><g id="圖層_1-2" data-name="圖層 1"><rect class="cls-2" x="407.23" y="155.93" width="160.44" height="208.16"/><rect class="cls-3" x="567.67" y="155.93" width="23.51" height="208.16"/><path class="cls-4" d="M451.49,189.38a1.65,1.65,0,0,1,1.21,1l4.53,9a1.62,1.62,0,0,1-.65,2.12l-6.82,4.15a1.64,1.64,0,0,1-.95.29,1.76,1.76,0,0,1-1.32-.58l-6.11-7.18a1.39,1.39,0,0,1-.15-1.9c.46-.4,1.39-1.16,2-1.68,0,0,1.24-1,2.71-2l1.09-.74,1.08-.67c.7-.43,1.35-.85,1.93-1.15l1.15-.63a.43.43,0,0,1,.25-.07Zm0-1.94a2.43,2.43,0,0,0-1.16.29l-1.13.62c-.47.25-.93.53-1.42.84l-.6.37-1.1.68h0l0,0-.78.53-.33.22c-1.51,1-2.77,2-2.82,2-.68.54-1.63,1.31-2.11,1.72a2.87,2.87,0,0,0-1,2,3.7,3.7,0,0,0,.92,2.68l6.11,7.18a3.62,3.62,0,0,0,2.76,1.26,3.51,3.51,0,0,0,2-.59l6.75-4.11a3.58,3.58,0,0,0,1.4-4.7l-4.53-9a3.44,3.44,0,0,0-2.91-2.08Z"/><path class="cls-4" d="M486.73,180.38l1,0h.48l1.5,0c.84,0,2.21.09,3,.15l.92.05a1.55,1.55,0,0,1,1.42,1.66l-1,14.43c-.06.83-.51,1.49-1,1.49h0c-.52,0-1.63-.1-2.47-.14,0,0-2.06-.1-3.88-.1s-3.89.1-3.89.1c-.84,0-1.95.1-2.47.14h0c-.51,0-1-.66-1-1.49l-1-14.43a1.55,1.55,0,0,1,1.42-1.66l.89-.05c.84-.06,2.22-.12,3.06-.15l1.52,0h.48l1,0Zm0-1.94-1.07,0h-.47l-1.55,0c-.86,0-2.26.1-3.12.15l-.89.06a3.39,3.39,0,0,0-2.37,1.19,3.54,3.54,0,0,0-.84,2.54l1,14.43c.13,1.88,1.39,3.3,2.93,3.3h.16l2.44-.14s2-.09,3.8-.09,3.77.09,3.79.09l2.44.14h.16c1.54,0,2.8-1.42,2.93-3.3l1-14.43a3.54,3.54,0,0,0-.84-2.54,3.39,3.39,0,0,0-2.37-1.19l-.92-.06c-.86-.05-2.25-.12-3.11-.15l-1.53,0h-.48l-1,0Z"/><path class="cls-4" d="M472.15,183.36c.12,0,.32.67.46,1.5l1.82,11.36a1.62,1.62,0,0,1-1.26,1.83l-8.48,2a1.54,1.54,0,0,1-.43.06,1.69,1.69,0,0,1-1.56-1.1l-3.76-10.6c-.29-.8-.43-1.5-.31-1.54l.38-.14c.37-.13.91-.34,1.56-.55,1.3-.39,3-1,4.79-1.4.87-.21,1.75-.47,2.57-.63l2.24-.46c.66-.14,1.2-.24,1.59-.3l.38-.06Zm0-2H472l-.15,0-.37.06c-.39.05-.92.15-1.7.31l-.25.05-2,.41c-.59.12-1.19.28-1.78.43l-.86.22c-1.35.32-2.66.73-3.81,1.09-.38.12-.74.24-1.07.33h0c-.48.16-.9.31-1.24.44l-.37.13h0l-.37.14a2,2,0,0,0-1.12,1c-.22.48-.39,1.14.27,3l3.76,10.59a3.59,3.59,0,0,0,3.36,2.38,3.37,3.37,0,0,0,.9-.12l8.42-2a3.57,3.57,0,0,0,2.73-4l-1.82-11.35c-.16-1-.5-3.14-2.34-3.14Z"/><path class="cls-4" d="M521.27,188.09a1.46,1.46,0,0,1,.72.19l.93.51c.74.41,1.76,1,2.25,1.26l.5.31.19.12c.23.13.67.41,1,.6s.95.61,1.1.71l.42.29,1.41,1,1.49,1.07c.67.52,1.24,1,1.27,1s.6.5,1.24,1l.85.72a1.55,1.55,0,0,1,.17,2.17l-8.57,10.06a1.9,1.9,0,0,1-1.32.74.59.59,0,0,1-.39-.12c-.39-.3-1.29-1-2-1.43l-6.46-3.94c-.74-.4-1.76-.92-2.25-1.16s-.59-1.05-.21-1.81l6.33-12.54a1.51,1.51,0,0,1,1.33-.83Zm0-1.94a3.39,3.39,0,0,0-3,1.88l-6.33,12.54a3.77,3.77,0,0,0-.28,2.88A2.66,2.66,0,0,0,513,205c.46.21,1.42.7,2.12,1.08L521.5,210c.65.46,1.49,1.06,1.85,1.34a2.52,2.52,0,0,0,1.55.52,3.8,3.8,0,0,0,2.77-1.41l8.57-10.06a3.55,3.55,0,0,0,.82-2.56,3.5,3.5,0,0,0-1.21-2.39l-.85-.72-1.29-1.09-1.28-1,0,0,0,0-1.49-1.07-1.44-1-.42-.29c-.19-.13-.86-.57-1.17-.76l-1-.61-.19-.12-.49-.3,0,0,0,0-2.28-1.27-.94-.52a3.36,3.36,0,0,0-1.62-.41Z"/><path class="cls-4" d="M501.14,184.68h0l.36,0c.35.05.87.15,1.48.28l2.09.43c.77.15,1.58.39,2.4.59,1.63.38,3.25.94,4.46,1.3.61.2,1.11.4,1.46.52l.35.13c.11,0,0,.73-.32,1.54L510,199.2a1.69,1.69,0,0,1-1.56,1.1,1.54,1.54,0,0,1-.43-.06l-7.71-1.84a1.63,1.63,0,0,1-1.26-1.84l1.67-10.38c.13-.83.33-1.5.45-1.5Zm0-2c-1.83,0-2.16,2-2.34,3.14l-1.66,10.38a3.57,3.57,0,0,0,2.73,4.05l7.65,1.83a3.37,3.37,0,0,0,.9.12,3.58,3.58,0,0,0,3.36-2.39l3.44-9.68c.6-1.69.55-2.41.28-3a2,2,0,0,0-1.11-1L514,186h0l-.36-.13c-.31-.12-.7-.26-1.14-.4h0l-1-.31c-1.08-.34-2.3-.73-3.58-1l-.78-.2c-.55-.14-1.12-.29-1.68-.4l-1.22-.25-.86-.18c-.72-.15-1.21-.24-1.59-.29l-.33-.06-.15,0Z"/><path class="cls-4" d="M538.37,203.35h0l.24.31,1,1.29c.83,1.08,1.89,2.57,2.86,4.12.49.76.93,1.57,1.37,2.31s.78,1.48,1.11,2.09.54,1.16.72,1.52l.17.37c.05.12-.53.5-1.3.85l-7.22,3.34a1.69,1.69,0,0,1-.7.15,1.84,1.84,0,0,1-1.53-.81l-5-6.67a1.57,1.57,0,0,1,.17-2.19l6.78-5.85a3.79,3.79,0,0,1,1.27-.84Zm0-1.95c-.35,0-1,0-2.51,1.31l-6.78,5.85a3.55,3.55,0,0,0-.43,4.89l4.94,6.59a3.76,3.76,0,0,0,3.09,1.61,3.63,3.63,0,0,0,1.49-.32l7.22-3.33c1.6-.74,2.08-1.3,2.3-1.92a2,2,0,0,0-.06-1.53l-.17-.37v0c-.06-.1-.11-.23-.18-.36-.15-.33-.34-.75-.58-1.21l-.29-.56c-.25-.48-.53-1-.84-1.58v0l-.4-.68c-.31-.55-.64-1.12-1-1.69-1.16-1.86-2.35-3.46-3-4.25h0v0l-1-1.29-.24-.31h0l0,0a1.94,1.94,0,0,0-1.5-.71Z"/><path class="cls-4" d="M433.59,200.72a1.91,1.91,0,0,1,1.19.51l9.82,8.47c.64.55.84,1.34.44,1.75s-1.17,1.28-1.72,1.92l-4.69,6.28c-.47.72-1,1.65-1.28,2.07a.9.9,0,0,1-.83.36,2.49,2.49,0,0,1-1-.23L425,217a1.45,1.45,0,0,1-.84-1.83c.29-.65.59-1.3.66-1.44l.06-.14c.16-.33.34-.74.58-1.2l.3-.56.24-.48.61-1.13.27-.46.13-.23c.32-.56.65-1.14,1-1.71,1.14-1.83,2-3,2-3,.51-.68,1.16-1.53,1.45-1.89s.81-1,.85-1.08L433,201a.74.74,0,0,1,.6-.25Zm0-1.94a2.6,2.6,0,0,0-2.06.94l-.42.52-.28.33-.87,1.11c-.3.37-1,1.24-1.48,1.94,0,0-.93,1.24-2.09,3.11-.4.61-.74,1.2-1.07,1.78l-.14.23-.26.46s0,0-.64,1.18h0v0l-.25.48,0,.07-.25.48c-.27.52-.48,1-.63,1.3l-.06.14-.67,1.44a3.16,3.16,0,0,0-.08,2.4,3.6,3.6,0,0,0,1.87,2l10.58,4.88a4.35,4.35,0,0,0,1.78.4,2.73,2.73,0,0,0,2.49-1.33c.21-.38.75-1.24,1.18-1.91l4.61-6.18c.52-.61,1.25-1.41,1.6-1.78a2.7,2.7,0,0,0,.75-2,3.65,3.65,0,0,0-1.32-2.57L436,199.74a3.75,3.75,0,0,0-2.42-1Z"/><path class="cls-4" d="M546.4,221.55h0l0,.13c0,.14.08.35.13.61l.14.69c.16.84.4,2.22.53,3.07l.34,4.06c.07.85.12,1.76.13,2s0,.68,0,.93v5.25c0,.5-.69.91-1.53.91h-8.38a1.39,1.39,0,0,1-1.53-1.18v-.61c0-3.82-2-11.43-2-11.43a1.5,1.5,0,0,1,1.09-1.86l9.55-2.32a11.74,11.74,0,0,1,1.47-.29Zm0-2a8.24,8.24,0,0,0-1.92.35l-9.55,2.31a3.38,3.38,0,0,0-2.13,1.6,3.51,3.51,0,0,0-.36,2.67c0,.07,2,7.41,2,10.92v.61a3.3,3.3,0,0,0,3.44,3.13h8.38c2,0,3.44-1.23,3.44-2.86v-5.25c0-.26,0-.7,0-1s-.07-1.36-.13-2.14l-.35-4.08v-.13c-.13-.87-.38-2.28-.55-3.15l-.13-.69c-.05-.27-.11-.49-.14-.63l0-.06,0-.15a1.94,1.94,0,0,0-1.89-1.48Z"/><path class="cls-4" d="M548.24,243.17a1.55,1.55,0,0,1,1.53,1.56v12.4a1.55,1.55,0,0,1-1.53,1.56h-9.9a1.55,1.55,0,0,1-1.53-1.56v-12.4a1.55,1.55,0,0,1,1.53-1.56Zm0-1.94h-9.9a3.47,3.47,0,0,0-3.44,3.5v12.4a3.48,3.48,0,0,0,3.44,3.51h9.9a3.48,3.48,0,0,0,3.44-3.51v-12.4a3.47,3.47,0,0,0-3.44-3.5Z"/><path class="cls-4" d="M425.63,224.3a12.83,12.83,0,0,1,1.48.3l7,1.7a1.51,1.51,0,0,1,1.08,1.86l-1.39,7.25c-.07.86-.14,1.87-.14,2.27s-.69.71-1.53.71h-6.08c-.84,0-1.53-.33-1.53-.73v-4.18c0-.2,0-.53,0-.74s.06-1.08.13-1.94l.2-2.6c.13-.85.35-2.14.5-2.88l.08-.42c0-.22.08-.38.11-.49l0-.11Zm0-2a1.93,1.93,0,0,0-1.88,1.49l0,.1v0c0,.12-.08.31-.13.56l-.08.41c-.15.76-.38,2.09-.51,3v.15l-.2,2.6c0,.65-.12,1.72-.13,2s0,.57,0,.78v4.18c0,1.55,1.45,2.67,3.44,2.67h6.08c2,0,3.44-1.11,3.44-2.65,0-.29.06-1.18.13-2l1.36-7.1a3.5,3.5,0,0,0-.38-2.59,3.36,3.36,0,0,0-2.13-1.59l-7-1.7a8.48,8.48,0,0,0-1.92-.36Z"/><path class="cls-4" d="M431.61,245.33a1.56,1.56,0,0,1,1.53,1.56v8.51a1.55,1.55,0,0,1-1.53,1.56h-6.08A1.54,1.54,0,0,1,424,255.4v-8.51a1.55,1.55,0,0,1,1.52-1.56Zm0-1.94h-6.08a3.48,3.48,0,0,0-3.44,3.5v8.51a3.48,3.48,0,0,0,3.44,3.5h6.08a3.47,3.47,0,0,0,3.44-3.5v-8.51a3.47,3.47,0,0,0-3.44-3.5Z"/><polygon class="cls-5" points="544.21 280.9 553.13 269.91 454.45 267.93 456.14 260.26 451.67 259.23 449.76 267.84 419.83 267.24 415.17 283 544.21 280.9"/><g class="cls-6"><path class="cls-2" d="M543.88,266.5H425.26V231.34c0-3.62,0-16.56,8.21-26.73,9.46-11.71,26.13-18.94,49.54-19.2,1,0,2.1,0,3.16,0,23.37.26,40,7.49,49.49,19.2a38.29,38.29,0,0,1,8.22,24.78ZM440.55,250.93h88V231.34c0-2.47,0-9-4.74-14.89-6.36-7.88-19.46-12.15-37.89-12.35-1,0-1.85,0-2.75,0-18.46.2-31.56,4.47-37.93,12.35-4.73,5.85-4.73,12.42-4.73,14.89Z"/></g><path class="cls-7" d="M447.82,207.11a2.84,2.84,0,0,1-2.18-1l-6.12-7.18a3,3,0,0,1-.74-2.11,2.1,2.1,0,0,1,.72-1.45c.47-.4,1.41-1.17,2.09-1.7.05-.05,1.29-1,2.78-2l.33-.23.76-.52,1.11-.69.62-.38c.48-.3.94-.58,1.38-.81l1.13-.62a1.55,1.55,0,0,1,.79-.2,2.69,2.69,0,0,1,2.24,1.66l4.53,9a2.78,2.78,0,0,1-1.11,3.66l-6.77,4.13a2.78,2.78,0,0,1-1.56.47Z"/><path class="cls-8" d="M450.49,189.38a1.66,1.66,0,0,1,1.22,1l4.53,9a1.62,1.62,0,0,1-.65,2.12l-6.82,4.15a1.66,1.66,0,0,1-.95.29,1.74,1.74,0,0,1-1.32-.58l-6.11-7.18a1.4,1.4,0,0,1-.16-1.9c.47-.4,1.4-1.16,2.06-1.68,0,0,1.24-1,2.71-2,.36-.25.72-.5,1.09-.74l1.08-.67c.7-.43,1.35-.85,1.92-1.15l1.15-.63a.45.45,0,0,1,.25-.07Zm0-2.33a2.8,2.8,0,0,0-1.33.34L448,188c-.47.25-.94.54-1.43.85l-.6.36-1.1.69h0l0,0-.79.53-.32.23c-1.53,1-2.79,2-2.85,2.05-.68.55-1.63,1.32-2.12,1.73a3.28,3.28,0,0,0-1.12,2.25,4.2,4.2,0,0,0,1,3l6.12,7.18a4,4,0,0,0,3.05,1.39,4,4,0,0,0,2.17-.65l6.74-4.11a4,4,0,0,0,1.55-5.21l-4.53-9a3.82,3.82,0,0,0-3.26-2.29Z"/><path class="cls-7" d="M492,199.2c-.52,0-1.63-.1-2.46-.14,0,0-2.06-.1-3.84-.1s-3.81.1-3.83.1c-.84,0-1.95.1-2.47.14h-.1c-1,0-1.87-1-2-2.4l-1-14.43a2.55,2.55,0,0,1,.61-1.83,2.47,2.47,0,0,1,1.71-.86l.89-.05c.85-.06,2.23-.13,3.08-.16l1.54,0,1.52,0,1.52,0,1.51,0c.85,0,2.24.1,3.09.15l.92.06a2.45,2.45,0,0,1,1.7.86,2.5,2.5,0,0,1,.61,1.83l-1,14.43c-.09,1.37-.94,2.4-2,2.4Z"/><path class="cls-8" d="M485.73,180.38l1,0h.47l1.5,0c.84,0,2.22.09,3.06.15l.92.05a1.55,1.55,0,0,1,1.42,1.66l-1,14.43c-.06.83-.51,1.49-1,1.49h0c-.52,0-1.64-.1-2.48-.14,0,0-2.05-.1-3.88-.1s-3.88.1-3.88.1c-.84,0-2,.1-2.48.14h0c-.5,0-1-.66-1-1.49l-1-14.43a1.55,1.55,0,0,1,1.42-1.66l.89-.05c.84-.06,2.22-.12,3.06-.15l1.52,0h.48l1,0Zm0-1.94-1.06,0h-.47l-1.56,0c-.86,0-2.25.1-3.11.15l-.89.06a3.39,3.39,0,0,0-2.37,1.19,3.46,3.46,0,0,0-.84,2.54l1,14.43c.13,1.88,1.39,3.3,2.92,3.3h.17l2.44-.14s2-.09,3.79-.09,3.77.09,3.79.09l2.45.14h.16c1.54,0,2.79-1.42,2.92-3.3l1-14.43a3.51,3.51,0,0,0-.85-2.54,3.35,3.35,0,0,0-2.36-1.19l-.92-.06c-.86-.05-2.26-.12-3.11-.15l-1.53,0h-.48l-1.06,0Z"/><path class="cls-7" d="M463.27,201.3a2.81,2.81,0,0,1-2.64-1.87l-3.77-10.59c-.61-1.72-.4-2.17-.29-2.41l.21-.44.47-.19.38-.14.4-.14c.34-.13.75-.28,1.21-.42l1.09-.34c1.14-.36,2.44-.77,3.78-1.09l.85-.21c.58-.16,1.18-.31,1.75-.43l2.24-.46c.77-.16,1.28-.25,1.66-.3l.45-.08h.09c1.1,0,1.39,1.23,1.59,2.49L474.56,196a2.78,2.78,0,0,1-2.14,3.16l-8.44,2a2.82,2.82,0,0,1-.71.09Z"/><path class="cls-8" d="M471.15,183.36c.12,0,.33.67.46,1.5l1.82,11.36a1.61,1.61,0,0,1-1.25,1.83l-8.48,2a1.59,1.59,0,0,1-.43.06,1.68,1.68,0,0,1-1.56-1.1l-3.77-10.6c-.28-.8-.42-1.5-.3-1.54l.37-.14c.38-.13.92-.34,1.57-.55,1.3-.39,3-1,4.78-1.4.88-.21,1.75-.47,2.57-.63l2.25-.46c.65-.14,1.2-.24,1.58-.3l.39-.06Zm0-2.33H471l-.18,0-.37.06c-.4.06-.93.16-1.72.32l-.28.06-1.95.4c-.59.12-1.21.28-1.8.43l-.85.22c-1.36.32-2.68.74-3.84,1.1l-1.06.33h0c-.49.16-.91.31-1.25.44l-.37.14h0l-.37.14a2.36,2.36,0,0,0-1.33,1.23c-.32.68-.4,1.5.25,3.31l3.76,10.59a4,4,0,0,0,3.72,2.64,3.64,3.64,0,0,0,1-.13l8.41-2a4,4,0,0,0,3-4.49l-1.82-11.35c-.17-1-.56-3.46-2.73-3.46Z"/><path class="cls-7" d="M523.91,210.9a1.55,1.55,0,0,1-1-.33c-.37-.28-1.24-.91-1.91-1.38l-6.41-3.91c-.73-.4-1.71-.9-2.19-1.12a1.74,1.74,0,0,1-.88-1,2.79,2.79,0,0,1,.23-2.11l6.33-12.54a2.43,2.43,0,0,1,2.18-1.36,2.4,2.4,0,0,1,1.17.3l.93.51c.75.41,1.77,1,2.27,1.27l1.69,1.05c.33.2,1,.62,1.14.73l.43.3,1.42,1,1.49,1.06,1.31,1,1.26,1.07.85.72a2.54,2.54,0,0,1,.28,3.56L526,209.82a2.83,2.83,0,0,1-2,1.08Z"/><path class="cls-8" d="M520.28,188.09a1.4,1.4,0,0,1,.71.19l.94.51c.74.41,1.75,1,2.25,1.26l.5.31.19.12,1,.6c.31.19.95.61,1.09.71l.43.29,1.41,1,1.49,1.07,1.27,1s.59.5,1.24,1l.85.72a1.55,1.55,0,0,1,.17,2.17l-8.57,10.06a1.9,1.9,0,0,1-1.32.74.61.61,0,0,1-.4-.12c-.39-.3-1.28-1-2-1.43l-6.46-3.94c-.75-.4-1.76-.92-2.26-1.16s-.59-1.05-.2-1.81L519,188.92a1.5,1.5,0,0,1,1.33-.83Zm0-1.94a3.38,3.38,0,0,0-3,1.88l-6.33,12.54a3.77,3.77,0,0,0-.28,2.88A2.66,2.66,0,0,0,512,205c.45.21,1.41.71,2.12,1.08l6.37,3.89c.65.46,1.49,1.06,1.84,1.34a2.53,2.53,0,0,0,1.56.52,3.76,3.76,0,0,0,2.76-1.41l8.57-10.06a3.51,3.51,0,0,0-.39-5l-.84-.72-1.29-1.09-1.28-1,0,0,0,0-1.49-1.07-1.44-1-.43-.29c-.19-.13-.85-.57-1.17-.76l-1-.61-.19-.12-.49-.3,0,0,0,0-2.28-1.27-.94-.52a3.42,3.42,0,0,0-1.62-.41Z"/><path class="cls-7" d="M507.42,201.47a2.83,2.83,0,0,1-.71-.1L499,199.54a2.8,2.8,0,0,1-2.14-3.17L498.56,186c.21-1.31.49-2.48,1.58-2.48h.09l.45.07c.33,0,.82.14,1.54.29l2.09.43c.53.1,1.08.25,1.62.39l.81.2c1.24.3,2.45.68,3.52,1l1,.31,1.14.4.37.14.37.13c.47.17,1,.63.72,1.82a10.74,10.74,0,0,1-.35,1.21l-3.44,9.69a2.82,2.82,0,0,1-2.65,1.87Z"/><path class="cls-8" d="M500.14,184.68h0l.35,0c.36.05.87.15,1.49.28l2.09.43c.76.15,1.58.39,2.39.59,1.64.38,3.25.94,4.47,1.3.61.2,1.11.4,1.46.52l.35.13c.11,0,0,.73-.32,1.54L509,199.2a1.69,1.69,0,0,1-1.57,1.1,1.52,1.52,0,0,1-.42-.06l-7.71-1.84a1.63,1.63,0,0,1-1.26-1.84l1.67-10.38a3.29,3.29,0,0,1,.44-1.5Zm0-2.34c-2.15,0-2.53,2.34-2.71,3.46l-1.66,10.39a4,4,0,0,0,3,4.49l7.64,1.82a3.69,3.69,0,0,0,1,.13,4,4,0,0,0,3.72-2.64l3.45-9.68c.64-1.82.58-2.61.26-3.3a2.37,2.37,0,0,0-1.32-1.23l-.36-.13h0l-.35-.13c-.32-.11-.71-.26-1.16-.4h0l-1-.3c-1.08-.35-2.31-.73-3.6-1l-.77-.19c-.56-.15-1.13-.3-1.7-.41l-1.22-.25-.86-.18c-.72-.15-1.22-.24-1.6-.3l-.34,0-.17,0Z"/><path class="cls-7" d="M535.69,220.87a3,3,0,0,1-2.47-1.29l-5-6.62a2.75,2.75,0,0,1-.61-2,2.71,2.71,0,0,1,.94-1.86l6.77-5.85c1.31-1.12,1.78-1.12,2-1.12h.54l.39.43,1.27,1.62c.61.8,1.78,2.38,2.93,4.22.35.54.68,1.11,1,1.65l.4.69c.32.57.6,1.11.85,1.59l.28.55c.24.45.42.86.57,1.18.07.14.12.27.18.38l.38.83-.17.49c-.09.26-.26.72-1.9,1.48l-7.22,3.33a2.77,2.77,0,0,1-1.17.25Z"/><path class="cls-8" d="M537.37,203.35h0l.24.31,1,1.29c.82,1.08,1.88,2.57,2.85,4.12.5.76.94,1.57,1.38,2.31s.78,1.48,1.1,2.09.55,1.16.73,1.52l.17.37c.05.12-.53.5-1.3.85l-7.23,3.34a1.65,1.65,0,0,1-.69.15,1.86,1.86,0,0,1-1.54-.81l-5-6.67a1.57,1.57,0,0,1,.18-2.19l6.77-5.85a4,4,0,0,1,1.27-.84Zm0-2.34c-.58,0-1.32.17-2.75,1.4l-6.78,5.85a3.85,3.85,0,0,0-1.33,2.65,3.9,3.9,0,0,0,.85,2.78l4.93,6.57a4.14,4.14,0,0,0,3.4,1.78,4,4,0,0,0,1.64-.35l7.23-3.34c1.72-.79,2.24-1.42,2.5-2.13a2.4,2.4,0,0,0-.08-1.84l-.17-.37v0h0l-.17-.36c-.15-.34-.34-.76-.59-1.23l-.29-.55c-.25-.49-.53-1-.85-1.61v0l0,0-.39-.68c-.32-.55-.65-1.13-1-1.7-1.17-1.87-2.36-3.48-3-4.28v0h0l-.56-.71-.46-.58-.25-.32h0v0a2.35,2.35,0,0,0-1.81-.85Z"/><path class="cls-7" d="M435.53,223.05a3.32,3.32,0,0,1-1.39-.32l-10.57-4.88a2.6,2.6,0,0,1-1.38-1.46,2.17,2.17,0,0,1,.06-1.66l.72-1.58c.15-.32.35-.76.61-1.25l.53-1c.35-.64.63-1.16.64-1.16l.4-.69c.32-.58.66-1.16,1.05-1.76,1.14-1.83,2-3,2.05-3.05.51-.68,1.16-1.54,1.46-1.91l.86-1.1.7-.84a1.66,1.66,0,0,1,1.33-.6,2.86,2.86,0,0,1,1.8.73l9.82,8.47a2.7,2.7,0,0,1,1,1.87,1.75,1.75,0,0,1-.48,1.31c-.38.39-1.13,1.24-1.66,1.86l-4.65,6.23c-.45.68-1,1.59-1.23,2a1.81,1.81,0,0,1-1.66.85Z"/><path class="cls-8" d="M432.6,200.72a1.89,1.89,0,0,1,1.18.51l9.82,8.47c.65.55.85,1.34.45,1.75s-1.17,1.28-1.72,1.92l-4.69,6.28c-.47.72-1,1.65-1.28,2.07a.9.9,0,0,1-.83.36,2.54,2.54,0,0,1-1-.23L424,217a1.44,1.44,0,0,1-.85-1.83c.3-.65.6-1.3.67-1.44l.06-.14c.15-.33.34-.74.58-1.2l.29-.56.25-.48.61-1.13.27-.46.13-.23c.32-.56.65-1.14,1-1.71,1.14-1.83,2-3,2-3,.51-.68,1.16-1.53,1.44-1.89l.86-1.08L432,201a.74.74,0,0,1,.6-.25Zm0-1.94a2.62,2.62,0,0,0-2.07.94l-.44.55-.25.3-.88,1.11c-.3.37-1,1.25-1.47,1.94,0,0-.93,1.24-2.1,3.11-.4.61-.74,1.2-1.07,1.78l-.13.23-.27.46-.63,1.18h0v0l-.25.48-.28.55c-.27.52-.48,1-.63,1.3l-.06.14c-.06.12-.37.78-.67,1.44a3.14,3.14,0,0,0-.08,2.41,3.58,3.58,0,0,0,1.87,2l10.58,4.88a4.35,4.35,0,0,0,1.78.4,2.74,2.74,0,0,0,2.49-1.33c.21-.38.74-1.24,1.18-1.91l4.61-6.18c.52-.6,1.24-1.41,1.6-1.78a2.72,2.72,0,0,0,.75-2,3.65,3.65,0,0,0-1.32-2.57L435,199.74a3.75,3.75,0,0,0-2.42-1Z"/><path class="cls-7" d="M536.85,240.22a2.35,2.35,0,0,1-2.49-2.16v-.61c0-3.64-2-11.1-2-11.17a2.52,2.52,0,0,1,.26-1.92,2.44,2.44,0,0,1,1.53-1.15l9.55-2.32a11.84,11.84,0,0,1,1.69-.32h.75l.22.75,0,.2c0,.15.08.35.13.6l.13.68c.17.86.41,2.25.54,3.11V226l.34,4.06c.06.79.13,1.78.13,2.1s0,.7,0,1v5.25c0,1.08-1.07,1.89-2.48,1.89Z"/><path class="cls-8" d="M545.4,221.55h0l0,.13c0,.14.09.35.14.61l.13.69c.17.84.41,2.22.54,3.07l.34,4.06c.06.85.12,1.76.13,2s0,.68,0,.93v5.25c0,.5-.69.91-1.53.91h-8.38a1.39,1.39,0,0,1-1.53-1.18v-.61c0-3.82-2-11.43-2-11.43a1.52,1.52,0,0,1,1.09-1.86l9.55-2.32a12.49,12.49,0,0,1,1.47-.29Zm0-2a8.31,8.31,0,0,0-1.91.35l-9.55,2.31a3.38,3.38,0,0,0-2.13,1.6,3.46,3.46,0,0,0-.36,2.67c0,.07,1.95,7.41,1.95,10.92v.61a3.31,3.31,0,0,0,3.45,3.13h8.38c2,0,3.44-1.23,3.44-2.86v-5.25c0-.26,0-.7,0-1s-.08-1.36-.13-2.14l-.35-4.08v-.13c-.13-.87-.37-2.28-.54-3.15l-.14-.69c-.05-.27-.1-.49-.14-.63v-.06l0-.15a1.93,1.93,0,0,0-1.89-1.48Z"/><path class="cls-7" d="M537.35,259.27a2.13,2.13,0,0,1-2.11-2.14v-12.4a2.13,2.13,0,0,1,2.11-2.14h9.9a2.12,2.12,0,0,1,2.1,2.14v12.4a2.12,2.12,0,0,1-2.1,2.14Z"/><path class="cls-8" d="M547.25,243.17a1.55,1.55,0,0,1,1.53,1.56v12.4a1.55,1.55,0,0,1-1.53,1.56h-9.9a1.54,1.54,0,0,1-1.53-1.56v-12.4a1.54,1.54,0,0,1,1.53-1.56Zm0-1.16h-9.9a2.7,2.7,0,0,0-2.68,2.72v12.4a2.71,2.71,0,0,0,2.68,2.73h9.9a2.71,2.71,0,0,0,2.67-2.73v-12.4a2.7,2.7,0,0,0-2.67-2.72Z"/><path class="cls-7" d="M425.09,239.56c-1.58,0-2.68-.78-2.68-1.9v-4.18c0-.2,0-.55,0-.77s.07-1.23.13-2l.21-2.65v0c.13-.86.36-2.17.51-2.93l.08-.42a3.92,3.92,0,0,1,.12-.51l.24-1h.92a8.32,8.32,0,0,1,1.75.34l7,1.69a2.59,2.59,0,0,1,1.65,1.24,2.69,2.69,0,0,1,.29,2L434,235.58c-.08.88-.14,1.79-.14,2.1,0,1.1-1.1,1.88-2.67,1.88Z"/><path class="cls-8" d="M424.63,224.3a12,12,0,0,1,1.48.3l7,1.7a1.51,1.51,0,0,1,1.09,1.86l-1.39,7.25c-.08.86-.14,1.87-.14,2.27s-.69.71-1.53.71h-6.08c-.84,0-1.53-.33-1.53-.73v-4.18c0-.2,0-.53,0-.74s.06-1.08.12-1.94l.21-2.6c.12-.85.35-2.14.49-2.88l.09-.42c0-.22.08-.38.11-.49l0-.11Zm0-2.34a2.31,2.31,0,0,0-2.24,1.78l0,.11v0c0,.12-.08.33-.13.59l-.08.4c-.15.77-.38,2.11-.51,3V228l-.2,2.61c-.05.57-.13,1.72-.14,2.07v5c0,1.78,1.6,3.06,3.82,3.06h6.08c2.21,0,3.82-1.28,3.82-3,0-.24.05-1.08.13-1.93l1.35-7.07a3.86,3.86,0,0,0-.42-2.88,3.75,3.75,0,0,0-2.38-1.77l-7-1.7a8.47,8.47,0,0,0-2-.37Z"/><path class="cls-7" d="M424.54,258.12a2.7,2.7,0,0,1-2.67-2.72v-8.51a2.7,2.7,0,0,1,2.67-2.72h6.08a2.7,2.7,0,0,1,2.68,2.72v8.51a2.7,2.7,0,0,1-2.68,2.72Z"/><path class="cls-8" d="M430.62,245.33a1.56,1.56,0,0,1,1.53,1.56v8.51a1.55,1.55,0,0,1-1.53,1.56h-6.08A1.55,1.55,0,0,1,423,255.4v-8.51a1.56,1.56,0,0,1,1.53-1.56Zm0-2.33h-6.08a3.86,3.86,0,0,0-3.82,3.89v8.51a3.85,3.85,0,0,0,3.82,3.89h6.08a3.85,3.85,0,0,0,3.82-3.89v-8.51a3.86,3.86,0,0,0-3.82-3.89Z"/><path class="cls-9" d="M486,196.31h-3c-49.66.54-50.19,28.29-50.19,35v27.38H536.23V231.34C536.23,224.6,535.7,196.85,486,196.31Z"/><path class="cls-10" d="M489.74,196.36l-2.35-.05h-2.95c-49.66.54-50.19,28.29-50.19,35v27.38h7.64V231.34C441.89,224.71,442.41,197.74,489.74,196.36Z"/><path class="cls-11" d="M488.39,196.36l-2.35-.05h-3c-49.66.54-50.19,28.29-50.19,35v27.38h7.65V231.34C440.55,224.71,441.06,197.74,488.39,196.36Z"/><g class="cls-12"><path class="cls-13" d="M484.57,196.3H486c49.66.54,50.19,28.29,50.19,35v26.6H432.9v-26.6c0-6.74.53-34.49,50.19-35Zm0-2h-1.51c-21.63.24-36.83,5.59-45.16,15.91-6.91,8.55-6.91,18-6.91,21.07v28.55H538.14V231.34c0-3.1,0-12.52-6.9-21.07-8.34-10.32-23.53-15.67-45.17-15.91Z"/></g><rect class="cls-14" x="405.45" y="258.05" width="147.11" height="11.86"/><polygon class="cls-15" points="591.18 163.69 567.66 163.69 407.32 167.98 407.32 153 591.18 153 591.18 163.69"/><rect class="cls-14" x="398.52" y="150" width="192.66" height="11.86"/><rect class="cls-14" x="398.52" y="352.39" width="192.66" height="19.65"/><rect class="cls-16" x="532.87" y="258.05" width="20.07" height="11.86"/><rect class="cls-16" x="563.13" y="150" width="28.05" height="11.86"/><rect class="cls-16" x="563.13" y="352.39" width="28.05" height="19.65"/><rect class="cls-16" x="398" y="352.39" width="193.18" height="2.43"/><path class="cls-17" d="M210.34,91.74C206.21,24.26,128.6-17.09,67.55,6.85S-10,100.44,5.47,149.42s81.84,71.81,81.84,71.81H118.7C173,204.87,214.48,159.22,210.34,91.74Z"/><path class="cls-18" d="M210.34,91.74c-1.9-31-19.32-56.5-43.52-72.67h0c30.86,49.71,5,142.72-58.12,159.21-62.16,16.24-95.85-13.57-96.88-14.49C34,202.87,87.31,221.23,87.31,221.23H118.7C173,204.87,214.48,159.22,210.34,91.74Z"/><path class="cls-19" d="M141.88,142.08s-22.26,30-27.65,30.84-6.74-75.83-6.74-75.83-4,75.83-6.07,85.83-23.6-14.17-23.6-14.17,16.85,26.66,18.2,32.5-3.37,175-3.37,175h25.63s-2-164.14-2-179.14S141.88,142.08,141.88,142.08Z"/><g id="_群組_" data-name="&lt;群組&gt;"><rect id="_路徑_" data-name="&lt;路徑&gt;" class="cls-20" x="772" y="161.75" width="163.88" height="186.94"/><rect id="_矩形_" data-name="&lt;矩形&gt;" class="cls-21" x="891.71" y="153.11" width="44.16" height="195.57"/><rect id="_矩形_2" data-name="&lt;矩形&gt;" class="cls-22" x="772" y="153.11" width="44.16" height="195.57"/><rect id="_路徑_2" data-name="&lt;路徑&gt;" class="cls-23" x="897.49" y="207.04" width="9.36" height="3.22"/><rect id="_路徑_3" data-name="&lt;路徑&gt;" class="cls-23" x="902.17" y="210.91" width="9.36" height="3.22"/><polygon id="_路徑_4" data-name="&lt;路徑&gt;" class="cls-24" points="853.94 90 772 152.71 772 160.96 935.88 160.96 935.88 152.71 853.94 90"/><polygon id="_路徑_5" data-name="&lt;路徑&gt;" class="cls-25" points="772 160.96 817.16 160.96 817.16 152.31 853.94 90 772 152.71 772 160.96"/><polygon id="_路徑_6" data-name="&lt;路徑&gt;" class="cls-26" points="935.88 160.96 890.72 160.96 890.72 152.31 853.94 90 935.88 152.71 935.88 160.96"/><g id="_群組_2" data-name="&lt;群組&gt;"><polygon id="_路徑_7" data-name="&lt;路徑&gt;" class="cls-26" points="772.53 152.31 772 152.71 772 153.11 935.88 153.11 935.88 152.71 935.35 152.31 772.53 152.31"/><polygon id="_路徑_8" data-name="&lt;路徑&gt;" class="cls-26" points="924.78 144.22 783.1 144.22 782.04 145.02 925.83 145.02 924.78 144.22"/><polygon id="_路徑_9" data-name="&lt;路徑&gt;" class="cls-26" points="914.21 136.13 793.67 136.13 792.61 136.93 915.26 136.93 914.21 136.13"/><polygon id="_路徑_10" data-name="&lt;路徑&gt;" class="cls-26" points="903.63 128.03 804.24 128.03 803.19 128.84 904.69 128.84 903.63 128.03"/><polygon id="_路徑_11" data-name="&lt;路徑&gt;" class="cls-26" points="893.06 119.94 814.81 119.94 813.76 120.75 894.12 120.75 893.06 119.94"/><polygon id="_路徑_12" data-name="&lt;路徑&gt;" class="cls-26" points="882.49 111.85 825.38 111.85 824.33 112.66 883.55 112.66 882.49 111.85"/><polygon id="_路徑_13" data-name="&lt;路徑&gt;" class="cls-26" points="871.92 103.76 835.96 103.76 834.9 104.57 872.98 104.57 871.92 103.76"/><polygon id="_路徑_14" data-name="&lt;路徑&gt;" class="cls-26" points="861.35 95.67 846.53 95.67 845.47 96.48 862.41 96.48 861.35 95.67"/></g><rect id="_路徑_15" data-name="&lt;路徑&gt;" class="cls-27" x="772" y="160.02" width="163.88" height="3.46"/><path id="_路徑_16" data-name="&lt;路徑&gt;" class="cls-28" d="M865.17,137.7c0,5.11-4.52,9.26-10.09,9.26S845,142.81,845,137.7s4.52-9.26,10.1-9.26S865.17,132.58,865.17,137.7Z"/><ellipse id="_路徑_17" data-name="&lt;路徑&gt;" class="cls-29" cx="853.94" cy="136.53" rx="9.69" ry="8.89"/><rect id="_路徑_18" data-name="&lt;路徑&gt;" class="cls-22" x="844.97" y="176.68" width="17.59" height="21.89"/><rect id="_路徑_19" data-name="&lt;路徑&gt;" class="cls-30" x="847.3" y="179.99" width="12.92" height="15.28"/><rect id="_路徑_20" data-name="&lt;路徑&gt;" class="cls-22" x="844.97" y="213.03" width="17.59" height="21.89"/><rect id="_路徑_21" data-name="&lt;路徑&gt;" class="cls-30" x="847.3" y="216.34" width="12.92" height="15.28"/><rect id="_路徑_22" data-name="&lt;路徑&gt;" class="cls-23" x="907.03" y="253.2" width="9.36" height="3.22"/><rect id="_路徑_23" data-name="&lt;路徑&gt;" class="cls-23" x="792.6" y="325.06" width="9.36" height="3.22"/><rect id="_路徑_24" data-name="&lt;路徑&gt;" class="cls-23" x="822.29" y="222.36" width="9.36" height="3.22"/><rect id="_路徑_25" data-name="&lt;路徑&gt;" class="cls-23" x="873.9" y="279.57" width="9.36" height="3.22"/><rect id="_路徑_26" data-name="&lt;路徑&gt;" class="cls-23" x="863.62" y="279.57" width="9.36" height="3.22"/><rect id="_路徑_27" data-name="&lt;路徑&gt;" class="cls-23" x="779.79" y="243.9" width="9.36" height="3.22"/><rect id="_路徑_28" data-name="&lt;路徑&gt;" class="cls-23" x="921.53" y="337.65" width="9.36" height="3.22"/><rect id="_路徑_29" data-name="&lt;路徑&gt;" class="cls-23" x="911.26" y="337.65" width="9.36" height="3.22"/><rect id="_路徑_30" data-name="&lt;路徑&gt;" class="cls-23" x="772" y="316.09" width="8.15" height="3.22"/></g><path class="cls-22" d="M921,317.83a31.65,31.65,0,0,0-22,8.7,28.89,28.89,0,0,0-24.62-13.16c-12.25,0-22.7,7.18-26.71,17.24a24.17,24.17,0,0,0-12-3.15,23.84,23.84,0,0,0-15.92,6,23.8,23.8,0,0,0-15.92-6c-.72,0-1.43,0-2.13.1.08-.89.14-1.79.14-2.7,0-15.63-13.68-28.3-30.55-28.3-16.43,0-29.82,12-30.51,27.08a24.63,24.63,0,0,0-20.65-1.5l-.52-.3c-3.31-8-11.65-13.64-21.43-13.64-12.67,0-22.95,9.52-22.95,21.27a19.57,19.57,0,0,0,.15,2.43H675c-12.68,0-23,9.52-23,21.27,0,11.45,9.76,20.78,22,21.24v0H921c16.87,0,30.55-12.68,30.55-28.31S937.89,317.83,921,317.83Z"/><path class="cls-31" d="M499.78,316.35a26.39,26.39,0,0,0-13.9,3.9c-1.44-11.54-12-20.5-24.86-20.5-12.29,0-22.5,8.2-24.62,19a25.44,25.44,0,0,0-21.6-11.46,26,26,0,0,0-18,7.1c-3-15.58-17.72-27.4-35.4-27.4-18.18,0-33.2,12.49-35.64,28.71a26.11,26.11,0,0,0-16.57-5.81,26.47,26.47,0,0,0-11.4,2.55c-4.75-13.27-18.24-22.85-34.15-22.85-18,0-32.84,12.18-35.55,28.12a26.58,26.58,0,0,0-8.48-1.37c-13.82,0-25,10.39-25,23.2,0,12.16,10.09,22.13,22.94,23.11v.09H499.78c13.82,0,25-10.39,25-23.2S513.6,316.35,499.78,316.35Z"/><path class="cls-22" d="M412.29,347.6a26.39,26.39,0,0,0-13.9,3.9C397,340,386.37,331,373.53,331c-12.28,0-22.49,8.2-24.62,19a25.45,25.45,0,0,0-21.6-11.47,25.92,25.92,0,0,0-18,7.11c-3-15.58-17.73-27.4-35.41-27.4-18.18,0-33.2,12.49-35.64,28.71a26.1,26.1,0,0,0-16.56-5.81,26.48,26.48,0,0,0-11.41,2.55c-4.75-13.27-18.24-22.85-34.15-22.85-18,0-32.84,12.18-35.55,28.12a26.58,26.58,0,0,0-8.48-1.37c-13.82,0-25,10.39-25,23.2,0,12.16,10.09,22.13,22.94,23.11V394H412.29c13.82,0,25-10.39,25-23.2S426.11,347.6,412.29,347.6Z"/><path class="cls-22" d="M719,301a27.47,27.47,0,0,0-22.8,11.67,19.92,19.92,0,0,0-23.78-.26c0-.15,0-.3,0-.45,0-11.61-10.15-21-22.67-21a23,23,0,0,0-19.91,10.94,21.33,21.33,0,0,0-25.35,0A29.12,29.12,0,0,0,580,289c-15.8,0-28.61,11.87-28.61,26.52a24.63,24.63,0,0,0,1.34,8c-6.05,1.83-10.42,7.1-10.42,13.31,0,7.39,6.18,13.44,14,14v0H719c14.88,0,26.95-11.18,26.95-25S733.83,301,719,301Z"/><path class="cls-22" d="M739.54,324.29A27.48,27.48,0,0,0,716.73,336a19.88,19.88,0,0,0-23.78-.26c0-.15,0-.3,0-.46,0-11.6-10.15-21-22.67-21a23,23,0,0,0-19.91,10.94,21.35,21.35,0,0,0-25.35,0,29.11,29.11,0,0,0-24.49-12.79c-15.8,0-28.61,11.87-28.61,26.51a24.64,24.64,0,0,0,1.34,8c-6,1.83-10.42,7.09-10.42,13.31,0,7.39,6.18,13.44,14,14v0H739.54c14.87,0,26.94-11.18,26.94-25S754.41,324.29,739.54,324.29Z"/><path class="cls-32" d="M580.35,364a13.42,13.42,0,0,0,.47-3.49c0-8-7-14.56-15.71-14.56a17,17,0,0,0-2.49.2c-.61-10.24-9.76-18.37-21-18.37a21.58,21.58,0,0,0-16.55,7.5c-3.1-9.76-12.83-16.89-24.37-16.89-10.92,0-20.23,6.39-23.82,15.35a16.49,16.49,0,0,0-8.53-2.34c-8.68,0-15.71,6.51-15.71,14.55-14,0-25.4,10.54-25.4,23.54,0,12.48,10.48,22.69,23.73,23.48V393H578.68c8.67,0,15.71-6.52,15.71-14.56C594.39,370.93,588.24,364.74,580.35,364Z"/><path class="cls-31" d="M329.29,365.6a26.39,26.39,0,0,0-13.9,3.9C314,358,303.37,349,290.53,349c-12.28,0-22.49,8.2-24.62,19a25.45,25.45,0,0,0-21.6-11.47,25.92,25.92,0,0,0-18,7.11c-3-15.58-17.73-27.4-35.41-27.4-18.18,0-33.2,12.49-35.64,28.71a26.1,26.1,0,0,0-16.56-5.81,26.48,26.48,0,0,0-11.41,2.55c-4.75-13.27-18.24-22.85-34.15-22.85-18,0-32.84,12.18-35.55,28.12a26.58,26.58,0,0,0-8.48-1.37c-13.82,0-25,10.39-25,23.2,0,12.16,10.09,22.13,22.94,23.11V412H329.29c13.82,0,25-10.39,25-23.2S343.11,365.6,329.29,365.6Z"/><g id="_群組_3" data-name="&lt;群組&gt;"><path class="cls-33" d="M130.17,42.13a13.06,13.06,0,0,0-7.24,7.47,13.25,13.25,0,0,0,10.44-.11A13.08,13.08,0,0,0,140.61,42,13.21,13.21,0,0,0,130.17,42.13Z"/><path id="_路徑_31" data-name="&lt;路徑&gt;" class="cls-34" d="M122.88,56.67a67.12,67.12,0,0,1,.87-13.88l-2.58-.35a70.14,70.14,0,0,0,0,14.63"/><path class="cls-35" d="M143.69,65.17c-1.82-11.13-12.32-17.88-22-10.77-10.79-5.33-20,3.12-19.8,14.4.16,12.08,9.63,21.37,18.8,17.18a13.78,13.78,0,0,1,3.66-1.22h.05a14.51,14.51,0,0,1,3.82.57C138,87.88,145.65,77.1,143.69,65.17Z"/><g class="cls-36"><path class="cls-22" d="M110.84,60.7a2.29,2.29,0,1,0,2.5,2.08A2.3,2.3,0,0,0,110.84,60.7Z"/></g></g><g id="_群組_4" data-name="&lt;群組&gt;"><path class="cls-33" d="M69.84,105.13a13.22,13.22,0,0,0-7.41,7.47,13.86,13.86,0,0,0,10.69-.11A13.24,13.24,0,0,0,80.53,105,13.82,13.82,0,0,0,69.84,105.13Z"/><path id="_路徑_32" data-name="&lt;路徑&gt;" class="cls-34" d="M62.38,119.67a65.12,65.12,0,0,1,.89-13.88l-2.64-.35a68.14,68.14,0,0,0,0,14.63"/><path class="cls-35" d="M83.69,128.17C81.82,117,71.07,110.29,61.13,117.4c-11.05-5.33-20.43,3.12-20.27,14.4C41,143.88,50.72,153.17,60.1,149a14.44,14.44,0,0,1,3.76-1.22h0a15.1,15.1,0,0,1,3.91.57C77.81,150.88,85.69,140.1,83.69,128.17Z"/><g class="cls-36"><path class="cls-22" d="M50.05,123.7a2.3,2.3,0,0,0-2.14,2.48,2.36,2.36,0,0,0,4.71-.4A2.35,2.35,0,0,0,50.05,123.7Z"/></g></g><g id="_群組_5" data-name="&lt;群組&gt;"><path class="cls-33" d="M165.84,101.15a13.4,13.4,0,0,0-7.41,7.64,13.65,13.65,0,0,0,10.69-.12,13.38,13.38,0,0,0,7.41-7.63A13.6,13.6,0,0,0,165.84,101.15Z"/><path id="_路徑_33" data-name="&lt;路徑&gt;" class="cls-34" d="M158.38,116a68,68,0,0,1,.89-14.19l-2.64-.36a71.06,71.06,0,0,0,0,14.94"/><path class="cls-35" d="M179.69,124.69c-1.87-11.37-12.62-18.26-22.56-11-11-5.45-20.43,3.18-20.27,14.7.16,12.35,9.86,21.84,19.24,17.55a14.8,14.8,0,0,1,3.76-1.24h0a14.63,14.63,0,0,1,3.91.59C173.81,147.9,181.69,136.88,179.69,124.69Z"/><g class="cls-36"><path class="cls-22" d="M146.05,120.13a2.34,2.34,0,1,0,2.57,2.12A2.36,2.36,0,0,0,146.05,120.13Z"/></g></g><path class="cls-37" d="M509.21,220c-.49-.39-1-.74-1.45-1.07.41,6.74-1.44,11.9-5,15.25,1.19-5.11,1.69-10.09.36-14.95s-4.44-8.53-8.56-11.43c1.15,9.61-2.32,17.61-9.46,24.38a18,18,0,0,1,1.43,2.06,6,6,0,0,1-.32,6.26c-1.21,2-3.17,2-4.11.12a18.43,18.43,0,0,1-.93-3.09c-.09-.33-.1-.69-.18-1.23-5.86,6.49-10,13.57-11.92,22,1-1.43,55.82-1.34,57.39,2.1,0-.39,0-.79,0-1.19-.65-7.81-2.36-14.95-6.92-20.85a26.29,26.29,0,0,1-1,3.72,4.61,4.61,0,0,1-4.92,2.82,2.78,2.78,0,0,1-2.34-3.88,10.61,10.61,0,0,1,1.4-2.61c2.48-3.51,3.22-7.16,1.93-11A15.88,15.88,0,0,0,509.21,220Z"/></g></g></g></svg>