<svg xmlns="http://www.w3.org/2000/svg" viewBox="0 0 307.71 293.47"><defs><style>.cls-1{opacity:0.2;}.cls-2{fill:#7c7c7c;}.cls-3{fill:#fff;}.cls-4{fill:#5b1c18;}.cls-5{fill:#fe7950;}.cls-6{fill:#7eccc6;}.cls-7{fill:#202a48;}.cls-8{fill:#dea076;}.cls-9{opacity:0.3;}.cls-10{fill:#fcfcfc;}.cls-11{fill:#8d5448;}.cls-12{opacity:0.15;}.cls-13{fill:#dc9f70;}.cls-14{fill:#ffab74;}.cls-15{fill:#303030;}</style></defs><title>資產 1</title><g id="圖層_2" data-name="圖層 2"><g id="圖層_9" data-name="圖層 9"><g class="cls-1"><path class="cls-2" d="M307.71,204.48c-6.42,5.45-11.41,3.83-17,1.68a19.39,19.39,0,0,1,.71-9.47C295.6,200.84,299.88,204.48,307.71,204.48Z"/></g><path class="cls-3" d="M285.1,190.68A116.15,116.15,0,0,0,283,203.5c-.57-.14-1.17-.24-1.77-.33a47.33,47.33,0,0,0-6.4-.22c1-5.61-.17-12.26-1.39-17.58a21.42,21.42,0,0,1,7.49,2.5A26.2,26.2,0,0,1,285.1,190.68Z"/><path class="cls-4" d="M173.56,168.17l-1.65,0a26.17,26.17,0,0,1-4.1-.38,32.75,32.75,0,0,1-9.9-3.58,91.71,91.71,0,0,1-8.68-5.74c-2.59-1.89-4.6-3.23-4.6-3.23-.27-.19.2-1,.49-.81,0,0,2.16,1.17,4.88,2.88s6.09,3.82,8.8,5.28a38.25,38.25,0,0,0,9.29,3.84,27.07,27.07,0,0,0,3.88.65l1.58.1C173.87,167.32,173.9,168.11,173.56,168.17Z"/><path class="cls-4" d="M162.3,186.1l-1.82-.12c-1.14-.1-2.73-.28-4.52-.58a45.1,45.1,0,0,1-11.21-3.5,28.39,28.39,0,0,1-9.34-7.22c-.53-.77-1.08-1.45-1.47-2.13s-.73-1.29-1-1.82c-.43-1.08-.68-1.73-.68-1.73-.14-.36.71-.65.88-.34,0,0,.29.6.78,1.58.27.48.64,1,1,1.64s1,1.21,1.49,1.9a30.83,30.83,0,0,0,9.1,6.46A54.1,54.1,0,0,0,156.24,184c1.73.4,3.27.69,4.37.87l1.77.25C162.74,185.28,162.68,186.07,162.3,186.1Z"/><path class="cls-5" d="M307.71,204.48c-6.42,5.45-11.41,3.83-17,1.68a51.85,51.85,0,0,0-7.67-2.53c-.57-.13-1.17-.24-1.77-.33a47.33,47.33,0,0,0-6.4-.22c-5.46.17-10.81,1.08-16.12,1.47a48.1,48.1,0,0,1-9-.07c-11-1.43-17.15-7.92-25.39-12.83a44.4,44.4,0,0,0-6.09-3.06,33.29,33.29,0,0,0-6.57-1.87,63.65,63.65,0,0,0-16.26-.51c-10.07.7-20.39,2.48-29.67,1.18l-.93-.15-.59-.1c-.43-.08-.85-.16-1.27-.26l-.91-.22c-.59-.13-1.18-.29-1.76-.48l-.54-.17c-.49-.16-1-.33-1.44-.52-.22-.09-.45-.17-.67-.27s-.57-.24-.86-.37h0c7.8-2.31,15.87-8.67,15.87-16.71v-.44c2.69-.6,5.7-1.29,8.92-2,8.08-1.7,17.43-3.31,26.15-3.43,6.89-.1,13.4.76,18.56,3.26a19.28,19.28,0,0,1,2.28,1.26,16.68,16.68,0,0,1,5.32,5.37c3.24,5,4.55,10.73,12.34,13.47a25,25,0,0,0,9.95.95c5.71-.44,11.36-2,17.28-1.1h0a21.62,21.62,0,0,1,7.49,2.5,26.2,26.2,0,0,1,4.17,2.81,80.83,80.83,0,0,1,6.28,5.88C295.6,200.84,299.88,204.48,307.71,204.48Z"/><g class="cls-1"><path class="cls-2" d="M258.71,204.55a48.1,48.1,0,0,1-9-.07c-11-1.43-17.15-7.92-25.39-12.83,1.69-7.21,4.81-14.29,9.52-19.47,3.24,5,4.55,10.73,12.34,13.47a25,25,0,0,0,9.95.95,26,26,0,0,0,0,7.19A67.18,67.18,0,0,0,258.71,204.55Z"/></g><g class="cls-1"><path class="cls-2" d="M181.55,165.72a31.27,31.27,0,0,1-5.34,11.1c-3.47,5-6.85,8.44-10.46,10.57a32.18,32.18,0,0,1-9-2.55c7.8-2.31,15.87-8.67,15.87-16.71v-.44C175.32,167.09,178.33,166.4,181.55,165.72Z"/></g><path class="cls-6" d="M172,86.57c-.91,23.09-12.91,47.7-28.61,69.27a242.3,242.3,0,0,1-41.79,44.33H71.33C10.91,146.06-29.43,78.71,27.05,23.17A79.94,79.94,0,0,1,57.47,4.31c1.27-.43,2.55-.83,3.85-1.19.35-.11.71-.21,1.06-.3L63,2.66l1.53-.38L65.81,2l.16,0c.62-.14,1.24-.27,1.86-.38A81.62,81.62,0,0,1,78.92.15,86.2,86.2,0,0,1,93.38.52a87.63,87.63,0,0,1,11.14,1.92h0a91.56,91.56,0,0,1,12.29,3.84h0a91.15,91.15,0,0,1,29.93,19,83.07,83.07,0,0,1,14.37,18.12A79.35,79.35,0,0,1,172,86.57Z"/><path class="cls-7" d="M67.63,237.34s1.65-10.86,3.07-17.79S74.94,202,74.94,202c.11-.37,1.28-.12,1.24.24,0,0-1.65,10.87-3.07,17.79s-4.23,17.55-4.23,17.55C68.68,237.93,67.64,237.72,67.63,237.34Z"/><path class="cls-7" d="M101.58,237.16S99,226.64,97.74,219.79s-2.67-17.54-2.67-17.54c0-.37,1.14-.61,1.24-.26,0,0,2.56,10.52,3.85,17.37s2.66,17.54,2.66,17.54C102.77,237.28,101.73,237.5,101.58,237.16Z"/><polygon class="cls-8" points="114.58 248.12 114.39 249.62 109.29 289.57 108.79 293.47 63.2 293.47 57.6 249.63 57.41 248.12 114.58 248.12"/><g class="cls-9"><path class="cls-2" d="M109.29,289.57l-.5,3.9H63.2l-5.79-45.35H86.57c-7.89,5.92-15.32,15.09-15.08,25.12.39,14.18,11.66,17.24,23.86,17.36A79.83,79.83,0,0,0,109.29,289.57Z"/></g><path class="cls-10" d="M109.45,132.16a222.09,222.09,0,0,1-21,66.23H83.25c-6.41-13.88-12.46-28.16-16.74-43.23a235.83,235.83,0,0,1-5.33-92C64.54,41,69.62,19.85,78.92.15A86.2,86.2,0,0,1,93.38.52c5.77,12.75,11.16,25.84,15.06,39.61C116.28,69.87,113.73,101.61,109.45,132.16Z"/><path class="cls-10" d="M78.15,199l-2.36.78C62.06,186,49.7,171.17,37,157,14.51,132.09-19.45,52.39,57.47,4.31A79.89,79.89,0,0,1,67.83,1.56c-20.13,15.7-32,39.86-35.59,64-4.71,32.56,3.92,65.93,20,94.57C59.71,173.48,67.55,188,78.15,199Z"/><path class="cls-10" d="M134.31,157c-12.77,14.17-25.12,29-38.86,42.77L93.1,199c10.59-11,18.44-25.51,25.91-38.85,16.08-28.64,24.72-62,20-94.57-3.49-23.71-15-47.42-34.49-63.13a91.56,91.56,0,0,1,12.29,3.84h0C189.77,54.55,156.44,132.43,134.31,157Z"/><path class="cls-7" d="M69.57,264.92s-.44-5.57-.44-9.16.44-9.15.44-9.15c0-.2.92-.19,1,0,0,0,.44,5.57.45,9.15s-.45,9.16-.45,9.16C70.43,265.11,69.63,265.1,69.57,264.92Z"/><path class="cls-11" d="M74.77,277.8a6.76,6.76,0,0,1-1.27,3.65,5.75,5.75,0,0,1-8.12,1.49c-3.67-2.88-2.48-7.64-.24-11.92a53.28,53.28,0,0,1,5-7.43c.82,2.68,2.43,5.14,3.38,8A15.08,15.08,0,0,1,74.77,277.8Z"/><path class="cls-7" d="M98.17,247.78a9.81,9.81,0,0,1-.59,1.85,19.28,19.28,0,0,1-2.46,4.06c-2.56,3.14-7.33,4.81-11.07,4.92a15.91,15.91,0,0,1-6.08-.88,13.74,13.74,0,0,1-5.26-3.33,12.17,12.17,0,0,1-2.56-4.06,11.91,11.91,0,0,1-.41-1.35l-.13-.49c-.1-.39.78-.56.92-.23,0,0,.06.15.16.44a11.69,11.69,0,0,0,.46,1.21,11.06,11.06,0,0,0,2.54,3.49,12.67,12.67,0,0,0,4.81,2.71,16,16,0,0,0,5.47.65,17.57,17.57,0,0,0,5.43-1.06,14.87,14.87,0,0,0,2.6-1.26l.61-.35.51-.4a10.21,10.21,0,0,0,.94-.92,18,18,0,0,0,2.53-3.62,10.06,10.06,0,0,0,.66-1.61C97.43,247.24,98.22,247.37,98.17,247.78Z"/><path class="cls-7" d="M114.58,246.67V247c0,.23,0,.57,0,1a11.7,11.7,0,0,1-.67,3.35,8.35,8.35,0,0,1-6.79,5.5,9.3,9.3,0,0,1-6.57-1.58,8.21,8.21,0,0,1-1.62-1.54,7,7,0,0,1-1.43-3.21,8.09,8.09,0,0,1-.09-1v-.36c0-.3.91-.26.95,0,0,0,0,.12,0,.32a6.15,6.15,0,0,0,.16.87,5.91,5.91,0,0,0,1.43,2.54A7.43,7.43,0,0,0,101.4,254a8.33,8.33,0,0,0,1.78.77,8.68,8.68,0,0,0,3.68.28,7.53,7.53,0,0,0,3.39-1.32,7.36,7.36,0,0,0,2.37-2.9,10.73,10.73,0,0,0,.86-2.92,6.93,6.93,0,0,0,.11-.92l0-.33C113.73,246.4,114.53,246.4,114.58,246.67Z"/><path class="cls-7" d="M57.9,248.25a5.18,5.18,0,0,0,.15.85,4.23,4.23,0,0,0,.94,1.8,4.47,4.47,0,0,0,2.17,1.31,7.14,7.14,0,0,0,2.61.21,6.8,6.8,0,0,0,4.68-2.21,4.94,4.94,0,0,0,.94-1.84,6.26,6.26,0,0,0,.16-.84c0-.18.93-.19,1,0v.27a4.35,4.35,0,0,1,0,.75,6,6,0,0,1-.88,2.45,6.73,6.73,0,0,1-2.48,2.27,8.16,8.16,0,0,1-3.17,1,7.65,7.65,0,0,1-3.31-.44,5.78,5.78,0,0,1-2.73-2.07,5.65,5.65,0,0,1-.94-3.48C57,248.06,57.83,248.08,57.9,248.25Z"/><g class="cls-12"><path class="cls-2" d="M143.34,155.84a242.3,242.3,0,0,1-41.79,44.33H71.33C10.91,146.06-29.43,78.71,27.05,23.17A79.94,79.94,0,0,1,57.47,4.31,77.78,77.78,0,0,1,66,1.94C44.74,15.24,31.86,52.19,31.45,71.49c-1.59,43.48,36.06,80.06,77.42,86.43C120.75,159.8,132.22,158.67,143.34,155.84Z"/></g><rect class="cls-13" x="71.33" y="198.43" width="30.22" height="6.85"/><path class="cls-7" d="M97.23,275.58s-.44-8.79-.44-14.45.44-14.44.44-14.44c0-.3.92-.29,1,0,0,0,.44,8.79.45,14.44s-.45,14.45-.45,14.45C98.09,275.88,97.29,275.87,97.23,275.58Z"/><rect class="cls-14" x="52.88" y="236.86" width="66.25" height="11.26"/><path class="cls-11" d="M102.09,288.47a6.6,6.6,0,0,1-1.09,2.41c-1.76,2.56-5.55,3.52-8.11,1.48-3.61-2.82-2.54-7.45-.36-11.66A50.93,50.93,0,0,1,97.62,273c.82,2.68,2.44,5.14,3.38,8C101.91,283.32,102.67,286,102.09,288.47Z"/><g class="cls-9"><path class="cls-15" d="M74.77,277.8a6.76,6.76,0,0,1-1.27,3.65,5.75,5.75,0,0,1-8.12,1.49c-3.67-2.88-2.48-7.64-.24-11.92C65.12,276,69.82,278.71,74.77,277.8Z"/></g><g class="cls-9"><path class="cls-15" d="M102.09,288.47a6.6,6.6,0,0,1-1.09,2.41c-1.76,2.56-5.55,3.52-8.11,1.48-3.61-2.82-2.54-7.45-.36-11.66-.29,4.69,3.45,7.89,9.45,7.78Z"/></g><path class="cls-3" d="M226.26,165.42c-6.65,4-11.64,12.52-14.58,21.17a63.2,63.2,0,0,0-16.26-.51c5.82-6.42,10.92-16.36,12.28-23.92C214.59,162.06,221.1,162.92,226.26,165.42Z"/><path class="cls-3" d="M99.11,280.72c-.94.33-.46,4.92.73,5,1.85.14.29-6.76-1.06-5"/><path class="cls-3" d="M71.13,271.42c-.94.33-.45,4.92.73,5,1.86.14.29-6.76-1-5"/><path class="cls-3" d="M116,248.12a29,29,0,0,0-1.86-4.31,21.16,21.16,0,0,0-6.14-6.95h11.14v11.26H116Z"/></g></g></svg>