<svg xmlns="http://www.w3.org/2000/svg" viewBox="0 0 527.6 140.17"><defs><style>.cls-1{fill:#fff;}</style></defs><title>資產 1</title><g id="圖層_2" data-name="圖層 2"><g id="圖層_1-2" data-name="圖層 1"><path class="cls-1" d="M527.6,123c-18.34-21.81-52.68-28.55-78.07-15.31,6.27-9.47,4.64-22,1.4-32.81-6.62-22.09-19.32-42.74-37.75-56.84S370.36-3.1,347.47,1.3C335.06,3.69,323.07,9.54,314.83,19c-11.33,13-14.37,31-17,47.94-9.24-12.87-20.62-25.29-35.79-30.27s-34.67.14-41.1,14.59c-4.79,10.76-1.27,23.55,5.13,33.46A114.82,114.82,0,0,0,161.81,74c-11.5,1.43-23,4.74-32.32,11.59s-16.06,17.62-16,29.07c-18.51-8-40-6.82-59.29-.91S17.33,129.94,0,140.17"/></g></g></svg>