<svg xmlns="http://www.w3.org/2000/svg" viewBox="0 0 336.95 106.11"><defs><style>.cls-1{fill:#fff;}</style></defs><title>資產 2</title><g id="圖層_2" data-name="圖層 2"><g id="圖層_1-2" data-name="圖層 1"><path class="cls-1" d="M302.17,97.43c7.85-5.63,10.69-16.83,7.53-26s-11.58-15.91-20.94-18.31-19.45-.73-28.2,3.37c2.67-11.77-1.21-24.47-8.76-33.88S233.36,6.89,221.87,3.22C212.64.27,202.69-1.06,193.22,1s-18.39,7.8-22.85,16.4c-5.74,11.06-3.39,24.4-.9,36.61-8-8-21.33-7.43-31.64-2.91-6.43,2.81-12.45,7.13-15.89,13.25s-3.84,14.24.22,20A154.45,154.45,0,0,0,0,105.61c112.36,1.74,225.06-9.93,337,.5"/></g></g></svg>