<svg xmlns="http://www.w3.org/2000/svg" xmlns:xlink="http://www.w3.org/1999/xlink" viewBox="0 0 55.65 55.94"><defs><style>.cls-1{fill-rule:evenodd;fill:url(#radial-gradient);}</style><radialGradient id="radial-gradient" cx="-4262.9" cy="10128" r="290.5" gradientTransform="matrix(0.14, -0.13, 0.13, 0.14, -647.05, -1950.07)" gradientUnits="userSpaceOnUse"><stop offset="0.01" stop-color="#ffcf0e"/><stop offset="0.25" stop-color="#fbb515"/><stop offset="0.54" stop-color="#f79b1c"/><stop offset="0.71" stop-color="#f6921e"/></radialGradient></defs><title>資產 4</title><g id="圖層_2" data-name="圖層 2"><g id="圖層_1-2" data-name="圖層 1"><path class="cls-1" d="M40.45,13.85c-.45-.44-1-.85-1.37-1.23.14,6.72-1.85,11.62-5.44,14.51,1.36-4.92,2-9.8.94-14.77s-4-9-7.86-12.36c.74,9.67-2.94,17.17-10.14,23a19.88,19.88,0,0,1,1.31,2.22,6,6,0,0,1-.55,6.16c-1.26,1.79-3.17,1.64-4-.38a18.58,18.58,0,0,1-.78-3.17,10.07,10.07,0,0,1-.13-1.25A43.39,43.39,0,0,0,0,46.94c1-1.29,54.24,5.4,55.62,9,0-.39,0-.78,0-1.18-.32-7.82-1.7-15.1-5.9-21.5a26.16,26.16,0,0,1-1.1,3.57A4.12,4.12,0,0,1,43.76,39a3,3,0,0,1-2.12-4.13,9.39,9.39,0,0,1,1.47-2.42A11.33,11.33,0,0,0,45.4,21.81,17.6,17.6,0,0,0,40.45,13.85Z"/></g></g></svg>