<svg xmlns="http://www.w3.org/2000/svg" xmlns:xlink="http://www.w3.org/1999/xlink" viewBox="0 0 1099.27 550.27"><defs><style>.cls-1,.cls-15,.cls-21,.cls-26{fill:none;}.cls-2{isolation:isolate;}.cls-3{fill:#cea45a;}.cls-4{fill:#987845;}.cls-5{fill:#bdd266;}.cls-6{fill:#9ba365;}.cls-7{fill:#b99350;}.cls-8{fill:#edca2c;}.cls-9{opacity:0.7;}.cls-10{fill:#fff;}.cls-11{fill:#804c22;}.cls-12{fill:#89ae29;}.cls-13{fill:#dac16c;}.cls-14{mix-blend-mode:multiply;}.cls-15{stroke:#397637;stroke-linejoin:round;stroke-width:1.29px;}.cls-15,.cls-21,.cls-26{stroke-linecap:round;}.cls-16{fill:#b2c53a;}.cls-17{fill:#397637;}.cls-18{fill:#7b3790;}.cls-19{fill:#602f84;}.cls-20{fill:#773085;}.cls-21,.cls-26{stroke:#fff;stroke-miterlimit:10;opacity:0.5;}.cls-21{stroke-width:0.86px;}.cls-22{fill:#e08c34;}.cls-23{fill:#d35d3c;}.cls-24{fill:#7fcf66;}.cls-25{fill:#ef912e;}.cls-26{stroke-width:1.01px;}.cls-27{fill:#50863e;}.cls-28{clip-path:url(#clip-path);}.cls-29{fill:#bf9a67;}.cls-30{fill:#a6834f;}.cls-31{fill:#ceb289;}.cls-32{fill:#e3dbc7;}.cls-33{fill:#ceb189;}</style><clipPath id="clip-path"><path id="_剪裁路徑_" data-name="&lt;剪裁路徑&gt;" class="cls-1" d="M239.92,176.11c6.86,65.88,67.48,152.17,245.29,152.5C663,328.28,723.63,242,730.5,176.11c-69.7,26.21-154.18,41.58-245.29,41.58S309.62,202.32,239.92,176.11Z"/></clipPath></defs><title>資產 6</title><g class="cls-2"><g id="圖層_2" data-name="圖層 2"><g id="關於天然甘"><polygon id="_路徑_" data-name="&lt;路徑&gt;" class="cls-3" points="1057.93 319.82 1012.86 382.5 802.79 412.53 825.85 340.21 1057.93 319.82"/><polygon id="_路徑_2" data-name="&lt;路徑&gt;" class="cls-4" points="670.23 382.5 641.11 458.66 580.22 488.26 592.24 393.77 670.23 382.5"/><polygon id="_路徑_3" data-name="&lt;路徑&gt;" class="cls-4" points="360.79 382.5 360.79 512.22 267.45 488.26 250.1 397.53 360.79 382.5"/><path id="_路徑_4" data-name="&lt;路徑&gt;" class="cls-5" d="M283.48,223.25C274.35,222.77,166,239.33,166,239.33l-35.5,25.21-89.11,3L0,300.82s56.37,50.06,62,49,151.38,13,151.38,13l36.71,34.79,110.69-15v15l-42.4,26.3,56.75,20.67,236.33-20.67s-24.53-30.06-19.23-30.06,71.75-11.28,78-11.28,147,5.64,147,5.64l30.49-25.65-21.9-22.27,232.08-20.39L1099.27,285s-30.06-38.26-35.7-41.77-302.83-17.42-302.83-17.42l8.83-15.83-473.93-6.51Z"/><polygon id="_路徑_5" data-name="&lt;路徑&gt;" class="cls-6" points="900.25 284.18 900.25 290.51 883.29 293.63 872.27 288.9 872.27 286.05 895.12 280.49 900.25 284.18"/><polygon id="_路徑_6" data-name="&lt;路徑&gt;" class="cls-6" points="998.57 289.96 998.57 298.5 976.64 302.51 972.88 296.24 985.73 287.35 998.57 289.96"/><path id="_路徑_7" data-name="&lt;路徑&gt;" class="cls-6" d="M732.11,293.23l-4.63,5.26H709s-6.66,2.93-7,0l-.35-2.92-11.78-.64,4.58-4.42,22.83-3.16,12.31,3.16Z"/><path id="_路徑_8" data-name="&lt;路徑&gt;" class="cls-6" d="M823.24,282.3c-8.69-1.28-20.45,4.92-20.45,4.92L786,292.28l4.23,7.33,30.67,6.24,27.39-5,16.34-13.66-11.49-5Z"/><path id="_路徑_9" data-name="&lt;路徑&gt;" class="cls-6" d="M251.72,249.26c-4.66-1.12-33.67,14.06-33.67,14.06l-27.34,15,13.5,22.53,163.12,4.55,200.52-13.71,95.44,3.39s24.28-13.32,28.11-12.73,35-9.59,35-9.59l-5.3-13.2L610.68,223.25Z"/><path id="_路徑_10" data-name="&lt;路徑&gt;" class="cls-6" d="M654.54,324c-3.73,2.43-24,2.55-26.91,2.35s0,9.15,0,9.15l-17,7-20.32-11-15.54,4-19-3.74-20.8,30.75-14.2-7.23,5.24-19.78-39.58,7,1.61-15.72-39.27,4.71,16.28-23.09L538,303.63,614,306l45.23,4.68Z"/><path id="_路徑_11" data-name="&lt;路徑&gt;" class="cls-6" d="M348.75,299.61l-24.48,9.77-47,4-27.17,13.3L177.56,324l-20.69,2.75-61.07-.4L74.19,303.63l28.72-19.23,57.47,3.76,7.43-10.89,76.55,1s17.55,4.38,19.52,4,72,1.71,75,2.08S348.75,299.61,348.75,299.61Z"/><polygon id="_路徑_12" data-name="&lt;路徑&gt;" class="cls-7" points="62.01 349.78 91.21 409.34 238.12 464.3 213.39 362.74 62.01 349.78"/><polygon id="_路徑_13" data-name="&lt;路徑&gt;" class="cls-3" points="0 300.82 36.25 371.29 91.21 409.34 62.01 349.78 0 300.82"/><polygon id="_路徑_14" data-name="&lt;路徑&gt;" class="cls-3" points="250.1 397.53 267.45 488.26 238.12 464.3 213.39 362.74 250.1 397.53"/><polygon id="_路徑_15" data-name="&lt;路徑&gt;" class="cls-3" points="318.39 423.83 340.62 512.22 388.38 550.27 375.14 444.5 318.39 423.83"/><polygon id="_路徑_16" data-name="&lt;路徑&gt;" class="cls-7" points="611.47 423.83 584.67 529.13 388.38 550.27 375.14 444.5 611.47 423.83"/><polygon id="_路徑_17" data-name="&lt;路徑&gt;" class="cls-3" points="641.11 458.66 782.12 447.36 817.26 388.13 670.23 382.5 641.11 458.66"/><polygon id="_路徑_18" data-name="&lt;路徑&gt;" class="cls-7" points="847.75 362.48 782.12 447.36 817.26 388.13 847.75 362.48"/><polygon id="_路徑_19" data-name="&lt;路徑&gt;" class="cls-7" points="1099.27 284.96 1057.93 355.79 1012.86 382.5 1057.93 319.82 1099.27 284.96"/><g id="_群組_" data-name="&lt;群組&gt;"><path id="_路徑_20" data-name="&lt;路徑&gt;" class="cls-6" d="M270.46,334.08c1.82-2.2,3.44-4.48,5.05-6.84L272,328.69a9.42,9.42,0,0,1,1.9.55c.76.34.61.65.79.18.24-.62,0-.36-.34-.53a15.57,15.57,0,0,0-3-1c-3-.77-5.86,3.3-3.21,5.51,3.74,3.13,11.12,3.42,12.8-2.21,1.45-4.86-3.17-7.83-7.3-8.55a3.28,3.28,0,0,0-3.55,1.45c-1.39,2.21-2.72,4.39-3.89,6.72-1.31,2.59,2.19,5.81,4.27,3.29Z"/></g><g id="_群組_2" data-name="&lt;群組&gt;"><path id="_路徑_21" data-name="&lt;路徑&gt;" class="cls-6" d="M289.16,337.69c-.17.15,0,.09,0,0-.21.08-.25.09-.1.05s.1,0-.05,0,.08,0,.13,0c.23.11-.53-.07,0,0s-.17-.05-.13-.08.27.15.3.16c.43.22-.32-.27-.09-.05s-.36-.58-.1-.08v-2.94c-.1.19-.06.17.11-.08a1.6,1.6,0,0,1,.6-.52c-.38.23.7-.24.36-.15s.35,0,.42,0c-.45,0-.15-.14.31.08a3,3,0,0,0-.32-.08c-.33,0,.71.38.32.13s.58.54.23.18c.39.41.3.32.5.87a3.17,3.17,0,0,0-3.81-2.16,3.13,3.13,0,0,0-2.16,3.81,4.87,4.87,0,0,0,3.66,3.23c2.16.4,4.44-.51,5.06-2.78.71-2.58-1.81-4.66-4.25-4.45a4.56,4.56,0,0,0-4.11,3.06,1.92,1.92,0,0,0,.87,2.12,1.94,1.94,0,0,0,2.27-.29Z"/></g><g id="_群組_3" data-name="&lt;群組&gt;"><path id="_路徑_22" data-name="&lt;路徑&gt;" class="cls-6" d="M299.25,328.44a2.84,2.84,0,0,0,1.31-.5,2.17,2.17,0,0,0,.88-1.71,2.28,2.28,0,0,0-.66-1.54,2.77,2.77,0,0,0-1.53-.68,2.3,2.3,0,1,0,0,4.43Z"/></g><g id="_群組_4" data-name="&lt;群組&gt;"><path id="_路徑_23" data-name="&lt;路徑&gt;" class="cls-6" d="M311.74,337.75c.08.25.17.49.25.73a1.72,1.72,0,0,0,3.29,0c.08-.24.17-.48.25-.73a2,2,0,1,0-3.79,0Z"/></g><g id="_群組_5" data-name="&lt;群組&gt;"><path id="_路徑_24" data-name="&lt;路徑&gt;" class="cls-6" d="M246.19,344.6a9.23,9.23,0,0,0-1.05.19,4.37,4.37,0,0,0-1,.55,1,1,0,0,0,0,1.78,3.7,3.7,0,0,0,1,.54,9.26,9.26,0,0,0,1.05.2,1.69,1.69,0,1,0,0-3.26Z"/></g><g id="_群組_6" data-name="&lt;群組&gt;"><path id="_路徑_25" data-name="&lt;路徑&gt;" class="cls-6" d="M448.73,345.2a16.93,16.93,0,0,1,1.63-2.91,8,8,0,0,1,.84-.91c.27-.26,1.36-.84.45-.76l-3.1-1.77a27,27,0,0,0,3.67,4.4l-1.23-3c0,.47,0,.57.07.29s0-.19,0,.06-.08.28,0,0l.17-.19-.3.31q.42-.3,0-.06c-.22.14-.24.15,0,.05a.66.66,0,0,1,.43-.12c.17-.05.34.15.47.13-.43.07-.29-.24-.37-.32s-.69-.76-.35-.35a9.45,9.45,0,0,0-1.73-1.67c-1.57-1.18-4.37-.32-5.22,1.37-1.65,3.32.16,6.86,3.2,8.61a8.17,8.17,0,0,0,8.3-.12,8.57,8.57,0,0,0,3.89-7.09c.05-3.47-3.23-5.77-6.07-7.19-1.65-.82-4-.53-4.91,1.29-.7,1.39-1.93,2.44-2.59,3.92a10.24,10.24,0,0,0-1.07,5c.14,1.88,2.86,3,3.84,1.05Z"/></g><g id="_群組_7" data-name="&lt;群組&gt;"><path id="_路徑_26" data-name="&lt;路徑&gt;" class="cls-6" d="M431.44,336a14.87,14.87,0,0,0-2.08,5l1.43-1.86c.22-.1.15-.08-.21.07a4,4,0,0,1-.68.19c.24,0,.24-.06,0-.05h0a.63.63,0,0,1,.34.26c-.23-.25-.26-.27-.09-.09a.7.7,0,0,1,.21.43c-.1-.39-.11-.36,0,.1.24-.7-.11.32-.18.46a1.73,1.73,0,0,1-1.43.85l-.48-.09c.39.11.33.07-.18-.11-.41-.36-.48-.4-.2-.13.42.44.29.17-.41-.82a3.57,3.57,0,0,0,3.86,2.52,3.52,3.52,0,0,0,3-3.45c.15-3.6-3.69-6-7-5a5.74,5.74,0,0,0-3.71,7.56,6.47,6.47,0,0,0,7.93,3.92c2.06-.58,3.87-2,3.76-4.31a20.29,20.29,0,0,1-.1-3.82c.3-2.27-2.48-3.79-3.86-1.63Z"/></g><g id="_群組_8" data-name="&lt;群組&gt;"><path id="_路徑_27" data-name="&lt;路徑&gt;" class="cls-6" d="M425.93,353.19c-.22.38-.45.72-.69,1.08a11,11,0,0,0-.76,1.67l3.84-2.18a2.13,2.13,0,0,1,1.51,2.47l-1.68,1.68-1.78-.22a2.4,2.4,0,0,1-.93-2.45l3.16-2.4a15.22,15.22,0,0,0-2.86.18,3.84,3.84,0,0,0-2.92,2.66c.34-.43.67-.87,1-1.31l-.23.13c-1.25.73-1.44,2.89,0,3.56l.23.11-.79-.79c1.1,2.27,3.42,2.16,5.56,2a3.36,3.36,0,0,0,3.16-2.4,4.32,4.32,0,0,0-1.63-4.54,4.11,4.11,0,0,0-5.27.17,4.23,4.23,0,0,0-1.2,4.09,4,4,0,0,0,3,3.08,3.32,3.32,0,0,0,3-.81,3.21,3.21,0,0,0,.81-3,7.36,7.36,0,0,0-.53-1.56s-.2-.42-.13-.25-.16-.45-.15-.44a2.09,2.09,0,0,0-3.77-.5Z"/></g><g id="_群組_9" data-name="&lt;群組&gt;"><path id="_路徑_28" data-name="&lt;路徑&gt;" class="cls-6" d="M403.3,353.38c-1.62-.1-2.45-.74-2.49-1.91.1-.52.11-.66.05-.43a2.16,2.16,0,0,1,3.16-1.29c.39.34.49.41.28.2.45.56.4.49-.16-.23a4.71,4.71,0,0,0-.92-.69,2.82,2.82,0,0,0-3.13.22,2.87,2.87,0,0,0-1,3A3.71,3.71,0,0,0,402.6,355a3.05,3.05,0,0,0,3.23-3,3,3,0,0,0-1.83-2.73,2.4,2.4,0,0,0-3.29,1.55,2.12,2.12,0,0,0,2.59,2.59Z"/></g><g id="_群組_10" data-name="&lt;群組&gt;"><path id="_路徑_29" data-name="&lt;路徑&gt;" class="cls-6" d="M472.64,359.12a7,7,0,0,0-1.29,0,3.69,3.69,0,0,0-1.39.61,1.77,1.77,0,0,0,0,3,3.69,3.69,0,0,0,1.39.61,7.94,7.94,0,0,0,1.29,0,2.11,2.11,0,0,0,0-4.22Z"/></g><g id="_群組_11" data-name="&lt;群組&gt;"><path id="_路徑_30" data-name="&lt;路徑&gt;" class="cls-6" d="M664.24,332.39l0,.09-.57,2.15a3.37,3.37,0,0,0,.76-1.27,2.2,2.2,0,0,0,.08-.92l0,.26c-.15.29-.13.29,0,0l.16-.21c-.22.24-.2.23,0,0a.47.47,0,0,1-.32.19c-.64,0-.26,0-.11.05-.19-.12.5.33.14.11a15.16,15.16,0,0,1,1.78,1.45c.24-1.83.47-3.66.71-5.48a15.44,15.44,0,0,1-1.4.86c-.1.05-.93.42-.67.32-.38.14-.78.26-1.18.37s-.53.13-.8.18l-.28.05a3.66,3.66,0,0,0-3.56,3.56c0,1.73,1.64,3.81,3.56,3.56a16.76,16.76,0,0,0,7.85-2.87c1.67-1.2,2.58-3.91.71-5.49-2.41-2-5.69-3.85-8.9-2.45a5.2,5.2,0,0,0-2.64,7.13,2.71,2.71,0,0,0,3,1.21l.12,0h-1.18a4.68,4.68,0,0,0,1,.16c1.61.19,2.29-1.77,1.7-3Z"/></g><g id="_群組_12" data-name="&lt;群組&gt;"><path id="_路徑_31" data-name="&lt;路徑&gt;" class="cls-6" d="M678.15,316.47l-.77.11a1.71,1.71,0,0,0,0,3.3l.77.11a1.83,1.83,0,0,0,1.78-3.05,1.91,1.91,0,0,0-1.78-.47Z"/></g><g id="_群組_13" data-name="&lt;群組&gt;"><path id="_路徑_32" data-name="&lt;路徑&gt;" class="cls-6" d="M696.64,333.92a1.69,1.69,0,0,0,0-3.38,1.69,1.69,0,0,0,0,3.38Z"/></g><g id="_群組_14" data-name="&lt;群組&gt;"><path id="_路徑_33" data-name="&lt;路徑&gt;" class="cls-6" d="M709.64,328.92a1.69,1.69,0,0,0,0-3.38,1.69,1.69,0,0,0,0,3.38Z"/></g><g id="_群組_15" data-name="&lt;群組&gt;"><path id="_路徑_34" data-name="&lt;路徑&gt;" class="cls-6" d="M747.64,287.4l-.8.09a1.74,1.74,0,0,0,0,3.48l.8.09a1.83,1.83,0,0,0,1.82-1.83c0-.9-.81-1.94-1.82-1.83Z"/></g><g id="_群組_16" data-name="&lt;群組&gt;"><path id="_路徑_35" data-name="&lt;路徑&gt;" class="cls-6" d="M738.09,263.18a6,6,0,0,0,1.72,1.08,4.25,4.25,0,0,0,1.62.32,3.25,3.25,0,0,0,3.17-2.81,3.21,3.21,0,0,0-2.31-3.55,4.68,4.68,0,0,0-1.49-.09c-.27,0-.54.07-.81.13a4.75,4.75,0,0,0-1.34.6c-1.41.82-2,3.18-.56,4.32Z"/></g><g id="_群組_17" data-name="&lt;群組&gt;"><path id="_路徑_36" data-name="&lt;路徑&gt;" class="cls-6" d="M871.81,302.23c0-.45-.1-.9-.16-1.34a3.93,3.93,0,0,0-.8-1.94,5.29,5.29,0,0,0-1.41-1.21,3.49,3.49,0,0,0-3.61,0,4.32,4.32,0,0,0-2.21,3.15c-.06.44-.11.89-.16,1.34a4.18,4.18,0,0,0,7.13,2.95,4.08,4.08,0,0,0,1.22-2.95Z"/></g><g id="_群組_18" data-name="&lt;群組&gt;"><path id="_路徑_37" data-name="&lt;路徑&gt;" class="cls-6" d="M875.87,298.74c0,.26-.07.52-.11.77a1.95,1.95,0,0,0,3.25,1.9,2.07,2.07,0,0,0,.51-1.9l-.12-.77a1.83,1.83,0,0,0-1.76-1.34,1.86,1.86,0,0,0-1.77,1.34Z"/></g><g id="_群組_19" data-name="&lt;群組&gt;"><path id="_路徑_38" data-name="&lt;路徑&gt;" class="cls-6" d="M880.64,309a1.73,1.73,0,0,0,0-3.46,1.73,1.73,0,0,0,0,3.46Z"/></g><g id="_群組_20" data-name="&lt;群組&gt;"><path id="_路徑_39" data-name="&lt;路徑&gt;" class="cls-6" d="M908.64,302.1a1.88,1.88,0,0,0,0-3.75,1.88,1.88,0,0,0,0,3.75Z"/></g><g id="_群組_21" data-name="&lt;群組&gt;"><path id="_路徑_40" data-name="&lt;路徑&gt;" class="cls-6" d="M918.58,284.17a3.45,3.45,0,0,0-.54.46.88.88,0,0,0,0,1.2,3.45,3.45,0,0,0,.54.46,1.54,1.54,0,0,0,1.63.31,1.5,1.5,0,0,0,.93-1.37,1.6,1.6,0,0,0-.75-1.3,1.56,1.56,0,0,0-1.81.24Z"/></g><g id="_群組_22" data-name="&lt;群組&gt;"><path id="_路徑_41" data-name="&lt;路徑&gt;" class="cls-6" d="M1013.2,264.52a14.22,14.22,0,0,0-1.78.58,10.36,10.36,0,0,0-1.65,1.11,2.61,2.61,0,0,0-.9,3.43c1.61,3.28,6.54,5.07,9.28,2.06a5.43,5.43,0,0,0,1.24-4.91c-.56-2.1-2.89-4.1-5.07-2.8a2.71,2.71,0,0,0-1.2,2.93,2.29,2.29,0,0,0,.51,1.05c0-.07.46.5.46.5s-.31-.51-.14-.15c-.16-.33,0-.44-.08-.1-.06.58.23-.22,0-.12,0,0,0,.37,0,.37s.21-.71,0-.11c-.13.34.29-.64,0-.09.08-.14.35-.38.08-.15.08-.07.6-.32.35-.25s.56,0-.11,0c.29,0,.21,0,0,0s-.31-.1-.15,0,.11.05,0,0-.54-.31-.22-.07a4,4,0,0,1-.37-.35c-.45-.44.13.25-.19-.29-.13,1-.27,2-.4,3a11,11,0,0,0,1.47-1.34,13.89,13.89,0,0,0,1-1.61,1.85,1.85,0,0,0-2.07-2.68Z"/></g><g id="_群組_23" data-name="&lt;群組&gt;"><path id="_路徑_42" data-name="&lt;路徑&gt;" class="cls-6" d="M1027,271.92a2.88,2.88,0,0,0-2.54.54c-1.28,1-1.17,2.6-.56,3.93a2.22,2.22,0,0,0,2,1.16,4.42,4.42,0,0,0,3.52-2.06,4,4,0,0,0,.22-4.12,2.4,2.4,0,0,0-2.68-1.09,2.49,2.49,0,0,0-1.75,2.29c.07-.66,0-.21,0,.36a2.8,2.8,0,0,0,0,.29c0,.3.1-.59,0-.16s.16-.39,0-.11c0,.07-.24.36,0,.05s0,0-.11.07c-.22.23.06-.05.15-.11-.39.27.5-.14,0,0l2.64,1.08c-.13-.21-.12-.15,0,.19-.06-.24-.06-.17,0,.21v-.14a2.25,2.25,0,0,0-.3-1.13c.12.33.16.42.11.26s0-.06,0,.24q0-.27,0,.12c-.08.19-.09.21,0,.07a1.33,1.33,0,0,0-.79-1.93Z"/></g><g id="_群組_24" data-name="&lt;群組&gt;"><path id="_路徑_43" data-name="&lt;路徑&gt;" class="cls-6" d="M1042.05,270.79l-.13.77a1.78,1.78,0,1,0,3.43,0l-.13-.77a1.66,1.66,0,0,0-3.17,0Z"/></g><g id="籃子"><circle class="cls-8" cx="568.52" cy="60.78" r="38.28" transform="translate(498.98 628.29) rotate(-89.12)"/><g class="cls-9"><path class="cls-10" d="M565.05,36.7a4.69,4.69,0,1,0,.65,6.59A4.67,4.67,0,0,0,565.05,36.7Z"/></g><path class="cls-11" d="M627.72,0C622.62,6,622,19.81,622,19.81l4.2-1.2c.15-5.44,4.2-17.11,4.2-17.11Z"/><path class="cls-12" d="M671.8,64.66a34.86,34.86,0,0,0-17.37-21.31,25.11,25.11,0,1,0-45.81,12.34,34.95,34.95,0,1,0,63.18,9Z"/><g class="cls-9"><path class="cls-10" d="M622.64,37.82a4.37,4.37,0,1,0-3,5.4A4.37,4.37,0,0,0,622.64,37.82Z"/></g><g id="_群組_25" data-name="&lt;群組&gt;"><path id="_路徑_44" data-name="&lt;路徑&gt;" class="cls-11" d="M355.28,60.59a158.9,158.9,0,0,1,1.9-32.84l-6.05-.8a165.82,165.82,0,0,0,.15,34.58"/><path class="cls-13" d="M404.17,80.47c-4.39-26.3-29.08-42.15-51.76-25.23C327,42.73,305.64,62.8,306.11,89.46c.49,28.58,22.78,50.45,44.25,40.44,1.66-.77,5.91-2.67,8.58-2.92h.1c2.67-.25,7.19.84,9,1.3C390.94,134.22,408.88,108.66,404.17,80.47Z"/><g class="cls-9"><path class="cls-10" d="M333,75.13a5.41,5.41,0,1,0-4.9,5.88A5.42,5.42,0,0,0,333,75.13Z"/></g><g class="cls-14"><path class="cls-13" d="M378.69,61.44a1.57,1.57,0,1,0,1.73,1.43A1.58,1.58,0,0,0,378.69,61.44Z"/></g><g class="cls-14"><path class="cls-13" d="M389.9,81.18a1.58,1.58,0,1,0,1.72,1.42A1.57,1.57,0,0,0,389.9,81.18Z"/></g><g class="cls-14"><path class="cls-13" d="M372.9,85.71a1.57,1.57,0,1,0,1.73,1.42A1.57,1.57,0,0,0,372.9,85.71Z"/></g><g class="cls-14"><path class="cls-13" d="M385.14,110.28a1.58,1.58,0,1,0,1.73,1.44A1.58,1.58,0,0,0,385.14,110.28Z"/></g><g class="cls-14"><path class="cls-13" d="M369.64,102.91a1.58,1.58,0,1,0,1.72,1.44A1.59,1.59,0,0,0,369.64,102.91Z"/></g><g class="cls-14"><path class="cls-13" d="M363.84,73.18a1.58,1.58,0,1,0,1.72,1.43A1.58,1.58,0,0,0,363.84,73.18Z"/></g><g class="cls-14"><path class="cls-13" d="M352.6,95.08a1.58,1.58,0,1,0,1.73,1.43A1.59,1.59,0,0,0,352.6,95.08Z"/></g><g class="cls-14"><path class="cls-13" d="M348.16,111.22a1.57,1.57,0,1,0,1.71,1.42A1.58,1.58,0,0,0,348.16,111.22Z"/></g><g class="cls-14"><path class="cls-13" d="M327.87,111.1a1.57,1.57,0,1,0,1.72,1.42A1.57,1.57,0,0,0,327.87,111.1Z"/></g><g class="cls-14"><path class="cls-13" d="M318.47,96.13a1.58,1.58,0,1,0,1.72,1.43A1.57,1.57,0,0,0,318.47,96.13Z"/></g><g class="cls-14"><path class="cls-13" d="M335.68,89.61A1.58,1.58,0,1,0,337.4,91,1.58,1.58,0,0,0,335.68,89.61Z"/></g><g class="cls-14"><path class="cls-13" d="M341.63,62.85a1.58,1.58,0,1,0,1.72,1.43A1.58,1.58,0,0,0,341.63,62.85Z"/></g></g><g id="_群組_26" data-name="&lt;群組&gt;"><path id="_路徑_45" data-name="&lt;路徑&gt;" class="cls-15" d="M526.34,10.39c-2.42-3.31-12.32-4.05-12.4,3.53-.05,4,5,8.23,7.54,4.14,1.63-2.65-2.43-10.48-9.27-9.59-4.66.6-11,7-8.86,15.83,1.32,5.52,8.17,6.56,9.24,1.7,1-4.42-2.76-12-10.73-10-6.64,1.67-12,11-11.45,27.3"/><g id="_群組_27" data-name="&lt;群組&gt;"><path class="cls-16" d="M487.68,5.16c-4.92,9.9-19.12-2.44-24.05,13.76C453.48-2.9,429.36,10.36,420.19,1.21c9.17,9.15-4,33.29,17.85,43.39-16.21,5-3.81,19.13-13.71,24.08,6.51-3.83,14.57-4.92,21.15-2.27,11,4.43,21.45-8.76,21.63-18.41,9.66-.21,22.81-10.72,18.36-21.68C482.8,19.74,483.87,11.69,487.68,5.16Z"/><path class="cls-17" d="M467.43,46.56c-1.69-2-3.73-4.24-6-6.54s-4.95-4.57-7.48-6.94c-5.08-4.72-10.13-9.49-14-13s-6.42-5.85-6.42-5.85l-.21.22,5.87,6.4c3.5,3.86,8.27,8.9,13,14,2.38,2.53,4.69,5.14,7,7.47s4.56,4.32,6.55,6a80.56,80.56,0,0,0,6.9,5.35l.23-.21A79.16,79.16,0,0,0,467.43,46.56Z"/><path class="cls-17" d="M476.74,16.18l-1.15.92c-.36.28-.76.69-1.25,1.15s-1,1-1.54,1.58-1.11,1.29-1.7,2-1.14,1.55-1.73,2.37-1.14,1.73-1.65,2.67-1.06,1.89-1.53,2.89-.91,2-1.35,3a18.78,18.78,0,0,0-1,3,16.27,16.27,0,0,0-.28,5.79,13,13,0,0,0,.55,2.29,10,10,0,0,0,.74,1.65,12.56,12.56,0,0,0,.88,1.27l.29-.13s0-.58-.11-1.47c-.07-.43,0-1,0-1.63s.12-1.3.15-2a8.18,8.18,0,0,1,.18-1.16c.07-.4.08-.8.19-1.22.21-.84.33-1.74.57-2.65s.41-1.88.62-2.86.53-2,.87-3,.73-1.94,1.15-2.87.88-1.84,1.3-2.72a52.73,52.73,0,0,1,2.75-4.6,19.78,19.78,0,0,1,1.26-1.74c.4-.5.72-.95,1.05-1.29l1-1.1Z"/><path class="cls-17" d="M464.66,45.72A8,8,0,0,0,463,45a12.63,12.63,0,0,0-2.29-.55,16.24,16.24,0,0,0-5.78.3,19.21,19.21,0,0,0-3.06,1c-1,.44-2,.85-3,1.36s-2,1-2.88,1.54-1.8,1.12-2.66,1.66-1.66,1.14-2.38,1.73-1.4,1.13-2,1.71-1.14,1.06-1.58,1.54-.87.89-1.15,1.26c-.58.74-.92,1.14-.92,1.14l.23.22,1.09-1c.35-.32.79-.65,1.29-1.05a20,20,0,0,1,1.73-1.27,52.58,52.58,0,0,1,4.6-2.77c.89-.42,1.76-.92,2.72-1.31s1.89-.79,2.87-1.14,2-.64,2.93-.89,1.94-.45,2.88-.62,1.79-.37,2.64-.57a11.85,11.85,0,0,1,1.21-.21c.4-.06.8-.16,1.16-.18.72,0,1.44-.2,2.05-.16a13.84,13.84,0,0,1,1.61,0c.89.08,1.47.1,1.47.1l.13-.29A13.44,13.44,0,0,0,464.66,45.72Z"/></g><path class="cls-18" d="M530,108.43a12.67,12.67,0,1,0,1.26,17.87A12.67,12.67,0,0,0,530,108.43Z"/><g id="_群組_28" data-name="&lt;群組&gt;"><path class="cls-19" d="M488.35,36.72a12.67,12.67,0,1,0,1.26,17.87A12.67,12.67,0,0,0,488.35,36.72Z"/><path class="cls-19" d="M499.29,58.67a12.67,12.67,0,1,0,1.26,17.88A12.67,12.67,0,0,0,499.29,58.67Z"/><path class="cls-19" d="M520,62.22a12.67,12.67,0,1,0,1.25,17.88A12.66,12.66,0,0,0,520,62.22Z"/><path class="cls-19" d="M472.65,49.52a12.67,12.67,0,1,0,1.25,17.87A12.67,12.67,0,0,0,472.65,49.52Z"/><path class="cls-19" d="M485.49,98.19a12.67,12.67,0,1,0,1.26,17.87A12.67,12.67,0,0,0,485.49,98.19Z"/><path class="cls-19" d="M521.41,76.72a12.67,12.67,0,1,0,1.25,17.88A12.67,12.67,0,0,0,521.41,76.72Z"/><path class="cls-19" d="M533.69,69A12.67,12.67,0,1,0,535,86.84,12.69,12.69,0,0,0,533.69,69Z"/><path class="cls-19" d="M523.9,127.37a12.67,12.67,0,1,0,1.26,17.88A12.68,12.68,0,0,0,523.9,127.37Z"/><path class="cls-19" d="M488.22,124.33a12.67,12.67,0,1,0,1.26,17.88A12.67,12.67,0,0,0,488.22,124.33Z"/><path class="cls-19" d="M469.6,94a12.67,12.67,0,1,0,1.26,17.88A12.7,12.7,0,0,0,469.6,94Z"/><path class="cls-19" d="M482.61,81.6a12.67,12.67,0,1,0,1.26,17.87A12.67,12.67,0,0,0,482.61,81.6Z"/><path class="cls-19" d="M500.75,81.61A12.67,12.67,0,1,0,502,99.49,12.68,12.68,0,0,0,500.75,81.61Z"/><path class="cls-19" d="M516.9,91.85a12.67,12.67,0,1,0,1.25,17.87A12.67,12.67,0,0,0,516.9,91.85Z"/><path class="cls-19" d="M500.58,104.15A12.68,12.68,0,1,0,501.83,122,12.68,12.68,0,0,0,500.58,104.15Z"/><path class="cls-19" d="M506,121.43a12.67,12.67,0,1,0,1.25,17.88A12.69,12.69,0,0,0,506,121.43Z"/><path class="cls-19" d="M471.5,66.71a12.67,12.67,0,1,0,1.26,17.87A12.67,12.67,0,0,0,471.5,66.71Z"/></g><path class="cls-18" d="M512,36.68a12.67,12.67,0,1,0,1.25,17.88A12.67,12.67,0,0,0,512,36.68Z"/><path class="cls-18" d="M475.77,107.92A12.67,12.67,0,1,0,477,125.8,12.68,12.68,0,0,0,475.77,107.92Z"/><path class="cls-18" d="M481.55,58a12.67,12.67,0,1,0,1.25,17.87A12.67,12.67,0,0,0,481.55,58Z"/><path class="cls-20" d="M505.72,138.19A12.67,12.67,0,1,0,507,156.06,12.67,12.67,0,0,0,505.72,138.19Z"/><path class="cls-20" d="M517.94,109.78a12.67,12.67,0,1,0,1.25,17.88A12.69,12.69,0,0,0,517.94,109.78Z"/><path class="cls-20" d="M498.52,96.73a12.67,12.67,0,1,0,1.26,17.87A12.67,12.67,0,0,0,498.52,96.73Z"/><path class="cls-20" d="M486.91,113.89a12.67,12.67,0,1,0,1.26,17.88A12.68,12.68,0,0,0,486.91,113.89Z"/><path class="cls-20" d="M468.92,77.51a12.68,12.68,0,1,0,1.25,17.88A12.68,12.68,0,0,0,468.92,77.51Z"/><path class="cls-20" d="M489,69.53a12.68,12.68,0,1,0,1.25,17.88A12.68,12.68,0,0,0,489,69.53Z"/><path class="cls-20" d="M510.91,72.71a12.68,12.68,0,1,0,1.25,17.89A12.68,12.68,0,0,0,510.91,72.71Z"/><path class="cls-20" d="M512.44,49.84a12.67,12.67,0,1,0,1.25,17.89A12.7,12.7,0,0,0,512.44,49.84Z"/><path class="cls-20" d="M493.26,41.41a12.68,12.68,0,1,0,1.26,17.88A12.69,12.69,0,0,0,493.26,41.41Z"/><path class="cls-20" d="M529.79,88.53a12.67,12.67,0,1,0,1.26,17.88A12.67,12.67,0,0,0,529.79,88.53Z"/><path class="cls-20" d="M530.23,48.72a12.67,12.67,0,1,0,1.26,17.88A12.68,12.68,0,0,0,530.23,48.72Z"/><path id="_路徑_46" data-name="&lt;路徑&gt;" class="cls-21" d="M512.39,81.6a9.83,9.83,0,0,0-10.48-9.11"/><path id="_路徑_47" data-name="&lt;路徑&gt;" class="cls-21" d="M490.44,78.42A9.82,9.82,0,0,0,480,69.31"/><path id="_路徑_48" data-name="&lt;路徑&gt;" class="cls-21" d="M470.4,86.39a9.82,9.82,0,0,0-10.48-9.1"/><path id="_路徑_49" data-name="&lt;路徑&gt;" class="cls-21" d="M500,105.61a9.83,9.83,0,0,0-10.48-9.11"/><path id="_路徑_50" data-name="&lt;路徑&gt;" class="cls-21" d="M519.42,118.67a9.81,9.81,0,0,0-10.48-9.11"/><path id="_路徑_51" data-name="&lt;路徑&gt;" class="cls-21" d="M531.28,97.42a9.83,9.83,0,0,0-10.48-9.11"/><path id="_路徑_52" data-name="&lt;路徑&gt;" class="cls-21" d="M488.39,122.77a9.82,9.82,0,0,0-10.48-9.1"/><path id="_路徑_53" data-name="&lt;路徑&gt;" class="cls-21" d="M507.2,147.07a9.81,9.81,0,0,0-10.47-9.1"/><path id="_路徑_54" data-name="&lt;路徑&gt;" class="cls-21" d="M513.93,58.73a9.84,9.84,0,0,0-10.48-9.11"/><path id="_路徑_55" data-name="&lt;路徑&gt;" class="cls-21" d="M494.74,50.3a9.82,9.82,0,0,0-10.48-9.11"/><path id="_路徑_56" data-name="&lt;路徑&gt;" class="cls-21" d="M531.71,57.61a9.8,9.8,0,0,0-10.47-9.11"/></g><polygon class="cls-11" points="413.65 12.54 412.27 41.03 418.71 41.22 420.68 13.6 413.65 12.54"/><path class="cls-22" d="M477.81,141.38c-9.89-16.21-19.81-37-18.9-54.37.72-13.5-3-27-11.84-37.19-9.42-10.88-24.45-20.19-45.56-12.32-39.17,14.61-28.14,132.42,57.22,136.25C479.9,174.69,486.69,155.94,477.81,141.38Z"/><g class="cls-9"><path class="cls-10" d="M403.85,66.11a5.47,5.47,0,1,0-4.17,6.51A5.47,5.47,0,0,0,403.85,66.11Z"/></g><g id="_群組_29" data-name="&lt;群組&gt;"><path class="cls-16" d="M607.52,51.53A31.11,31.11,0,0,0,587.29,65.6a31.85,31.85,0,0,0,44.43-9.49A31.11,31.11,0,0,0,607.52,51.53Z"/><path id="_路徑_57" data-name="&lt;路徑&gt;" class="cls-11" d="M583.87,82.06a161.14,161.14,0,0,1,8.51-32q-2.91-1-5.8-2a167,167,0,0,0-6.83,34.09"/><path class="cls-23" d="M582.13,76.21c-22.47-17.43-47.59-2-52.51,24.37-5.27,28.24,12.27,54.28,35.43,48.75,1.8-.42,6.36-1.44,9-1.14h.1c2.68.29,6.91,2.3,8.57,3.1C604.14,161.78,627,140.22,628,111.5,629,84.71,607.88,64.12,582.13,76.21Z"/><g class="cls-9"><path class="cls-10" d="M554.17,85.86a5.45,5.45,0,1,0,4.81,6A5.45,5.45,0,0,0,554.17,85.86Z"/></g></g><path class="cls-11" d="M530.66,72.62C524.11,77,519.74,90.1,519.74,90.1h4.37c1.63-5.19,8.74-15.3,8.74-15.3Z"/><path class="cls-24" d="M544.41,121.65A25.12,25.12,0,1,0,497,120.9a35,35,0,1,0,47.44.75Z"/><g class="cls-9"><path class="cls-10" d="M511,103.21a4.37,4.37,0,1,0,4.37,4.37A4.36,4.36,0,0,0,511,103.21Z"/></g><circle class="cls-8" cx="540.4" cy="195.15" r="38.28" transform="translate(192.6 652.47) rotate(-72.6)"/><g class="cls-9"><circle class="cls-10" cx="527.64" cy="177.9" r="4.69"/></g><circle class="cls-8" cx="308.4" cy="122.19" r="42.3" transform="translate(3.93 253.86) rotate(-45)"/><g class="cls-9"><circle class="cls-10" cx="294.3" cy="103.14" r="5.18" transform="translate(-16.22 131.96) rotate(-24.62)"/></g><g id="_群組_30" data-name="&lt;群組&gt;"><path class="cls-16" d="M406.35,92.91a33.67,33.67,0,0,0-18.49,19.26A34.51,34.51,0,0,0,433,92.63,33.66,33.66,0,0,0,406.35,92.91Z"/><path id="_路徑_58" data-name="&lt;路徑&gt;" class="cls-11" d="M387.73,130.39A174.63,174.63,0,0,1,390,94.62q-3.3-.44-6.59-.9a180.44,180.44,0,0,0,0,37.68"/><path class="cls-23" d="M440.91,152.27c-4.66-28.67-31.49-46.05-56.28-27.72-27.59-13.74-51,8-50.6,37.08.41,31.13,24.6,55.06,48,44.26,1.83-.84,6.46-2.9,9.36-3.15h.12c2.9-.26,7.83,1,9.76,1.47C426.25,210.78,445.92,183,440.91,152.27Z"/><g class="cls-9"><path class="cls-10" d="M363.38,146.12a5.9,5.9,0,1,0-5.38,6.4A5.93,5.93,0,0,0,363.38,146.12Z"/></g></g><g id="_群組_31" data-name="&lt;群組&gt;"><path class="cls-25" d="M357.07,140.65c-9.42-14.61-34.41-9.73-42.9-8.32-8.49-1.41-33.47-6.29-42.9,8.32-10.21,15.82-9,34.42,1,43.85s19.8,13.85,41.95,13.85,32.06-4.41,42-13.85S367.28,156.47,357.07,140.65Z"/><path class="cls-12" d="M335.09,130.87c-3.44-.93-7-.13-10.22,1.53,2-3,1.2-5.57-1.62-6.48-4-1.29-8.95-2.52-8.95-5.36h-.24c0,2.84-4.95,4.07-9,5.36-2.81.91-3.59,3.53-1.61,6.48-3.25-1.66-6.79-2.46-10.23-1.53-4.7,1.27-5.66,4.77-11.14,4.42,2.18,4.52,8.95,11.52,19.35,8.92-2.55,3.61-1.6,6.84,1.85,8,4.79,1.55,10.71,3,10.71,6.41h.29c0-3.39,5.93-4.86,10.73-6.41,3.44-1.12,4.4-4.35,1.84-8,10.42,2.6,17.17-4.4,19.35-8.92C340.75,135.64,339.79,132.14,335.09,130.87Z"/><path class="cls-13" d="M314.17,133.67c-4.08,0-7.39,1.68-7.39,3.74s3.31,3.73,7.39,3.73,7.39-1.67,7.39-3.73S318.26,133.67,314.17,133.67Z"/><path class="cls-11" d="M314.17,136.17c-1.3,0-2.35.55-2.35,1.24s1.05,1.24,2.35,1.24,2.37-.56,2.37-1.24S315.48,136.17,314.17,136.17Z"/><path id="_路徑_59" data-name="&lt;路徑&gt;" class="cls-26" d="M280.65,146.71a27.33,27.33,0,0,0,15.06,9.74"/><path id="_路徑_60" data-name="&lt;路徑&gt;" class="cls-26" d="M347.7,146.71c-2.39,3.18-7,7.53-15.05,9.74"/></g><g id="_群組_32" data-name="&lt;群組&gt;"><path id="_路徑_61" data-name="&lt;路徑&gt;" class="cls-15" d="M638.18,41.45c3.23-3.7,15.16-3.57,14.48,5.5-.36,4.79-6.88,9.33-9.45,4.19-1.68-3.34,4-12.29,12.08-10.53,5.51,1.2,12.45,9.47,9,19.86-2.15,6.47-10.45,7-11.24,1.08-.72-5.39,4.55-14.12,13.88-10.89,7.77,2.69,13.28,14.36,10.89,33.87"/><g id="_群組_33" data-name="&lt;群組&gt;"><path class="cls-27" d="M766.17,41.41c-11.92,10-39.42-8.35-53.82,16.72-4.23-19.91-22.5-6.59-27.36-19,3.89,8.21,4.34,18,.47,25.55C679,77.4,693.65,91.32,705.2,92.57c-.79,11.57,10.38,28.44,24,24.27,8.14-2.5,17.67-.36,25.07,4.9-11.34-6.95,5-22.61-13.92-30.24C767.53,81.66,754.25,51.41,766.17,41.41Z"/><path class="cls-17" d="M748.91,55.64,740.62,62c-5,3.78-11.53,9-18.11,14.1-3.27,2.58-6.63,5-9.65,7.53s-5.68,5-7.9,7.21a95.65,95.65,0,0,0-7.15,7.7l.25.28a95.39,95.39,0,0,0,8.81-5.7c2.56-1.82,5.48-4,8.47-6.51s6-5.45,9.1-8.23c6.2-5.58,12.43-11.11,17-15.38s7.68-7,7.68-7Z"/><path class="cls-17" d="M710.37,78.33a22.4,22.4,0,0,0-.89-3.75c-.42-1.24-.8-2.51-1.31-3.73s-1-2.45-1.53-3.62-1.14-2.29-1.7-3.36-1.19-2.09-1.83-3-1.2-1.82-1.83-2.57a26,26,0,0,0-1.67-2.06c-.54-.6-1-1.13-1.39-1.5L697,53.49l-.29.25,1.06,1.41c.36.44.69,1,1.13,1.66s.86,1.38,1.33,2.21c.94,1.64,1.87,3.65,2.82,5.79.41,1.1.9,2.22,1.27,3.39s.75,2.36,1.07,3.55.54,2.42.74,3.62.34,2.37.45,3.49.24,2.2.42,3.23c.09.51,0,1,.09,1.48a8.59,8.59,0,0,1,.1,1.41c0,.87.08,1.74,0,2.45s-.06,1.43-.18,1.94c-.2,1.06-.29,1.75-.29,1.75l.34.18a15.29,15.29,0,0,0,1.19-1.42,12.47,12.47,0,0,0,1-1.9,16,16,0,0,0,.9-2.69A19.4,19.4,0,0,0,710.37,78.33Z"/><path class="cls-17" d="M741.26,106a20.36,20.36,0,0,0-1.24-1.62c-.48-.63-1.08-1.3-1.74-2s-1.42-1.45-2.21-2.26-1.73-1.51-2.66-2.31-2-1.55-3-2.27-2.17-1.44-3.3-2.13-2.3-1.3-3.44-1.94a23.36,23.36,0,0,0-3.56-1.52,19.36,19.36,0,0,0-6.88-1,15.42,15.42,0,0,0-2.8.43,9.51,9.51,0,0,0-2.06.69,13.74,13.74,0,0,0-1.61.93l.12.36s.7,0,1.78,0a19.33,19.33,0,0,1,1.93.15c.73,0,1.57.3,2.43.4.43.06.9.23,1.37.33s.94.19,1.43.38c1,.33,2,.57,3.1.95s2.22.69,3.38,1.05,2.29.84,3.42,1.36,2.26,1,3.31,1.66,2.11,1.25,3.13,1.85c1.94,1.31,3.76,2.57,5.22,3.78.73.6,1.4,1.16,1.94,1.7s1.05,1,1.43,1.39l1.2,1.28.3-.24S741.88,106.94,741.26,106Z"/></g><path class="cls-18" d="M645,161.76A15.23,15.23,0,1,0,641.67,183,15.22,15.22,0,0,0,645,161.76Z"/><g id="_群組_34" data-name="&lt;群組&gt;"><path class="cls-19" d="M702.21,80.22a15.23,15.23,0,1,0-3.35,21.27A15.22,15.22,0,0,0,702.21,80.22Z"/><path class="cls-19" d="M686.85,105.37a15.23,15.23,0,1,0-3.35,21.28A15.23,15.23,0,0,0,686.85,105.37Z"/><path class="cls-19" d="M661.7,107.49a15.23,15.23,0,1,0-3.35,21.27A15.23,15.23,0,0,0,661.7,107.49Z"/><path class="cls-19" d="M719.68,97.16a15.23,15.23,0,1,0-3.35,21.27A15.23,15.23,0,0,0,719.68,97.16Z"/><path class="cls-19" d="M699.29,154.09a15.23,15.23,0,1,0-3.35,21.27A15.21,15.21,0,0,0,699.29,154.09Z"/><path class="cls-19" d="M658.52,124.69A15.23,15.23,0,1,0,655.18,146,15.22,15.22,0,0,0,658.52,124.69Z"/><path class="cls-19" d="M644.61,114.14a15.23,15.23,0,1,0-3.34,21.28A15.23,15.23,0,0,0,644.61,114.14Z"/><path class="cls-19" d="M650.32,185.06A15.23,15.23,0,1,0,647,206.33,15.24,15.24,0,0,0,650.32,185.06Z"/><path class="cls-19" d="M693.33,185.1A15.23,15.23,0,1,0,690,206.37,15.22,15.22,0,0,0,693.33,185.1Z"/><path class="cls-19" d="M718.76,150.68A15.23,15.23,0,1,0,715.4,172,15.23,15.23,0,0,0,718.76,150.68Z"/><path class="cls-19" d="M704.45,134.53a15.22,15.22,0,1,0-3.35,21.27A15.22,15.22,0,0,0,704.45,134.53Z"/><path class="cls-19" d="M682.75,132.68A15.23,15.23,0,1,0,679.39,154,15.23,15.23,0,0,0,682.75,132.68Z"/><path class="cls-19" d="M662.36,143.27A15.23,15.23,0,1,0,659,164.54,15.23,15.23,0,0,0,662.36,143.27Z"/><path class="cls-19" d="M680.62,159.68A15.22,15.22,0,1,0,677.28,181,15.22,15.22,0,0,0,680.62,159.68Z"/><path class="cls-19" d="M672.42,179.8a15.23,15.23,0,1,0-3.35,21.27A15.25,15.25,0,0,0,672.42,179.8Z"/><path class="cls-19" d="M719.28,117.85a15.22,15.22,0,1,0-3.35,21.27A15.22,15.22,0,0,0,719.28,117.85Z"/></g><path class="cls-18" d="M674,77.75A15.22,15.22,0,1,0,670.62,99,15.21,15.21,0,0,0,674,77.75Z"/><path class="cls-18" d="M709.93,166.74A15.23,15.23,0,1,0,706.58,188,15.24,15.24,0,0,0,709.93,166.74Z"/><path class="cls-18" d="M708.16,106.38a15.23,15.23,0,1,0-3.34,21.27A15.21,15.21,0,0,0,708.16,106.38Z"/><path class="cls-20" d="M671,199.89a15.22,15.22,0,1,0-3.35,21.27A15.21,15.21,0,0,0,671,199.89Z"/><path class="cls-20" d="M659.27,164.62a15.23,15.23,0,1,0-3.36,21.28A15.24,15.24,0,0,0,659.27,164.62Z"/><path class="cls-20" d="M683.85,151a15.23,15.23,0,1,0-3.35,21.27A15.23,15.23,0,0,0,683.85,151Z"/><path class="cls-20" d="M696,172.74A15.23,15.23,0,1,0,692.63,194,15.24,15.24,0,0,0,696,172.74Z"/><path class="cls-20" d="M721.26,131.05a15.22,15.22,0,1,0-3.34,21.28A15.23,15.23,0,0,0,721.26,131.05Z"/><path class="cls-20" d="M698.1,119.44a15.23,15.23,0,1,0-3.34,21.27A15.23,15.23,0,0,0,698.1,119.44Z"/><path class="cls-20" d="M671.5,121a15.22,15.22,0,1,0-3.35,21.27A15.22,15.22,0,0,0,671.5,121Z"/><path class="cls-20" d="M672,93.45a15.23,15.23,0,1,0-3.36,21.28A15.24,15.24,0,0,0,672,93.45Z"/><path class="cls-20" d="M695.86,85.34a15.23,15.23,0,1,0-3.36,21.27A15.26,15.26,0,0,0,695.86,85.34Z"/><path class="cls-20" d="M647.27,138a15.23,15.23,0,1,0-3.35,21.27A15.21,15.21,0,0,0,647.27,138Z"/><path class="cls-20" d="M650.84,90.28a15.23,15.23,0,1,0-3.35,21.27A15.22,15.22,0,0,0,650.84,90.28Z"/><path id="_路徑_62" data-name="&lt;路徑&gt;" class="cls-21" d="M647.54,128.12A11.79,11.79,0,0,1,661,118.3"/><path id="_路徑_63" data-name="&lt;路徑&gt;" class="cls-21" d="M674.14,126.58a11.79,11.79,0,0,1,13.48-9.82"/><path id="_路徑_64" data-name="&lt;路徑&gt;" class="cls-21" d="M697.3,138.19a11.8,11.8,0,0,1,13.48-9.82"/><path id="_路徑_65" data-name="&lt;路徑&gt;" class="cls-21" d="M659.88,158.14a11.82,11.82,0,0,1,13.49-9.83"/><path id="_路徑_66" data-name="&lt;路徑&gt;" class="cls-21" d="M635.31,171.77a11.79,11.79,0,0,1,13.48-9.83"/><path id="_路徑_67" data-name="&lt;路徑&gt;" class="cls-21" d="M623.3,145.11a11.81,11.81,0,0,1,13.48-9.83"/><path id="_路徑_68" data-name="&lt;路徑&gt;" class="cls-21" d="M672,179.88a11.79,11.79,0,0,1,13.48-9.82"/><path id="_路徑_69" data-name="&lt;路徑&gt;" class="cls-21" d="M647,207a11.79,11.79,0,0,1,13.48-9.82"/><path id="_路徑_70" data-name="&lt;路徑&gt;" class="cls-21" d="M648.06,100.59a11.8,11.8,0,0,1,13.48-9.82"/><path id="_路徑_71" data-name="&lt;路徑&gt;" class="cls-21" d="M671.89,92.48a11.81,11.81,0,0,1,13.48-9.83"/><path id="_路徑_72" data-name="&lt;路徑&gt;" class="cls-21" d="M626.88,97.43a11.78,11.78,0,0,1,13.47-9.83"/></g><g id="_群組_35" data-name="&lt;群組&gt;"><path id="_路徑_73" data-name="&lt;路徑&gt;" class="cls-11" d="M466.52,148.41A173.44,173.44,0,0,1,471.86,113l-6.49-1.47A180.21,180.21,0,0,0,462.1,149"/><path class="cls-13" d="M517.6,174.84c-2.15-29-27.36-48.62-53.66-32.52-26.28-16.1-51.49,3.55-53.64,32.52-2.3,31.06,19.71,57,44,48.28,1.88-.68,6.68-2.31,9.61-2.31h.1c2.93,0,7.72,1.63,9.6,2.31C497.89,231.84,519.89,205.9,517.6,174.84Z"/><g class="cls-9"><path class="cls-10" d="M435,156.06a5.9,5.9,0,1,0,5.9,5.91A5.91,5.91,0,0,0,435,156.06Z"/></g><g class="cls-14"><path class="cls-13" d="M491.84,151.66a1.72,1.72,0,1,0,1.73,1.72A1.71,1.71,0,0,0,491.84,151.66Z"/></g><g class="cls-14"><path class="cls-13" d="M502,174.19a1.72,1.72,0,1,0,1.72,1.72A1.72,1.72,0,0,0,502,174.19Z"/></g><g class="cls-14"><path class="cls-13" d="M483.15,177.41a1.72,1.72,0,1,0,1.73,1.72A1.72,1.72,0,0,0,483.15,177.41Z"/></g><g class="cls-14"><path class="cls-13" d="M494,205.3a1.72,1.72,0,1,0,1.73,1.73A1.72,1.72,0,0,0,494,205.3Z"/></g><g class="cls-14"><path class="cls-13" d="M477.89,195.76a1.72,1.72,0,1,0,1.73,1.73A1.72,1.72,0,0,0,477.89,195.76Z"/></g><g class="cls-14"><path class="cls-13" d="M474.56,162.92a1.72,1.72,0,1,0,1.73,1.72A1.72,1.72,0,0,0,474.56,162.92Z"/></g><g class="cls-14"><path class="cls-13" d="M460.19,185.57a1.72,1.72,0,1,0,1.73,1.72A1.72,1.72,0,0,0,460.19,185.57Z"/></g><g class="cls-14"><path class="cls-13" d="M453.76,202.63a1.72,1.72,0,1,0,1.72,1.71A1.71,1.71,0,0,0,453.76,202.63Z"/></g><g class="cls-14"><path class="cls-13" d="M431.76,200.48a1.72,1.72,0,1,0,1.72,1.72A1.71,1.71,0,0,0,431.76,200.48Z"/></g><g class="cls-14"><path class="cls-13" d="M423.06,183.3a1.72,1.72,0,1,0,0,3.44,1.72,1.72,0,1,0,0-3.44Z"/></g><g class="cls-14"><path class="cls-13" d="M442.37,177.94a1.72,1.72,0,1,0,1.73,1.73A1.72,1.72,0,0,0,442.37,177.94Z"/></g><g class="cls-14"><path class="cls-13" d="M451.5,149.51a1.72,1.72,0,1,0,1.72,1.72A1.72,1.72,0,0,0,451.5,149.51Z"/></g></g><polygon class="cls-11" points="599.38 85.97 592.35 87.04 594.32 114.65 600.75 114.46 599.38 85.97"/><path class="cls-22" d="M611.51,110.94c-21.11-7.88-36.13,1.43-45.55,12.32-8.85,10.22-12.56,23.69-11.85,37.19.91,17.31-9,38.15-18.89,54.36-8.89,14.56-2.09,33.32,19.07,32.37C639.66,243.36,650.68,125.54,611.51,110.94Z"/><g class="cls-9"><path class="cls-10" d="M579.39,135.38a5.47,5.47,0,1,0,4.18,6.51A5.48,5.48,0,0,0,579.39,135.38Z"/></g><g id="_群組_36" data-name="&lt;群組&gt;"><g id="_剪裁群組_" data-name="&lt;剪裁群組&gt;"><g class="cls-28"><path class="cls-29" d="M485.21,217.69c-91.12,0-175.59-15.37-245.29-41.58,6.86,65.88,67.48,152.17,245.29,152.5C663,328.28,723.63,242,730.5,176.11,660.8,202.32,576.32,217.69,485.21,217.69Z"/><path class="cls-30" d="M485.21,283.51c-9.92,0-19.65-.39-29.31-.76v12.54a96.44,96.44,0,0,0,58.61,0V282.75C504.85,283.1,495.12,283.55,485.21,283.51Z"/><path class="cls-30" d="M485.21,239c-9.87,0-19.61-.38-29.31-.72v12.57a98.09,98.09,0,0,0,58.61,0V238.3C504.82,238.64,495.06,239,485.21,239Z"/><path class="cls-30" d="M552.19,280.43V293c20,3.78,40.19-1.25,58.61-7.91V272.32C592.24,275.94,572.51,280.85,552.19,280.43Z"/><path class="cls-30" d="M552.19,236.19v12.6c19.69,4,39.85-.33,58.61-6.64v-12.7C591.83,232.45,572.13,236.61,552.19,236.19Z"/><path class="cls-30" d="M648.48,263.7v13c20.93.12,41.15-10.38,58.62-20.31v-14C689.77,250.7,669.88,261.4,648.48,263.7Z"/><path class="cls-30" d="M648.48,222.73v12.82c20,1.43,40.12-6.41,58.62-14.35V208.07C688.48,213.71,668.69,221.54,648.48,222.73Z"/><path class="cls-30" d="M359.6,272.32v12.77c18.42,6.64,38.58,11.7,58.62,7.91V280.43C397.91,280.87,378.18,275.93,359.6,272.32Z"/><path class="cls-30" d="M359.6,229.45v12.7c18.77,6.36,38.93,10.59,58.62,6.64v-12.6C398.28,236.59,378.58,232.46,359.6,229.45Z"/><path class="cls-30" d="M263.31,242.46v14c17.47,9.92,37.69,20.45,58.62,20.31v-13C300.52,261.4,280.65,250.68,263.31,242.46Z"/><path class="cls-30" d="M263.31,208.07V221.2c18.49,7.93,38.63,15.77,58.62,14.35v-12.8C301.72,221.53,281.93,213.71,263.31,208.07Z"/><path class="cls-30" d="M504.05,305.37v12.52c19.8,5.05,40,2.3,58.61-3.76V301.57C543.88,303.77,524.18,306.33,504.05,305.37Z"/><path class="cls-30" d="M504.05,260.87v12.54c19.69,5.07,39.89,2.46,58.61-3.53v-12.6C543.7,259.31,524,261.76,504.05,260.87Z"/><path class="cls-30" d="M600.34,296.22V309c20.53,2.13,40.69-5.71,58.62-13.79V281.91C641.05,287.74,621.2,295.56,600.34,296.22Z"/><path class="cls-30" d="M600.34,252.44v12.71c20.14,2.43,40.28-4.45,58.62-11.93v-13C640.54,245.21,620.73,252,600.34,252.44Z"/><path class="cls-30" d="M696.63,228.58v13.31c21.22-1.73,41.35-14.56,58.62-26.16V201.19C738.24,211.48,718.33,224.6,696.63,228.58Z"/><path class="cls-30" d="M407.76,301.57v12.56c18.57,6.06,38.8,8.82,58.61,3.76V305.37C446.23,306.35,426.54,303.77,407.76,301.57Z"/><path class="cls-30" d="M407.76,257.28v12.6c18.7,6,38.92,8.63,58.61,3.53V260.87C446.37,261.75,426.71,259.3,407.76,257.28Z"/><path class="cls-30" d="M311.46,281.9v13.26c17.91,8.09,38.1,15.89,58.61,13.79V296.22C349.21,295.54,329.36,287.74,311.46,281.9Z"/><path class="cls-30" d="M311.46,240.25v13c18.33,7.48,38.47,14.36,58.61,11.93V252.44C349.67,252,329.88,245.21,311.46,240.25Z"/><path class="cls-30" d="M215.16,201.19v14.54c17.28,11.6,37.4,24.41,58.62,26.16V228.58C252.08,224.59,232.17,211.47,215.16,201.19Z"/><path class="cls-31" d="M526,282.25v12.54a28,28,0,0,0,14.66-.94V281.29C535.84,281.64,531,282.1,526,282.25Z"/><path class="cls-31" d="M526,237.87v12.58a27.64,27.64,0,0,0,14.66-.83V237C535.83,237.36,530.93,237.72,526,237.87Z"/><path class="cls-31" d="M622.31,270v12.89A30.62,30.62,0,0,0,637,279.68v-13C632.19,267.84,627.26,269.22,622.31,270Z"/><path class="cls-31" d="M622.31,227.62v12.76A30.51,30.51,0,0,0,637,237.81V225C632.15,226,627.22,227,622.31,227.62Z"/><path class="cls-31" d="M718.61,204.52v13.15c4.87-.2,9.9-2.2,14.66-4.8V199.62C728.46,201.27,723.55,203.28,718.61,204.52Z"/><path class="cls-31" d="M429.72,281.29v12.56a28,28,0,0,0,14.68.94V282.25C439.46,282.07,434.59,281.66,429.72,281.29Z"/><path class="cls-31" d="M429.72,237v12.58a27.71,27.71,0,0,0,14.68.83V237.88C439.48,237.73,434.59,237.36,429.72,237Z"/><path class="cls-31" d="M333.45,266.68v13a30.68,30.68,0,0,0,14.64,3.18V270C343.15,269.21,338.22,267.85,333.45,266.68Z"/><path class="cls-31" d="M333.45,225v12.77a30.31,30.31,0,0,0,14.64,2.57V227.62C343.18,227,338.26,226,333.45,225Z"/><path class="cls-31" d="M237.15,199.62v13.25c4.75,2.57,9.78,4.6,14.65,4.8V204.52C246.85,203.29,242,201.28,237.15,199.62Z"/><path class="cls-31" d="M574.16,300.19v12.6a29,29,0,0,0,14.67-2V298.13C584,298.9,579.1,299.73,574.16,300.19Z"/><path class="cls-31" d="M574.16,256v12.65a29,29,0,0,0,14.67-1.8V254.2C584,254.87,579.08,255.61,574.16,256Z"/><path class="cls-31" d="M670.46,278v13.44c4.94-.4,10-2.67,14.66-5.48V272.25C680.4,274.22,675.48,276.53,670.46,278Z"/><path class="cls-31" d="M670.46,237v13.1c4.89-.08,9.94-1.9,14.66-4.39V232.49C680.34,234.06,675.42,235.91,670.46,237Z"/><path class="cls-31" d="M485.21,305.6c-2.47,0-4.9,0-7.33-.05v12.54a27.93,27.93,0,0,0,7.33,1.06,27.16,27.16,0,0,0,7.32-1.06V305.55C490.08,305.59,487.66,305.59,485.21,305.6Z"/><path class="cls-31" d="M485.21,261.11c-2.47,0-4.88-.1-7.33-.1v12.56a28.94,28.94,0,0,0,7.33,1.08,27.18,27.18,0,0,0,7.32-1.08V261C490.09,261,487.67,261.09,485.21,261.11Z"/><path class="cls-31" d="M381.59,298.12v12.67a29,29,0,0,0,14.65,2v-12.6C391.31,299.76,386.4,298.87,381.59,298.12Z"/><path class="cls-31" d="M381.59,254.2v12.67a28.84,28.84,0,0,0,14.65,1.8V256C391.33,255.62,386.42,254.88,381.59,254.2Z"/><path class="cls-31" d="M285.29,272.24v13.67C290,288.74,295,291,300,291.39V278C294.94,276.53,290,274.22,285.29,272.24Z"/><path class="cls-31" d="M285.29,232.49v13.23c4.72,2.47,9.78,4.32,14.66,4.39V237A153.4,153.4,0,0,1,285.29,232.49Z"/></g></g><g id="_群組_37" data-name="&lt;群組&gt;"><path class="cls-32" d="M730.46,163.77a12.68,12.68,0,1,0,12.67,12.68A12.68,12.68,0,0,0,730.46,163.77Z"/><path class="cls-32" d="M240,163.77a12.68,12.68,0,1,0,12.67,12.68A12.68,12.68,0,0,0,240,163.77Z"/><g id="_群組_38" data-name="&lt;群組&gt;"><path id="_路徑_74" data-name="&lt;路徑&gt;" class="cls-1" d="M735.36,174.23c-70.62,27.33-156.9,43.46-250.15,43.46s-179.55-16.13-250.16-43.46"/><g id="_群組_39" data-name="&lt;群組&gt;"><path class="cls-32" d="M731.25,163.62l-.23.23.11,0c-2.48,3-3.73,8.7-4.54,13.5l-1,3.88-.31.91-1.46,3.37,0,.07-2,3.21-.33.46L719,192c5.55,1.68,14.2-1,20.36-7.33Z"/><path class="cls-33" d="M711.52,170.8l.12,0c-2.56,3-3.95,8.87-5,13.58l-1.13,3.81-.35.88-1.6,3.29,0,.07-2.18,3.09L701,196l-2.49,2.61c5.46,1.87,14.24-.08,20.49-6.58h0l2.39-2.74.33-.46,2-3.21,0-.07,1.46-3.37.31-.91,1-3.88c.81-4.8,2.06-10.47,4.54-13.5C725.65,162.12,717.56,164.55,711.52,170.8Z"/><path class="cls-32" d="M691.8,177.13l.12,0-.07.1,6.53,21.51.17-.18L701,196l.35-.44,2.18-3.09,0-.07,1.6-3.29.35-.88,1.13-3.81c1-4.71,2.4-10.54,5-13.58C706.33,169.18,698.13,171.25,691.8,177.13Z"/></g><g id="_群組_40" data-name="&lt;群組&gt;"><path class="cls-32" d="M691.77,177l-.26.21.12,0c-2.69,2.92-4.33,8.55-5.47,13.33l-1.24,3.85-.38.89-1.69,3.32,0,.05-2.27,3.05-.39.42-2.57,2.5c5.48,2.34,14.18-.07,20.74-6Z"/><path class="cls-33" d="M671.6,183l.11,0c-2.81,2.78-4.65,8.32-6,13l-1.39,3.77-.39.88-1.81,3.22,0,.06-2.36,3-.39.44-2.63,2.49c5.3,2.2,14.08.44,20.84-5.19h0l2.57-2.49.39-.42,2.27-3.05,0-.05,1.69-3.32.38-.89,1.24-3.85c1.14-4.78,2.78-10.41,5.47-13.33C686.27,175.1,678.17,177.47,671.6,183Z"/><path class="cls-32" d="M651.46,188l.12.05-.09.09,5.08,21.9.18-.16h0l2.64-2.49.39-.44,2.36-3,0-.06,1.81-3.22.39-.88,1.39-3.77c1.3-4.69,3.14-10.23,6-13C666.43,180.71,658.12,182.33,651.46,188Z"/></g><g id="_群組_41" data-name="&lt;群組&gt;"><path class="cls-32" d="M651.44,187.85l-.27.2.11,0c-2.86,2.87-4.89,8.28-6.37,12.89l-1.5,3.69-.44.85-1.9,3.13-.05.06-2.47,2.87-.39.41-2.72,2.36c5.25,2.37,14.2,1.27,21.09-4.49Z"/><path class="cls-33" d="M630.85,192.31l.1.05c-3,2.66-5.15,8.11-6.74,12.77l-1.61,3.7-.46.85-2,3.14,0,.07-2.55,2.77-.42.38-2.79,2.24c5.19,2.8,14,1.4,21.09-3.94h0l2.73-2.36.39-.41L641,208.7l.05-.06,1.9-3.13.44-.85,1.5-3.69c1.48-4.61,3.51-10,6.37-12.89C646.16,186,637.69,186.92,630.85,192.31Z"/><path class="cls-32" d="M610.41,196.11l.11.06-.08.09,3.72,22.16.19-.14,2.79-2.24.42-.38,2.55-2.77,0-.07,2-3.14.46-.85,1.61-3.7C625.8,200.47,628,195,631,192.36,625.82,189.72,617.5,191.3,610.41,196.11Z"/></g><g id="_群組_42" data-name="&lt;群組&gt;"><path class="cls-32" d="M610.39,196l-.28.18.11.06c-3.05,2.5-5.41,7.84-7.15,12.41l-1.72,3.63-.48.83-2.1,3,0,.06L596.11,219l-.42.38-2.85,2.25c5.11,2.69,14,1.72,21.3-3.33Z"/><path class="cls-33" d="M589.56,199.32l.11.06c-3.11,2.57-5.62,7.82-7.5,12.26l-1.83,3.54-.51.81-2.18,2.94,0,.06-2.71,2.64-.43.37-2.92,2.12c5,2.8,13.93,2.54,21.29-2.53h0l2.85-2.24.42-.38,2.62-2.78,0-.06,2.1-3,.48-.83,1.72-3.63c1.74-4.57,4.1-9.91,7.15-12.41C605.19,193.46,596.72,194.31,589.56,199.32Z"/><path class="cls-32" d="M568.9,201.77l.11,0-.09.08,2.43,22.35.2-.13h0l2.92-2.11.43-.37,2.71-2.64,0-.06,2.18-2.94.51-.81,1.83-3.54c1.88-4.44,4.39-9.69,7.5-12.26C584.76,196.77,576.22,197,568.9,201.77Z"/></g><g id="_群組_43" data-name="&lt;群組&gt;"><path class="cls-32" d="M568.89,201.63l-.29.17.11,0c-3.21,2.39-5.85,7.62-7.85,12.12l-1.92,3.54-.53.81-2.25,3,0,.05-2.78,2.6-.44.35-3,2c5,3.28,13.88,2.5,21.42-2.17Z"/><path class="cls-33" d="M547.9,203.84l.11.06c-3.27,2.24-6.08,7.35-8.19,11.75l-2,3.45-.56.79-2.33,2.84-.06.06L532,225.32l-.45.34-3,2c4.84,3.11,13.74,2.94,21.38-1.4h0l3-2,.44-.35,2.78-2.6,0-.05,2.25-3,.53-.81,1.92-3.54c2-4.5,4.64-9.73,7.85-12.12C563.83,198.78,555.37,199.57,547.9,203.84Z"/><path class="cls-32" d="M527.13,205.19l.1.06-.1.08,1.2,22.44.21-.11h0l3-2,.45-.34,2.84-2.53.06-.06,2.33-2.84.56-.79,2-3.45c2.11-4.4,4.92-9.51,8.19-11.75C543.22,200.72,534.69,200.82,527.13,205.19Z"/></g><g id="_群組_44" data-name="&lt;群組&gt;"><path class="cls-32" d="M527.12,205.07l-.3.15.1.05c-3.32,2.21-6.26,7.42-8.49,11.69l-2.11,3.38-.58.76-2.41,2.73-.06.06-2.9,2.41-.47.33-3.08,1.85c4.79,3.29,13.74,3.69,21.51-.88Z"/><path class="cls-33" d="M506,206l.09.07c-3.38,2.1-6.45,7.08-8.81,11.38l-2.19,3.37-.6.76L492,224.3l0,.06-3,2.4-.47.31-3.12,1.86c4.65,3.33,13.55,3.56,21.4-.45l3.08-1.85.47-.33,2.9-2.41.06-.06,2.41-2.73.58-.76,2.11-3.38c2.23-4.27,5.17-9.48,8.49-11.69C522.24,202.22,513.71,202,506,206Z"/><path class="cls-32" d="M485.21,206.43l.09.07-.09.07v22.48l.21-.12h0l3.13-1.86.47-.31,3-2.4,0-.06,2.49-2.74.6-.76,2.19-3.37c2.36-4.3,5.43-9.28,8.81-11.38C501.52,202.66,493,202.4,485.21,206.43Z"/></g><g id="_群組_45" data-name="&lt;群組&gt;"><path class="cls-32" d="M484.9,206.43l.1.07c-3.44,1.95-6.65,6.79-9.1,11l-2.3,3.27-.62.75-2.55,2.63-.06.05-3,2.27-.48.31-3.17,1.72c4.59,3.54,13.53,4.12,21.52.4V206.31Z"/><path class="cls-33" d="M464.09,206l.09.07c-3.5,1.94-6.82,6.79-9.41,11l-2.38,3.26-.63.74-2.62,2.58-.06,0L446,225.81l-.48.28-3.21,1.58c4.47,3.85,13.32,4.53,21.39.81l3.17-1.72.48-.31,3-2.27.06-.05L473,221.5l.62-.75,2.3-3.27c2.45-4.19,5.66-9,9.1-11C480.48,202.91,472,202.28,464.09,206Z"/><path class="cls-32" d="M443.29,205.19l.08.08-.09.06-1.2,22.44.22-.1,3.21-1.58.48-.28,3.09-2.14.06,0,2.62-2.58.63-.74,2.38-3.26c2.59-4.2,5.91-9,9.41-11C459.75,202.42,451.25,202,443.29,205.19Z"/></g><g id="_群組_46" data-name="&lt;群組&gt;"><path class="cls-32" d="M443,205.17l.09.07c-3.54,1.81-7,6.5-9.68,10.59L430.91,219l-.64.71-2.7,2.52-.06.05-3.16,2.14-.5.27-3.25,1.58c4.4,3.73,13.3,4.72,21.49,1.34l1.2-22.53Z"/><path class="cls-33" d="M422.2,203.83l.1.06c-3.6,1.85-7.18,6.44-10,10.37l-2.55,3.07-.67.68-2.76,2.4-.06,0-3.22,2-.5.27-3.29,1.43c4.27,3.81,13.05,5.49,21.32,2.1l3.25-1.58.5-.27,3.16-2.14.06-.05,2.7-2.52.64-.71,2.48-3.16c2.68-4.09,6.14-8.78,9.68-10.59C438.75,201.46,430.29,200.48,422.2,203.83Z"/><path class="cls-32" d="M401.51,201.77l.09.08-.11.05-2.44,22.35.23-.09h0l3.3-1.43.5-.27,3.22-2,.06,0,2.76-2.4.67-.68,2.55-3.07c2.79-3.93,6.37-8.52,10-10.37C418.06,200.28,409.67,198.72,401.51,201.77Z"/></g><g id="_群組_47" data-name="&lt;群組&gt;"><path class="cls-32" d="M401.2,201.73l.09.07c-3.64,1.66-7.35,6.19-10.26,10.14L388.38,215l-.69.68-2.84,2.39-.05.05-3.29,2-.5.23-3.33,1.3c4.15,4.28,13,5.42,21.39,2.49l2.44-22.46Z"/><path class="cls-33" d="M380.55,199.28l.08.08c-3.66,1.48-7.51,5.87-10.52,9.7L367.38,212l-.7.64-2.91,2.28-.06,0-3.32,1.86-.52.24-3.39,1.28c4,4.08,12.8,5.85,21.2,3.26h0l3.33-1.3.5-.23,3.29-2,.05-.05,2.84-2.39.69-.68,2.65-3.05c2.91-3.95,6.62-8.48,10.26-10.14C397.2,197.76,388.76,196.71,380.55,199.28Z"/><path class="cls-32" d="M360,196.11l.08.08-.1.07-3.73,22.16.23-.08,3.39-1.28.52-.24,3.32-1.86.06,0,2.91-2.28.7-.64,2.73-2.94c3-3.83,6.86-8.22,10.52-9.7C376.66,195.21,368.32,193.49,360,196.11Z"/></g><g id="_群組_48" data-name="&lt;群組&gt;"><path class="cls-32" d="M359.69,196.07l.1.08c-3.73,1.46-7.73,5.88-10.84,9.52l-2.81,2.83-.72.62-3,2.14-.07.05L339,213l-.53.23-3.41,1.14c3.94,4.2,12.63,6.67,21.2,3.89L360,196Z"/><path class="cls-33" d="M339.27,192.25l.09.09c-3.76,1.31-7.87,5.5-11.11,9.17l-2.91,2.81-.75.61-3,2.14-.06,0-3.44,1.67-.54.19-3.44,1c3.73,4.62,12.45,6.51,21,4.41h0l3.41-1.14L339,213l3.37-1.69.07-.05,3-2.14.72-.62,2.81-2.83c3.11-3.64,7.11-8.06,10.84-9.52C355.86,192.17,347.64,190,339.27,192.25Z"/><path class="cls-32" d="M319,188l.09.1-.12,0L313.84,210l.23,0,3.44-1,.54-.19,3.44-1.67.06,0,3-2.14.75-.61,2.91-2.81c3.24-3.67,7.35-7.86,11.11-9.17C335.63,187.94,327.34,186.13,319,188Z"/></g><g id="_群組_49" data-name="&lt;群組&gt;"><path class="cls-32" d="M318.65,187.9l.09.09c-3.79,1.14-8,5.16-11.36,8.7l-3,2.68-.76.58-3.1,2-.07,0L297,203.51l-.54.2-3.5,1c3.67,4.45,12.31,7,21,5.17l5.1-22Z"/><path class="cls-33" d="M298.52,182.88l.08.09c-3.86,1.18-8.22,5.08-11.67,8.41l-3.07,2.56-.78.54-3.16,1.85-.06,0-3.54,1.38-.53.16-3.53.81c3.52,4.51,11.9,7.84,20.66,6h0l3.5-1,.54-.2,3.49-1.53.07,0,3.1-2,.76-.58,3-2.68c3.35-3.54,7.57-7.56,11.36-8.7C315.15,183.5,307.05,181,298.52,182.88Z"/><path class="cls-32" d="M278.6,177.13l.09.09-.12,0L272,198.77l.23-.05,3.53-.81.53-.16,3.54-1.38.06,0,3.16-1.85.78-.54,3.07-2.56c3.45-3.33,7.81-7.23,11.67-8.41C295.07,178.67,287.16,175.62,278.6,177.13Z"/></g><g id="_群組_50" data-name="&lt;群組&gt;"><path class="cls-32" d="M278.31,177l.08.09c-3.87,1-8.37,4.73-12,8.07l-3.17,2.51-.81.54L259.19,190l-.07,0-3.56,1.22-.56.13-3.53.64c3.29,5,11.78,8,20.61,6.56l6.56-21.6Z"/><path class="cls-33" d="M258.59,170.7l.08.09c-3.88.77-8.49,4.34-12.21,7.52l-3.26,2.36-.83.51-3.3,1.66-.08,0-3.65,1.18-.55.12-3.6.62c3.17,4.77,11.49,8.18,20.28,7.25h0l3.53-.63.56-.13,3.56-1.22.07,0,3.24-1.78.81-.54,3.17-2.51c3.61-3.34,8.11-7.12,12-8.07C275.11,172.45,267.07,169.83,258.59,170.7Z"/><path class="cls-32" d="M239.1,163.75l.08.08-.12,0-8.11,21,.24,0h0l3.6-.61.55-.12,3.65-1.18.08,0,3.3-1.66.83-.51,3.26-2.36c3.72-3.18,8.33-6.75,12.21-7.52C255.57,166,247.79,162.75,239.1,163.75Z"/></g></g></g></g></g></g></g></g></svg>