<svg xmlns="http://www.w3.org/2000/svg" xmlns:xlink="http://www.w3.org/1999/xlink" viewBox="0 0 551 328.61"><defs><style>.cls-1,.cls-10,.cls-16,.cls-21{fill:none;}.cls-2{isolation:isolate;}.cls-3{fill:#edca2c;}.cls-4{opacity:0.7;}.cls-5{fill:#fff;}.cls-6{fill:#804c22;}.cls-7{fill:#89ae29;}.cls-8{fill:#dac16c;}.cls-9{mix-blend-mode:multiply;}.cls-10{stroke:#397637;stroke-linejoin:round;stroke-width:1.29px;}.cls-10,.cls-16,.cls-21{stroke-linecap:round;}.cls-11{fill:#b2c53a;}.cls-12{fill:#397637;}.cls-13{fill:#7b3790;}.cls-14{fill:#602f84;}.cls-15{fill:#773085;}.cls-16,.cls-21{stroke:#fff;stroke-miterlimit:10;opacity:0.5;}.cls-16{stroke-width:0.86px;}.cls-17{fill:#e08c34;}.cls-18{fill:#d35d3c;}.cls-19{fill:#7fcf66;}.cls-20{fill:#ef912e;}.cls-21{stroke-width:1.01px;}.cls-22{fill:#50863e;}.cls-23{clip-path:url(#clip-path);}.cls-24{fill:#bf9a67;}.cls-25{fill:#a6834f;}.cls-26{fill:#ceb289;}.cls-27{fill:#e3dbc7;}.cls-28{fill:#ceb189;}</style><clipPath id="clip-path"><path id="_剪裁路徑_" data-name="&lt;剪裁路徑&gt;" class="cls-1" d="M24.75,176.11C31.62,242,92.24,328.28,270,328.61c177.81-.33,238.43-86.62,245.3-152.5-69.71,26.21-154.19,41.58-245.3,41.58S94.45,202.32,24.75,176.11Z"/></clipPath></defs><title>籃子</title><g class="cls-2"><g id="圖層_2" data-name="圖層 2"><g id="關於天然甘"><g id="籃子"><circle class="cls-3" cx="353.36" cy="60.78" r="38.28" transform="translate(287.13 413.16) rotate(-89.12)"/><g class="cls-4"><path class="cls-5" d="M349.89,36.7a4.69,4.69,0,1,0,.65,6.59A4.68,4.68,0,0,0,349.89,36.7Z"/></g><path class="cls-6" d="M412.56,0c-5.1,6-5.69,19.81-5.69,19.81l4.2-1.2c.14-5.44,4.19-17.11,4.19-17.11Z"/><path class="cls-7" d="M456.63,64.66a34.81,34.81,0,0,0-17.36-21.31,25.12,25.12,0,1,0-45.81,12.34,34.94,34.94,0,1,0,63.17,9Z"/><g class="cls-4"><path class="cls-5" d="M407.48,37.82a4.37,4.37,0,1,0-3,5.4A4.38,4.38,0,0,0,407.48,37.82Z"/></g><g id="_群組_" data-name="&lt;群組&gt;"><path id="_路徑_" data-name="&lt;路徑&gt;" class="cls-6" d="M140.11,60.59A159.6,159.6,0,0,1,142,27.75L136,27a165.14,165.14,0,0,0,.15,34.58"/><path class="cls-8" d="M189,80.47c-4.39-26.3-29.08-42.15-51.77-25.23-25.37-12.51-46.76,7.56-46.3,34.22.5,28.58,22.79,50.45,44.25,40.44,1.66-.77,5.91-2.67,8.59-2.92h.09c2.68-.25,7.19.84,9,1.3C175.77,134.22,193.71,108.66,189,80.47Z"/><g class="cls-4"><path class="cls-5" d="M117.81,75.13a5.42,5.42,0,1,0-4.9,5.88A5.42,5.42,0,0,0,117.81,75.13Z"/></g><g class="cls-9"><path class="cls-8" d="M163.53,61.44a1.57,1.57,0,1,0,1.72,1.43A1.57,1.57,0,0,0,163.53,61.44Z"/></g><g class="cls-9"><path class="cls-8" d="M174.73,81.18a1.58,1.58,0,1,0,1.72,1.42A1.57,1.57,0,0,0,174.73,81.18Z"/></g><g class="cls-9"><path class="cls-8" d="M157.74,85.71a1.57,1.57,0,1,0,1.72,1.42A1.57,1.57,0,0,0,157.74,85.71Z"/></g><g class="cls-9"><path class="cls-8" d="M170,110.28a1.58,1.58,0,1,0,1.73,1.44A1.58,1.58,0,0,0,170,110.28Z"/></g><g class="cls-9"><path class="cls-8" d="M154.47,102.91a1.58,1.58,0,1,0,1.73,1.44A1.58,1.58,0,0,0,154.47,102.91Z"/></g><g class="cls-9"><path class="cls-8" d="M148.67,73.18a1.58,1.58,0,1,0,1.73,1.43A1.58,1.58,0,0,0,148.67,73.18Z"/></g><g class="cls-9"><path class="cls-8" d="M137.44,95.08A1.59,1.59,0,0,0,136,96.8a1.59,1.59,0,1,0,1.44-1.72Z"/></g><g class="cls-9"><path class="cls-8" d="M133,111.22a1.57,1.57,0,1,0,1.71,1.42A1.56,1.56,0,0,0,133,111.22Z"/></g><g class="cls-9"><path class="cls-8" d="M112.7,111.1a1.57,1.57,0,1,0,1.72,1.42A1.57,1.57,0,0,0,112.7,111.1Z"/></g><g class="cls-9"><path class="cls-8" d="M103.31,96.13A1.58,1.58,0,1,0,105,97.56,1.58,1.58,0,0,0,103.31,96.13Z"/></g><g class="cls-9"><path class="cls-8" d="M120.51,89.61A1.58,1.58,0,1,0,122.24,91,1.58,1.58,0,0,0,120.51,89.61Z"/></g><g class="cls-9"><path class="cls-8" d="M126.47,62.85a1.58,1.58,0,1,0,.29,3.14,1.58,1.58,0,1,0-.29-3.14Z"/></g></g><g id="_群組_2" data-name="&lt;群組&gt;"><path id="_路徑_2" data-name="&lt;路徑&gt;" class="cls-10" d="M311.17,10.39c-2.41-3.31-12.32-4.05-12.4,3.53,0,4,5,8.23,7.54,4.14,1.63-2.65-2.43-10.48-9.27-9.59-4.65.6-11,7-8.86,15.83,1.33,5.52,8.17,6.56,9.25,1.7,1-4.42-2.76-12-10.73-10-6.64,1.67-12,11-11.45,27.3"/><g id="_群組_3" data-name="&lt;群組&gt;"><path class="cls-11" d="M272.52,5.16c-4.92,9.9-19.12-2.44-24,13.76C238.31-2.9,214.2,10.36,205,1.21c9.17,9.15-4,33.29,17.84,43.39-16.2,5-3.8,19.13-13.7,24.08,6.51-3.83,14.57-4.92,21.14-2.27,11,4.43,21.46-8.76,21.63-18.41,9.67-.21,22.82-10.72,18.36-21.68C267.63,19.74,268.7,11.69,272.52,5.16Z"/><path class="cls-12" d="M252.26,46.56c-1.68-2-3.73-4.24-6-6.54s-4.94-4.57-7.47-6.94c-5.09-4.72-10.14-9.49-14-13l-6.42-5.85-.22.22,5.87,6.4c3.5,3.86,8.28,8.9,13,14,2.37,2.53,4.68,5.14,7,7.47s4.57,4.32,6.56,6a80.56,80.56,0,0,0,6.9,5.35l.22-.21A76.77,76.77,0,0,0,252.26,46.56Z"/><path class="cls-12" d="M261.58,16.18l-1.15.92c-.37.28-.77.69-1.26,1.15s-1,1-1.53,1.58-1.11,1.29-1.7,2-1.14,1.55-1.74,2.37-1.14,1.73-1.65,2.67-1.05,1.89-1.52,2.89-.91,2-1.36,3a18.73,18.73,0,0,0-1,3,16.27,16.27,0,0,0-.28,5.79,12.21,12.21,0,0,0,.55,2.29,10.07,10.07,0,0,0,.73,1.65,13.44,13.44,0,0,0,.89,1.27l.29-.13s0-.58-.11-1.47c-.07-.43,0-1,0-1.63s.13-1.3.15-2a8.24,8.24,0,0,1,.19-1.16c.07-.4.07-.8.18-1.22.22-.84.34-1.74.58-2.65s.41-1.88.62-2.86.52-2,.87-3,.72-1.94,1.15-2.87.87-1.84,1.29-2.72a52.73,52.73,0,0,1,2.75-4.6c.45-.65.85-1.25,1.26-1.74s.72-.95,1.05-1.29l1-1.1Z"/><path class="cls-12" d="M249.49,45.72a8.11,8.11,0,0,0-1.65-.72,13,13,0,0,0-2.29-.55,16.23,16.23,0,0,0-5.78.3,18.89,18.89,0,0,0-3.06,1c-1,.44-2,.85-3,1.36s-2,1-2.89,1.54-1.8,1.12-2.66,1.66-1.65,1.14-2.37,1.73-1.41,1.13-2,1.71-1.15,1.06-1.59,1.54-.87.89-1.14,1.26l-.92,1.14.23.22,1.09-1c.34-.32.79-.65,1.28-1.05s1.09-.83,1.74-1.27c1.29-.91,2.89-1.82,4.59-2.77.89-.42,1.77-.92,2.73-1.31s1.89-.79,2.86-1.14,2-.64,2.94-.89,1.94-.45,2.87-.62,1.8-.37,2.64-.57a11.56,11.56,0,0,1,1.22-.21c.4-.06.8-.16,1.16-.18.72,0,1.44-.2,2-.16a14,14,0,0,1,1.62,0c.89.08,1.47.1,1.47.1l.13-.29A13,13,0,0,0,249.49,45.72Z"/></g><path class="cls-13" d="M314.8,108.43a12.67,12.67,0,1,0,1.26,17.87A12.67,12.67,0,0,0,314.8,108.43Z"/><g id="_群組_4" data-name="&lt;群組&gt;"><path class="cls-14" d="M273.19,36.72a12.67,12.67,0,1,0,1.26,17.87A12.68,12.68,0,0,0,273.19,36.72Z"/><path class="cls-14" d="M284.12,58.67a12.67,12.67,0,1,0,1.27,17.88A12.66,12.66,0,0,0,284.12,58.67Z"/><path class="cls-14" d="M304.84,62.22a12.67,12.67,0,1,0,1.25,17.88A12.67,12.67,0,0,0,304.84,62.22Z"/><path class="cls-14" d="M257.49,49.52a12.67,12.67,0,1,0,1.25,17.87A12.67,12.67,0,0,0,257.49,49.52Z"/><path class="cls-14" d="M270.33,98.19a12.67,12.67,0,1,0,1.26,17.87A12.67,12.67,0,0,0,270.33,98.19Z"/><path class="cls-14" d="M306.24,76.72A12.67,12.67,0,1,0,307.5,94.6,12.67,12.67,0,0,0,306.24,76.72Z"/><path class="cls-14" d="M318.52,69a12.67,12.67,0,1,0,1.27,17.88A12.68,12.68,0,0,0,318.52,69Z"/><path class="cls-14" d="M308.74,127.37A12.67,12.67,0,1,0,310,145.25,12.68,12.68,0,0,0,308.74,127.37Z"/><path class="cls-14" d="M273.05,124.33a12.67,12.67,0,1,0,1.27,17.88A12.66,12.66,0,0,0,273.05,124.33Z"/><path class="cls-14" d="M254.44,94a12.67,12.67,0,1,0,1.25,17.88A12.7,12.7,0,0,0,254.44,94Z"/><path class="cls-14" d="M267.45,81.6a12.67,12.67,0,1,0,1.25,17.87A12.68,12.68,0,0,0,267.45,81.6Z"/><path class="cls-14" d="M285.58,81.61a12.67,12.67,0,1,0,1.26,17.88A12.67,12.67,0,0,0,285.58,81.61Z"/><path class="cls-14" d="M301.74,91.85A12.67,12.67,0,1,0,303,109.72,12.68,12.68,0,0,0,301.74,91.85Z"/><path class="cls-14" d="M285.41,104.15A12.67,12.67,0,1,0,286.67,122,12.68,12.68,0,0,0,285.41,104.15Z"/><path class="cls-14" d="M290.79,121.43A12.67,12.67,0,1,0,292,139.31,12.69,12.69,0,0,0,290.79,121.43Z"/><path class="cls-14" d="M256.34,66.71a12.67,12.67,0,1,0,1.25,17.87A12.67,12.67,0,0,0,256.34,66.71Z"/></g><path class="cls-13" d="M296.78,36.68A12.67,12.67,0,1,0,298,54.56,12.66,12.66,0,0,0,296.78,36.68Z"/><path class="cls-13" d="M260.61,107.92a12.67,12.67,0,1,0,1.26,17.88A12.69,12.69,0,0,0,260.61,107.92Z"/><path class="cls-13" d="M266.38,58a12.67,12.67,0,1,0,1.26,17.87A12.66,12.66,0,0,0,266.38,58Z"/><path class="cls-15" d="M290.55,138.19a12.67,12.67,0,1,0,1.26,17.87A12.66,12.66,0,0,0,290.55,138.19Z"/><path class="cls-15" d="M302.77,109.78A12.67,12.67,0,1,0,304,127.66,12.68,12.68,0,0,0,302.77,109.78Z"/><path class="cls-15" d="M283.36,96.73a12.67,12.67,0,1,0,1.25,17.87A12.67,12.67,0,0,0,283.36,96.73Z"/><path class="cls-15" d="M271.74,113.89A12.67,12.67,0,1,0,273,131.77,12.67,12.67,0,0,0,271.74,113.89Z"/><path class="cls-15" d="M253.75,77.51A12.67,12.67,0,1,0,255,95.39,12.68,12.68,0,0,0,253.75,77.51Z"/><path class="cls-15" d="M273.79,69.53a12.67,12.67,0,1,0,1.26,17.88A12.67,12.67,0,0,0,273.79,69.53Z"/><path class="cls-15" d="M295.74,72.71A12.67,12.67,0,1,0,297,90.6,12.68,12.68,0,0,0,295.74,72.71Z"/><path class="cls-15" d="M297.27,49.84a12.67,12.67,0,1,0,1.26,17.89A12.69,12.69,0,0,0,297.27,49.84Z"/><path class="cls-15" d="M278.1,41.41a12.68,12.68,0,1,0,1.25,17.88A12.69,12.69,0,0,0,278.1,41.41Z"/><path class="cls-15" d="M314.63,88.53a12.68,12.68,0,1,0,1.26,17.88A12.67,12.67,0,0,0,314.63,88.53Z"/><path class="cls-15" d="M315.07,48.72a12.67,12.67,0,1,0,1.25,17.88A12.68,12.68,0,0,0,315.07,48.72Z"/><path id="_路徑_3" data-name="&lt;路徑&gt;" class="cls-16" d="M297.22,81.6a9.82,9.82,0,0,0-10.48-9.11"/><path id="_路徑_4" data-name="&lt;路徑&gt;" class="cls-16" d="M275.27,78.42a9.82,9.82,0,0,0-10.47-9.11"/><path id="_路徑_5" data-name="&lt;路徑&gt;" class="cls-16" d="M255.23,86.39a9.81,9.81,0,0,0-10.47-9.1"/><path id="_路徑_6" data-name="&lt;路徑&gt;" class="cls-16" d="M284.84,105.61a9.83,9.83,0,0,0-10.48-9.11"/><path id="_路徑_7" data-name="&lt;路徑&gt;" class="cls-16" d="M304.25,118.67a9.81,9.81,0,0,0-10.48-9.11"/><path id="_路徑_8" data-name="&lt;路徑&gt;" class="cls-16" d="M316.11,97.42a9.82,9.82,0,0,0-10.47-9.11"/><path id="_路徑_9" data-name="&lt;路徑&gt;" class="cls-16" d="M273.23,122.77a9.82,9.82,0,0,0-10.48-9.1"/><path id="_路徑_10" data-name="&lt;路徑&gt;" class="cls-16" d="M292,147.07a9.82,9.82,0,0,0-10.48-9.1"/><path id="_路徑_11" data-name="&lt;路徑&gt;" class="cls-16" d="M298.76,58.73a9.83,9.83,0,0,0-10.48-9.11"/><path id="_路徑_12" data-name="&lt;路徑&gt;" class="cls-16" d="M279.58,50.3a9.82,9.82,0,0,0-10.48-9.11"/><path id="_路徑_13" data-name="&lt;路徑&gt;" class="cls-16" d="M316.55,57.61a9.81,9.81,0,0,0-10.47-9.11"/></g><polygon class="cls-6" points="198.48 12.54 197.11 41.03 203.55 41.22 205.51 13.6 198.48 12.54"/><path class="cls-17" d="M262.65,141.38c-9.89-16.21-19.81-37-18.9-54.37.71-13.5-3-27-11.84-37.19-9.42-10.88-24.45-20.19-45.56-12.32-39.17,14.61-28.15,132.42,57.22,136.25C264.73,174.69,271.53,155.94,262.65,141.38Z"/><g class="cls-4"><path class="cls-5" d="M188.69,66.11a5.47,5.47,0,1,0-4.18,6.51A5.48,5.48,0,0,0,188.69,66.11Z"/></g><g id="_群組_5" data-name="&lt;群組&gt;"><path class="cls-11" d="M392.35,51.53A31.09,31.09,0,0,0,372.13,65.6a31.84,31.84,0,0,0,44.42-9.49A31.1,31.1,0,0,0,392.35,51.53Z"/><path id="_路徑_14" data-name="&lt;路徑&gt;" class="cls-6" d="M368.7,82.06a161.83,161.83,0,0,1,8.51-32c-1.93-.66-3.87-1.33-5.8-2a166.93,166.93,0,0,0-6.82,34.09"/><path class="cls-18" d="M367,76.21c-22.46-17.43-47.59-2-52.5,24.37-5.28,28.24,12.27,54.28,35.42,48.75,1.81-.42,6.37-1.44,9-1.14H359c2.68.29,6.91,2.3,8.56,3.1,21.39,10.48,44.22-11.08,45.26-39.8C413.83,84.71,392.71,64.12,367,76.21Z"/><g class="cls-4"><path class="cls-5" d="M339,85.86a5.45,5.45,0,1,0,4.82,6A5.46,5.46,0,0,0,339,85.86Z"/></g></g><path class="cls-6" d="M315.5,72.62C308.94,77,304.57,90.1,304.57,90.1h4.37c1.64-5.19,8.74-15.3,8.74-15.3Z"/><path class="cls-19" d="M329.25,121.65a25.12,25.12,0,1,0-47.44-.75,35,35,0,1,0,47.44.75Z"/><g class="cls-4"><path class="cls-5" d="M295.83,103.21a4.37,4.37,0,1,0,4.37,4.37A4.37,4.37,0,0,0,295.83,103.21Z"/></g><circle class="cls-3" cx="325.23" cy="195.15" r="38.28" transform="translate(41.77 447.15) rotate(-72.6)"/><g class="cls-4"><circle class="cls-5" cx="312.47" cy="177.9" r="4.69"/></g><circle class="cls-3" cx="93.24" cy="122.19" r="42.3" transform="translate(-59.09 101.72) rotate(-45)"/><g class="cls-4"><circle class="cls-5" cx="79.14" cy="103.14" r="5.18" transform="translate(-35.77 42.34) rotate(-24.62)"/></g><g id="_群組_6" data-name="&lt;群組&gt;"><path class="cls-11" d="M191.19,92.91a33.67,33.67,0,0,0-18.49,19.26,34.52,34.52,0,0,0,45.18-19.54A33.66,33.66,0,0,0,191.19,92.91Z"/><path id="_路徑_15" data-name="&lt;路徑&gt;" class="cls-6" d="M172.56,130.39a175.34,175.34,0,0,1,2.24-35.77q-3.3-.44-6.6-.9a181.12,181.12,0,0,0,0,37.68"/><path class="cls-18" d="M225.75,152.27c-4.67-28.67-31.49-46.05-56.28-27.72-27.59-13.74-51,8-50.61,37.08.42,31.13,24.61,55.06,48,44.26,1.82-.84,6.45-2.9,9.36-3.15h.11c2.91-.26,7.83,1,9.76,1.47C211.09,210.78,230.75,183,225.75,152.27Z"/><g class="cls-4"><path class="cls-5" d="M148.21,146.12a5.9,5.9,0,1,0-5.37,6.4A5.91,5.91,0,0,0,148.21,146.12Z"/></g></g><g id="_群組_7" data-name="&lt;群組&gt;"><path class="cls-20" d="M141.91,140.65c-9.42-14.61-34.42-9.73-42.9-8.32-8.49-1.41-33.47-6.29-42.91,8.32-10.2,15.82-9,34.42.95,43.85s19.8,13.85,42,13.85,32.06-4.41,42-13.85S152.11,156.47,141.91,140.65Z"/><path class="cls-7" d="M119.93,130.87c-3.44-.93-7-.13-10.23,1.53,2-3,1.21-5.57-1.62-6.48-4-1.29-9-2.52-9-5.36h-.24c0,2.84-5,4.07-9,5.36-2.82.91-3.59,3.53-1.61,6.48-3.26-1.66-6.8-2.46-10.24-1.53-4.69,1.27-5.65,4.77-11.14,4.42,2.19,4.52,9,11.52,19.36,8.92-2.55,3.61-1.6,6.84,1.85,8,4.79,1.55,10.71,3,10.71,6.41h.28c0-3.39,5.93-4.86,10.74-6.41,3.44-1.12,4.39-4.35,1.83-8,10.42,2.6,17.17-4.4,19.36-8.92C125.59,135.64,124.63,132.14,119.93,130.87Z"/><path class="cls-8" d="M99,133.67c-4.08,0-7.39,1.68-7.39,3.74s3.31,3.73,7.39,3.73,7.39-1.67,7.39-3.73S103.09,133.67,99,133.67Z"/><path class="cls-6" d="M99,136.17c-1.31,0-2.36.55-2.36,1.24s1,1.24,2.36,1.24,2.36-.56,2.36-1.24S100.31,136.17,99,136.17Z"/><path id="_路徑_16" data-name="&lt;路徑&gt;" class="cls-21" d="M65.48,146.71a27.37,27.37,0,0,0,15.06,9.74"/><path id="_路徑_17" data-name="&lt;路徑&gt;" class="cls-21" d="M132.53,146.71c-2.39,3.18-7,7.53-15,9.74"/></g><g id="_群組_8" data-name="&lt;群組&gt;"><path id="_路徑_18" data-name="&lt;路徑&gt;" class="cls-10" d="M423,41.45c3.23-3.7,15.16-3.57,14.47,5.5-.36,4.79-6.87,9.33-9.45,4.19-1.67-3.34,4-12.29,12.09-10.53,5.51,1.2,12.44,9.47,9,19.86-2.15,6.47-10.45,7-11.24,1.08-.73-5.39,4.54-14.12,13.87-10.89C459.51,53.35,465,65,462.62,84.53"/><g id="_群組_9" data-name="&lt;群組&gt;"><path class="cls-22" d="M551,41.41c-11.91,10-39.41-8.35-53.81,16.72-4.23-19.91-22.5-6.59-27.37-19,3.89,8.21,4.35,18,.47,25.55-6.46,12.67,8.2,26.59,19.74,27.84-.78,11.57,10.39,28.44,24,24.27,8.14-2.5,17.67-.36,25.07,4.9-11.34-6.95,5-22.61-13.92-30.24C552.37,81.66,539.09,51.41,551,41.41Z"/><path class="cls-12" d="M533.74,55.64,525.46,62c-5,3.78-11.54,9-18.11,14.1-3.27,2.58-6.63,5-9.66,7.53s-5.67,5-7.89,7.21a93.38,93.38,0,0,0-7.15,7.7l.25.28a95.39,95.39,0,0,0,8.81-5.7c2.55-1.82,5.48-4,8.46-6.51s6-5.45,9.1-8.23c6.2-5.58,12.43-11.11,17-15.38s7.69-7,7.69-7Z"/><path class="cls-12" d="M495.21,78.33a22.4,22.4,0,0,0-.89-3.75c-.43-1.24-.81-2.51-1.32-3.73s-1-2.45-1.52-3.62-1.15-2.29-1.7-3.36-1.19-2.09-1.83-3-1.21-1.82-1.83-2.57-1.13-1.48-1.68-2.06a20.38,20.38,0,0,0-1.38-1.5l-1.28-1.23-.28.25s.38.52,1.06,1.41c.36.44.69,1,1.12,1.66A23.41,23.41,0,0,1,485,59c.94,1.64,1.87,3.65,2.82,5.79.41,1.1.91,2.22,1.27,3.39s.76,2.36,1.08,3.55.54,2.42.74,3.62.34,2.37.44,3.49.25,2.2.42,3.23c.09.51.05,1,.1,1.48A11.54,11.54,0,0,1,492,85c-.05.87.08,1.74,0,2.45s-.06,1.43-.19,1.94c-.19,1.06-.28,1.75-.28,1.75l.34.18A16.6,16.6,0,0,0,493,89.88a12.44,12.44,0,0,0,1.05-1.9,16,16,0,0,0,.9-2.69A19.87,19.87,0,0,0,495.21,78.33Z"/><path class="cls-12" d="M526.09,106a18.22,18.22,0,0,0-1.24-1.62c-.48-.63-1.08-1.3-1.74-2s-1.41-1.45-2.2-2.26-1.73-1.51-2.67-2.31-2-1.55-3-2.27-2.16-1.44-3.29-2.13-2.3-1.3-3.44-1.94a23.36,23.36,0,0,0-3.56-1.52,19.41,19.41,0,0,0-6.89-1,15.31,15.31,0,0,0-2.79.43,9.33,9.33,0,0,0-2.06.69,14.65,14.65,0,0,0-1.62.93l.13.36s.7,0,1.77,0a19.33,19.33,0,0,1,1.93.15c.73,0,1.57.3,2.44.4.42.06.89.23,1.36.33a14.68,14.68,0,0,1,1.44.38c1,.33,2,.57,3.1.95s2.22.69,3.37,1.05,2.29.84,3.43,1.36,2.25,1,3.31,1.66S516,99,517,99.55c1.95,1.31,3.77,2.57,5.22,3.78a25.52,25.52,0,0,1,1.94,1.7c.56.53,1.06,1,1.43,1.39l1.21,1.28.3-.24S526.72,106.94,526.09,106Z"/></g><path class="cls-13" d="M429.85,161.76A15.23,15.23,0,1,0,426.51,183,15.22,15.22,0,0,0,429.85,161.76Z"/><g id="_群組_10" data-name="&lt;群組&gt;"><path class="cls-14" d="M487.05,80.22a15.23,15.23,0,1,0-3.36,21.27A15.23,15.23,0,0,0,487.05,80.22Z"/><path class="cls-14" d="M471.68,105.37a15.23,15.23,0,1,0-3.34,21.28A15.22,15.22,0,0,0,471.68,105.37Z"/><path class="cls-14" d="M446.54,107.49a15.23,15.23,0,1,0-3.36,21.27A15.24,15.24,0,0,0,446.54,107.49Z"/><path class="cls-14" d="M504.51,97.16a15.22,15.22,0,1,0-3.34,21.27A15.22,15.22,0,0,0,504.51,97.16Z"/><path class="cls-14" d="M484.13,154.09a15.23,15.23,0,1,0-3.35,21.27A15.22,15.22,0,0,0,484.13,154.09Z"/><path class="cls-14" d="M443.36,124.69A15.23,15.23,0,1,0,440,146,15.23,15.23,0,0,0,443.36,124.69Z"/><path class="cls-14" d="M429.45,114.14a15.23,15.23,0,1,0-3.35,21.28A15.23,15.23,0,0,0,429.45,114.14Z"/><path class="cls-14" d="M435.15,185.06a15.23,15.23,0,1,0-3.35,21.27A15.23,15.23,0,0,0,435.15,185.06Z"/><path class="cls-14" d="M478.17,185.1a15.23,15.23,0,1,0-3.35,21.27A15.23,15.23,0,0,0,478.17,185.1Z"/><path class="cls-14" d="M503.59,150.68A15.23,15.23,0,1,0,500.24,172,15.23,15.23,0,0,0,503.59,150.68Z"/><path class="cls-14" d="M489.29,134.53a15.23,15.23,0,1,0-3.35,21.27A15.22,15.22,0,0,0,489.29,134.53Z"/><path class="cls-14" d="M467.58,132.68A15.23,15.23,0,1,0,464.23,154,15.22,15.22,0,0,0,467.58,132.68Z"/><path class="cls-14" d="M447.2,143.27a15.23,15.23,0,1,0-3.36,21.27A15.25,15.25,0,0,0,447.2,143.27Z"/><path class="cls-14" d="M465.46,159.68A15.23,15.23,0,1,0,462.12,181,15.22,15.22,0,0,0,465.46,159.68Z"/><path class="cls-14" d="M457.26,179.8a15.23,15.23,0,1,0-3.36,21.27A15.25,15.25,0,0,0,457.26,179.8Z"/><path class="cls-14" d="M504.12,117.85a15.23,15.23,0,1,0-3.35,21.27A15.23,15.23,0,0,0,504.12,117.85Z"/></g><path class="cls-13" d="M458.8,77.75A15.23,15.23,0,1,0,455.46,99,15.21,15.21,0,0,0,458.8,77.75Z"/><path class="cls-13" d="M494.76,166.74A15.23,15.23,0,1,0,491.41,188,15.23,15.23,0,0,0,494.76,166.74Z"/><path class="cls-13" d="M493,106.38a15.23,15.23,0,1,0-3.35,21.27A15.23,15.23,0,0,0,493,106.38Z"/><path class="cls-15" d="M455.79,199.89a15.22,15.22,0,1,0-3.34,21.27A15.2,15.2,0,0,0,455.79,199.89Z"/><path class="cls-15" d="M444.11,164.62a15.24,15.24,0,1,0-3.36,21.28A15.24,15.24,0,0,0,444.11,164.62Z"/><path class="cls-15" d="M468.68,151a15.22,15.22,0,1,0-3.34,21.27A15.22,15.22,0,0,0,468.68,151Z"/><path class="cls-15" d="M480.82,172.74A15.23,15.23,0,1,0,477.47,194,15.23,15.23,0,0,0,480.82,172.74Z"/><path class="cls-15" d="M506.1,131.05a15.22,15.22,0,1,0-3.35,21.28A15.23,15.23,0,0,0,506.1,131.05Z"/><path class="cls-15" d="M482.94,119.44a15.23,15.23,0,1,0-3.35,21.27A15.24,15.24,0,0,0,482.94,119.44Z"/><path class="cls-15" d="M456.33,121A15.22,15.22,0,1,0,453,142.26,15.22,15.22,0,0,0,456.33,121Z"/><path class="cls-15" d="M456.86,93.45a15.23,15.23,0,1,0-3.35,21.28A15.23,15.23,0,0,0,456.86,93.45Z"/><path class="cls-15" d="M480.69,85.34a15.23,15.23,0,1,0-3.35,21.27A15.24,15.24,0,0,0,480.69,85.34Z"/><path class="cls-15" d="M432.1,138a15.23,15.23,0,1,0-3.34,21.27A15.21,15.21,0,0,0,432.1,138Z"/><path class="cls-15" d="M435.68,90.28a15.23,15.23,0,1,0-3.35,21.27A15.22,15.22,0,0,0,435.68,90.28Z"/><path id="_路徑_19" data-name="&lt;路徑&gt;" class="cls-16" d="M432.37,128.12a11.81,11.81,0,0,1,13.49-9.82"/><path id="_路徑_20" data-name="&lt;路徑&gt;" class="cls-16" d="M459,126.58a11.79,11.79,0,0,1,13.48-9.82"/><path id="_路徑_21" data-name="&lt;路徑&gt;" class="cls-16" d="M482.14,138.19a11.79,11.79,0,0,1,13.47-9.82"/><path id="_路徑_22" data-name="&lt;路徑&gt;" class="cls-16" d="M444.72,158.14a11.81,11.81,0,0,1,13.48-9.83"/><path id="_路徑_23" data-name="&lt;路徑&gt;" class="cls-16" d="M420.14,171.77a11.8,11.8,0,0,1,13.48-9.83"/><path id="_路徑_24" data-name="&lt;路徑&gt;" class="cls-16" d="M408.13,145.11a11.82,11.82,0,0,1,13.49-9.83"/><path id="_路徑_25" data-name="&lt;路徑&gt;" class="cls-16" d="M456.85,179.88a11.8,11.8,0,0,1,13.49-9.82"/><path id="_路徑_26" data-name="&lt;路徑&gt;" class="cls-16" d="M431.84,207a11.79,11.79,0,0,1,13.47-9.82"/><path id="_路徑_27" data-name="&lt;路徑&gt;" class="cls-16" d="M432.89,100.59a11.8,11.8,0,0,1,13.48-9.82"/><path id="_路徑_28" data-name="&lt;路徑&gt;" class="cls-16" d="M456.72,92.48a11.81,11.81,0,0,1,13.48-9.83"/><path id="_路徑_29" data-name="&lt;路徑&gt;" class="cls-16" d="M411.72,97.43a11.77,11.77,0,0,1,13.47-9.83"/></g><g id="_群組_11" data-name="&lt;群組&gt;"><path id="_路徑_30" data-name="&lt;路徑&gt;" class="cls-6" d="M251.36,148.41A173.42,173.42,0,0,1,256.69,113c-2.16-.5-4.32-1-6.49-1.47A180.89,180.89,0,0,0,246.93,149"/><path class="cls-8" d="M302.43,174.84c-2.15-29-27.36-48.62-53.65-32.52-26.29-16.1-51.5,3.55-53.64,32.52-2.31,31.06,19.7,57,44,48.28,1.88-.68,6.68-2.31,9.6-2.31h.11c2.92,0,7.71,1.63,9.6,2.31C282.73,231.84,304.73,205.9,302.43,174.84Z"/><g class="cls-4"><path class="cls-5" d="M219.81,156.06a5.9,5.9,0,1,0,5.9,5.91A5.91,5.91,0,0,0,219.81,156.06Z"/></g><g class="cls-9"><path class="cls-8" d="M276.68,151.66a1.72,1.72,0,1,0,1.73,1.72A1.72,1.72,0,0,0,276.68,151.66Z"/></g><g class="cls-9"><path class="cls-8" d="M286.87,174.19a1.72,1.72,0,1,0,1.73,1.72A1.72,1.72,0,0,0,286.87,174.19Z"/></g><g class="cls-9"><path class="cls-8" d="M268,177.41a1.72,1.72,0,1,0,1.73,1.72A1.72,1.72,0,0,0,268,177.41Z"/></g><g class="cls-9"><path class="cls-8" d="M278.82,205.3a1.72,1.72,0,1,0,1.73,1.73A1.72,1.72,0,0,0,278.82,205.3Z"/></g><g class="cls-9"><path class="cls-8" d="M262.73,195.76a1.72,1.72,0,1,0,1.73,1.73A1.72,1.72,0,0,0,262.73,195.76Z"/></g><g class="cls-9"><path class="cls-8" d="M259.4,162.92a1.72,1.72,0,1,0,1.72,1.72A1.72,1.72,0,0,0,259.4,162.92Z"/></g><g class="cls-9"><path class="cls-8" d="M245,185.57a1.72,1.72,0,1,0,0,3.43,1.72,1.72,0,1,0,0-3.43Z"/></g><g class="cls-9"><path class="cls-8" d="M238.6,202.63a1.72,1.72,0,1,0,1.71,1.71A1.72,1.72,0,0,0,238.6,202.63Z"/></g><g class="cls-9"><path class="cls-8" d="M216.6,200.48a1.72,1.72,0,1,0,1.72,1.72A1.72,1.72,0,0,0,216.6,200.48Z"/></g><g class="cls-9"><path class="cls-8" d="M207.89,183.3a1.72,1.72,0,1,0,1.73,1.73A1.73,1.73,0,0,0,207.89,183.3Z"/></g><g class="cls-9"><path class="cls-8" d="M227.21,177.94a1.72,1.72,0,1,0,1.73,1.73A1.72,1.72,0,0,0,227.21,177.94Z"/></g><g class="cls-9"><path class="cls-8" d="M236.33,149.51a1.72,1.72,0,1,0,1.72,1.72A1.72,1.72,0,0,0,236.33,149.51Z"/></g></g><polygon class="cls-6" points="384.22 85.97 377.19 87.04 379.15 114.65 385.59 114.46 384.22 85.97"/><path class="cls-17" d="M396.35,110.94c-21.11-7.88-36.14,1.43-45.56,12.32C341.94,133.48,338.24,147,339,160.45c.91,17.31-9,38.15-18.9,54.36-8.88,14.56-2.08,33.32,19.08,32.37C424.5,243.36,435.52,125.54,396.35,110.94Z"/><g class="cls-4"><path class="cls-5" d="M364.23,135.38a5.47,5.47,0,1,0,4.17,6.51A5.47,5.47,0,0,0,364.23,135.38Z"/></g><g id="_群組_12" data-name="&lt;群組&gt;"><g id="_剪裁群組_" data-name="&lt;剪裁群組&gt;"><g class="cls-23"><path class="cls-24" d="M270,217.69c-91.12,0-175.59-15.37-245.29-41.58C31.62,242,92.24,328.28,270,328.61c177.81-.33,238.43-86.62,245.3-152.5C445.64,202.32,361.15,217.69,270,217.69Z"/><path class="cls-25" d="M270,283.51c-9.91,0-19.64-.39-29.3-.76v12.54a96.44,96.44,0,0,0,58.61,0V282.75C289.68,283.1,280,283.55,270,283.51Z"/><path class="cls-25" d="M270,239c-9.86,0-19.61-.38-29.3-.72v12.57a102.55,102.55,0,0,0,29.3,4.48,103.73,103.73,0,0,0,29.31-4.48V238.3C289.65,238.64,279.9,239,270,239Z"/><path class="cls-25" d="M337,280.43V293c20,3.78,40.18-1.25,58.61-7.91V272.32C377.08,275.94,357.34,280.85,337,280.43Z"/><path class="cls-25" d="M337,236.19v12.6c19.68,4,39.84-.33,58.61-6.64v-12.7C376.67,232.45,357,236.61,337,236.19Z"/><path class="cls-25" d="M433.32,263.7v13c20.93.12,41.15-10.38,58.62-20.31v-14C474.6,250.7,454.72,261.4,433.32,263.7Z"/><path class="cls-25" d="M433.32,222.73v12.82c20,1.43,40.12-6.41,58.62-14.35V208.07C473.32,213.71,453.53,221.54,433.32,222.73Z"/><path class="cls-25" d="M144.43,272.32v12.77c18.43,6.64,38.59,11.7,58.63,7.91V280.43C182.75,280.87,163,275.93,144.43,272.32Z"/><path class="cls-25" d="M144.43,229.45v12.7c18.78,6.36,38.93,10.59,58.63,6.64v-12.6C183.12,236.59,163.42,232.46,144.43,229.45Z"/><path class="cls-25" d="M48.14,242.46v14c17.47,9.92,37.7,20.45,58.63,20.31v-13C85.35,261.4,65.48,250.68,48.14,242.46Z"/><path class="cls-25" d="M48.14,208.07V221.2c18.5,7.93,38.64,15.77,58.63,14.35v-12.8C86.55,221.53,66.77,213.71,48.14,208.07Z"/><path class="cls-25" d="M288.88,305.37v12.52c19.81,5.05,40.05,2.3,58.62-3.76V301.57C328.72,303.77,309,306.33,288.88,305.37Z"/><path class="cls-25" d="M288.88,260.87v12.54c19.69,5.07,39.9,2.46,58.62-3.53v-12.6C328.54,259.31,308.87,261.76,288.88,260.87Z"/><path class="cls-25" d="M385.17,296.22V309c20.53,2.13,40.69-5.71,58.63-13.79V281.91C425.88,287.74,406,295.56,385.17,296.22Z"/><path class="cls-25" d="M385.17,252.44v12.71c20.15,2.43,40.28-4.45,58.63-11.93v-13C425.38,245.21,405.56,252,385.17,252.44Z"/><path class="cls-25" d="M481.46,228.58v13.31c21.23-1.73,41.35-14.56,58.62-26.16V201.19C523.07,211.48,503.17,224.6,481.46,228.58Z"/><path class="cls-25" d="M192.59,301.57v12.56c18.57,6.06,38.81,8.82,58.61,3.76V305.37C231.07,306.35,211.38,303.77,192.59,301.57Z"/><path class="cls-25" d="M192.59,257.28v12.6c18.71,6,38.92,8.63,58.61,3.53V260.87C231.21,261.75,211.54,259.3,192.59,257.28Z"/><path class="cls-25" d="M96.3,281.9v13.26c17.91,8.09,38.09,15.89,58.61,13.79V296.22C134.05,295.54,114.2,287.74,96.3,281.9Z"/><path class="cls-25" d="M96.3,240.25v13c18.32,7.48,38.46,14.36,58.61,11.93V252.44C134.51,252,114.72,245.21,96.3,240.25Z"/><path class="cls-25" d="M0,201.19v14.54c17.27,11.6,37.4,24.41,58.62,26.16V228.58C36.92,224.59,17,211.47,0,201.19Z"/><path class="cls-26" d="M310.86,282.25v12.54a28,28,0,0,0,14.66-.94V281.29C320.67,281.64,315.79,282.1,310.86,282.25Z"/><path class="cls-26" d="M310.86,237.87v12.58a27.64,27.64,0,0,0,14.66-.83V237C320.66,237.36,315.77,237.72,310.86,237.87Z"/><path class="cls-26" d="M407.15,270v12.89a30.64,30.64,0,0,0,14.66-3.18v-13C417,267.84,412.1,269.22,407.15,270Z"/><path class="cls-26" d="M407.15,227.62v12.76a30.51,30.51,0,0,0,14.66-2.57V225C417,226,412.06,227,407.15,227.62Z"/><path class="cls-26" d="M503.45,204.52v13.15c4.87-.2,9.89-2.2,14.66-4.8V199.62C513.3,201.27,508.39,203.28,503.45,204.52Z"/><path class="cls-26" d="M214.56,281.29v12.56a28,28,0,0,0,14.67.94V282.25C224.29,282.07,219.42,281.66,214.56,281.29Z"/><path class="cls-26" d="M214.56,237v12.58a27.67,27.67,0,0,0,14.67.83V237.88C224.31,237.73,219.43,237.36,214.56,237Z"/><path class="cls-26" d="M118.28,266.68v13a30.73,30.73,0,0,0,14.64,3.18V270C128,269.21,123.06,267.85,118.28,266.68Z"/><path class="cls-26" d="M118.28,225v12.77a30.33,30.33,0,0,0,14.64,2.57V227.62C128,227,123.1,226,118.28,225Z"/><path class="cls-26" d="M22,199.62v13.25c4.75,2.57,9.78,4.6,14.66,4.8V204.52C31.69,203.29,26.79,201.28,22,199.62Z"/><path class="cls-26" d="M359,300.19v12.6a29,29,0,0,0,14.67-2V298.13C368.87,298.9,363.93,299.73,359,300.19Z"/><path class="cls-26" d="M359,256v12.65a29,29,0,0,0,14.67-1.8V254.2C368.84,254.87,363.91,255.61,359,256Z"/><path class="cls-26" d="M455.3,278v13.44c4.94-.4,10-2.67,14.66-5.48V272.25C465.23,274.22,460.32,276.53,455.3,278Z"/><path class="cls-26" d="M455.3,237v13.1c4.89-.08,9.93-1.9,14.66-4.39V232.49C465.17,234.06,460.26,235.91,455.3,237Z"/><path class="cls-26" d="M270,305.6c-2.46,0-4.89,0-7.33-.05v12.54a28,28,0,0,0,7.33,1.06,27.17,27.17,0,0,0,7.33-1.06V305.55C274.92,305.59,272.5,305.59,270,305.6Z"/><path class="cls-26" d="M270,261.11c-2.46,0-4.87-.1-7.33-.1v12.56a29.07,29.07,0,0,0,7.33,1.08,27.26,27.26,0,0,0,7.33-1.08V261C274.93,261,272.51,261.09,270,261.11Z"/><path class="cls-26" d="M166.43,298.12v12.67a29,29,0,0,0,14.65,2v-12.6C176.14,299.76,171.24,298.87,166.43,298.12Z"/><path class="cls-26" d="M166.43,254.2v12.67a28.84,28.84,0,0,0,14.65,1.8V256C176.17,255.62,171.26,254.88,166.43,254.2Z"/><path class="cls-26" d="M70.12,272.24v13.67c4.69,2.83,9.73,5.08,14.66,5.48V278C79.78,276.53,74.83,274.22,70.12,272.24Z"/><path class="cls-26" d="M70.12,232.49v13.23c4.73,2.47,9.78,4.32,14.66,4.39V237C79.81,235.92,74.92,234.06,70.12,232.49Z"/></g></g><g id="_群組_13" data-name="&lt;群組&gt;"><path class="cls-27" d="M515.29,163.77A12.68,12.68,0,1,0,528,176.45,12.68,12.68,0,0,0,515.29,163.77Z"/><path class="cls-27" d="M24.79,163.77a12.68,12.68,0,1,0,12.67,12.68A12.68,12.68,0,0,0,24.79,163.77Z"/><g id="_群組_14" data-name="&lt;群組&gt;"><path id="_路徑_31" data-name="&lt;路徑&gt;" class="cls-1" d="M520.2,174.23C449.58,201.56,363.29,217.69,270,217.69S90.5,201.56,19.89,174.23"/><g id="_群組_15" data-name="&lt;群組&gt;"><path class="cls-27" d="M516.09,163.62l-.24.23.12,0c-2.49,3-3.73,8.7-4.54,13.5l-1,3.88-.3.91-1.47,3.37,0,.07-2,3.21-.34.46L503.88,192c5.54,1.68,14.19-1,20.36-7.33Z"/><path class="cls-28" d="M496.36,170.8l.12,0c-2.57,3-4,8.87-5,13.58l-1.13,3.81-.34.88-1.61,3.29,0,.07-2.18,3.09-.35.44-2.49,2.61c5.45,1.87,14.23-.08,20.49-6.58h0l2.38-2.74.34-.46,2-3.21,0-.07,1.47-3.37.3-.91,1-3.88c.81-4.8,2.05-10.47,4.54-13.5C510.48,162.12,502.4,164.55,496.36,170.8Z"/><path class="cls-27" d="M476.64,177.13l.12,0-.08.1,6.54,21.51.17-.18,2.49-2.61.35-.44,2.18-3.09,0-.07,1.61-3.29.34-.88,1.13-3.81c1-4.71,2.4-10.54,5-13.58C491.16,169.18,483,171.25,476.64,177.13Z"/></g><g id="_群組_16" data-name="&lt;群組&gt;"><path class="cls-27" d="M476.61,177l-.27.21.13,0c-2.7,2.92-4.33,8.55-5.48,13.33l-1.24,3.85-.37.89-1.69,3.32,0,.05-2.27,3.05-.38.42-2.57,2.5c5.47,2.34,14.17-.07,20.74-6Z"/><path class="cls-28" d="M456.44,183l.11,0c-2.81,2.78-4.65,8.32-6,13l-1.38,3.77-.4.88L447,203.87l0,.06-2.37,3-.38.44-2.64,2.49c5.31,2.2,14.08.44,20.85-5.19h0l2.57-2.49.38-.42,2.27-3.05,0-.05,1.69-3.32.37-.89,1.24-3.85c1.15-4.78,2.78-10.41,5.48-13.33C471.11,175.1,463,177.47,456.44,183Z"/><path class="cls-27" d="M436.3,188l.12.05-.09.09L441.4,210l.18-.16h0l2.64-2.49.38-.44,2.37-3,0-.06,1.81-3.22.4-.88,1.38-3.77c1.31-4.69,3.15-10.23,6-13C451.27,180.71,443,182.33,436.3,188Z"/></g><g id="_群組_17" data-name="&lt;群組&gt;"><path class="cls-27" d="M436.28,187.85l-.28.2.11,0c-2.85,2.87-4.89,8.28-6.36,12.89l-1.5,3.69-.45.85-1.9,3.13,0,.06-2.47,2.87-.4.41-2.72,2.36c5.26,2.37,14.2,1.27,21.09-4.49Z"/><path class="cls-28" d="M415.68,192.31l.1.05c-3,2.66-5.14,8.11-6.74,12.77l-1.6,3.7-.46.85-2,3.14,0,.07-2.55,2.77L402,216l-2.8,2.24c5.2,2.8,14,1.4,21.09-3.94h0L423,212l.4-.41,2.47-2.87,0-.06,1.9-3.13.45-.85,1.5-3.69c1.47-4.61,3.51-10,6.36-12.89C431,186,422.52,186.92,415.68,192.31Z"/><path class="cls-27" d="M395.25,196.11l.11.06-.08.09L399,218.42l.19-.14L402,216l.41-.38,2.55-2.77,0-.07,2-3.14.46-.85,1.6-3.7c1.6-4.66,3.77-10.11,6.74-12.77C410.65,189.72,402.34,191.3,395.25,196.11Z"/></g><g id="_群組_18" data-name="&lt;群組&gt;"><path class="cls-27" d="M395.23,196l-.29.18.12.06c-3.06,2.5-5.42,7.84-7.16,12.41l-1.72,3.63-.48.83-2.09,3-.05.06L380.94,219l-.42.38-2.85,2.25c5.11,2.69,14,1.72,21.3-3.33Z"/><path class="cls-28" d="M374.4,199.32l.1.06c-3.11,2.57-5.62,7.82-7.49,12.26l-1.83,3.54-.52.81-2.17,2.94-.05.06-2.71,2.64-.43.37-2.91,2.12c5,2.8,13.93,2.54,21.28-2.53h0l2.85-2.24.42-.38,2.62-2.78.05-.06,2.09-3,.48-.83,1.72-3.63c1.74-4.57,4.1-9.91,7.16-12.41C390,193.46,381.56,194.31,374.4,199.32Z"/><path class="cls-27" d="M353.74,201.77l.11,0-.09.08,2.43,22.35.2-.13h0L359.3,222l.43-.37,2.71-2.64.05-.06,2.17-2.94.52-.81,1.83-3.54c1.87-4.44,4.38-9.69,7.49-12.26C369.6,196.77,361.05,197,353.74,201.77Z"/></g><g id="_群組_19" data-name="&lt;群組&gt;"><path class="cls-27" d="M353.73,201.63l-.29.17.1,0c-3.2,2.39-5.85,7.62-7.84,12.12l-1.93,3.54-.53.81-2.25,3,0,.05-2.78,2.6-.45.35-3,2c4.95,3.28,13.88,2.5,21.42-2.17Z"/><path class="cls-28" d="M332.73,203.84l.11.06c-3.27,2.24-6.07,7.35-8.18,11.75l-2,3.45-.55.79-2.33,2.84-.06.06-2.84,2.53-.46.34-3,2c4.84,3.11,13.74,2.94,21.38-1.4h0l3-2,.45-.35,2.78-2.6,0-.05,2.25-3,.53-.81L345.7,214c2-4.5,4.64-9.73,7.84-12.12C348.66,198.78,340.21,199.57,332.73,203.84Z"/><path class="cls-27" d="M312,205.19l.09.06-.09.08,1.2,22.44.21-.11h0l3-2,.46-.34,2.84-2.53.06-.06,2.33-2.84.55-.79,2-3.45c2.11-4.4,4.91-9.51,8.18-11.75C328.05,200.72,319.53,200.82,312,205.19Z"/></g><g id="_群組_20" data-name="&lt;群組&gt;"><path class="cls-27" d="M312,205.07l-.29.15.1.05c-3.33,2.21-6.26,7.42-8.49,11.69l-2.11,3.38-.59.76-2.41,2.73-.05.06-2.91,2.41-.47.33-3.07,1.85c4.78,3.29,13.74,3.69,21.5-.88Z"/><path class="cls-28" d="M290.86,206l.1.07c-3.38,2.1-6.46,7.08-8.81,11.38L280,220.8l-.6.76-2.49,2.74-.05.06-3,2.4-.48.31-3.11,1.86c4.65,3.33,13.54,3.56,21.4-.45l3.07-1.85.47-.33,2.91-2.41.05-.06,2.41-2.73.59-.76,2.11-3.38c2.23-4.27,5.16-9.48,8.49-11.69C307.07,202.22,298.54,202,290.86,206Z"/><path class="cls-27" d="M270,206.43l.1.07-.1.07v22.48l.22-.12h0l3.12-1.86.48-.31,3-2.4.05-.06,2.49-2.74.6-.76,2.19-3.37c2.35-4.3,5.43-9.28,8.81-11.38C286.35,202.66,277.83,202.4,270,206.43Z"/></g><g id="_群組_21" data-name="&lt;群組&gt;"><path class="cls-27" d="M269.74,206.43l.1.07c-3.45,1.95-6.65,6.79-9.11,11l-2.3,3.27-.61.75-2.56,2.63,0,.05-3,2.27-.48.31-3.17,1.72c4.58,3.54,13.52,4.12,21.51.4V206.31Z"/><path class="cls-28" d="M248.92,206l.1.07c-3.5,1.94-6.83,6.79-9.41,11l-2.38,3.26-.63.74L234,223.62l-.06,0-3.09,2.14-.48.28-3.22,1.58c4.47,3.85,13.32,4.53,21.4.81l3.17-1.72.48-.31,3-2.27,0-.05,2.56-2.63.61-.75,2.3-3.27c2.46-4.19,5.66-9,9.11-11C265.32,202.91,256.81,202.28,248.92,206Z"/><path class="cls-27" d="M228.13,205.19l.08.08-.1.06-1.2,22.44.22-.1,3.22-1.58.48-.28,3.09-2.14.06,0L236.6,221l.63-.74,2.38-3.26c2.58-4.2,5.91-9,9.41-11C244.59,202.42,236.09,202,228.13,205.19Z"/></g><g id="_群組_22" data-name="&lt;群組&gt;"><path class="cls-27" d="M227.81,205.17l.09.07c-3.54,1.81-7,6.5-9.68,10.59L215.75,219l-.64.71-2.7,2.52-.06.05-3.16,2.14-.5.27-3.25,1.58c4.4,3.73,13.29,4.72,21.48,1.34l1.21-22.53Z"/><path class="cls-28" d="M207,203.83l.1.06c-3.61,1.85-7.19,6.44-10,10.37l-2.54,3.07L194,218l-2.76,2.4-.06,0-3.22,2-.5.27-3.3,1.43c4.28,3.81,13.06,5.49,21.33,2.1l3.25-1.58.5-.27,3.16-2.14.06-.05,2.7-2.52.64-.71,2.47-3.16c2.68-4.09,6.14-8.78,9.68-10.59C223.58,201.46,215.13,200.48,207,203.83Z"/><path class="cls-27" d="M186.34,201.77l.1.08-.12.05-2.44,22.35.23-.09h0l3.31-1.43.5-.27,3.22-2,.06,0L194,218l.67-.68,2.54-3.07c2.79-3.93,6.37-8.52,10-10.37C202.9,200.28,194.5,198.72,186.34,201.77Z"/></g><g id="_群組_23" data-name="&lt;群組&gt;"><path class="cls-27" d="M186,201.73l.1.07c-3.64,1.66-7.35,6.19-10.27,10.14L173.21,215l-.68.68-2.84,2.39-.06.05-3.28,2-.5.23-3.34,1.3c4.15,4.28,13,5.42,21.4,2.49l2.43-22.46Z"/><path class="cls-28" d="M165.39,199.28l.08.08c-3.67,1.48-7.51,5.87-10.52,9.7L152.22,212l-.7.64-2.91,2.28-.06,0-3.33,1.86-.51.24-3.39,1.28c4,4.08,12.79,5.85,21.19,3.26h0l3.34-1.3.5-.23,3.28-2,.06-.05,2.84-2.39.68-.68,2.65-3.05c2.92-3.95,6.63-8.48,10.27-10.14C182,197.76,173.59,196.71,165.39,199.28Z"/><path class="cls-27" d="M144.83,196.11l.09.08-.11.07-3.72,22.16.23-.08,3.39-1.28.51-.24,3.33-1.86.06,0,2.91-2.28.7-.64,2.73-2.94c3-3.83,6.85-8.22,10.52-9.7C161.49,195.21,153.16,193.49,144.83,196.11Z"/></g><g id="_群組_24" data-name="&lt;群組&gt;"><path class="cls-27" d="M144.53,196.07l.09.08c-3.73,1.46-7.72,5.88-10.84,9.52L131,208.5l-.72.62-3,2.14-.07.05L123.85,213l-.53.23-3.4,1.14c3.94,4.2,12.62,6.67,21.2,3.89L144.86,196Z"/><path class="cls-28" d="M124.1,192.25l.1.09c-3.76,1.31-7.87,5.5-11.11,9.17l-2.91,2.81-.75.61-3.05,2.14-.06,0-3.44,1.67-.53.19-3.45,1c3.74,4.62,12.46,6.51,21,4.41h0l3.41-1.14.53-.23,3.37-1.69.07-.05,3-2.14.72-.62,2.8-2.83c3.12-3.64,7.11-8.06,10.84-9.52C140.7,192.17,132.48,190,124.1,192.25Z"/><path class="cls-27" d="M103.78,188l.09.1-.12,0L98.68,210l.22,0,3.45-1,.53-.19,3.44-1.67.06,0,3.05-2.14.75-.61,2.91-2.81c3.24-3.67,7.35-7.86,11.11-9.17C120.47,187.94,112.17,186.13,103.78,188Z"/></g><g id="_群組_25" data-name="&lt;群組&gt;"><path class="cls-27" d="M103.48,187.9l.1.09c-3.79,1.14-8,5.16-11.37,8.7l-3,2.68-.76.58-3.11,2-.07,0-3.49,1.53-.54.2-3.49,1c3.67,4.45,12.3,7,21,5.17l5.1-22Z"/><path class="cls-28" d="M83.36,182.88l.07.09c-3.85,1.18-8.21,5.08-11.66,8.41l-3.07,2.56-.78.54-3.16,1.85-.06,0-3.54,1.38-.54.16-3.52.81c3.52,4.51,11.89,7.84,20.66,6h0l3.49-1,.54-.2L85.28,202l.07,0,3.11-2,.76-.58,3-2.68c3.36-3.54,7.58-7.56,11.37-8.7C100,183.5,91.88,181,83.36,182.88Z"/><path class="cls-27" d="M63.44,177.13l.08.09-.12,0-6.54,21.51.24-.05,3.52-.81.54-.16,3.54-1.38.06,0,3.16-1.85.78-.54,3.07-2.56c3.45-3.33,7.81-7.23,11.66-8.41C79.9,178.67,72,175.62,63.44,177.13Z"/></g><g id="_群組_26" data-name="&lt;群組&gt;"><path class="cls-27" d="M63.14,177l.08.09c-3.86,1-8.36,4.73-12,8.07l-3.16,2.51-.82.54L44,190l-.07,0-3.56,1.22-.56.13-3.53.64c3.28,5,11.77,8,20.6,6.56L63.48,177Z"/><path class="cls-28" d="M43.43,170.7l.08.09c-3.88.77-8.5,4.34-12.22,7.52L28,180.67l-.83.51-3.31,1.66-.08,0-3.64,1.18-.55.12-3.6.62c3.17,4.77,11.48,8.18,20.28,7.25h0l3.53-.63.56-.13L44,190.06l.07,0,3.23-1.78.82-.54,3.16-2.51c3.62-3.34,8.12-7.12,12-8.07C59.94,172.45,51.91,169.83,43.43,170.7Z"/><path class="cls-27" d="M23.94,163.75l.08.08-.13,0-8.11,21,.25,0h0l3.6-.61.55-.12,3.64-1.18.08,0,3.31-1.66.83-.51,3.25-2.36c3.72-3.18,8.34-6.75,12.22-7.52C40.41,166,32.62,162.75,23.94,163.75Z"/></g></g></g></g></g></g></g></g></svg>