<svg xmlns="http://www.w3.org/2000/svg" viewBox="0 0 1099.27 346.84"><defs><style>.cls-1{fill:#cea45a;}.cls-2{fill:#987845;}.cls-3{fill:#bdd266;}.cls-4{fill:#9ba365;}.cls-5{fill:#b99350;}</style></defs><title>資產 3</title><g id="圖層_2" data-name="圖層 2"><g id="圖層_9" data-name="圖層 9"><polygon id="_路徑_" data-name="&lt;路徑&gt;" class="cls-1" points="1057.93 116.39 1012.86 179.07 802.79 209.1 825.85 136.79 1057.93 116.39"/><polygon id="_路徑_2" data-name="&lt;路徑&gt;" class="cls-2" points="670.23 179.07 641.11 255.24 580.22 284.83 592.24 190.34 670.23 179.07"/><polygon id="_路徑_3" data-name="&lt;路徑&gt;" class="cls-2" points="360.79 179.07 360.79 308.79 267.45 284.83 250.1 194.1 360.79 179.07"/><path id="_路徑_4" data-name="&lt;路徑&gt;" class="cls-3" d="M283.48,19.82C274.35,19.34,166,35.9,166,35.9l-35.5,25.21-89.11,3L0,97.4s56.37,50.06,62,48.95,151.38,13,151.38,13L250.1,194.1l110.69-15v15l-42.4,26.31,56.75,20.67,236.33-20.67s-24.53-30.07-19.23-30.07,71.75-11.27,78-11.27,147,5.63,147,5.63l30.49-25.65-21.9-22.26,232.08-20.4,41.34-34.86s-30.06-38.26-35.7-41.77S760.74,22.34,760.74,22.34l8.83-15.83L295.64,0Z"/><polygon id="_路徑_5" data-name="&lt;路徑&gt;" class="cls-4" points="900.25 80.75 900.25 87.09 883.29 90.2 872.27 85.48 872.27 82.62 895.12 77.07 900.25 80.75"/><polygon id="_路徑_6" data-name="&lt;路徑&gt;" class="cls-4" points="998.57 86.54 998.57 95.07 976.64 99.09 972.88 92.81 985.73 83.92 998.57 86.54"/><path id="_路徑_7" data-name="&lt;路徑&gt;" class="cls-4" d="M732.11,89.8l-4.63,5.27H709s-6.66,2.92-7,0l-.35-2.93-11.78-.64,4.58-4.41,22.83-3.17,12.31,3.17Z"/><path id="_路徑_8" data-name="&lt;路徑&gt;" class="cls-4" d="M823.24,78.87c-8.69-1.27-20.45,4.92-20.45,4.92L786,88.86l4.23,7.32,30.67,6.25,27.39-5,16.34-13.67-11.49-5Z"/><path id="_路徑_9" data-name="&lt;路徑&gt;" class="cls-4" d="M251.72,45.83c-4.66-1.12-33.67,14.06-33.67,14.06l-27.34,15,13.5,22.54L367.33,102,567.85,88.23l95.44,3.4S687.57,78.3,691.4,78.89s35-9.59,35-9.59l-5.3-13.2L610.68,19.82Z"/><path id="_路徑_10" data-name="&lt;路徑&gt;" class="cls-4" d="M654.54,120.54c-3.73,2.44-24,2.56-26.91,2.36s0,9.14,0,9.14l-17,7-20.32-11-15.54,4-19-3.74-20.8,30.75-14.2-7.23L526.11,132l-39.58,7,1.61-15.72L448.87,128l16.28-23.08L538,100.2l76,2.35,45.23,4.67Z"/><path id="_路徑_11" data-name="&lt;路徑&gt;" class="cls-4" d="M348.75,96.18,324.27,106l-47,4-27.17,13.29-72.53-2.75-20.69,2.75L95.8,122.9,74.19,100.2,102.91,81l57.47,3.75,7.43-10.88,76.55,1s17.55,4.38,19.52,4,72,1.71,75,2.09S348.75,96.18,348.75,96.18Z"/><polygon id="_路徑_12" data-name="&lt;路徑&gt;" class="cls-5" points="62.01 146.35 91.21 205.91 238.12 260.87 213.39 159.31 62.01 146.35"/><polygon id="_路徑_13" data-name="&lt;路徑&gt;" class="cls-1" points="0 97.4 36.25 167.86 91.21 205.91 62.01 146.35 0 97.4"/><polygon id="_路徑_14" data-name="&lt;路徑&gt;" class="cls-1" points="250.1 194.1 267.45 284.83 238.12 260.87 213.39 159.31 250.1 194.1"/><polygon id="_路徑_15" data-name="&lt;路徑&gt;" class="cls-1" points="318.39 220.41 340.62 308.79 388.38 346.84 375.14 241.08 318.39 220.41"/><polygon id="_路徑_16" data-name="&lt;路徑&gt;" class="cls-5" points="611.47 220.41 584.67 325.7 388.38 346.84 375.14 241.08 611.47 220.41"/><polygon id="_路徑_17" data-name="&lt;路徑&gt;" class="cls-1" points="641.11 255.24 782.12 243.93 817.26 184.71 670.23 179.07 641.11 255.24"/><polygon id="_路徑_18" data-name="&lt;路徑&gt;" class="cls-5" points="847.75 159.05 782.12 243.93 817.26 184.71 847.75 159.05"/><polygon id="_路徑_19" data-name="&lt;路徑&gt;" class="cls-5" points="1099.27 81.53 1057.93 152.36 1012.86 179.07 1057.93 116.39 1099.27 81.53"/><g id="_群組_" data-name="&lt;群組&gt;"><path id="_路徑_20" data-name="&lt;路徑&gt;" class="cls-4" d="M270.46,130.66c1.82-2.2,3.44-4.49,5.05-6.84L272,125.26a9.42,9.42,0,0,1,1.9.55c.76.34.61.65.79.18s0-.36-.34-.53a16.3,16.3,0,0,0-3-1c-3-.77-5.86,3.3-3.21,5.52,3.74,3.12,11.12,3.41,12.8-2.22,1.45-4.85-3.17-7.82-7.3-8.55a3.28,3.28,0,0,0-3.55,1.45c-1.39,2.21-2.72,4.39-3.89,6.72-1.31,2.59,2.19,5.81,4.27,3.3Z"/></g><g id="_群組_2" data-name="&lt;群組&gt;"><path id="_路徑_21" data-name="&lt;路徑&gt;" class="cls-4" d="M289.16,134.26c-.17.15,0,.09,0,0-.21.08-.25.1-.1.05s.1,0-.05,0,.08,0,.13,0c.23.12-.53-.06,0,0s-.17,0-.13-.08a2.43,2.43,0,0,1,.3.17c.43.21-.32-.28-.09-.06s-.36-.58-.1-.08v-2.93c-.1.19-.06.16.11-.08a1.44,1.44,0,0,1,.6-.52c-.38.23.7-.25.36-.16s.35,0,.42,0c-.45,0-.15-.13.31.09a1.16,1.16,0,0,0-.32-.08c-.33,0,.71.38.32.12s.58.55.23.18c.39.42.3.32.5.88a3.16,3.16,0,0,0-3.81-2.16,3.12,3.12,0,0,0-2.16,3.8,4.85,4.85,0,0,0,3.66,3.23c2.16.4,4.44-.51,5.06-2.78.71-2.58-1.81-4.66-4.25-4.45a4.58,4.58,0,0,0-4.11,3.06,1.91,1.91,0,0,0,.87,2.12,1.94,1.94,0,0,0,2.27-.29Z"/></g><g id="_群組_3" data-name="&lt;群組&gt;"><path id="_路徑_22" data-name="&lt;路徑&gt;" class="cls-4" d="M299.25,125a3.08,3.08,0,0,0,1.31-.5,2.2,2.2,0,0,0,.88-1.72,2.3,2.3,0,0,0-.66-1.54,2.76,2.76,0,0,0-1.53-.67,2.3,2.3,0,1,0,0,4.43Z"/></g><g id="_群組_4" data-name="&lt;群組&gt;"><path id="_路徑_23" data-name="&lt;路徑&gt;" class="cls-4" d="M311.74,134.33l.25.72a1.72,1.72,0,0,0,3.29,0l.25-.72a2,2,0,1,0-3.79,0Z"/></g><g id="_群組_5" data-name="&lt;群組&gt;"><path id="_路徑_24" data-name="&lt;路徑&gt;" class="cls-4" d="M246.19,141.17a7.48,7.48,0,0,0-1.05.2,4,4,0,0,0-1,.54,1,1,0,0,0,0,1.78,4,4,0,0,0,1,.55c.34.09.7.13,1.05.19a1.69,1.69,0,1,0,0-3.26Z"/></g><g id="_群組_6" data-name="&lt;群組&gt;"><path id="_路徑_25" data-name="&lt;路徑&gt;" class="cls-4" d="M448.73,141.77a16.93,16.93,0,0,1,1.63-2.91,7.92,7.92,0,0,1,.84-.9c.27-.27,1.36-.85.45-.77l-3.1-1.77a26.69,26.69,0,0,0,3.67,4.41l-1.23-3c0,.48,0,.57.07.29s0-.19,0,.06-.08.28,0,0l.17-.19-.3.31c.28-.2.29-.22,0-.05s-.24.14,0,0a.8.8,0,0,1,.43-.12c.17,0,.34.16.47.14-.43.06-.29-.24-.37-.33s-.69-.75-.35-.35a9.8,9.8,0,0,0-1.73-1.67c-1.57-1.18-4.37-.32-5.22,1.37-1.65,3.32.16,6.86,3.2,8.61a8.17,8.17,0,0,0,8.3-.12,8.56,8.56,0,0,0,3.89-7.09c.05-3.46-3.23-5.77-6.07-7.18-1.65-.82-4-.54-4.91,1.28-.7,1.39-1.93,2.45-2.59,3.92a10.26,10.26,0,0,0-1.07,5c.14,1.87,2.86,3,3.84,1Z"/></g><g id="_群組_7" data-name="&lt;群組&gt;"><path id="_路徑_26" data-name="&lt;路徑&gt;" class="cls-4" d="M431.44,132.56a15,15,0,0,0-2.08,5l1.43-1.86c.22-.1.15-.07-.21.08a4,4,0,0,1-.68.18c.24,0,.24-.05,0-.05h0a.63.63,0,0,1,.34.26c-.23-.24-.26-.27-.09-.08a.65.65,0,0,1,.21.42c-.1-.39-.11-.36,0,.1.24-.7-.11.32-.18.47a1.72,1.72,0,0,1-1.43.84l-.48-.08q.59.17-.18-.12c-.41-.36-.48-.4-.2-.12.42.43.29.16-.41-.82a3.58,3.58,0,0,0,3.86,2.52,3.54,3.54,0,0,0,3-3.46c.15-3.6-3.69-6-7-5a5.75,5.75,0,0,0-3.71,7.56,6.46,6.46,0,0,0,7.93,3.92c2.06-.58,3.87-2,3.76-4.31a20.24,20.24,0,0,1-.1-3.82c.3-2.26-2.48-3.79-3.86-1.63Z"/></g><g id="_群組_8" data-name="&lt;群組&gt;"><path id="_路徑_27" data-name="&lt;路徑&gt;" class="cls-4" d="M425.93,149.77c-.22.37-.45.72-.69,1.08a10.42,10.42,0,0,0-.76,1.66l3.84-2.18a2.14,2.14,0,0,1,1.51,2.47l-1.68,1.69-1.78-.23a2.39,2.39,0,0,1-.93-2.44l3.16-2.41a15.22,15.22,0,0,0-2.86.18,3.83,3.83,0,0,0-2.92,2.67l1-1.32-.23.14a2.07,2.07,0,0,0,0,3.56l.23.11L423,154c1.1,2.26,3.42,2.16,5.56,2a3.35,3.35,0,0,0,3.16-2.4,4.32,4.32,0,0,0-1.63-4.54,4.12,4.12,0,0,0-5.27.18,4.21,4.21,0,0,0-1.2,4.08,4,4,0,0,0,3,3.08,3.32,3.32,0,0,0,3-.81,3.21,3.21,0,0,0,.81-3A7.56,7.56,0,0,0,430,151s-.2-.41-.13-.25-.16-.45-.15-.44a2.09,2.09,0,0,0-3.77-.49Z"/></g><g id="_群組_9" data-name="&lt;群組&gt;"><path id="_路徑_28" data-name="&lt;路徑&gt;" class="cls-4" d="M403.3,150q-2.43-.17-2.49-1.92c.1-.51.11-.66.05-.43a2.16,2.16,0,0,1,3.16-1.29c.39.34.49.41.28.2.45.57.4.49-.16-.23a5.14,5.14,0,0,0-.92-.69,2.83,2.83,0,0,0-3.13.22,2.88,2.88,0,0,0-1,3,3.7,3.7,0,0,0,3.51,2.78,3,3,0,0,0,1.4-5.75,2.41,2.41,0,0,0-3.29,1.55,2.13,2.13,0,0,0,2.59,2.6Z"/></g><g id="_群組_10" data-name="&lt;群組&gt;"><path id="_路徑_29" data-name="&lt;路徑&gt;" class="cls-4" d="M472.64,155.69a7.94,7.94,0,0,0-1.29,0,3.56,3.56,0,0,0-1.39.62,1.76,1.76,0,0,0,0,3,3.54,3.54,0,0,0,1.39.61,7,7,0,0,0,1.29,0,2.11,2.11,0,1,0,0-4.22Z"/></g><g id="_群組_11" data-name="&lt;群組&gt;"><path id="_路徑_30" data-name="&lt;路徑&gt;" class="cls-4" d="M664.24,129l0,.09-.57,2.15a3.41,3.41,0,0,0,.76-1.26,2.27,2.27,0,0,0,.08-.93l0,.26c-.15.3-.13.3,0,0l.16-.21c-.22.24-.2.23,0,0a.49.49,0,0,1-.32.18c-.64,0-.26,0-.11.05-.19-.11.5.34.14.11a15.16,15.16,0,0,1,1.78,1.45c.24-1.83.47-3.65.71-5.48a15.44,15.44,0,0,1-1.4.86c-.1.05-.93.42-.67.32a9.5,9.5,0,0,1-1.18.37c-.26.07-.53.13-.8.18l-.28,0a3.67,3.67,0,0,0-3.56,3.56c0,1.73,1.64,3.81,3.56,3.56a16.66,16.66,0,0,0,7.85-2.87c1.67-1.2,2.58-3.91.71-5.49-2.41-2-5.69-3.84-8.9-2.45a5.2,5.2,0,0,0-2.64,7.13,2.73,2.73,0,0,0,3,1.22l.12,0h-1.18a6.54,6.54,0,0,0,1,.16c1.61.19,2.29-1.78,1.7-3Z"/></g><g id="_群組_12" data-name="&lt;群組&gt;"><path id="_路徑_31" data-name="&lt;路徑&gt;" class="cls-4" d="M678.15,113l-.77.11a1.71,1.71,0,0,0,0,3.3l.77.11a1.88,1.88,0,0,0,1.78-.47,1.83,1.83,0,0,0,0-2.58,1.91,1.91,0,0,0-1.78-.47Z"/></g><g id="_群組_13" data-name="&lt;群組&gt;"><path id="_路徑_32" data-name="&lt;路徑&gt;" class="cls-4" d="M696.64,130.49a1.69,1.69,0,0,0,0-3.38,1.69,1.69,0,0,0,0,3.38Z"/></g><g id="_群組_14" data-name="&lt;群組&gt;"><path id="_路徑_33" data-name="&lt;路徑&gt;" class="cls-4" d="M709.64,125.49a1.69,1.69,0,0,0,0-3.38,1.69,1.69,0,0,0,0,3.38Z"/></g><g id="_群組_15" data-name="&lt;群組&gt;"><path id="_路徑_34" data-name="&lt;路徑&gt;" class="cls-4" d="M747.64,84l-.8.09a1.74,1.74,0,0,0,0,3.48l.8.09a1.82,1.82,0,0,0,1.82-1.83c0-.9-.81-1.94-1.82-1.83Z"/></g><g id="_群組_16" data-name="&lt;群組&gt;"><path id="_路徑_35" data-name="&lt;路徑&gt;" class="cls-4" d="M738.09,59.75a6.05,6.05,0,0,0,1.72,1.09,4.25,4.25,0,0,0,1.62.31,3.24,3.24,0,0,0,3.17-2.8,3.19,3.19,0,0,0-2.31-3.55,4.69,4.69,0,0,0-1.49-.1c-.27,0-.54.07-.81.13a5,5,0,0,0-1.34.6c-1.41.82-2,3.19-.56,4.32Z"/></g><g id="_群組_17" data-name="&lt;群組&gt;"><path id="_路徑_36" data-name="&lt;路徑&gt;" class="cls-4" d="M871.81,98.8c0-.45-.1-.89-.16-1.34a3.86,3.86,0,0,0-.8-1.93,5.15,5.15,0,0,0-1.41-1.22,3.54,3.54,0,0,0-3.61,0,4.36,4.36,0,0,0-2.21,3.15c-.06.45-.11.89-.16,1.34a4.18,4.18,0,0,0,7.13,3,4.06,4.06,0,0,0,1.22-3Z"/></g><g id="_群組_18" data-name="&lt;群組&gt;"><path id="_路徑_37" data-name="&lt;路徑&gt;" class="cls-4" d="M875.87,95.32c0,.25-.07.51-.11.76A1.95,1.95,0,0,0,879,98a2.07,2.07,0,0,0,.51-1.9l-.12-.76A1.83,1.83,0,0,0,877.64,94a1.87,1.87,0,0,0-1.77,1.35Z"/></g><g id="_群組_19" data-name="&lt;群組&gt;"><path id="_路徑_38" data-name="&lt;路徑&gt;" class="cls-4" d="M880.64,105.54a1.74,1.74,0,0,0,0-3.47,1.74,1.74,0,0,0,0,3.47Z"/></g><g id="_群組_20" data-name="&lt;群組&gt;"><path id="_路徑_39" data-name="&lt;路徑&gt;" class="cls-4" d="M908.64,98.68a1.88,1.88,0,0,0,0-3.75,1.88,1.88,0,0,0,0,3.75Z"/></g><g id="_群組_21" data-name="&lt;群組&gt;"><path id="_路徑_40" data-name="&lt;路徑&gt;" class="cls-4" d="M918.58,80.74a3.5,3.5,0,0,0-.54.47.87.87,0,0,0,0,1.19,3,3,0,0,0,.54.46,1.54,1.54,0,0,0,1.63.31,1.49,1.49,0,0,0,.93-1.37,1.59,1.59,0,0,0-.75-1.29,1.54,1.54,0,0,0-1.81.23Z"/></g><g id="_群組_22" data-name="&lt;群組&gt;"><path id="_路徑_41" data-name="&lt;路徑&gt;" class="cls-4" d="M1013.2,61.09a16.07,16.07,0,0,0-1.78.58,11.15,11.15,0,0,0-1.65,1.12,2.61,2.61,0,0,0-.9,3.43c1.61,3.27,6.54,5.06,9.28,2a5.42,5.42,0,0,0,1.24-4.9c-.56-2.11-2.89-4.11-5.07-2.81a2.72,2.72,0,0,0-1.2,2.94,2.21,2.21,0,0,0,.51,1l.46.51c0-.08-.31-.52-.14-.16-.16-.33,0-.44-.08-.1-.06.58.23-.21,0-.12,0,0,0,.37,0,.37s.21-.71,0-.11c-.13.34.29-.64,0-.09.08-.14.35-.38.08-.14.08-.07.6-.33.35-.26s.56,0-.11,0c.29,0,.21,0,0,0s-.31-.1-.15,0h0c-.07,0-.54-.32-.22-.08a4,4,0,0,1-.37-.35c-.45-.44.13.26-.19-.29-.13,1-.27,2-.4,3a10.4,10.4,0,0,0,1.47-1.34,13.89,13.89,0,0,0,1-1.61,1.85,1.85,0,0,0-2.07-2.68Z"/></g><g id="_群組_23" data-name="&lt;群組&gt;"><path id="_路徑_42" data-name="&lt;路徑&gt;" class="cls-4" d="M1027,68.49a2.88,2.88,0,0,0-2.54.54c-1.28,1-1.17,2.61-.56,3.93a2.25,2.25,0,0,0,2,1.17,4.43,4.43,0,0,0,3.52-2.07,4,4,0,0,0,.22-4.12,2.4,2.4,0,0,0-2.68-1.09,2.49,2.49,0,0,0-1.75,2.29c.07-.66,0-.2,0,.36a2.81,2.81,0,0,0,0,.29c0,.3.1-.59,0-.16s.16-.39,0-.11c0,.07-.24.36,0,0s0,0-.11.08.06-.05.15-.11c-.39.26.5-.15,0,0l2.64,1.08c-.13-.21-.12-.14,0,.2-.06-.24-.06-.18,0,.2v-.13a2.26,2.26,0,0,0-.3-1.14c.12.34.16.43.11.27s0-.07,0,.23c0-.18,0-.14,0,.13s-.09.2,0,.06a1.33,1.33,0,0,0-.79-1.93Z"/></g><g id="_群組_24" data-name="&lt;群組&gt;"><path id="_路徑_43" data-name="&lt;路徑&gt;" class="cls-4" d="M1042.05,67.37l-.13.76a1.78,1.78,0,1,0,3.43,0l-.13-.76a1.66,1.66,0,0,0-3.17,0Z"/></g></g></g></svg>