<svg xmlns="http://www.w3.org/2000/svg" viewBox="0 0 643.22 312.44"><defs><style>.cls-1{isolation:isolate;}.cls-2{fill:#f4eeed;}.cls-3{fill:#e0d7d5;}.cls-4{fill:#fff;}.cls-5{fill:#cec3c2;}.cls-6{fill:#4f3e35;}.cls-7{fill:#775a4d;}.cls-8{fill:#3d2b23;}.cls-9{fill:#656e79;}.cls-10{opacity:0.1;mix-blend-mode:multiply;}.cls-11{fill:#535f6f;}.cls-12{fill:#444f5c;}.cls-13{fill:#d4f2f9;}.cls-14{fill:#e8f6f9;}</style></defs><title>資產 3</title><g class="cls-1"><g id="圖層_2" data-name="圖層 2"><g id="圖層_1-2" data-name="圖層 1"><g id="_群組_" data-name="&lt;群組&gt;"><rect id="_路徑_" data-name="&lt;路徑&gt;" class="cls-2" x="440.66" y="71.75" width="163.88" height="186.94"/><rect id="_矩形_" data-name="&lt;矩形&gt;" class="cls-3" x="560.37" y="63.11" width="44.16" height="195.57"/><rect id="_矩形_2" data-name="&lt;矩形&gt;" class="cls-4" x="440.66" y="63.11" width="44.16" height="195.57"/><rect id="_路徑_2" data-name="&lt;路徑&gt;" class="cls-5" x="566.15" y="117.04" width="9.36" height="3.22"/><rect id="_路徑_3" data-name="&lt;路徑&gt;" class="cls-5" x="570.83" y="120.91" width="9.36" height="3.22"/><polygon id="_路徑_4" data-name="&lt;路徑&gt;" class="cls-6" points="522.59 0 440.65 62.71 440.65 70.96 604.53 70.96 604.53 62.71 522.59 0"/><polygon id="_路徑_5" data-name="&lt;路徑&gt;" class="cls-7" points="440.65 70.96 485.81 70.96 485.81 62.31 522.59 0 440.65 62.71 440.65 70.96"/><polygon id="_路徑_6" data-name="&lt;路徑&gt;" class="cls-8" points="604.53 70.96 559.37 70.96 559.37 62.31 522.59 0 604.53 62.71 604.53 70.96"/><g id="_群組_2" data-name="&lt;群組&gt;"><polygon id="_路徑_7" data-name="&lt;路徑&gt;" class="cls-8" points="441.18 62.31 440.65 62.71 440.65 63.11 604.53 63.11 604.53 62.71 604 62.31 441.18 62.31"/><polygon id="_路徑_8" data-name="&lt;路徑&gt;" class="cls-8" points="593.43 54.22 451.75 54.22 450.7 55.02 594.49 55.02 593.43 54.22"/><polygon id="_路徑_9" data-name="&lt;路徑&gt;" class="cls-8" points="582.86 46.13 462.33 46.13 461.27 46.93 583.92 46.93 582.86 46.13"/><polygon id="_路徑_10" data-name="&lt;路徑&gt;" class="cls-8" points="572.29 38.03 472.9 38.03 471.84 38.84 573.35 38.84 572.29 38.03"/><polygon id="_路徑_11" data-name="&lt;路徑&gt;" class="cls-8" points="561.72 29.94 483.47 29.94 482.41 30.75 562.78 30.75 561.72 29.94"/><polygon id="_路徑_12" data-name="&lt;路徑&gt;" class="cls-8" points="551.15 21.85 494.04 21.85 492.98 22.66 552.2 22.66 551.15 21.85"/><polygon id="_路徑_13" data-name="&lt;路徑&gt;" class="cls-8" points="540.58 13.76 504.61 13.76 503.56 14.57 541.63 14.57 540.58 13.76"/><polygon id="_路徑_14" data-name="&lt;路徑&gt;" class="cls-8" points="530.01 5.67 515.18 5.67 514.13 6.48 531.06 6.48 530.01 5.67"/></g><rect id="_路徑_15" data-name="&lt;路徑&gt;" class="cls-9" x="440.66" y="70.02" width="163.88" height="3.46"/><path id="_路徑_16" data-name="&lt;路徑&gt;" class="cls-10" d="M533.82,47.7c0,5.11-4.51,9.26-10.09,9.26s-10.09-4.15-10.09-9.26,4.52-9.26,10.09-9.26S533.82,42.58,533.82,47.7Z"/><ellipse id="_路徑_17" data-name="&lt;路徑&gt;" class="cls-11" cx="522.59" cy="46.53" rx="9.69" ry="8.89"/><rect id="_路徑_18" data-name="&lt;路徑&gt;" class="cls-4" x="513.62" y="86.68" width="17.59" height="21.89"/><rect id="_路徑_19" data-name="&lt;路徑&gt;" class="cls-12" x="515.96" y="89.99" width="12.92" height="15.28"/><rect id="_路徑_20" data-name="&lt;路徑&gt;" class="cls-4" x="513.62" y="123.03" width="17.59" height="21.89"/><rect id="_路徑_21" data-name="&lt;路徑&gt;" class="cls-12" x="515.96" y="126.34" width="12.92" height="15.28"/><rect id="_路徑_22" data-name="&lt;路徑&gt;" class="cls-5" x="575.69" y="163.2" width="9.36" height="3.22"/><rect id="_路徑_23" data-name="&lt;路徑&gt;" class="cls-5" x="461.26" y="235.06" width="9.36" height="3.22"/><rect id="_路徑_24" data-name="&lt;路徑&gt;" class="cls-5" x="490.94" y="132.36" width="9.36" height="3.22"/><rect id="_路徑_25" data-name="&lt;路徑&gt;" class="cls-5" x="542.55" y="189.57" width="9.36" height="3.22"/><rect id="_路徑_26" data-name="&lt;路徑&gt;" class="cls-5" x="532.27" y="189.57" width="9.36" height="3.22"/><rect id="_路徑_27" data-name="&lt;路徑&gt;" class="cls-5" x="448.45" y="153.9" width="9.36" height="3.22"/><rect id="_路徑_28" data-name="&lt;路徑&gt;" class="cls-5" x="590.19" y="247.65" width="9.36" height="3.22"/><rect id="_路徑_29" data-name="&lt;路徑&gt;" class="cls-5" x="579.91" y="247.65" width="9.36" height="3.22"/><rect id="_路徑_30" data-name="&lt;路徑&gt;" class="cls-5" x="440.66" y="226.09" width="8.15" height="3.22"/></g><path class="cls-4" d="M616.61,241.76a26.51,26.51,0,0,0-19.18,8.18,24.8,24.8,0,0,0-44.73,3.84,20,20,0,0,0-24.35,2.64,19.89,19.89,0,0,0-13.87-5.6c-.63,0-1.24,0-1.86.09.08-.84.12-1.68.12-2.53a26.61,26.61,0,0,0-53.19-1.15,20,20,0,0,0-18-1.41l-.45-.28a20,20,0,0,0-38.66,7.17,19.29,19.29,0,0,0,.13,2.29h-.34a20,20,0,0,0-.83,40v0H616.61a26.62,26.62,0,0,0,0-53.23Z"/><path class="cls-13" d="M265.93,221.12a21.72,21.72,0,0,0-12.1,3.66,21.81,21.81,0,0,0-43.12-1.39,21.79,21.79,0,0,0-34.52-4.1,31.35,31.35,0,0,0-61.89,1.23,21.77,21.77,0,0,0-24.37-3.07,31.36,31.36,0,0,0-60.73,5A21.81,21.81,0,1,0,20,264.66v.09H265.93a21.82,21.82,0,1,0,0-43.63Z"/><path class="cls-4" d="M327.15,253a21.67,21.67,0,0,0-12.1,3.67,21.81,21.81,0,0,0-43.12-1.4,21.81,21.81,0,0,0-34.52-4.1,31.35,31.35,0,0,0-61.89,1.23,21.82,21.82,0,0,0-24.37-3.07,31.36,31.36,0,0,0-60.73,5,21.81,21.81,0,1,0-9.21,42.26v.08H327.15a21.82,21.82,0,1,0,0-43.63Z"/><path class="cls-4" d="M440.56,225.91a23.44,23.44,0,0,0-19.87,11,16.31,16.31,0,0,0-20.72-.25c0-.14,0-.28,0-.43a19.76,19.76,0,0,0-37.1-9.47,17.49,17.49,0,0,0-22.08,0,24.93,24.93,0,0,0-45.1,20.44,13.17,13.17,0,0,0,3.12,25.65v0H440.56a23.48,23.48,0,0,0,0-47Z"/><path class="cls-4" d="M458.49,247.84a23.47,23.47,0,0,0-19.87,11,16.32,16.32,0,0,0-20.72-.24c0-.15,0-.29,0-.43a19.76,19.76,0,0,0-37.09-9.48,17.5,17.5,0,0,0-22.09,0,24.93,24.93,0,0,0-45.1,20.44,13.17,13.17,0,0,0,3.12,25.65v0H458.49a23.48,23.48,0,0,0,0-47Z"/><path class="cls-14" d="M366.36,285.15a13.65,13.65,0,0,0-13.27-17,13,13,0,0,0-2.17.19,18.3,18.3,0,0,0-32.69-10.23,22.14,22.14,0,0,0-42-1.45,13.68,13.68,0,0,0-21.12,11.49,22.13,22.13,0,0,0-1.45,44.21v.05H364.91a13.68,13.68,0,0,0,1.45-27.29Z"/></g></g></g></svg>