<?xml version="1.0" encoding="utf-8"?>
<!-- Generator: Adobe Illustrator 16.0.0, SVG Export Plug-In . SVG Version: 6.00 Build 0)  -->
<!DOCTYPE svg PUBLIC "-//W3C//DTD SVG 1.1//EN" "http://www.w3.org/Graphics/SVG/1.1/DTD/svg11.dtd">
<svg version="1.1" id="圖層_1" xmlns="http://www.w3.org/2000/svg" xmlns:xlink="http://www.w3.org/1999/xlink" x="0px" y="0px"
	 width="30px" height="30px" viewBox="0 0 30 30" enable-background="new 0 0 30 30" xml:space="preserve">
<g id="圖層_1_1_">
	<g>
		<path fill="#C0C0C0" d="M15,2.749c6.756,0,12.252,5.496,12.252,12.251c0,6.756-5.496,12.252-12.252,12.252S2.749,21.756,2.749,15
			C2.749,8.245,8.244,2.749,15,2.749 M15,0.749C7.128,0.749,0.749,7.128,0.749,15c0,7.869,6.38,14.252,14.251,14.252
			c7.87,0,14.252-6.383,14.252-14.252C29.252,7.128,22.869,0.749,15,0.749L15,0.749z"/>
	</g>
</g>
<line fill="none" stroke="#333232" stroke-width="2.3" stroke-linecap="round" stroke-miterlimit="10" x1="9.696" y1="10.197" x2="20.304" y2="20.803"/>
<line fill="none" stroke="#333232" stroke-width="2.3" stroke-linecap="round" stroke-miterlimit="10" x1="9.696" y1="20.803" x2="20.304" y2="10.197"/>
</svg>
