<?xml version="1.0" encoding="utf-8"?>
<!-- Generator: Adobe Illustrator 16.0.0, SVG Export Plug-In . SVG Version: 6.00 Build 0)  -->
<!DOCTYPE svg PUBLIC "-//W3C//DTD SVG 1.1//EN" "http://www.w3.org/Graphics/SVG/1.1/DTD/svg11.dtd">
<svg version="1.1" id="圖層_1" xmlns="http://www.w3.org/2000/svg" xmlns:xlink="http://www.w3.org/1999/xlink" x="0px" y="0px"
	 width="30px" height="30px" viewBox="0 0 30 30" enable-background="new 0 0 30 30" xml:space="preserve">
<g id="圖層_1_1_">
	<g>
		<path fill="#8F543A" d="M15,2.749c6.756,0,12.252,5.496,12.252,12.251c0,6.756-5.496,12.252-12.252,12.252S2.749,21.756,2.749,15
			C2.749,8.245,8.244,2.749,15,2.749 M15,0.749C7.128,0.749,0.749,7.128,0.749,15c0,7.869,6.38,14.252,14.251,14.252
			c7.87,0,14.252-6.383,14.252-14.252C29.252,7.128,22.869,0.749,15,0.749L15,0.749z"/>
	</g>
</g>
<g id="圖層_2">
	<g>
		<path fill="#8F543A" stroke="#8F543A" stroke-width="1.1504" stroke-miterlimit="10" d="M22.232,18.445
			c0,1.197-0.66,2.254-1.979,3.164c-1.257,0.851-2.758,1.373-4.503,1.57v1.207c0,0.305-0.319,0.455-0.958,0.455
			c-0.638,0-0.957-0.15-0.957-0.455v-1.185c-1.768-0.151-3.278-0.66-4.534-1.525c-1.256-0.864-1.883-1.927-1.883-3.187
			c0-0.729,0.522-1.094,1.564-1.094c0.468,0,0.83,0.334,1.085,1.002c0.554,1.608,1.81,2.559,3.768,2.847v-6.443
			c-2.023-0.592-3.427-1.116-4.215-1.571c-1.319-0.759-1.979-1.738-1.979-2.937c0-1.321,0.618-2.376,1.852-3.165
			c1.277-0.79,2.725-1.222,4.343-1.298V4.715c0-0.319,0.319-0.478,0.957-0.478c0.639,0,0.958,0.159,0.958,0.478v1.161
			c1.788,0.167,3.214,0.736,4.277,1.708c1.066,0.956,1.598,1.746,1.598,2.368c0,0.683-0.488,1.024-1.468,1.024
			c-0.47,0-0.863-0.281-1.183-0.842c-0.703-1.275-1.777-2.049-3.226-2.322v5.624c2.065,0.668,3.534,1.275,4.407,1.821
			C21.542,16.139,22.232,17.2,22.232,18.445z M13.837,12.798V7.721c-0.979,0.076-1.768,0.349-2.363,0.82
			c-0.639,0.456-0.958,1.04-0.958,1.753C10.516,11.189,11.623,12.024,13.837,12.798z M19.359,18.514c0-1.274-1.202-2.314-3.607-3.12
			v5.852c0.979-0.15,1.831-0.479,2.555-0.979C19.009,19.75,19.359,19.166,19.359,18.514z"/>
	</g>
</g>
</svg>
