<?xml version="1.0" encoding="utf-8"?>
<!-- Generator: Adobe Illustrator 16.0.0, SVG Export Plug-In . SVG Version: 6.00 Build 0)  -->
<!DOCTYPE svg PUBLIC "-//W3C//DTD SVG 1.1//EN" "http://www.w3.org/Graphics/SVG/1.1/DTD/svg11.dtd">
<svg version="1.1" id="圖層_1" xmlns="http://www.w3.org/2000/svg" xmlns:xlink="http://www.w3.org/1999/xlink" x="0px" y="0px"
	 width="10px" height="10px" viewBox="0 0 10 10" enable-background="new 0 0 10 10" xml:space="preserve">
<path fill="#865438" d="M8.643,8.129L8.735,7.72c0.057-0.253-0.134-0.493-0.394-0.493H3.825L3.714,6.688h4.934
	c0.188,0,0.353-0.13,0.394-0.315l0.795-3.501c0.058-0.253-0.135-0.494-0.393-0.494h-6.61L2.68,1.624
	C2.641,1.436,2.475,1.301,2.284,1.301H0.558c-0.222,0-0.403,0.181-0.403,0.404v0.269c0,0.223,0.181,0.404,0.403,0.404h1.176
	l1.183,5.78c-0.283,0.164-0.473,0.47-0.473,0.818c0,0.521,0.421,0.942,0.942,0.942c0.52,0,0.942-0.422,0.942-0.942
	c0-0.263-0.109-0.501-0.284-0.673h3.529c-0.176,0.172-0.284,0.41-0.284,0.673c0,0.521,0.422,0.942,0.942,0.942
	s0.941-0.422,0.941-0.942C9.173,8.603,8.956,8.281,8.643,8.129"/>
</svg>
