<?xml version="1.0" encoding="utf-8"?>
<!-- Generator: Adobe Illustrator 16.0.0, SVG Export Plug-In . SVG Version: 6.00 Build 0)  -->
<!DOCTYPE svg PUBLIC "-//W3C//DTD SVG 1.1//EN" "http://www.w3.org/Graphics/SVG/1.1/DTD/svg11.dtd">
<svg version="1.1" id="圖層_1" xmlns="http://www.w3.org/2000/svg" xmlns:xlink="http://www.w3.org/1999/xlink" x="0px" y="0px"
	 width="810px" height="129.656px" viewBox="0 0 810 129.656" enable-background="new 0 0 810 129.656" xml:space="preserve">
<g>
	<polygon fill="#F15A24" points="124.26,131.919 82.171,109.732 40.037,131.826 48.129,84.941 14.097,51.695 61.186,44.905 
		82.289,2.263 103.299,44.951 150.375,51.844 116.269,85.018 	"/>
	<g>
		<path fill="#F15A24" d="M244.297,10.668l17.235,35.016l0.98,1.991l2.195,0.321l38.614,5.653L275.345,80.86l-1.591,1.547
			l0.373,2.188l6.555,38.472l-34.523-18.198l-1.963-1.034l-1.965,1.03l-34.562,18.122l6.638-38.458l0.377-2.187l-1.587-1.55
			l-27.915-27.271l38.625-5.57l2.196-0.316l0.984-1.988L244.297,10.668 M244.307,1.132l-21.103,42.643l-47.088,6.79l34.032,33.246
			l-8.093,46.885l42.136-22.094l42.088,22.187l-7.991-46.902l34.107-33.174l-47.076-6.892L244.307,1.132L244.307,1.132z"/>
	</g>
	<g>
		<path fill="#F15A24" d="M406.314,9.536l17.236,35.017l0.98,1.99l2.195,0.321l38.613,5.653l-27.977,27.211l-1.592,1.547
			l0.373,2.188l6.557,38.473l-34.525-18.198l-1.961-1.034l-1.966,1.029l-34.562,18.122l6.639-38.458l0.377-2.187l-1.587-1.55
			L347.2,52.39l38.625-5.569l2.196-0.316l0.984-1.988L406.314,9.536 M406.326,0l-21.103,42.644l-47.09,6.789l34.033,33.246
			l-8.093,46.885l42.136-22.093l42.09,22.186l-7.994-46.902l34.109-33.173l-47.076-6.893L406.326,0L406.326,0z"/>
	</g>
	<g>
		<path fill="#F15A24" d="M568.334,8.406l17.234,35.016l0.98,1.99l2.195,0.321l38.615,5.653l-27.977,27.212l-1.592,1.547
			l0.373,2.188l6.555,38.472l-34.523-18.198l-1.963-1.034l-1.965,1.03l-34.561,18.121l6.639-38.457l0.377-2.187l-1.588-1.55
			l-27.916-27.271l38.625-5.57l2.195-0.316l0.984-1.988L568.334,8.406 M568.344-1.13L547.24,41.512l-47.088,6.79l34.033,33.247
			l-8.092,46.884l42.133-22.093l42.088,22.186l-7.99-46.901l34.107-33.175l-47.076-6.892L568.344-1.13L568.344-1.13z"/>
	</g>
	<g>
		<path fill="#F15A24" d="M730.354,7.273l17.234,35.018l0.98,1.99l2.195,0.321l38.615,5.653l-27.977,27.211l-1.592,1.547
			l0.373,2.188l6.555,38.473l-34.523-18.199l-1.963-1.035l-1.965,1.031l-34.563,18.122l6.639-38.457l0.377-2.187l-1.588-1.55
			l-27.914-27.272l38.625-5.569l2.195-0.316l0.984-1.988L730.354,7.273 M730.363-2.263L709.26,40.381l-47.088,6.789l34.031,33.248
			l-8.092,46.884l42.135-22.094l42.09,22.187l-7.992-46.902l34.107-33.174l-47.076-6.892L730.363-2.263L730.363-2.263z"/>
	</g>
</g>
</svg>
