<?xml version="1.0" encoding="utf-8"?>
<!-- Generator: Adobe Illustrator 16.0.0, SVG Export Plug-In . SVG Version: 6.00 Build 0)  -->
<!DOCTYPE svg PUBLIC "-//W3C//DTD SVG 1.1//EN" "http://www.w3.org/Graphics/SVG/1.1/DTD/svg11.dtd">
<svg version="1.1" id="圖層_1" xmlns="http://www.w3.org/2000/svg" xmlns:xlink="http://www.w3.org/1999/xlink" x="0px" y="0px"
	 width="810px" height="131.918px" viewBox="0 0 810 131.918" enable-background="new 0 0 810 131.918" xml:space="preserve">
<g>
	<polygon fill="#F15A24" points="124.259,131.918 82.17,109.733 40.036,131.826 48.128,84.942 14.096,51.695 61.185,44.905 
		82.288,2.263 103.298,44.951 150.375,51.843 116.268,85.017 	"/>
	<polygon fill="#F15A24" points="286.277,130.788 244.189,108.602 202.053,130.695 210.146,83.81 176.115,50.564 223.203,43.774 
		244.306,1.131 265.317,43.82 312.393,50.712 278.286,83.885 	"/>
	<polygon fill="#F15A24" points="448.297,129.656 406.207,107.471 364.072,129.563 372.166,82.679 338.133,49.433 385.223,42.643 
		406.324,0 427.336,42.689 474.412,49.581 440.305,82.754 	"/>
	<polygon fill="#F15A24" points="610.313,128.525 568.225,106.339 526.092,128.433 534.184,81.548 500.15,48.302 547.238,41.512 
		568.342,-1.13 589.354,41.558 636.43,48.45 602.322,81.624 	"/>
	<polygon fill="#F15A24" points="772.334,127.394 730.244,105.208 688.109,127.302 696.201,80.417 662.17,47.17 709.258,40.381 
		730.361,-2.262 751.373,40.427 798.449,47.319 764.342,80.493 	"/>
</g>
</svg>
