<?xml version="1.0" encoding="utf-8"?>
<!-- Generator: Adobe Illustrator 16.0.0, SVG Export Plug-In . SVG Version: 6.00 Build 0)  -->
<!DOCTYPE svg PUBLIC "-//W3C//DTD SVG 1.1//EN" "http://www.w3.org/Graphics/SVG/1.1/DTD/svg11.dtd">
<svg version="1.1" id="圖層_1" xmlns="http://www.w3.org/2000/svg" xmlns:xlink="http://www.w3.org/1999/xlink" x="0px" y="0px"
	 width="810px" height="131.919px" viewBox="0 0 810 131.919" enable-background="new 0 0 810 131.919" xml:space="preserve">
<g>
	<polygon fill="#F15A24" points="124.259,131.919 82.171,109.733 40.036,131.826 48.128,84.942 14.097,51.695 61.185,44.905 
		82.288,2.263 103.298,44.952 150.375,51.843 116.268,85.017 	"/>
	<polygon fill="#F15A24" points="286.277,130.788 244.189,108.602 202.054,130.695 210.147,83.811 176.115,50.564 223.204,43.774 
		244.307,1.131 265.318,43.82 312.394,50.712 278.287,83.885 	"/>
	<polygon fill="#F15A24" points="448.298,129.656 406.208,107.471 364.073,129.563 372.166,82.679 338.133,49.433 385.223,42.643 
		406.325,0 427.337,42.689 474.413,49.581 440.305,82.754 	"/>
	<polygon fill="#F15A24" points="610.313,128.525 568.226,106.339 526.093,128.433 534.185,81.548 500.151,48.302 547.239,41.512 
		568.343,-1.13 589.354,41.558 636.431,48.45 602.323,81.624 	"/>
	<g>
		<path fill="#F15A24" d="M730.353,7.274l17.236,35.017l0.979,1.991l2.195,0.321l38.615,5.653l-27.977,27.211l-1.592,1.547
			l0.373,2.188l6.555,38.471l-34.523-18.198l-1.963-1.035l-1.965,1.03l-34.563,18.123l6.639-38.458l0.377-2.186l-1.588-1.551
			l-27.914-27.271l38.625-5.569l2.195-0.317l0.984-1.988L730.353,7.274 M730.362-2.262l-21.104,42.643l-47.088,6.79l34.031,33.247
			l-8.092,46.884l42.135-22.094l42.09,22.186l-7.992-46.901l34.107-33.174l-47.076-6.892L730.362-2.262L730.362-2.262z"/>
	</g>
</g>
</svg>
