<?xml version="1.0" encoding="utf-8"?>
<!-- Generator: Adobe Illustrator 16.0.0, SVG Export Plug-In . SVG Version: 6.00 Build 0)  -->
<!DOCTYPE svg PUBLIC "-//W3C//DTD SVG 1.1//EN" "http://www.w3.org/Graphics/SVG/1.1/DTD/svg11.dtd">
<svg version="1.1" id="圖層_1" xmlns="http://www.w3.org/2000/svg" xmlns:xlink="http://www.w3.org/1999/xlink" x="0px" y="0px"
	 width="464.499px" height="600px" viewBox="0 0 464.499 600" enable-background="new 0 0 464.499 600" xml:space="preserve">
<g>
	<path display="none" fill-rule="evenodd" clip-rule="evenodd" fill="#FDFDFD" d="M0,301.57C0,203.577,0.064,105.584-0.168,7.591
		c-0.013-5.536,1.568-6.1,6.403-6.095c150.704,0.135,301.407,0.142,452.11-0.022c5.099-0.006,6.293,0.94,6.287,6.211
		c-0.173,195.746-0.16,391.493-0.061,587.24c0.002,4.557-0.129,6.538-5.961,6.53c-150.942-0.236-301.885-0.217-452.828-0.055
		c-4.853,0.006-5.935-0.862-5.925-5.851C0.049,497.557,0,399.563,0,301.57z M305.804,402.85c0.399,0.236,0.984,0.374,1.172,0.725
		c13.141,24.518,20.491,50.404,18.712,78.5c-0.21,3.312,0.29,6.673,0.55,10.004c0.103,1.319,1.008,2.295,2.248,2.481
		c1.555,0.233,2.9-0.651,3.399-2.062c0.55-1.547,0.806-3.256,0.876-4.908c1.279-30.103-2.537-59.18-17.671-85.895
		c-2.507-4.423-4.453-8.051-0.924-13.495c4.915-7.582,2.978-19.064-3.604-23.325c-4.836-3.131-6.033-6.89-5.843-11.991
		c1.007-26.792-6.106-51.565-18.501-75.097c-7.91-15.019-16.94-29.48-22.939-45.468c-3.811-10.158-4.734-12.415,4.828-17.347
		c8.269-4.265,8.388-10.509,2.121-17.379c-3.169-3.474-5.326-7.479-6.922-12.405c5.042-0.322,9.323-0.492,13.584-0.883
		c32.315-2.963,73.865-28.173,86.16-68.77c8.986-29.667-2.08-56.969-27.979-68.009c-14.673-6.254-29.649-5.712-44.168-0.289
		c-7.897,2.951-12.972,1.063-18.2-4.669c-7.011-7.685-15.504-13.555-25.068-17.69c-13.527-5.848-26.64-5.533-40.06,1.381
		c-30.832,15.885-40.71,44.265-34.211,76.353c7.711,38.069,31.49,63.524,67.789,77.518c3.586,1.382,10.608,0.066,10.112,6.376
		c-0.357,4.544-4.221,8.467-7.964,11.607c-1.09,0.915-2.416,1.545-3.602,2.351c-5.724,3.888-5.899,6.658-0.43,11.031
		c2.604,2.083,5.489,3.828,8.321,5.607c2.323,1.46,3.876,3.18,4.496,6.076c2.784,13.012,8.698,24.746,15.155,36.262
		c6.905,12.314,13.631,24.716,19.233,37.715c8.312,19.282,11.366,39.412,10.926,60.278c-0.07,3.271-1.975,4.088-3.972,4.706
		c-2.992,0.925-2.521-1.971-3.099-3.589c-0.799-2.237-1.739-4.439-2.331-6.731c-5.85-22.677-18.241-40.895-37.772-53.796
		c-17.273-11.41-36.381-18.299-57.068-20.331c-3.298-0.325-3.675-1.555-3.597-4.542c0.269-10.211-2.648-19.799-7.286-28.75
		c-2.504-4.833-5.84-9.525-11.18-11.595c-3.769-1.46-7.878-2.095-12.086-1.199c-4.712,1.002-4.863,5.942-7.818,8.917
		c-0.74-0.978-1.322-1.68-1.833-2.431c-6.239-9.18-18.305-11.542-24.63,1.492c-6.47,13.335-5.005,26.854-1.953,40.191
		c1.344,5.872,0.368,9.046-4.487,11.175c-15.608,6.842-27.915,17.441-39.278,30.166c-13.351,14.949-22.671,31.904-28.353,50.544
		c-8.373,27.467-11.765,55.486-6.392,84.421c8.23,44.311,30.75,77.605,71.645,97.385c6.021,2.911,10.621,8.17,17.873,9.157
		c27.208,3.703,54.436,7.636,81.675,1.222c19.399-4.568,39.01-9.128,54.729-22.695c2.653-2.29,4.339-5.966,7.254-7.643
		c10.07-5.793,15.71-15.473,21.731-24.545c11.832-17.825,15.31-37.805,14.641-59.139c-0.495-15.77-3.286-30.615-9.744-44.883
		C304.646,404.244,305.226,403.547,305.804,402.85z"/>
	<path fill-rule="evenodd" clip-rule="evenodd" d="M304.068,404.942c6.458,14.268,9.249,29.113,9.744,44.883
		c0.669,21.334-2.809,41.313-14.641,59.139c-6.021,9.072-11.661,18.752-21.731,24.545c-2.915,1.677-4.601,5.353-7.254,7.643
		c-15.72,13.567-35.33,18.127-54.729,22.695c-27.24,6.414-54.467,2.481-81.675-1.222c-7.252-0.987-11.851-6.246-17.873-9.157
		c-40.894-19.779-63.415-53.074-71.645-97.385c-5.374-28.935-1.981-56.954,6.392-84.421c5.682-18.64,15.002-35.595,28.353-50.544
		c11.364-12.725,23.67-23.324,39.278-30.166c4.855-2.128,5.831-5.303,4.487-11.175c-3.052-13.336-4.517-26.856,1.953-40.191
		c6.325-13.034,18.391-10.672,24.63-1.492c0.511,0.751,1.093,1.454,1.833,2.431c2.955-2.976,3.105-7.915,7.818-8.917
		c4.208-0.896,8.318-0.261,12.086,1.199c5.34,2.07,8.676,6.762,11.18,11.595c4.638,8.951,7.555,18.538,7.286,28.75
		c-0.078,2.987,0.299,4.217,3.597,4.542c20.687,2.032,39.795,8.921,57.068,20.331c19.531,12.901,31.922,31.119,37.772,53.796
		c0.592,2.292,1.532,4.494,2.331,6.731c0.577,1.618,0.106,4.514,3.099,3.589c1.997-0.618,3.901-1.436,3.972-4.706
		c0.44-20.866-2.614-40.996-10.926-60.278c-5.603-12.999-12.328-25.401-19.233-37.715c-6.457-11.516-12.371-23.25-15.155-36.262
		c-0.62-2.896-2.173-4.616-4.496-6.076c-2.832-1.779-5.716-3.525-8.321-5.607c-5.47-4.373-5.294-7.143,0.43-11.031
		c1.186-0.806,2.511-1.436,3.602-2.351c3.744-3.141,7.607-7.063,7.964-11.607c0.496-6.31-6.526-4.994-10.112-6.376
		c-36.298-13.994-60.077-39.449-67.789-77.518c-6.499-32.087,3.379-60.468,34.211-76.353c13.419-6.914,26.532-7.229,40.06-1.381
		c9.564,4.135,18.058,10.005,25.068,17.69c5.229,5.732,10.303,7.621,18.2,4.669c14.519-5.424,29.495-5.966,44.168,0.289
		c25.899,11.04,36.966,38.342,27.979,68.009c-12.295,40.597-53.845,65.807-86.16,68.77c-4.261,0.391-8.542,0.561-13.584,0.883
		c1.596,4.926,3.753,8.931,6.922,12.405c6.267,6.87,6.147,13.114-2.121,17.379c-9.563,4.933-8.639,7.189-4.828,17.347
		c5.999,15.987,15.029,30.449,22.939,45.468c12.395,23.531,19.508,48.305,18.501,75.097c-0.19,5.102,1.007,8.86,5.843,11.991
		c6.582,4.261,8.52,15.743,3.604,23.325c-3.529,5.444-1.583,9.072,0.924,13.495c15.134,26.715,18.95,55.792,17.671,85.895
		c-0.07,1.652-0.326,3.361-0.876,4.908c-0.499,1.41-1.845,2.295-3.399,2.062c-1.24-0.187-2.146-1.162-2.248-2.481
		c-0.26-3.331-0.76-6.692-0.55-10.004c1.779-28.096-5.571-53.982-18.712-78.5c-0.188-0.351-0.772-0.488-1.172-0.724
		c-0.434-0.885-1.332-1.522-2.028-0.897C302.811,402.82,303.545,403.972,304.068,404.942z M255.671,514.044
		c-5.013,4.421-9.425,8.906-12.475,14.429c-2.612,4.731-4.837,9.854,0.046,14.455c5.153,4.855,10.729,3.574,15.565-0.459
		c6.235-5.201,12.001-10.962,18.065-16.372c14.586-13.014,24.455-29.466,28.857-47.958c4.738-19.9,3.356-40.363-3.447-60.141
		c-1.255-3.646-0.989-8.612-3.999-10.71c-6.959-4.851-3.544-8.224,0.79-11.511c5.392-4.089,8.796-9.339,10.707-15.7
		c1.085-3.616,0.101-6.866-2.783-8.999c-2.815-2.083-5.65-4.094-9.953-2.444c-6.221,2.383-11.276,6.115-15.997,10.599
		c-1.533,1.456-3.415,2.957-5.604,0.83c-2.168-2.107-0.85-3.975,0.662-5.572c2.132-2.253,4.385-4.407,6.731-6.436
		c1.611-1.393,2.365-2.732,1.656-4.953c-2.38-7.455-3.584-15.479-7.08-22.349c-8.272-16.255-18.516-30.758-35.182-40.294
		c-52.595-30.096-107.47-19.262-146.657,11.943c-21.959,17.486-34.337,42.504-41.535,68.742c-6.5,23.697-8.759,48.47-3.973,73.539
		c4.154,21.761,12.453,41.123,25.838,58.55c7.964,10.368,17.886,18.671,28.026,26.723c1.739,1.381,4.459,2.659,6.542,1.562
		c3.396-1.79,4.862,0.407,6.625,2.254c2.778,2.91,5.474,5.901,8.159,8.898c3.754,4.194,12.257,5.818,16.188,3.046
		c4.702-3.314,5.785-9.258,2.417-15.43c-1.467-2.688-3.549-5.071-5.54-7.435c-1.664-1.975-3.619-3.701-5.41-5.573
		c-1.308-1.366-1.746-2.872-0.255-4.385c1.164-1.18,2.538-0.997,3.979-0.466c9.679,3.563,18.717,21.367,15.162,31.217
		c-1.466,4.063,0.044,3.893,2.997,4.825c7.857,2.482,15.868,2.016,23.857,2.088c19.297,0.177,38.134-2.508,56.348-9.167
		c3.45-1.262,4.817-2.054,1.882-5.639c-3.696-4.515-3.032-9.367-1.563-15.229c1.901-7.583,8.087-11.169,11.747-16.931
		C248.631,511.128,252.088,511.317,255.671,514.044z M358.148,101.231c-0.156-33.315-20.508-52.5-47.921-50.249
		c-9.366,0.77-18.605,2.783-26.841,7.303c-5.035,2.765-6.852,1.392-9.918-2.831c-9.54-13.134-21.926-22.89-38.151-26.246
		c-21.566-4.461-47.969,15.328-54.006,39.799c-3.866,15.674,0.324,30.3,5.497,44.846c20.503,57.644,77.375,78.813,129.872,47.767
		C341.409,146.995,356.163,125.325,358.148,101.231z M149.233,259.671c-0.992-6.421-1.152-13.656-6.25-19.329
		c-4.79-5.332-9.186-4.984-12.274,1.321c-2.129,4.349-3.915,8.75-4.038,13.996c-0.191,8.168,1.758,16.102,1.657,24.228
		c-0.027,2.222,0.576,5.206,4.601,4.464c10.287-1.892,13.09-4.464,15.019-14.864C148.513,266.444,148.763,263.341,149.233,259.671z
		 M158.097,248.458c0.286,8.469,2.141,16.597,5.701,24.287c1.733,3.744,10.616,6.3,15.745,4.503c4.481-1.571,4.093-5.743,3.7-9.113
		c-1.217-10.432-3.051-20.747-12.048-27.888c-2.587-2.053-5.015-5.256-8.686-3.827c-3.873,1.509-4.065,5.554-4.398,9.165
		C158.022,246.535,158.097,247.5,158.097,248.458z M253.315,201.084c3.066,1.14,5.522,0.362,8.618-0.254
		c-1.405-2.554-2.648-4.814-4.349-7.902C255.771,196.392,254.591,198.646,253.315,201.084z M154.895,270.784
		c-0.279,2.668-3.854,5.061-1.165,7.747c0.533,0.532,3.445-0.081,3.843-0.876C158.939,274.925,156.51,273.037,154.895,270.784z"/>
	<path fill-rule="evenodd" clip-rule="evenodd" fill="#FDFDFD" d="M255.671,514.044c-3.583-2.727-7.04-2.916-8.605-0.451
		c-3.66,5.762-9.846,9.348-11.747,16.931c-1.47,5.861-2.133,10.714,1.563,15.229c2.936,3.585,1.568,4.377-1.882,5.639
		c-18.214,6.659-37.051,9.344-56.348,9.167c-7.989-0.072-16,0.395-23.857-2.088c-2.953-0.933-4.462-0.763-2.997-4.825
		c3.555-9.85-5.483-27.654-15.162-31.217c-1.441-0.531-2.815-0.714-3.979,0.466c-1.491,1.513-1.053,3.019,0.255,4.385
		c1.792,1.872,3.747,3.599,5.41,5.573c1.991,2.363,4.073,4.747,5.54,7.435c3.369,6.172,2.286,12.115-2.417,15.43
		c-3.932,2.772-12.434,1.148-16.188-3.046c-2.685-2.997-5.38-5.988-8.159-8.898c-1.763-1.847-3.229-4.044-6.625-2.254
		c-2.082,1.098-4.803-0.181-6.542-1.562c-10.141-8.052-20.063-16.354-28.026-26.723c-13.385-17.427-21.684-36.789-25.838-58.55
		c-4.786-25.069-2.527-49.842,3.973-73.539c7.197-26.238,19.576-51.256,41.535-68.742c39.187-31.206,94.063-42.039,146.657-11.943
		c16.666,9.536,26.909,24.039,35.182,40.294c3.496,6.869,4.7,14.894,7.08,22.349c0.709,2.221-0.045,3.561-1.656,4.953
		c-2.347,2.028-4.6,4.183-6.731,6.436c-1.512,1.598-2.83,3.465-0.662,5.572c2.189,2.127,4.071,0.626,5.604-0.83
		c4.721-4.483,9.776-8.216,15.997-10.599c4.303-1.649,7.138,0.361,9.953,2.444c2.884,2.133,3.868,5.383,2.783,8.999
		c-1.911,6.361-5.315,11.611-10.707,15.7c-4.334,3.287-7.749,6.66-0.79,11.511c3.01,2.098,2.744,7.063,3.999,10.71
		c6.804,19.777,8.186,40.24,3.447,60.141c-4.402,18.492-14.271,34.944-28.857,47.958c-6.064,5.41-11.83,11.171-18.065,16.372
		c-4.836,4.033-10.413,5.314-15.565,0.459c-4.883-4.602-2.658-9.724-0.046-14.455C246.246,522.95,250.658,518.465,255.671,514.044z
		 M189.694,356.914c11.174-0.06,16.263-5.708,15.108-16.836c-0.343-3.296-1.25-6.59-1.141-9.859
		c0.165-4.927-1.334-6.044-5.827-3.896c-4.922,2.354-7.833,0.647-8.092-4.935c-0.118-2.536,0.795-6.037-3.17-5.854
		c-3.551,0.162-3.584,3.429-3.078,6.104c0.978,5.158-0.64,7.699-6.22,7.622c-2.123-0.029-6.138,0.843-4.271,3.71
		c2.398,3.685,1.754,7.317,2.182,10.976C176.272,353.24,180.305,356.964,189.694,356.914z M132.377,408.39
		c-9.917,0.231-16.37,1.876-22.523,4.631c-2.03,0.908-5.048,1.665-3.844,4.917c1.253,3.383,3.865,2.832,6.519,1.548
		c5.428-2.628,11.067-4.498,17.205-4.216c4.389,0.201,7.817,2.055,9.693,6.188c1.969,4.338,0.074,7.693-2.607,11.086
		c-4.006,5.071-9.3,7.729-15.372,9.207c-1.97,0.479-3.821,1.234-3.713,3.612c0.138,3.034,2.519,2.02,4.294,2.114
		c8.119,0.433,20.569-7.712,23.028-15.501C150.451,414.883,140.729,408.135,132.377,408.39z M248.182,340.947
		c5.783-0.354,9.062-3.341,8.886-8.636c-0.168-5.076-3.307-8.651-8.693-8.665c-5.444-0.014-8.405,3.644-8.552,8.725
		C239.665,337.84,243.429,340.283,248.182,340.947z M135.18,341.057c-0.606-5.198-3.348-8.631-8.639-8.793
		c-5.476-0.169-8.458,3.623-8.754,8.564c-0.322,5.374,3.338,8.521,8.485,8.645C131.514,349.597,134.551,346.39,135.18,341.057z"/>
	<path fill-rule="evenodd" clip-rule="evenodd" fill="#EDA0A0" d="M358.148,101.231c-1.985,24.094-16.739,45.764-41.468,60.389
		c-52.496,31.047-109.369,9.877-129.872-47.767c-5.173-14.546-9.363-29.172-5.497-44.846c6.037-24.471,32.44-44.26,54.006-39.799
		c16.225,3.356,28.611,13.112,38.151,26.246c3.066,4.223,4.883,5.596,9.918,2.831c8.235-4.521,17.475-6.534,26.841-7.303
		C337.641,48.731,357.992,67.916,358.148,101.231z M241.771,57.629c2.151,0,4.304,0.035,6.455-0.008
		c3.125-0.063,3.681-1.47,2.253-4.141c-5.17-9.673-21.245-14.066-30.071-7.792c-6.327,4.498-11.121,10.465-13.805,17.915
		c-0.74,2.054-1.688,4.577-0.025,6.088c2.201,2.003,3.799-0.671,5.365-1.894C220.717,60.948,230.549,57.242,241.771,57.629z"/>
	<path fill-rule="evenodd" clip-rule="evenodd" fill="#FDFDFD" d="M149.233,259.671c-0.47,3.67-0.72,6.772-1.286,9.816
		c-1.929,10.399-4.732,12.972-15.019,14.864c-4.025,0.741-4.628-2.243-4.601-4.464c0.102-8.126-1.848-16.06-1.657-24.228
		c0.123-5.247,1.909-9.647,4.038-13.996c3.088-6.306,7.484-6.653,12.274-1.321C148.081,246.016,148.241,253.25,149.233,259.671z"/>
	<path fill-rule="evenodd" clip-rule="evenodd" fill="#FDFDFD" d="M158.097,248.458c0-0.958-0.075-1.923,0.013-2.874
		c0.333-3.61,0.525-7.656,4.398-9.165c3.671-1.43,6.098,1.774,8.686,3.827c8.997,7.141,10.831,17.457,12.048,27.888
		c0.393,3.371,0.782,7.542-3.7,9.113c-5.128,1.797-14.012-0.76-15.745-4.503C160.238,265.056,158.383,256.928,158.097,248.458z"/>
	<path fill-rule="evenodd" clip-rule="evenodd" fill="#EDA0A0" d="M253.315,201.084c1.276-2.438,2.457-4.692,4.269-8.156
		c1.7,3.088,2.943,5.348,4.349,7.902C258.837,201.446,256.381,202.224,253.315,201.084z"/>
	<path fill-rule="evenodd" clip-rule="evenodd" fill="none" d="M154.895,270.784c1.616,2.253,4.045,4.142,2.678,6.871
		c-0.397,0.795-3.31,1.408-3.843,0.876C151.041,275.844,154.616,273.452,154.895,270.784z"/>
	<path fill-rule="evenodd" clip-rule="evenodd" fill="#FDFDFD" d="M304.068,404.942c-0.523-0.971-1.258-2.122-0.293-2.989
		c0.696-0.625,1.595,0.013,2.028,0.897C305.226,403.547,304.646,404.244,304.068,404.942z"/>
	<path fill-rule="evenodd" clip-rule="evenodd" d="M189.694,356.914c-9.389,0.05-13.422-3.674-14.509-12.969
		c-0.428-3.658,0.216-7.291-2.182-10.976c-1.867-2.867,2.148-3.739,4.271-3.71c5.58,0.077,7.197-2.464,6.22-7.622
		c-0.507-2.676-0.473-5.942,3.078-6.104c3.966-0.183,3.052,3.318,3.17,5.854c0.26,5.582,3.17,7.288,8.092,4.935
		c4.493-2.147,5.992-1.03,5.827,3.896c-0.109,3.27,0.798,6.563,1.141,9.859C205.958,351.206,200.869,356.854,189.694,356.914z
		 M180.764,339.229c-0.072,6.902,3.229,11.69,8.093,11.72c5.742,0.034,9.302-3.754,9.905-9.121c0.868-7.728-4.753-8.818-9.675-9.091
		C185.582,332.542,180.938,333.847,180.764,339.229z"/>
	<path fill-rule="evenodd" clip-rule="evenodd" d="M132.377,408.39c8.352-0.255,18.074,6.493,12.68,23.586
		c-2.458,7.789-14.909,15.934-23.028,15.501c-1.775-0.095-4.157,0.92-4.294-2.114c-0.107-2.378,1.744-3.134,3.713-3.612
		c6.071-1.479,11.366-4.136,15.372-9.207c2.681-3.393,4.576-6.748,2.607-11.086c-1.876-4.133-5.304-5.986-9.693-6.188
		c-6.137-0.282-11.777,1.588-17.205,4.216c-2.654,1.284-5.266,1.835-6.519-1.548c-1.204-3.252,1.814-4.009,3.844-4.917
		C116.008,410.266,122.46,408.621,132.377,408.39z"/>
	<path fill-rule="evenodd" clip-rule="evenodd" d="M248.182,340.947c-4.753-0.664-8.517-3.107-8.359-8.576
		c0.147-5.081,3.107-8.738,8.552-8.725c5.387,0.014,8.525,3.589,8.693,8.665C257.244,337.606,253.965,340.593,248.182,340.947z"/>
	<path fill-rule="evenodd" clip-rule="evenodd" d="M135.18,341.057c-0.629,5.333-3.667,8.54-8.908,8.416
		c-5.147-0.123-8.808-3.271-8.485-8.645c0.296-4.941,3.278-8.733,8.754-8.564C131.833,332.426,134.574,335.858,135.18,341.057z"/>
	<path fill-rule="evenodd" clip-rule="evenodd" fill="#FDFDFD" d="M241.771,57.629c-11.221-0.387-21.054,3.318-29.829,10.168
		c-1.566,1.223-3.164,3.897-5.365,1.894c-1.662-1.512-0.715-4.035,0.025-6.088c2.684-7.449,7.478-13.417,13.805-17.915
		c8.826-6.274,24.901-1.881,30.071,7.792c1.428,2.67,0.872,4.078-2.253,4.141C246.074,57.665,243.922,57.629,241.771,57.629z"/>
	<path fill-rule="evenodd" clip-rule="evenodd" fill="#EDA0A0" d="M180.764,339.229c0.174-5.382,4.818-6.687,8.323-6.492
		c4.922,0.272,10.543,1.363,9.675,9.091c-0.603,5.367-4.164,9.155-9.905,9.121C183.992,350.919,180.692,346.131,180.764,339.229z"/>
</g>
</svg>
