<svg id="圖層_1" data-name="圖層 1" xmlns="http://www.w3.org/2000/svg" viewBox="0 0 1920 1080"><defs><style>.cls-1{fill:#bfe3ee;}.cls-2{fill:#daeffb;}.cls-3{fill:#254a3c;}.cls-4{fill:#936057;}.cls-5{fill:#6bbd80;}.cls-6{fill:#819f78;}.cls-7{fill:#c6c2af;}.cls-8{fill:#94c85b;}.cls-9{fill:#8bb751;}.cls-10{fill:#aad29f;}.cls-11{fill:#6ba543;}.cls-12{fill:#66963c;}.cls-13{fill:#cde5ac;}.cls-14{fill:#588e3f;}.cls-15{fill:#4b7733;}.cls-16{fill:#ee5e80;}</style></defs><title>welllcome_bg8</title><rect class="cls-1" x="0.5" y="2" width="1919.5" height="677"/><path class="cls-2" d="M1131.73,0c-.6,3-.37,7,.89,12.16,4.49,18.48,21.89,35.5,37.23,45.47,23.11,15,50.69,21.48,77.89,26.1,33.35,5.66,67.69,9.14,98.47,23.18,35.39,16.14,63.22,44.94,95.63,66.43,63.08,41.83,144.76,54.45,217.54,33.61,14.52-4.16,30.27-11.08,35.59-25.19,1.9-5,2.24-10.53,2.55-15.92L1707.19,0Z" transform="translate(-1)"/><path class="cls-3" d="M1132.56,581.18l-7.68-11.13a.88.88,0,0,1,.63-1.38.88.88,0,0,0,.63-1.38l-7.75-11.23a.88.88,0,0,1,.63-1.38l.82-.1a.88.88,0,0,0,.63-1.38l-6.66-9.65-5.55-8a1.78,1.78,0,0,0-3.12.38l-3.42,9.14-4.1,11a.89.89,0,0,0,.94,1.18l.82-.1a.89.89,0,0,1,.94,1.18L1095.54,571a.89.89,0,0,0,.94,1.18.89.89,0,0,1,.94,1.18l-4.73,12.65a.89.89,0,0,0,.94,1.18l19.14-2.34,19.14-2.34A.88.88,0,0,0,1132.56,581.18Z" transform="translate(-1)"/><polygon class="cls-4" points="1114.48 584.61 1109.11 585.27 1110.55 596.9 1115.93 596.25 1114.48 584.61"/><path class="cls-5" d="M1263.31,561.62,1256,551a.84.84,0,0,1,.59-1.31.84.84,0,0,0,.59-1.31l-7.36-10.67a.84.84,0,0,1,.59-1.31l.78-.1a.84.84,0,0,0,.59-1.31l-6.33-9.17-5.28-7.64a1.69,1.69,0,0,0-3,.36l-3.24,8.69-3.89,10.42a.84.84,0,0,0,.9,1.13l.78-.1a.84.84,0,0,1,.9,1.13L1228.15,552a.84.84,0,0,0,.9,1.13.84.84,0,0,1,.9,1.13l-4.49,12a.84.84,0,0,0,.9,1.13l18.18-2.23,18.18-2.23A.84.84,0,0,0,1263.31,561.62Z" transform="translate(-1)"/><polygon class="cls-4" points="1246.09 564.87 1240.98 565.5 1242.36 576.55 1247.47 575.93 1246.09 564.87"/><path class="cls-5" d="M550,616.49l-3.54-12.33a.84.84,0,0,1,1-1.05.84.84,0,0,0,1-1.05l-3.57-12.43a.84.84,0,0,1,1-1.05l.77.15a.84.84,0,0,0,1-1.05L544.49,577l-2.56-8.91a1.69,1.69,0,0,0-2.93-.59l-5.86,7.21-7,8.65a.84.84,0,0,0,.49,1.35l.77.15a.84.84,0,0,1,.49,1.35l-8.17,10.07a.84.84,0,0,0,.49,1.35.84.84,0,0,1,.49,1.35l-8.1,10a.84.84,0,0,0,.49,1.35l18,3.62,18,3.62A.84.84,0,0,0,550,616.49Z" transform="translate(-1)"/><polygon class="cls-4" points="527.5 613.45 525.26 624.37 530.31 625.38 532.54 614.46 527.5 613.45"/><path class="cls-5" d="M1911.7,562.67l-4.18-12.13a.84.84,0,0,1,.93-1.1.84.84,0,0,0,.93-1.1l-4.22-12.23a.84.84,0,0,1,.93-1.1l.77.11a.84.84,0,0,0,.93-1.1l-3.62-10.51-3-8.76a1.69,1.69,0,0,0-3-.44l-5.47,7.51-6.56,9a.84.84,0,0,0,.56,1.32l.77.11a.84.84,0,0,1,.56,1.32l-7.63,10.48a.84.84,0,0,0,.56,1.32.84.84,0,0,1,.56,1.32L1874,557.08a.84.84,0,0,0,.56,1.32l18.12,2.68,18.12,2.68A.84.84,0,0,0,1911.7,562.67Z" transform="translate(-1)"/><polygon class="cls-4" points="1889.1 560.75 1887.44 571.76 1892.53 572.52 1894.19 561.5 1889.1 560.75"/><path class="cls-3" d="M846,624.55l-6.54-12a.9.9,0,0,1,.78-1.32.9.9,0,0,0,.78-1.32l-6.6-12.14a.9.9,0,0,1,.78-1.32h.83a.9.9,0,0,0,.78-1.32l-5.67-10.43-4.73-8.7a1.8,1.8,0,0,0-3.19.05l-4.43,8.85-5.31,10.62a.9.9,0,0,0,.82,1.29h.83a.9.9,0,0,1,.82,1.3l-6.18,12.35a.9.9,0,0,0,.82,1.29.9.9,0,0,1,.82,1.29l-6.13,12.25a.9.9,0,0,0,.82,1.29l19.54-.33,19.54-.33A.9.9,0,0,0,846,624.55Z" transform="translate(-1)"/><rect class="cls-3" x="823.06" y="626.24" width="5.49" height="11.88" transform="translate(-11.76 14.31) rotate(-0.99)"/><g id="後地"><path class="cls-6" d="M1662.53,533c-408.2,0-1068.38,140-1068.38,140L702,893H1921V555.56C1826.78,541.58,1738.15,533,1662.53,533Zm-301.61,86.77,0,.19c-.12.7-.24,1.43-.35,2.17l-.06.41q-.16,1.11-.3,2.28l-.05.47c-.06.56-.12,1.14-.18,1.72,4.78,1.07,7.67,2.46,7.67,4,0,3.36-14.1,6.09-31.49,6.09s-31.49-2.73-31.49-6.09c0-1.72,3.71-3.28,9.67-4.39.91-8.8,2.08-28.43-4.56-35.72,0,0,9.29,6.45,9.29,28.58,0,0,1.86-15.37-1.86-29.81,0,0,5.76,8,5.79,25,.38-8.46,1.33-23.31,3.5-28.05,0,0-2.79,28,1.55,36,0,0,2.48-17.83,1.86-28.89,0,0,5.27,15.67,2.17,28.28,0,0,6.91-19.36,1-35.34a62.11,62.11,0,0,1,6.89,36.27s4.84-32.89,13.51-33.81c0,0-7.43,8.61-4.65,33.19,0,0,6.36-11.95,4.65-22.27,0,0,2.76,7.82.29,23.5,0,0,8.07-30.39,21.08-23.5C1374.8,600,1364.89,597.74,1360.93,619.77Z" transform="translate(-1)"/><path class="cls-7" d="M1359.95,627c0,.26-.05.51-.08.77l0,.38c-.08.92-.15,1.85-.22,2.83h-45.85s.26-1.69.53-4.39c-6,1.11-9.67,2.66-9.67,4.39,0,3.36,14.1,6.09,31.49,6.09s31.49-2.73,31.49-6.09C1367.62,629.48,1364.73,628.09,1359.95,627Z" transform="translate(-1)"/><path class="cls-8" d="M1322.76,620.7c.16-2.14.22-4.15.22-6.06C1322.82,618.25,1322.76,620.7,1322.76,620.7Z" transform="translate(-1)"/><path class="cls-8" d="M1359.94,627h0c.06-.58.11-1.16.18-1.72Q1360,626.14,1359.94,627Z" transform="translate(-1)"/><path class="cls-8" d="M1353.72,623.47c2.46-15.67-.29-23.5-.29-23.5,1.71,10.32-4.65,22.27-4.65,22.27-2.79-24.59,4.65-33.19,4.65-33.19-8.67.92-13.51,33.81-13.51,33.81a62.11,62.11,0,0,0-6.89-36.27c5.93,16-1,35.34-1,35.34,3.1-12.6-2.17-28.28-2.17-28.28.62,11.06-1.86,28.89-1.86,28.89-4.34-8-1.55-36-1.55-36-2.17,4.74-3.12,19.59-3.5,28.05,0,1.91-.06,3.92-.22,6.06,0,0,.06-2.45.22-6.06,0-17-5.79-25-5.79-25,3.72,14.44,1.86,29.81,1.86,29.81,0-22.13-9.29-28.58-9.29-28.58,6.64,7.3,5.47,26.92,4.56,35.72a125.08,125.08,0,0,1,21.82-1.7c4.72,0,9.19.2,13.21.56,5.7-1.73,10.24-4,11.79-6.8-.07.36-.14.73-.2,1.1,4-22,13.88-19.8,13.88-19.8C1361.79,593.07,1353.72,623.47,1353.72,623.47Z" transform="translate(-1)"/><path class="cls-8" d="M1359.62,631c.06-1,.14-1.91.22-2.83C1359.76,629.09,1359.69,630,1359.62,631Z" transform="translate(-1)"/><path class="cls-8" d="M1359.94,627c0,.26,0,.51-.07.77,0-.27.05-.51.08-.77Z" transform="translate(-1)"/><path class="cls-8" d="M1336.13,624.91a125.08,125.08,0,0,0-21.82,1.7c-.28,2.69-.53,4.39-.53,4.39s21.37-1.22,35.57-5.53C1345.32,625.12,1340.85,624.91,1336.13,624.91Z" transform="translate(-1)"/><path class="cls-9" d="M1349.34,625.47a84.44,84.44,0,0,1,10.6,1.54q.09-.88.18-1.72l.05-.47q.14-1.18.3-2.28l.06-.41c.11-.75.23-1.48.35-2.17l0-.19c.07-.37.13-.74.2-1.1C1359.59,621.52,1355,623.75,1349.34,625.47Z" transform="translate(-1)"/><path class="cls-9" d="M1349.34,625.47c-14.2,4.31-35.57,5.53-35.57,5.53h45.85c.06-1,.14-1.91.22-2.83l0-.38c0-.26,0-.52.07-.77A84.44,84.44,0,0,0,1349.34,625.47Z" transform="translate(-1)"/></g><g id="中地"><path class="cls-10" d="M410.63,607C281.1,607,137.09,610.46,1,615.17V967H1386.44l213.62-110S816.8,607,410.63,607Z" transform="translate(-1)"/><ellipse class="cls-7" cx="490.68" cy="677.21" rx="86.71" ry="10.25" transform="matrix(1, -0.06, 0.06, 1, -43.89, 33.25)"/><path class="cls-11" d="M574.53,639.11c-6.44-.68-9.2,12.07-9.52,13.68,2.86-12.91-2.33-18.94-2.33-18.94,4.32,9.45-2.43,16.69-2.43,16.69-1.67-7.67,1.82-11,1.82-11-4.78,1.48-6.72,13.66-6.72,13.66C557.88,638,548.71,632,548.71,632c9.66,10.59,2.6,23.43,2.6,23.43,2.63-6-3-7.59-3-7.59,2.33,4.89-2.75,8.35-2.75,8.35-3.33-15.15,5.79-13,5.79-13-8.06-3.86-10.37,7.6-10.92,11.51,2-18.15-9.79-26.31-9.79-26.31,8.17,8.73,7.58,21.1,6.86,26.39a11.65,11.65,0,0,0-3.24-8.15,11.2,11.2,0,0,1-.61,9.37c-5.84-5.85-3-13.42-3-13.42-2.46,1.87-3.86,7.87-4.44,10.93A31.1,31.1,0,0,0,523,635.24c4.23,8.09-4.27,21.28-4.27,21.28a37,37,0,0,0-6.18-29c8.86,13.42-.31,28.23-.31,28.23-5.42-8.4,1.1-15.44,1.1-15.44-3.75,1.28-5.24,6.23-5.83,10.06.57-12.71-3.15-19.79-3.15-19.79C508.45,643.38,502,657,502,657c-3.1-2.72-.94-14.45-.94-14.45-2.13.91-3,6.12-3.34,9.9,0-13.62-8.46-23.43-8.46-23.43,8.71,10.9,3.64,28.95,3.64,28.95,2.06-7.33-3.59-16.3-3.59-16.3,3.75,6.57-1.19,18-1.19,18a16.19,16.19,0,0,0-1.71-11.47c.76,5.68-2.05,7.44-2.05,7.44-4.05-8.3,1.38-17.78,1.38-17.78-4.86,3.25-7.12,19.51-7.12,19.51,2-14.71-5-23-5-23,6.27,9.57.85,25,.85,25a17.47,17.47,0,0,0-5.35-17c5,7.07,1.18,18.21,1.18,18.21a6.07,6.07,0,0,1-1.41-9.05c-2.55-.4-4,5.08-4.55,7.7a29.82,29.82,0,0,0-2.17-18c3.56,9.69-3.5,20.84-3.5,20.84,4.57-14.1-3-33.65-3-33.65,4.19,10.43-3.87,27.48-3.87,27.48-2.67-8,1.74-21.31,1.74-21.31-4.92,5.38-6,21.78-6,21.78,1.21-17.39-6.65-27.92-6.65-27.92,5.47,11.56-.74,31.31-.74,31.31-5.57-10.73,1.46-20.13,1.46-20.13-8.22,1.89-6.51,20.45-6.51,20.45-3.71-9.1-.86-13.29-.86-13.29-3.22,1.86-2.69,10.22-2.55,11.86-1-13.56-6.91-20.72-6.91-20.72,4.44,6.86,2.46,24.21,2.46,24.21-5.34-4.13-4.2-16.65-4.2-16.65-4.05,6.68-.24,17.33-.24,17.33-9.82-19-.82-33.63-.82-33.63-9.83,10.13-6.53,25.78-6.26,27-2.91-14.53-11-19.93-11-19.93,8.36,8.95,10,45.75,10,45.75l153.47-9.92C567,646.09,574.53,639.11,574.53,639.11Z" transform="translate(-1)"/><path class="cls-12" d="M571.62,644.05a34.77,34.77,0,0,1-5.93,6c-.24.86-.42,1.58-.53,2.1q.21-1,.35-2c-23.15,18.44-79.19,26.38-116,29.69l118.73-7.67C567.54,657.42,569.66,648.78,571.62,644.05Z" transform="translate(-1)"/></g><path class="cls-13" d="M955.76,699C462.3,688,2,754,2,754L1,1080H1920V799.93C1770.24,771.44,1396,708.81,955.76,699Z" transform="translate(-1)"/><g id="前草"><ellipse class="cls-7" cx="1194.22" cy="1038" rx="76.03" ry="14.7"/><path class="cls-8" d="M1237.69,1019.81c5.94-37.85-.71-56.73-.71-56.73,4.14,24.91-11.22,53.77-11.22,53.77C1219,957.47,1237,936.69,1237,936.69c-20.94,2.23-32.62,81.64-32.62,81.64,6.27-49-16.63-87.57-16.63-87.57,14.33,38.59-2.36,85.35-2.36,85.35,7.48-30.43-5.24-68.28-5.24-68.28,1.5,26.72-4.49,69.76-4.49,69.76-10.47-19.3-3.74-86.83-3.74-86.83-5.24,11.44-7.54,47.28-8.45,67.72-.09-41.09-14-60.3-14-60.3,9,34.88,4.49,72,4.49,72,0-53.43-22.44-69-22.44-69,20.94,23,9.72,96.85,9.72,96.85h110.71c5.24-82,36.65-74.92,36.65-74.92C1257.18,946.42,1237.69,1019.81,1237.69,1019.81Z" transform="translate(-1)"/><path class="cls-9" d="M1141.24,1038h110.71a232.64,232.64,0,0,1,3.64-29.76C1242.56,1032.23,1141.24,1038,1141.24,1038Z" transform="translate(-1)"/><ellipse class="cls-7" cx="616.85" cy="835.88" rx="75.61" ry="14.62"/><path class="cls-14" d="M699,783.85c-22.64-4.49-29.47,20.9-31.25,30.64,1.17-12.72-3.9-30.08-3.9-30.08,1.12,15.5-6.84,23.25-6.84,23.25-11.86-11.07,0-40.4,0-40.4-8.46,6.71-11.87,24.12-13.14,33.55-.59-10.36-6.81-25.25-6.81-25.25,6.69,16.05-3.9,34.87-3.9,34.87s1.67-18.82-5-32.66,5-31.55,5-31.55c-8.37,1.66-14.5,12.73-13.95,33.21.4,14.55-1.74,23.51-3,27.48,2.83-10.58-4.8-28.58-4.8-28.58,1.67,19.37-9.23,29.33-9.23,29.33,9.17-22.69-3.6-42.06-3.6-42.06C608,787.17,595.77,811,595.77,811c3.35-9.41-4.46-21.59-4.46-21.59,1.67,12.73-3.9,21-3.9,21-8.93-5-3.35-37.08-3.35-37.08-6.14,4.43-7.25,22.69-7.25,22.69,0-13.28-11.72-30.44-11.72-30.44,7.25,12.73,2.79,40.4,2.79,40.4-7.81-3.87-5-24.35-5-24.35-12.83,22.14,0,54.25,0,54.25H677.22C668.85,789.4,699,783.85,699,783.85Zm-83.61,25.31-.07.15Z" transform="translate(-1)"/><path class="cls-15" d="M676.84,809.35h0c-11.37,20-114,26.54-114,26.54H677.22C675.24,824.9,675.43,816.23,676.84,809.35Z" transform="translate(-1)"/><ellipse class="cls-7" cx="532.75" cy="1008.68" rx="21.3" ry="4.58"/><path class="cls-8" d="M533.71,901.24c3.25-5.25,6.6-10.68,8.67-16.79L540.81,883c-1.95,5.74-7,11.31-10.13,16.4-7.67,12.43-15.61,25.29-6.28,46.29,12.39,27.91,7.55,62.12,7.5,62.46l3.53.51c.21-1.44,5-35.55-7.77-64.4C519.08,925,526.19,913.44,533.71,901.24Z" transform="translate(-1)"/><path class="cls-8" d="M508.11,945.9c6.88,16.74,22.74,13.27,22.74,13.27C525.81,940.27,508.11,945.9,508.11,945.9Z" transform="translate(-1)"/><path class="cls-8" d="M537.88,917c-16.88,6.79-13.43,22.54-13.43,22.54C543.51,934.57,537.88,917,537.88,917Z" transform="translate(-1)"/><path class="cls-8" d="M521.32,887c-8.64,15.92,4.15,25.86,4.15,25.86C537,897,521.32,887,521.32,887Z" transform="translate(-1)"/><path class="cls-8" d="M508.14,917l-1,.85c9.91,12,20.71,35.55,20.81,35.78l1.23-.55C529,952.84,518.16,929.18,508.14,917Z" transform="translate(-1)"/><path class="cls-16" d="M508.54,899c-4.81-3.43-7.18,3.56-7.18,3.56s-3.21-5.87-7.79-2.1c-4.31,3.55.11,8.29.11,8.29-6.06.05-6.82,5.31-4.28,8.42s7.35-1.83,7.35-1.83l9.08-8C509.36,907.79,512.36,901.75,508.54,899Z" transform="translate(-1)"/><path class="cls-8" d="M505.81,907.32s-7.44,2.91-9.08,8c0,0,4.92,6.76,11.4,1.63C508.14,917,511,914.1,505.81,907.32Z" transform="translate(-1)"/><path class="cls-8" d="M541.51,958.27c-4.78,15-6.06,41-6.07,41.22l1.34.07c0-.26,1.29-26.06,6-40.89Z" transform="translate(-1)"/><path class="cls-16" d="M551.89,945.32s2.35-6-3-7.74c-5.66-1.82-6.46,4.8-6.46,4.8s-4.8-5.62-8-.67c-2.54,3.93,2.5,8.44,5.63,6.7l11.42,4.15s6.33,2.83,7.51-1S557.54,943.15,551.89,945.32Z" transform="translate(-1)"/><path class="cls-8" d="M540.07,948.41c-2.34,8.21,1.44,9.85,1.44,9.85,7.94,2.38,10-5.7,10-5.7C548.07,948.39,540.07,948.41,540.07,948.41Z" transform="translate(-1)"/></g></svg>