<svg id="圖層_1" data-name="圖層 1" xmlns="http://www.w3.org/2000/svg" viewBox="0 0 1926 652"><defs><style>.cls-1{fill:#bbdec9;}.cls-2{fill:#9ed0c8;}.cls-3{fill:#6b8e7a;}.cls-4{fill:#6bbd80;}.cls-5{fill:#c6c2af;}.cls-6{fill:#94c85b;}.cls-7{fill:#89b74e;}.cls-8{fill:#695020;}.cls-9{fill:#4b823d;}.cls-10{fill:#3f6d32;}.cls-11{fill:#84af4b;}.cls-12{fill:#588e3f;}.cls-13{fill:#44722d;}.cls-14{fill:#88c881;}.cls-15{fill:#6aa562;}</style></defs><title>bgc33333</title><path class="cls-1" d="M295.81,646.33C232.06,636.29,13,844.53,13,844.53L588,841S359.56,656.37,295.81,646.33Z" transform="translate(3 -428)"/><path class="cls-2" d="M971.16,428.31c-104.31-14.47-477,478.89-477,478.89h940.82S1075.47,442.78,971.16,428.31Z" transform="translate(3 -428)"/><path class="cls-1" d="M1478.73,544.2c-92.49-14.47-424.6,367-424.6,367h834.19S1571.22,558.67,1478.73,544.2Z" transform="translate(3 -428)"/><path class="cls-3" d="M1727.87,661.2C1685.29,653.8,1539,851,1539,851l384,34S1770.44,668.6,1727.87,661.2Z" transform="translate(3 -428)"/><path class="cls-4" d="M1218.47,590C1162,581,939.19,860.82,939.19,860.82h509.65S1275,598.89,1218.47,590Z" transform="translate(3 -428)"/><path class="cls-3" d="M585.88,606.55C522.07,597.62,331.4,858.77,331.4,858.77H907S649.7,615.49,585.88,606.55Z" transform="translate(3 -428)"/><ellipse class="cls-5" cx="1280.64" cy="444" rx="31.49" ry="12.5"/><path class="cls-6" d="M1292.44,726.11c-14.57-9-33.66,1.13-44.2,14.38s-9.11,40.6,0,53.85,30.64,15.79,30.64,15.79c7.54-.85,22.1-3.66,32.15-21.43S1307,735.14,1292.44,726.11Z" transform="translate(3 -428)"/><path class="cls-7" d="M1292.44,726.11c-6.09-3.77-13-4.18-19.69-2.43a46.54,46.54,0,0,1,15.95,6.38c7.33,4.91,25.63,46.4,6.67,60.36s-47.13,3.92-47.13,3.92c9.11,13.25,30.64,15.79,30.64,15.79,7.54-.85,22.1-3.66,32.15-21.43S1307,735.14,1292.44,726.11Z" transform="translate(3 -428)"/><path class="cls-8" d="M1298.92,768.62s-13,12.79-16.1,13.14-3.93-32.33-3.93-32.33-2.36,32.33-3.53,36.59-13.75-6-13.75-6,9.82,11.37,10.6,13.86-2,81.15-2,81.15h14.93s-1.18-76.54-1.18-82.93S1298.92,768.62,1298.92,768.62Z" transform="translate(3 -428)"/><ellipse class="cls-5" cx="1520.13" cy="412" rx="31.49" ry="12.5"/><path class="cls-9" d="M1532.71,609c-11.58-16.36-30.93,2-39.31,26.07s-7.24,84,0,108.05,24.36,28.63,24.36,28.63c6-1.53,17.57-6.64,25.56-38.85S1544.29,625.31,1532.71,609Z" transform="translate(3 -428)"/><path class="cls-10" d="M1532.71,609c-5.84-8.24-13.64-7.65-21-2,14.12,1.5,21.37,34,24.37,57.51s5.37,75.31-14.26,81.44c-19.44,6.07-29.31-6.74-29.49-7,.35,1.46.71,2.86,1.1,4.13,7.24,24,24.36,28.63,24.36,28.63,6-1.53,17.57-6.64,25.56-38.85S1544.29,625.31,1532.71,609Z" transform="translate(3 -428)"/><path class="cls-8" d="M1532.87,722.55s-10.3,15.15-12.8,15.57-3.12-38.29-3.12-38.29-1.87,38.29-2.81,43.34S1503.2,736,1503.2,736s7.81,13.46,8.43,16.41-1.56,90.58-1.56,90.58h11.87s-.94-85.11-.94-92.69S1532.87,722.55,1532.87,722.55Z" transform="translate(3 -428)"/><ellipse class="cls-5" cx="972.91" cy="473.5" rx="31.49" ry="12.5"/><path class="cls-6" d="M1028.46,749.27c-2.3-36.82-45.58-59.39-79.61-46.32S905.59,754,914.24,780.75s45.63,39.18,45.63,39.18h17.5C1007.62,811,1030.77,786.1,1028.46,749.27Z" transform="translate(3 -428)"/><path class="cls-11" d="M1028.46,749.27c-1.06-16.92-10.77-30.83-24.26-39.65h0c17.2,27.12,2.8,77.88-32.4,86.88-34.66,8.86-53.44-7.41-54-7.91,12.39,21.33,42.09,31.34,42.09,31.34h17.5C1007.62,811,1030.77,786.1,1028.46,749.27Z" transform="translate(3 -428)"/><path class="cls-8" d="M990.3,776.75s-12.41,16.37-15.41,16.83-3.76-41.38-3.76-41.38-2.26,41.38-3.38,46.83-13.16-7.73-13.16-7.73S964,805.85,964.73,809s-1.88,95.47-1.88,95.47h14.29S976,814.94,976,806.76,990.3,776.75,990.3,776.75Z" transform="translate(3 -428)"/><ellipse class="cls-5" cx="688.28" cy="431.5" rx="31.49" ry="12.5"/><polygon class="cls-8" points="691.42 354.39 688.28 354.8 685.15 354.39 679.66 434.5 688.28 434.5 696.91 434.5 691.42 354.39"/><polygon class="cls-12" points="729.04 372.94 733.57 372.94 723.22 349.3 729.04 349.3 720.63 330.6 725.8 330.6 714.16 312.55 721.27 312.55 709.63 289.34 714.16 289.34 705.1 268.93 711.57 268.93 701.22 251.3 708.34 251.3 696.05 233.9 701.87 233.9 688.28 204.24 674.7 233.9 680.52 233.9 668.23 251.3 675.35 251.3 665 268.93 671.47 268.93 662.41 289.34 666.93 289.34 655.29 312.55 662.41 312.55 650.76 330.6 655.94 330.6 647.53 349.3 653.35 349.3 643 372.94 647.53 372.94 636.53 394.43 740.04 394.43 729.04 372.94"/><path class="cls-13" d="M726,800.94h4.53L720.22,777.3H726l-8.41-18.7h5.18l-11.64-18.05h7.12l-11.64-23.21h4.53l-9.06-20.41h6.47L698.22,679.3h7.12L693,661.9h5.82l-13.58-29.66c9.78,90.24,0,150.56-15.28,168.26s-36.47,21.93-36.47,21.93H737Z" transform="translate(3 -428)"/><ellipse class="cls-5" cx="424.27" cy="406" rx="31.49" ry="12.5"/><path class="cls-14" d="M476.74,701c-4.87-17.33-20.94-25.4-35.53-25.45-5.87-15.07-25.34-23.27-41.13-17.21-18.31,7-23.28,27.48-18.62,41.86h0a30.06,30.06,0,0,0-14,13c-8.24,14.36,2.39,33.51,18.36,37,14.59,3.22,26.58-6.48,31.11-17.44,6.67,7.31,16.17,12.1,28.26,12.47C466.94,745.85,482.55,721.67,476.74,701Z" transform="translate(3 -428)"/><path class="cls-15" d="M476.74,701c-4.87-17.33-20.94-25.4-35.53-25.45,26.29,19,11.72,50.48-1.92,51.78s-21.52-5.8-21.52-5.8-9.33,10.09-28,11.5c-17.26,1.3-24.16-9.65-25.09-11.29-1.26,12.51,8.17,25.61,21.11,28.46,14.59,3.22,26.58-6.48,31.11-17.44,6.67,7.31,16.17,12.1,28.26,12.47C466.94,745.85,482.55,721.67,476.74,701Z" transform="translate(3 -428)"/><path class="cls-8" d="M439.29,709.24s-12.41,16.37-15.41,16.83-3.76-41.38-3.76-41.38-2.26,41.38-3.38,46.83-13.16-7.73-13.16-7.73,9.4,14.55,10.15,17.73S411.84,837,411.84,837h14.29S425,747.43,425,739.25,439.29,709.24,439.29,709.24Z" transform="translate(3 -428)"/><path class="cls-9" d="M958.5,855C552.9,855,197.1,798-3,712.27V1080H1920V712.27C1719.9,798,1364.1,855,958.5,855Z" transform="translate(3 -428)"/></svg>