<?xml version="1.0" encoding="utf-8"?>
<!-- Generator: Adobe Illustrator 16.0.0, SVG Export Plug-In . SVG Version: 6.00 Build 0)  -->
<!DOCTYPE svg PUBLIC "-//W3C//DTD SVG 1.1//EN" "http://www.w3.org/Graphics/SVG/1.1/DTD/svg11.dtd">
<svg version="1.1" xmlns="http://www.w3.org/2000/svg" xmlns:xlink="http://www.w3.org/1999/xlink" x="0px" y="0px" width="1800px"
	 height="714px" viewBox="-600 298.5 1800 714" enable-background="new -600 298.5 1800 714" xml:space="preserve">
<g id="圖層_2" display="none">
	<rect x="-600" y="-300" display="inline" fill="#B4EDBE" width="600" height="600"/>
</g>
<g id="圖層_1" display="none">
	<g>
		<rect x="41.964" y="0.481" display="inline" fill="#FF00FF" width="514.869" height="597.835"/>
		<path display="inline" d="M556.353,0.962v596.994H42.445V0.962H556.353 M557.315,0H41.483v598.798h515.832V0L557.315,0z"/>
	</g>
	<g display="inline">
		<g>
			<g>
				<g>
					<g>
						<path fill="#FFFFFF" d="M-304.929,210.421c0,0,17.795,4.449,7.574,15.511c-10.22,11.063-45.45,21.884-27.174,30.421
							c18.156,8.537,76.713,5.531,90.541-11.663c3.728-6.012-14.549-9.259-29.579-14.549c-15.15-5.171-8.177-18.518,0.48-22.846
							C-260.081,205.972-304.929,210.421-304.929,210.421z"/>
					</g>
					<g>
						<path fill="#FFFFFF" d="M-263.567,230.141c-15.15-5.171-8.177-18.518,0.48-22.846c2.886-1.443-41.843,3.006-41.843,3.006
							s11.783,3.006,10.701,9.979c6.132,12.746,47.735,10.101,30.06,30.181c-7.815,6.733-17.555,8.777-26.934,10.341
							c22.726-0.36,48.577-5.531,57.114-16.232C-230.26,238.678-248.417,235.431-263.567,230.141z"/>
					</g>
				</g>
				<g>
					<g>
						<path fill="#FFFFFF" d="M-92.104-95.711c14.789,154.629-100.882,301.563-190.581,308.176S-514.63,88.617-529.178-63.607
							c-9.979-105.691,79.6-198.637,200.32-207.535C-208.257-280.04-102.205-201.403-92.104-95.711z"/>
					</g>
					<g>
						<path fill="#FFFFFF" d="M-328.858-271.142c-31.142,2.284-60.12,10.22-85.972,22.485c17.314-5.291,35.592-8.898,54.71-10.221
							c120.601-8.897,206.332,78.517,216.433,184.208c12.265,128.056-51.103,244.569-124.089,284.73
							c87.055-20.321,189.619-159.56,175.672-305.772C-102.205-201.403-208.257-280.04-328.858-271.142z"/>
					</g>
					<g>
						<path fill="#FFFFFF" d="M-483.727-130.221c28.377-76.954,91.743-102.324,141.644-101.843
							c49.899,0.481,23.086,25.491-13.468,36.433c-36.553,10.942-80.681,56.994-79.238,129.98
							C-433.226,15.03-512.104-53.146-483.727-130.221z"/>
					</g>
				</g>
			</g>
			<g>
				<path fill="#FFFFFF" d="M-291.343,226.172c-8.657-0.961-12.625-2.645-13.106-5.892c-0.722-3.728,4.088-5.651,5.651-6.252
					l0.962-0.361l2.404,0.241c3.607,0.36,16.232,1.563,24.409-0.481l1.804-0.12c3.126,0.36,5.531,3.126,5.41,6.133
					c-0.12,2.044-1.683,6.974-13.707,7.214C-282.325,226.773-287.135,226.533-291.343,226.172z"/>
			</g>
		</g>
	</g>
</g>
<g id="圖層_3" display="none">
	<rect x="0" y="-300" display="inline" fill="#B4EDBE" width="600" height="600"/>
	<g display="inline">
		<g>
			<g>
				<g>
					<g>
						<path fill="#FFFFFF" d="M295.071,210.421c0,0,17.795,4.449,7.574,15.511c-10.22,11.063-45.45,21.884-27.174,30.421
							c18.156,8.537,76.713,5.531,90.541-11.663c3.728-6.012-14.549-9.259-29.579-14.549c-15.15-5.171-8.177-18.518,0.48-22.846
							C339.919,205.972,295.071,210.421,295.071,210.421z"/>
					</g>
					<g>
						<path fill="#FFFFFF" d="M336.433,230.141c-15.15-5.171-8.177-18.518,0.48-22.846c2.886-1.443-41.843,3.006-41.843,3.006
							s11.783,3.006,10.701,9.979c6.132,12.746,47.735,10.101,30.06,30.181c-7.815,6.733-17.555,8.777-26.934,10.341
							c22.726-0.36,48.577-5.531,57.114-16.232C369.74,238.678,351.583,235.431,336.433,230.141z"/>
					</g>
				</g>
				<g>
					<g>
						<path fill="#FFFFFF" d="M507.896-95.711c14.789,154.629-100.882,301.563-190.581,308.176S85.37,88.617,70.822-63.607
							c-9.979-105.691,79.6-198.637,200.32-207.535C391.743-280.04,497.795-201.403,507.896-95.711z"/>
					</g>
					<g>
						<path fill="#FFFFFF" d="M271.142-271.142c-31.142,2.284-60.12,10.22-85.972,22.485c17.314-5.291,35.592-8.898,54.71-10.221
							c120.601-8.897,206.332,78.517,216.433,184.208c12.265,128.056-51.103,244.569-124.089,284.73
							c87.055-20.321,189.619-159.56,175.672-305.772C497.795-201.403,391.743-280.04,271.142-271.142z"/>
					</g>
					<g>
						<path fill="#FFFFFF" d="M116.273-130.221c28.377-76.954,91.743-102.324,141.644-101.843
							c49.899,0.481,23.086,25.491-13.468,36.433c-36.553,10.942-80.681,56.994-79.238,129.98
							C166.774,15.03,87.896-53.146,116.273-130.221z"/>
					</g>
				</g>
			</g>
			<g>
				<path fill="#FFFFFF" d="M308.657,226.172c-8.657-0.961-12.625-2.645-13.106-5.892c-0.722-3.728,4.088-5.651,5.651-6.252
					l0.962-0.361l2.404,0.241c3.607,0.36,16.232,1.563,24.409-0.481l1.804-0.12c3.126,0.36,5.531,3.126,5.41,6.133
					c-0.12,2.044-1.683,6.974-13.707,7.214C317.675,226.773,312.865,226.533,308.657,226.172z"/>
			</g>
		</g>
	</g>
</g>
<g id="圖層_4" display="none">
	<rect x="600" y="-300" display="inline" fill="#B4EDBE" width="600" height="600"/>
	<g display="inline">
		<g>
			<g>
				<g>
					<g>
						<path fill="#FFFFFF" d="M895.071,210.421c0,0,17.795,4.449,7.574,15.511c-10.22,11.063-45.45,21.884-27.174,30.421
							c18.156,8.537,76.713,5.531,90.541-11.663c3.728-6.012-14.549-9.259-29.579-14.549c-15.15-5.171-8.177-18.518,0.48-22.846
							C939.919,205.972,895.071,210.421,895.071,210.421z"/>
					</g>
					<g>
						<path fill="#FFFFFF" d="M936.433,230.141c-15.15-5.171-8.177-18.518,0.48-22.846c2.886-1.443-41.843,3.006-41.843,3.006
							s11.783,3.006,10.701,9.979c6.132,12.746,47.735,10.101,30.06,30.181c-7.815,6.733-17.555,8.777-26.934,10.341
							c22.726-0.36,48.577-5.531,57.114-16.232C969.74,238.678,951.583,235.431,936.433,230.141z"/>
					</g>
				</g>
				<g>
					<g>
						<path fill="#FFFFFF" d="M1107.896-95.711c14.789,154.629-100.882,301.563-190.581,308.176S685.37,88.617,670.822-63.607
							c-9.979-105.691,79.6-198.637,200.32-207.535C991.743-280.04,1097.795-201.403,1107.896-95.711z"/>
					</g>
					<g>
						<path fill="#FFFFFF" d="M871.142-271.142c-31.142,2.284-60.12,10.22-85.972,22.485c17.314-5.291,35.592-8.898,54.71-10.221
							c120.601-8.897,206.332,78.517,216.433,184.208c12.265,128.056-51.103,244.569-124.089,284.73
							c87.055-20.321,189.619-159.56,175.672-305.772C1097.795-201.403,991.743-280.04,871.142-271.142z"/>
					</g>
					<g>
						<path fill="#FFFFFF" d="M716.273-130.221c28.377-76.954,91.743-102.324,141.644-101.843
							c49.899,0.481,23.086,25.491-13.468,36.433c-36.553,10.942-80.681,56.994-79.238,129.98
							C766.774,15.03,687.896-53.146,716.273-130.221z"/>
					</g>
				</g>
			</g>
			<g>
				<path fill="#FFFFFF" d="M908.657,226.172c-8.657-0.961-12.625-2.645-13.106-5.892c-0.722-3.728,4.088-5.651,5.651-6.252
					l0.962-0.361l2.404,0.241c3.607,0.36,16.232,1.563,24.409-0.481l1.804-0.12c3.126,0.36,5.531,3.126,5.41,6.133
					c-0.12,2.044-1.683,6.974-13.707,7.214C917.675,226.773,912.865,226.533,908.657,226.172z"/>
			</g>
		</g>
	</g>
</g>
<g id="圖層_5" display="none">
	<rect x="-600" y="300" display="inline" fill="#F087F9" width="1800" height="600"/>
</g>
<g id="圖層_6">
	<line fill="none" stroke="#FFFFFF" stroke-width="5.5827" stroke-miterlimit="10" x1="300" y1="996.5" x2="300" y2="344.156"/>
	<path fill="none" stroke="#FFFFFF" stroke-width="5.2781" stroke-miterlimit="10" d="M319.043,920.739"/>
	<path fill="none" stroke="#FFFFFF" stroke-width="5.2051" stroke-miterlimit="10" d="M-281.689,298.5
		c0,0-4.893,138.699-2.492,204.293c2.492,68.098,27.16,126.593,107.623,186.881c87.902,65.861,150.813,89.637,243.85,136.582
		c117.142,59.108,232.046,95.569,232.046,95.569"/>
	<path fill="none" stroke="#FFFFFF" stroke-width="5.1984" stroke-miterlimit="10" d="M879.533,298.5
		c0,0,4.882,138.699,2.487,204.293c-2.487,68.098-27.091,126.593-107.348,186.881c-87.676,65.861-150.426,89.637-243.223,136.582
		C414.609,885.364,300,921.825,300,921.825"/>
</g>
</svg>
