<?xml version="1.0" encoding="utf-8"?>
<!-- Generator: Adobe Illustrator 21.1.0, SVG Export Plug-In . SVG Version: 6.00 Build 0)  -->
<svg version="1.1" id="圖層_1" xmlns="http://www.w3.org/2000/svg" xmlns:xlink="http://www.w3.org/1999/xlink" x="0px" y="0px"
	 viewBox="0 0 213 451" style="enable-background:new 0 0 213 451;" xml:space="preserve">
<style type="text/css">
	.st0{fill:#9B9B9B;}
	.st1{fill:#49CADB;}
	.st2{fill:#35B2BC;}
	.st3{fill:#73E2EA;}
</style>
<g>
	<g>
		<path class="st0" d="M68.3,209.3l-3.6-2.3c-0.4,0.6-35.6,57-17.4,126.5c8.9,33.9-0.6,69.9-16.9,102.4c1.2,1.1,2.1,2.6,2.5,4.3
			c17.4-34,27.8-71.9,18.5-107.8C33.7,264.8,67.9,209.9,68.3,209.3z"/>
	</g>
	<g>
		<g>
			<g>
				<g>
					<path class="st1" d="M62.2,197.4c0,0,4.1,4.8-1.2,6.5c-5.3,1.7-17.8-1.5-14.4,4.8c3.4,6.3,20.8,16.4,28.5,13.4
						c2.4-1.3-2.1-5.8-5.3-10.4c-3.2-4.6,1.7-7.6,5.1-7.4C76,204.4,62.2,197.4,62.2,197.4z"/>
				</g>
				<g>
					<path class="st2" d="M69.8,211.7c-3.2-4.6,1.7-7.6,5.1-7.4c1.1,0.1-12.7-7-12.7-7s2.8,3.2,0.9,5.3c-1,5.3,11.5,12.4,2.1,15.6
						c-3.7,0.7-7-0.5-10-1.7c6.6,4.2,15.1,7.4,19.9,5.6C77.5,220.8,73,216.3,69.8,211.7z"/>
				</g>
			</g>
			<g>
				<g>
					<path class="st1" d="M189.5,137.6c-29.3,53.4-94.3,79.5-121.4,64.7C41,187.5,28.5,117.8,57.3,65.2
						c20-36.5,65.8-49.9,102.4-29.9C196.1,55.3,209.5,101.1,189.5,137.6z"/>
				</g>
				<g>
					<path class="st2" d="M159.6,35.3c-9.4-5.2-19.5-8.1-29.5-9c6.1,1.5,12.1,3.9,17.9,7c36.5,20,42.2,64.9,22.2,101.4
						c-24.2,44.2-67.6,70.3-97.2,69.6c29.4,9.9,88.9-16.2,116.6-66.7C209.5,101.1,196.1,55.3,159.6,35.3z"/>
				</g>
				<g>
					<path class="st3" d="M84.7,52c24.8-19.8,48.5-16.1,62.7-6.4c14.2,9.6,1.1,12.7-11.7,9.4c-12.9-3.4-35.5,3.3-50.9,27.5
						C67.7,109.1,59.9,71.9,84.7,52z"/>
				</g>
			</g>
		</g>
		<g>
			<path class="st0" d="M68.8,210.2c-0.8-0.1-1.8-0.5-2.9-1.2c-2.2-1.3-7.1-4.7-6.3-6.9c0.3-0.9,1.2-1.2,2.6-1l0.5,0.1l0.2,0.2
				c0,0,4.2,3.7,7.5,4.8c0.8,0.3,1.3,1.3,1,2.3C71.3,209.5,70.4,210.4,68.8,210.2z M62.7,204c0.9,0.9,2.5,2.1,4.4,3.3
				c1.4,0.9,2.1,0.9,2.3,0.9C66.8,207.2,64.1,205.2,62.7,204z"/>
		</g>
	</g>
</g>
</svg>
