<?xml version="1.0" encoding="utf-8"?>
<!-- Generator: Adobe Illustrator 21.1.0, SVG Export Plug-In . SVG Version: 6.00 Build 0)  -->
<svg version="1.1" id="圖層_1" xmlns="http://www.w3.org/2000/svg" xmlns:xlink="http://www.w3.org/1999/xlink" x="0px" y="0px"
	 viewBox="0 0 327 659" style="enable-background:new 0 0 327 659;" xml:space="preserve">
<style type="text/css">
	.st0{fill:#91A8B7;}
</style>
<g>
	<g>
		<path class="st0" d="M277.3,635c-11.1-55.1-43-105-71-148.9c-8.3-13-16.2-25.3-23.3-37.4c-51-86-32.3-139.6-32.1-140.1l-5.2-1.9
			c-0.8,2.3-20,56.4,32.5,144.9c7.2,12.2,15.1,24.5,23.4,37.5c28.3,44.2,58.6,91.6,69.9,143.4C273.6,632.8,275.6,633.6,277.3,635z"
			/>
	</g>
	<g>
		<g>
			<g>
				<g>
					<path class="st0" d="M139.1,292.8c0,0,8.3,3.8,2.4,9.2c-5.9,5.4-24,8.8-15.8,14.9c8.2,6.1,36.9,8.7,45.1,0.3
						c2.3-3.1-6.3-6.3-13.2-10.3c-6.9-4-2.4-10.9,2.2-12.6C161.3,293.6,139.1,292.8,139.1,292.8z"/>
				</g>
				<g>
					<path class="st0" d="M157.6,306.9c-6.9-4-2.4-10.9,2.2-12.6c1.5-0.6-20.7-1.4-20.7-1.4s5.5,2.5,4.4,6.4
						c1.9,7.5,22.4,9.1,12.1,19c-4.4,3.2-9.3,3.6-14,3.8c11.1,1.5,24.1,0.5,29.2-4.8C173,314.1,164.5,310.9,157.6,306.9z"/>
				</g>
			</g>
			<g>
				<g>
					<path class="st0" d="M268.6,138.3c-5.8,87.1-74.6,160.2-118.9,157.3c-44.2-3-102.5-86-96.8-171.7
						c4-59.6,55.5-104.6,115.1-100.6C227.6,27.2,272.6,78.8,268.6,138.3z"/>
				</g>
				<g>
					<path class="st0" d="M168,23.2c-15.4-1-30.2,1.2-43.8,6.1c8.9-1.7,18.1-2.3,27.5-1.7c59.6,4,94,59,90,118.5
						c-4.8,72.1-45.5,132.2-84.5,149.1c44.1-4.9,105.9-74.7,111.4-157.1C272.6,78.8,227.6,27.2,168,23.2z"/>
				</g>
				<g>
					<path class="st0" d="M80.7,90.2C101,49.4,134,40.1,158.3,44c24.3,3.9,9.1,15.9-9.6,19.3c-18.7,3.4-44.1,25.7-49.6,66.5
						C93.1,174.7,60.3,130.9,80.7,90.2z"/>
				</g>
			</g>
		</g>
		<g>
			<path class="st0" d="M151.1,302.5L151.1,302.5c-2.8-0.4-12-1.7-12.3-5c-0.2-1.9,2.2-2.6,3-2.9l0.4-0.1l0.4,0.1
				c0,0,3.8,1.2,7.7,1.6c2,0.2,3.6,0.3,5,0.1l0.4,0c1.3,0.2,2.3,1.7,2.2,3.2c-0.1,1.1-0.9,2-2.1,2.5
				C154.8,302.6,153.2,302.7,151.1,302.5z M142.2,297.4c1.4,0.7,4.9,1.8,9.3,2.3l-0.1,1.4l0.2-1.4c2.7,0.3,3.6-0.2,3.7-0.5
				c0,0,0-0.1,0-0.1c-1.3,0.1-3.1,0.1-5.2-0.2C146.6,298.5,143.4,297.7,142.2,297.4C142.2,297.4,142.2,297.4,142.2,297.4z"/>
		</g>
	</g>
</g>
</svg>
