<?xml version="1.0" encoding="utf-8"?>
<!-- Generator: Adobe Illustrator 16.0.0, SVG Export Plug-In . SVG Version: 6.00 Build 0)  -->
<!DOCTYPE svg PUBLIC "-//W3C//DTD SVG 1.1//EN" "http://www.w3.org/Graphics/SVG/1.1/DTD/svg11.dtd">
<svg version="1.1" id="圖層_1" xmlns="http://www.w3.org/2000/svg" xmlns:xlink="http://www.w3.org/1999/xlink" x="0px" y="0px"
	 width="558px" height="892.5px" viewBox="4.5 -2 558 892.5" enable-background="new 4.5 -2 558 892.5" xml:space="preserve">
<g display="none">
	
		<rect x="44.45" y="-1.273" display="inline" fill="#FF00FF" stroke="#FFFFFF" stroke-width="0.7417" stroke-miterlimit="10" width="481.599" height="903.045"/>
	<path display="inline" stroke="#FFFFFF" stroke-width="0.7417" stroke-miterlimit="10" d="M525.601-0.546v901.775H44.9V-0.546
		H525.601 M526.5-2H44v904.5h482.5V-2L526.5-2z"/>
</g>
<g>
	<g>
		<g>
			<g>
				<g>
					<path fill="#FFFFFF" d="M334.471,490.195c0,0,18.297,1.292,10.152,13.959c-8.144,12.67-40.96,29.444-21.479,34.679
						c19.364,5.254,76.509-7.874,87.142-27.208c2.625-6.568-15.937-6.592-31.657-9.191c-15.818-2.462-11.268-16.816-3.494-22.584
						C377.865,478.026,334.471,490.195,334.471,490.195z"/>
				</g>
				<g>
					<path fill="#FFFFFF" d="M378.629,502.434c-15.818-2.462-11.268-16.816-3.494-22.584c2.591-1.92-40.685,10.227-40.685,10.227
						s12.125,0.916,12.271,7.971c8.252,11.488,48.764,1.658,34.843,24.502c-6.526,7.99-15.764,11.693-24.729,14.861
						c22.318-4.301,46.879-13.883,53.429-25.902C412.911,505.057,394.468,505.012,378.629,502.434z"/>
				</g>
			</g>
			<g>
				<g>
					<path fill="#FFFFFF" d="M490.905,151.757c41.414,149.711-46.984,314.5-134.173,336.589
						c-87.188,22.089-249.926-81.689-290.688-229.076C37.863,156.918,109.942,49.829,227.282,20.104
						C344.507-9.601,462.603,49.425,490.905,151.757z"/>
				</g>
				<g>
					<path fill="#FFFFFF" d="M227.282,20.104c-30.271,7.657-57.431,20.504-80.761,37.072c16.134-8.218,33.506-14.943,52.104-19.566
						C315.849,7.906,415.457,79.105,443.759,181.437c34.313,123.982-7.858,249.727-72.762,301.952
						c82.204-35.127,159.032-190.063,119.907-331.631C462.603,49.425,344.507-9.601,227.282,20.104z"/>
				</g>
				<g>
					<path fill="#FFFFFF" d="M99.238,185.777c14.583-80.712,72.581-116.701,121.808-124.893
						c49.224-8.191,27.161,21.096-6.937,38.218c-34.098,17.124-69.559,70.139-55.464,141.766
						C174.194,320.053,84.675,266.608,99.238,185.777z"/>
				</g>
			</g>
		</g>
		<g>
			<path fill="#FFFFFF" d="M350.586,503.349c-8.692,0.556-12.892-0.412-13.93-3.526c-1.357-3.547,3.044-6.275,4.48-7.139
				l0.884-0.523l2.409-0.18c3.616-0.271,16.257-1.281,23.955-4.713l1.755-0.432c3.142-0.188,5.99,2.119,6.394,5.102
				c0.236,2.033-0.446,7.158-12.246,9.483C359.573,502.375,354.793,502.974,350.586,503.349z"/>
		</g>
	</g>
</g>
<linearGradient id="SVGID_1_" gradientUnits="userSpaceOnUse" x1="359.6096" y1="517.1494" x2="359.6096" y2="879.4375">
	<stop  offset="0" style="stop-color:#FFFFFF"/>
	<stop  offset="1" style="stop-color:#FFFFFF;stop-opacity:0.5"/>
</linearGradient>
<path fill="none" stroke="url(#SVGID_1_)" stroke-width="4.8451" stroke-miterlimit="10" d="M360.485,518.653
	c0,0,52.32,66.08-0.832,150.986S358.5,878.5,358.5,878.5"/>
</svg>
