<svg xmlns="http://www.w3.org/2000/svg" viewBox="0 0 61.2 108.94"><defs><style>.cls-1{fill:#202a48;}.cls-2{fill:#ff9076;}.cls-3{fill:#c69566;}.cls-4{fill:#ffefd9;}.cls-5{opacity:0.15;}.cls-6{fill:#7c7c7c;}.cls-7{opacity:0.25;}.cls-8{fill:#f4c88a;}.cls-9{opacity:0.2;}.cls-10{opacity:0.4;}.cls-11{fill:#fff;}.cls-12{opacity:0.3;}</style></defs><title>資產 2</title><g id="圖層_2" data-name="圖層 2"><g id="圖層_9" data-name="圖層 9"><path class="cls-1" d="M15.8,91.18S11.58,76.43,9,66.9,2.75,42.49,2.75,42.49c-.13-.51.38-.63.53-.14,0,0,4.22,14.74,6.78,24.27S16.34,91,16.34,91C16.42,91.55,16,91.66,15.8,91.18Z"/><path class="cls-1" d="M18.29,91.28S16,80.54,14.75,73.6s-3-17.78-3-17.78a.28.28,0,0,1,.55-.1s2.24,10.74,3.53,17.68,3,17.78,3,17.78A.27.27,0,1,1,18.29,91.28Z"/><path class="cls-1" d="M43,91.32s3-13,5.11-21.28,5.61-21.16,5.61-21.16c.13-.45.63-.3.54.13,0,0-3,13-5.11,21.29s-5.61,21.16-5.61,21.16C43.42,91.89,43,91.77,43,91.32Z"/><path class="cls-1" d="M40.56,91.39s1.57-10.24,2.74-16.81,3.24-16.71,3.24-16.71a.27.27,0,0,1,.54.1s-1.56,10.24-2.73,16.8-3.24,16.72-3.24,16.72A.28.28,0,0,1,40.56,91.39Z"/><path class="cls-2" d="M60.55,36.88a40.15,40.15,0,0,1-7.44,15.71c-1,1.31-2,2.58-3.12,3.81-.36.4-.72.79-1.09,1.18-.15.16-.29.31-.45.46-.64.67-1.32,1.32-2,2-1.47,1.39-3,2.73-4.63,4l-1,.82-.15.13c-2,1.63-4,3.26-5.92,4.93-1.15,1-2.27,2-3.32,3-.49.47-1,1-1.42,1.43l-.57-.58c-1-1-2-2-3-2.95-1.91-1.82-3.87-3.58-5.83-5.34C18,63.09,15.26,60.65,12.74,58l-.39-.41,0-.05A51.74,51.74,0,0,1,4,46.15C-.4,37.67-1.72,28.06,2.85,18.33a26,26,0,0,1,3.76-5.69h0a40.79,40.79,0,0,1,11-9A30.76,30.76,0,0,1,25,.62,22.15,22.15,0,0,1,28,.09,15.75,15.75,0,0,1,30.6,0a19.06,19.06,0,0,1,5.49.56,31.16,31.16,0,0,1,7.46,3h0a41.54,41.54,0,0,1,8.21,6.05,37.12,37.12,0,0,1,2.81,3h0a26,26,0,0,1,3.76,5.69A28.8,28.8,0,0,1,60.55,36.88Z"/><path class="cls-3" d="M47.36,91.72a58.71,58.71,0,0,1-1,9.8c-.74,3.23-2.09,6-4.65,6.88a12.16,12.16,0,0,1-4.37.54H23.9a12.16,12.16,0,0,1-4.37-.54c-3.9-1.39-5-7-5.42-12.18-.12-1.51-.19-3-.26-4.3a1.34,1.34,0,0,0,0-.2H47.36Z"/><path class="cls-4" d="M35.64,62.32c-.31,2.71-.6,5.28-.89,7.61-1.15,1-2.27,2-3.32,3-.49.47-1,1-1.42,1.43l-.57-.58c-1-1-2-2-3-2.95-.55-4.55-1.19-10.05-1.82-15.83-1.5-14-2.87-29.57-2.53-36.84A78.76,78.76,0,0,1,23.91,4,29.24,29.24,0,0,1,25,.62,22.15,22.15,0,0,1,28,.09,15.75,15.75,0,0,1,30.6,0a19.06,19.06,0,0,1,5.49.56C38.18,5.92,38.57,12.08,39,18.2,39.39,26.77,37.41,46.86,35.64,62.32Z"/><path class="cls-4" d="M20.63,65.53C18,63.09,15.26,60.65,12.74,58c-4-10.55-9.26-22.11-8.48-33.48A39,39,0,0,1,6.61,12.64h0a40.79,40.79,0,0,1,11-9c-3.68,6.11-5,13.5-5,21.16C12.45,39,18.11,51.94,20.63,65.53Z"/><path class="cls-4" d="M55.52,37.84C54.1,43.53,52,50.51,50,56.4c-.36.4-.72.79-1.09,1.18-.15.16-.29.31-.45.46-.64.67-1.32,1.32-2,2-1.47,1.39-3,2.73-4.63,4l-1,.82c0-.5,0-.91.08-1,1.8-8.83,4.79-17.42,6.44-26.31a64.23,64.23,0,0,0,1.2-12.75,47.14,47.14,0,0,0-2.3-15.39,30.35,30.35,0,0,0-2.68-5.78,41.54,41.54,0,0,1,8.21,6.05,37.12,37.12,0,0,1,2.81,3h0a39,39,0,0,1,2.35,11.92A42.91,42.91,0,0,1,55.52,37.84Z"/><g class="cls-5"><path class="cls-6" d="M41.81,64.05l-1.14,1c-2,1.63-4,3.26-5.92,4.93-1.15,1-2.27,2-3.32,3-.49.47-1,1-1.42,1.43l-.57-.58c-1-1-2-2-3-2.95-1.91-1.82-3.87-3.58-5.83-5.34C18,63.09,15.26,60.65,12.74,58l-.44-.46C2.27,47-3.94,32.79,2.85,18.33a26,26,0,0,1,3.76-5.69h0a40.79,40.79,0,0,1,11-9A30.76,30.76,0,0,1,25,.62,22.15,22.15,0,0,1,28,.09,27.21,27.21,0,0,0,23.91,4C12.23,17.53,13.67,41.62,24.64,55c.48.58,1,1.15,1.49,1.69,2.22,2.43,5.73,4.26,9.51,5.59a50.58,50.58,0,0,0,5.26,1.52c.28.07.56.14.85.19Z"/></g><g class="cls-7"><path class="cls-6" d="M46.32,101.52c-.74,3.23-2.09,6-4.65,6.88a12.16,12.16,0,0,1-4.37.54H23.9a12.16,12.16,0,0,1-4.37-.54c-3.9-1.39-5-7-5.42-12.18-.12-1.51-.19-3-.26-4.3a1.34,1.34,0,0,0,0-.2H25.63C18.16,102.74,34.45,111.71,46.32,101.52Z"/></g><path class="cls-8" d="M47.28,94.46c-.83,4.9-5.53,5.89-8.73,4.3a5.12,5.12,0,0,1-3-4.43c-.05.17-.09.35-.15.51a6.15,6.15,0,0,1-.45,1c-2.29,4.46-8.24,4.26-10.39,1a4.63,4.63,0,0,1-.68-1.61c-1.81,5-8,4.93-9.74,1a6.6,6.6,0,0,1-.26-4.3,1.94,1.94,0,0,1,.05-.2h0a0,0,0,0,0,0,0,5.84,5.84,0,0,0,.38.65h0c2.66,4.07,7.85,4,9.7-.66h.39a8.33,8.33,0,0,0,.59,1c2.85,4,8.59,3.91,10.76-1h.36c2.41,5,8.52,5.32,10.74,0,0,0,.16,0,.29,0h.15s.08,0,.08,0v.06A10.16,10.16,0,0,1,47.28,94.46Z"/><g class="cls-9"><path class="cls-6" d="M24.39,91.72a8.33,8.33,0,0,0,.59,1,7.59,7.59,0,0,0-.66,2.73,14.06,14.06,0,0,0,.21,1.45,4.63,4.63,0,0,1-.68-1.61c-1.81,5-8,4.93-9.74,1a6.6,6.6,0,0,1-.26-4.3,1.94,1.94,0,0,1,.05-.2h0a0,0,0,0,0,0,0,5.84,5.84,0,0,0,.38.65h0c2.66,4.07,7.85,4,9.7-.66Z"/></g><g class="cls-10"><path class="cls-11" d="M47.18,91.28c0,.11,0,.21,0,.32l-.32-.32Z"/></g><g class="cls-12"><path class="cls-11" d="M47.28,94.46c-2,2.61-4.87,2.43-7.82,1.9a5.19,5.19,0,0,1-3.7-4.64h.34c2.41,5,8.52,5.32,10.74,0,0,0,.16,0,.29,0h.15s.08,0,.08,0v.06A10.16,10.16,0,0,1,47.28,94.46Z"/></g></g></g></svg>